<svg width="248" height="51" viewBox="0 0 248 51" fill="none" xmlns="http://www.w3.org/2000/svg">
<path d="M1.85321 33.422L6.03075 31.1304L5.25916 29.8105C5.25916 29.8105 4.9076 29.0919 5.82072 28.6308L16.7554 22.4926L19.4217 26.416C19.6103 26.6391 19.7018 26.9272 19.6761 27.217C19.6504 27.5068 19.5097 27.7747 19.2847 27.9619C19.2074 28.0239 19.1231 28.077 19.0336 28.1201L8.29986 34.091C8.29986 34.091 4.57888 35.899 5.88008 39.4743L11.8747 50.2094L31.8766 39.1173L29.0003 34.1452L13.2444 43.2621L11.2675 39.7862C11.2675 39.7862 10.5644 38.9862 11.7241 38.3263L22.2843 32.4909C22.2843 32.4909 26.1422 30.6513 24.2475 25.616L19.8965 18.6687C19.8965 18.6687 17.3032 16.133 14.4178 17.6607C11.5323 19.1885 1.61124 24.7843 1.61124 24.7843C1.61124 24.7843 -0.986592 27.32 0.415049 30.4117L1.85321 33.422Z" fill="white"/>
<path d="M44.9267 0.000146035L21.5312 13.3726L25.0399 19.3891L48.4353 6.01666L44.9267 0.000146035Z" fill="#FACE15"/>
<path d="M44.1257 13.4957L28.0293 22.6962L31.1248 28.0042L47.2212 18.8037L44.1257 13.4957Z" fill="#FACE15"/>
<path d="M41.9941 26.7659L33.248 31.7651L35.7203 36.0044L44.4664 31.0053L41.9941 26.7659Z" fill="#FACE15"/>
<path d="M62.1469 4.08685H60.6631V42.3895H62.1469V4.08685Z" fill="white"/>
<path d="M89.3015 8.29531C84.9733 8.29531 81.5628 9.66788 79.07 12.413C76.5771 15.1582 75.3338 18.9249 75.3399 23.7131C75.3399 28.5947 76.5132 32.384 78.8599 35.0809C81.2067 37.7779 84.5548 39.1339 88.9043 39.149C91.6067 39.1773 94.2982 38.8056 96.8895 38.0461V40.1524C94.6067 40.9479 91.7547 41.3457 88.3336 41.3457C83.4849 41.3457 79.665 39.7938 76.8739 36.6901C74.0828 33.5863 72.6888 29.2501 72.6918 23.6814C72.6263 20.505 73.3094 17.3572 74.687 14.4877C75.9415 11.9212 77.9414 9.78386 80.4305 8.34955C83.0838 6.86721 86.0912 6.11935 89.1371 6.18446C92.2583 6.13137 95.3518 6.77078 98.1907 8.05574L97.2502 10.1892C94.7882 8.9472 92.0647 8.2983 89.3015 8.29531Z" fill="white"/>
<path d="M121.253 28.7665H107.219L102.397 40.8395H99.7266L113.62 6.48737H115.158L128.768 40.8395H126.052L121.253 28.7665ZM108.091 26.615H120.45L115.747 14.2844C115.355 13.3171 114.88 11.9747 114.332 10.2616C113.945 11.6428 113.478 13.001 112.935 14.3296L108.091 26.615Z" fill="white"/>
<path d="M154.454 16.4582C154.454 19.7728 153.32 22.3086 151.053 24.0654C148.785 25.8221 145.571 26.702 141.41 26.705H136.059V40.8391H133.648V6.63617H142.109C150.342 6.63617 154.457 9.91017 154.454 16.4582ZM136.059 24.653H140.812C144.702 24.653 147.513 24.0171 149.245 22.7455C150.976 21.4739 151.844 19.4112 151.847 16.5576C151.847 13.9239 151.027 11.9653 149.386 10.6816C147.746 9.3979 145.21 8.76209 141.78 8.77414H136.059V24.653Z" fill="white"/>
<path d="M161.97 40.8391V6.63617H164.367V40.8391H161.97Z" fill="white"/>
<path d="M183.167 40.8395H180.734V8.88293H169.507V6.62292H194.389V8.88293H183.167V40.8395Z" fill="white"/>
<path d="M228.558 40.8391V6.63617H230.968V38.5927H247.459V40.8527L228.558 40.8391Z" fill="white"/>
<path d="M210.06 6.49609H208.521L194.628 40.8392H197.299L209.233 10.2613L220.953 40.8392H223.67L210.06 6.49609Z" fill="#FACE15"/>
</svg>
