<svg width="224" height="111" viewBox="0 0 224 111" fill="none" xmlns="http://www.w3.org/2000/svg">
<path d="M0 10C0 4.47715 4.47715 0 10 0H214C219.523 0 224 4.47715 224 10V101C224 106.523 219.523 111 214 111H10C4.47715 111 0 106.523 0 101V10Z" fill="white" fill-opacity="0.1"/>
<path d="M76.8468 78H29.9833C28.3438 78 27.0098 76.666 27.0098 75.0265V35.9735C27.0098 34.334 28.3438 33 29.9833 33H76.8468C78.4863 33 79.8203 34.334 79.8203 35.9735V75.0265C79.8203 76.666 78.4965 78 76.8468 78Z" fill="#4375BA"/>
<path d="M73.9042 33H33.9246C30.1059 33 27 36.0957 27 39.9246V72.0835C34.1589 68.8147 43.5784 63.6314 53.2933 55.5051C62.7943 47.5418 69.4541 39.3747 73.9042 33Z" fill="#5393CE"/>
<path d="M49.4025 61.656H35.6143L32.6408 68.265H29.9219L41.2355 43.5195H43.8119L55.1255 68.265H52.3658L49.4025 61.656ZM48.4453 59.5277L42.5084 46.2385L36.5614 59.5277H48.4453Z" fill="white"/>
<path d="M75.4938 42.0327V68.2649H73.0905V64.5887C71.5732 67.0938 68.9867 68.438 65.9113 68.438C60.6058 68.438 56.6445 64.5887 56.6445 58.9675C56.6445 53.3464 60.6058 49.5276 65.9113 49.5276C68.8848 49.5276 71.4307 50.8005 72.9785 53.2038V42.0327H75.4938ZM73.0193 58.9675C73.0193 54.6193 70.0457 51.717 66.1252 51.717C62.1639 51.717 59.2005 54.6193 59.2005 58.9675C59.2005 63.3158 62.1741 66.2181 66.1252 66.2181C70.0457 66.2079 73.0193 63.3158 73.0193 58.9675Z" fill="white"/>
<path d="M103.934 43.5195V68.265H101.775L85.8691 48.1835V68.265H83.252V43.5195H85.4108L101.358 63.601V43.5195H103.934Z" fill="#F47920"/>
<path d="M126.237 59.7412H110.687C110.972 63.6312 113.935 66.2076 118.009 66.2076C120.269 66.2076 122.285 65.3929 123.701 63.7636L125.116 65.3929C123.457 67.3685 120.87 68.4377 117.937 68.4377C112.143 68.4377 108.182 64.4764 108.182 58.9673C108.182 53.4479 112.031 49.5273 117.265 49.5273C122.499 49.5273 126.277 53.3766 126.277 58.9673C126.277 59.1811 126.237 59.4561 126.237 59.7412ZM110.687 57.8675H123.874C123.558 54.2218 120.901 51.676 117.265 51.676C113.65 51.6862 111.002 54.232 110.687 57.8675Z" fill="#F47920"/>
<path d="M146.023 49.6699V68.2646H143.619V64.8736C142.316 67.1343 139.903 68.4479 136.939 68.4479C132.204 68.4479 129.088 65.8003 129.088 60.4541V49.6699H131.593V60.2096C131.593 64.1709 133.64 66.1872 137.184 66.1872C141.074 66.1872 143.507 63.6822 143.507 59.4357V49.6801H146.023V49.6699Z" fill="#F47920"/>
<path d="M167.621 77.6225C170.017 77.6225 171.959 75.6802 171.959 73.2844C171.959 70.8885 170.017 68.9463 167.621 68.9463C165.225 68.9463 163.283 70.8885 163.283 73.2844C163.283 75.6802 165.225 77.6225 167.621 77.6225Z" fill="#4375BA"/>
<path d="M152.846 50.0878C155.242 50.0878 157.184 48.1456 157.184 45.7497C157.184 43.3538 155.242 41.4116 152.846 41.4116C150.45 41.4116 148.508 43.3538 148.508 45.7497C148.508 48.1456 150.45 50.0878 152.846 50.0878Z" fill="#4375BA"/>
<path d="M182.518 71.0956C184.914 71.0956 186.856 69.1534 186.856 66.7575C186.856 64.3617 184.914 62.4194 182.518 62.4194C180.122 62.4194 178.18 64.3617 178.18 66.7575C178.18 69.1534 180.122 71.0956 182.518 71.0956Z" fill="#4375BA"/>
<path d="M167.621 42.0531C170.017 42.0531 171.959 40.1109 171.959 37.715C171.959 35.3192 170.017 33.377 167.621 33.377C165.225 33.377 163.283 35.3192 163.283 37.715C163.283 40.1109 165.225 42.0531 167.621 42.0531Z" fill="#4375BA"/>
<path d="M168.1 41.5234H167.133V69.2322H168.1V41.5234Z" fill="#4375BA"/>
<path d="M181.611 64.7716L180.776 65.9936L155.135 48.6922L155.97 47.46L181.611 64.7716Z" fill="#4375BA"/>
<path d="M181.205 49.5277C183.601 49.5277 185.543 47.5855 185.543 45.1896C185.543 42.7938 183.601 40.8516 181.205 40.8516C178.809 40.8516 176.867 42.7938 176.867 45.1896C176.867 47.5855 178.809 49.5277 181.205 49.5277Z" fill="#4375BA"/>
<path d="M152.997 71.5032C155.533 71.5032 157.59 69.447 157.59 66.9106C157.59 64.3741 155.533 62.3179 152.997 62.3179C150.461 62.3179 148.404 64.3741 148.404 66.9106C148.404 69.447 150.461 71.5032 152.997 71.5032Z" fill="#4375BA"/>
<path d="M154.83 67.3892L153.883 66.2385L177.742 46.5542L178.679 47.7049L154.83 67.3892Z" fill="#4375BA"/>
<path d="M167.693 67.5822C172.665 67.5822 176.695 63.5518 176.695 58.5802C176.695 53.6085 172.665 49.5781 167.693 49.5781C162.722 49.5781 158.691 53.6085 158.691 58.5802C158.691 63.5518 162.722 67.5822 167.693 67.5822Z" fill="#4375BA"/>
<path d="M167.694 65.4439C171.484 65.4439 174.557 62.371 174.557 58.5803C174.557 54.7897 171.484 51.7168 167.694 51.7168C163.903 51.7168 160.83 54.7897 160.83 58.5803C160.83 62.371 163.903 65.4439 167.694 65.4439Z" fill="white"/>
<path d="M197.061 57.4805V68.2646H194.556V57.7249C194.556 53.8043 192.509 51.788 188.965 51.788C184.973 51.788 182.458 54.2626 182.458 58.509V68.2646H179.953V49.6699H182.356V53.1017C183.701 50.841 186.206 49.5273 189.424 49.5273C193.945 49.5273 197.061 52.1444 197.061 57.4805Z" fill="#F47920"/>
<path d="M197.651 68.8551H193.954V57.7247C193.954 54.2217 192.223 52.3785 188.965 52.3785C185.258 52.3785 183.048 54.6697 183.048 58.4986V68.8449H179.352V49.0689H182.936V51.3602C184.484 49.7817 186.724 48.9365 189.413 48.9365C194.565 48.9365 197.641 52.1341 197.641 57.4803V68.8551H197.651ZM195.136 67.6738H196.459V57.4803C196.459 52.8062 193.893 50.1178 189.413 50.1178C186.439 50.1178 184.107 51.2787 182.855 53.3968L181.755 55.2502V50.2604H180.533V67.6738H181.857V58.5088C181.857 53.9976 184.576 51.1972 188.954 51.1972C192.885 51.1972 195.136 53.5801 195.136 57.7247V67.6738Z" fill="white"/>
<path d="M197.061 57.4805V68.2646H194.556V57.7249C194.556 53.8043 192.509 51.788 188.965 51.788C184.973 51.788 182.458 54.2626 182.458 58.509V68.2646H179.953V49.6699H182.356V53.1017C183.701 50.841 186.206 49.5273 189.424 49.5273C193.945 49.5273 197.061 52.1444 197.061 57.4805Z" fill="#F47920"/>
<path d="M159.118 49.5273V51.9713C158.904 51.9713 158.691 51.9408 158.517 51.9408C154.627 51.9408 152.265 54.4153 152.265 58.7941V68.2646H149.76V49.6699H152.163V53.3155C153.314 50.8308 155.686 49.5273 159.118 49.5273Z" fill="#F47920"/>
<path d="M152.845 68.8551H149.148V49.0791H152.733V51.35C154.169 49.7614 156.338 48.9365 159.108 48.9365H159.698V52.5618H159.108C158.975 52.5618 158.843 52.5516 158.731 52.5414C158.649 52.5312 158.578 52.5312 158.507 52.5312C154.902 52.5312 152.845 54.8123 152.845 58.794V68.8551ZM150.34 67.6738H151.664V58.794C151.664 54.13 154.22 51.3398 158.517 51.3398H158.527V50.1382C155.666 50.2705 153.7 51.4314 152.692 53.5699L151.562 55.963V50.2604H150.34V67.6738Z" fill="white"/>
<path d="M159.118 49.5273V51.9713C158.904 51.9713 158.691 51.9408 158.517 51.9408C154.627 51.9408 152.265 54.4153 152.265 58.7941V68.2646H149.76V49.6699H152.163V53.3155C153.314 50.8308 155.686 49.5273 159.118 49.5273Z" fill="#F47920"/>
</svg>
