<svg width="224" height="111" viewBox="0 0 224 111" fill="none" xmlns="http://www.w3.org/2000/svg">
<path d="M0 10C0 4.47715 4.47715 0 10 0H214C219.523 0 224 4.47715 224 10V101C224 106.523 219.523 111 214 111H10C4.47715 111 0 106.523 0 101V10Z" fill="white" fill-opacity="0.1"/>
<path d="M62.0898 38.3354H69.1235V65.8138H62.0898V38.3354Z" fill="#3E67AF"/>
<path d="M94.3119 55.7822C94.3119 62.1521 89.9025 66.1495 84.4633 66.1495C82.1289 66.1495 80.2447 65.4477 78.8715 64.0364V73H71.8379V45.7429H78.5435V47.7416C79.8785 46.1472 81.839 45.4072 84.4709 45.4072C89.9025 45.4149 94.3119 49.4123 94.3119 55.7822ZM87.202 55.7822C87.202 52.746 85.3482 51.0067 82.9833 51.0067C80.6185 51.0067 78.7647 52.746 78.7647 55.7822C78.7647 58.8184 80.6185 60.5577 82.9833 60.5577C85.3482 60.5577 87.202 58.8184 87.202 55.7822Z" fill="#3E67AF"/>
<path d="M117.083 54.3327V65.8138H110.049V55.4846C110.049 52.5934 108.791 51.3728 106.754 51.3728C104.496 51.3728 102.756 52.7765 102.756 56.1102V65.8138H95.7227V38.3354H102.756V47.5966C104.313 46.1548 106.426 45.4148 108.791 45.4148C113.497 45.4148 117.083 48.1154 117.083 54.3327Z" fill="#3E67AF"/>
<path d="M138.458 54.6686V65.814H131.905V63.2203C130.906 65.1427 128.907 66.1497 125.978 66.1497C121.164 66.1497 118.494 63.4491 118.494 59.9629C118.494 56.263 121.195 53.9667 127.42 53.9667H131.417C131.303 51.9299 129.937 50.7856 127.16 50.7856C125.238 50.7856 123.087 51.4493 121.713 52.5249L119.341 47.7494C121.637 46.2313 125.047 45.415 128.19 45.415C134.713 45.415 138.458 48.2987 138.458 54.6686ZM131.417 59.3755V57.6361H128.381C126.123 57.6361 125.307 58.4524 125.307 59.673C125.307 60.8554 126.268 61.7098 127.938 61.7098C129.495 61.7098 130.868 60.9698 131.417 59.3755Z" fill="#3E67AF"/>
<path d="M148.718 46.4831H153.493V51.7392H148.901V65.814H141.867V51.7392H138.945V46.4831H141.867V45.9643C141.867 41.1506 144.865 38 150.236 38C151.937 38 153.753 38.3357 154.904 39.0375L153.165 43.9961C152.57 43.6605 151.792 43.4011 151.052 43.4011C149.572 43.4011 148.718 44.2555 148.718 46.033V46.4831Z" fill="#F79D1F"/>
<path d="M152.754 55.7442C152.754 49.71 157.529 45.415 164.082 45.415C170.712 45.415 175.419 49.71 175.419 55.7442C175.419 61.8166 170.712 66.1497 164.082 66.1497C157.529 66.1497 152.754 61.8166 152.754 55.7442ZM168.309 55.7442C168.309 52.708 166.493 51.0068 164.082 51.0068C161.71 51.0068 159.864 52.708 159.864 55.7442C159.864 58.8186 161.718 60.5579 164.082 60.5579C166.493 60.5579 168.309 58.8186 168.309 55.7442Z" fill="#F79D1F"/>
<path d="M183.514 51.6021L187.679 55.6986L191.798 59.7571V67.6069L183.674 59.6732L176.213 66.9966V59.5511L180.546 54.8366L183.514 51.6021Z" fill="#F79D1F"/>
<path d="M176.975 53.2115V45.4531L183.123 51.1593L179.294 55.3398L176.975 53.2115Z" fill="#F79D1F"/>
<path d="M195.375 47.3449L189.143 53.9665L188.067 55.1795L184.047 51.2355L195.375 38.3354V47.3449Z" fill="#F79D1F"/>
<path d="M48.8757 52.8151C49.013 52.3802 49.1503 51.9454 49.2876 51.5105C49.608 50.4654 49.9284 49.4203 50.2412 48.3752C50.4701 47.6352 50.6989 46.9029 50.9202 46.1629C51.0041 45.8882 51.1414 45.7891 51.4618 45.7891C52.7511 45.7891 54.0327 45.7891 55.3219 45.7814C55.3753 45.7814 55.4363 45.7814 55.5126 45.7814C55.4974 45.8577 55.4821 45.9188 55.4592 45.9798C54.9786 47.4597 54.498 48.9473 54.0174 50.4273C53.5521 51.8691 53.0867 53.3033 52.6214 54.7451C52.2247 55.9504 51.828 57.1634 51.4389 58.3687C51.3092 58.773 51.1948 59.185 51.1033 59.5969C51.0041 60.047 51.088 60.4895 51.1872 60.9319C51.3779 61.7863 51.6449 62.6179 52.0874 63.396C52.3696 63.8918 52.6977 64.3648 53.1477 64.7615C53.7809 65.3184 54.5438 65.5091 55.4211 65.3947C56.0314 65.3108 56.573 65.1048 57.0307 64.731C57.4427 64.3877 57.7173 63.9681 57.9004 63.5028C58.0453 63.129 58.1674 62.7476 58.2895 62.3737C58.3276 62.2517 58.3734 62.183 58.5565 62.1907C58.8235 62.2135 59.0981 62.1983 59.3804 62.1983C59.3575 62.4729 59.3422 62.7399 59.3117 62.9993C59.2354 63.6401 59.121 64.2733 58.9074 64.8912C58.6175 65.7227 58.2208 66.5085 57.5342 67.1493C56.7256 67.9045 55.7186 68.2783 54.5209 68.1868C53.369 68.0876 52.4917 67.5612 51.7822 66.7907C51.0194 65.9592 50.5311 65.0133 50.1955 64.0063C50.02 63.4799 49.8751 62.9383 49.7149 62.389C49.692 62.4195 49.6615 62.4577 49.6386 62.4958C49.2495 63.1061 48.8986 63.7393 48.4638 64.3343C47.7085 65.3794 46.7168 66.2338 45.5038 66.8823C44.329 67.5078 43.055 67.874 41.7048 68.0571C40.7436 68.1868 39.7747 68.2478 38.7982 68.202C37.2344 68.1334 35.7392 67.813 34.3202 67.2179C33.2827 66.7831 32.352 66.2262 31.5434 65.5167C30.5135 64.6166 29.7659 63.5562 29.2243 62.3737C28.736 61.2981 28.408 60.1843 28.202 59.04C28.0113 57.9796 27.9503 56.904 28.0418 55.8284C28.1944 54.0433 28.7208 52.3421 29.6133 50.7324C30.0558 49.9314 30.544 49.1533 31.1696 48.4515C32.0392 47.475 33.1149 46.7121 34.3889 46.1629C35.6552 45.6136 37.0055 45.3085 38.4016 45.1483C39.6908 45.0033 40.9419 45.1025 42.1472 45.5373C42.9482 45.8272 43.6577 46.2315 44.3061 46.735C45.5191 47.6733 46.4574 48.81 47.2584 50.0306C47.8229 50.885 48.2807 51.7776 48.7308 52.6777C48.7536 52.7235 48.7842 52.7769 48.807 52.8227C48.8452 52.8151 48.8604 52.8151 48.8757 52.8151ZM33.4811 58.1475C33.565 58.8722 33.6184 59.5588 33.7176 60.2377C33.893 61.3897 34.2134 62.5111 34.7856 63.5714C35.2967 64.5174 35.9909 65.3413 37.0131 65.9134C38.5312 66.7755 40.1104 66.8899 41.7353 66.1652C42.933 65.6312 43.8026 64.7844 44.4816 63.7774C44.9393 63.1061 45.2673 62.3814 45.603 61.6643C46.3964 60.0012 47.1135 58.3229 47.6551 56.5836C47.8535 55.9352 47.884 55.2791 47.6093 54.6307C47.3042 53.9059 47.0143 53.1736 46.6863 52.4565C46.1294 51.2512 45.4047 50.1221 44.474 49.1075C43.589 48.1463 42.5515 47.3835 41.1479 47.0631C40.4689 46.9105 39.79 46.7961 39.0652 46.9486C37.8294 47.208 36.7767 47.7115 35.9451 48.5506C35.228 49.2677 34.7627 50.1069 34.4041 50.9918C33.8854 52.2658 33.6794 53.5932 33.6031 54.9358C33.5421 56.0115 33.5192 57.0947 33.4811 58.1475Z" fill="#3E67AF" stroke="#3E67AF" stroke-width="4" stroke-miterlimit="10"/>
</svg>
