<svg width="30" height="30" viewBox="0 0 30 30" fill="none" xmlns="http://www.w3.org/2000/svg">
<path d="M7.53505 24.5964L7.53902 24.5977L6.09012 27.06C5.56124 27.9589 4.38993 28.2669 3.47387 27.7479C2.55781 27.229 2.24396 26.0796 2.77284 25.1808L3.84019 23.3668L3.94266 23.1927C4.12557 22.9347 4.57698 22.4894 5.47996 22.5732C5.47996 22.5732 7.60491 22.7994 7.75869 23.8831C7.75869 23.8831 7.77954 24.2397 7.53505 24.5964ZM28.0848 18.3072H23.5667C23.259 18.2869 23.1248 18.1791 23.0718 18.1164L23.0685 18.1107L18.2321 9.89096L18.2258 9.89502L17.9358 9.487C17.4604 8.77363 16.7056 10.598 16.7056 10.598C15.8042 12.6309 16.8335 14.9421 17.1922 15.6407L23.9099 27.0576C24.4386 27.9563 25.6099 28.2644 26.5261 27.7453C27.442 27.2264 27.756 26.077 27.227 25.1782L25.5473 22.3234C25.5147 22.2542 25.4581 22.0664 25.8026 22.0656H28.0848C29.1425 22.0656 30 21.2242 30 20.1863C30 19.1484 29.1425 18.3072 28.0848 18.3072ZM19.3092 20.8617C19.3092 20.8617 19.5504 22.0654 18.6173 22.0654H1.91521C0.85746 22.0654 0 21.2241 0 20.1862C0 19.1483 0.85746 18.3069 1.91521 18.3069H6.20913C6.90239 18.2676 7.06659 17.8748 7.06659 17.8748L7.07057 17.8768L12.6755 8.35083L12.6739 8.35051C12.776 8.16648 12.6909 7.99252 12.6762 7.96507L10.825 4.81904C10.2961 3.92034 10.61 2.77085 11.526 2.25206C12.4421 1.73327 13.6134 2.04091 14.1423 2.93977L15.0007 4.39885L15.8577 2.94237C16.3866 2.04367 17.5579 1.73555 18.474 2.25466C19.39 2.77377 19.7039 3.92278 19.175 4.82164L11.3754 18.0772C11.3413 18.158 11.3309 18.2846 11.5846 18.3069H16.2467L16.2477 18.3516C16.2477 18.3516 18.9422 18.3927 19.3092 20.8617Z" fill="white"/>
</svg>
