<svg width="224" height="111" viewBox="0 0 224 111" fill="none" xmlns="http://www.w3.org/2000/svg">
<path d="M0 10C0 4.47715 4.47715 0 10 0H214C219.523 0 224 4.47715 224 10V101C224 106.523 219.523 111 214 111H10C4.47715 111 0 106.523 0 101V10Z" fill="white" fill-opacity="0.1"/>
<path d="M88.4328 40.024C88.4483 40.0051 88.4623 39.985 88.4748 39.964C88.8492 39.2048 89.2511 38.4568 89.5887 37.6822C90.9099 34.6764 92.2201 31.6655 93.519 28.6494C93.7618 28.089 93.9929 27.5235 94.2122 26.9529C94.2565 26.8352 94.2664 26.7073 94.241 26.5842C94.2155 26.461 94.1556 26.3476 94.0683 26.2571C93.9435 26.2129 93.8086 26.2056 93.6798 26.236C93.5509 26.2664 93.4336 26.3332 93.3417 26.4284C93.2279 26.5407 93.1265 26.6648 93.0392 26.7986C92.9098 27.0034 92.7958 27.2193 92.6853 27.4353C91.5056 29.7918 89.8774 31.8955 87.8921 33.6285C87.2595 34.2185 86.5018 34.6579 85.6755 34.9138C83.8479 35.4068 81.9097 35.2931 80.1523 34.5899C79.5953 34.3998 79.0979 34.0669 78.7098 33.6244C78.3218 33.1819 78.0566 32.6453 77.9408 32.0682C77.8356 31.6078 77.7754 31.1384 77.7608 30.6664C77.7317 29.5337 77.7411 28.4009 77.7403 27.2673C77.7403 26.0086 77.7446 24.7499 77.7463 23.4912C77.7463 23.193 77.7617 22.8914 77.7411 22.5949C77.7336 22.362 77.6363 22.1411 77.4696 21.9783C77.3028 21.8156 77.0796 21.7237 76.8466 21.7219C76.6174 21.7073 76.3914 21.7817 76.2158 21.9297C76.0402 22.0777 75.9286 22.2878 75.9041 22.5162C75.8841 22.6397 75.8741 22.7645 75.8741 22.8897C75.8741 25.0935 75.8741 27.2981 75.8741 29.5028C75.8741 30.1137 75.8741 30.7281 75.8218 31.3356C75.7953 32.004 75.5822 32.6516 75.2066 33.205C74.8311 33.7585 74.3081 34.1958 73.6968 34.4674C72.2884 35.1196 70.7233 35.3573 69.1847 35.1528C67.983 35.0627 66.8429 34.5853 65.9356 33.7921C65.3649 33.2737 64.7934 32.7528 64.263 32.1941C62.8836 30.711 61.7276 29.0348 60.8313 27.2184C60.6588 26.9095 60.4506 26.6219 60.211 26.3616C60.1374 26.2853 60.0431 26.2322 59.9398 26.2088C59.8364 26.1853 59.7285 26.1926 59.6292 26.2297C59.4433 26.2837 59.445 26.4696 59.4056 26.6221C59.3658 26.885 59.4181 27.1535 59.5538 27.3821C61.3246 31.5858 63.0926 35.7895 64.8576 39.9932C64.8885 40.0668 64.9262 40.1371 64.9656 40.2185C65.0513 40.167 65.1121 40.1277 65.1764 40.0866C66.9008 38.9637 68.7562 38.0564 70.7013 37.3849C73.4913 36.4183 76.4712 36.1297 79.3948 36.5427C81.8798 36.9187 84.2801 37.7254 86.4878 38.9264C87.1424 39.2734 87.779 39.6539 88.4328 40.024ZM67.4359 33.6474C68.0314 33.8187 68.5746 34.0184 69.1359 34.1281C70.4234 34.4265 71.7758 34.2389 72.9334 33.6011C73.5148 33.3242 74.0026 32.8834 74.3369 32.3329C74.6265 31.788 74.6051 31.7092 74.0319 31.4813C73.5901 31.3309 73.1808 31.0983 72.8254 30.7958C70.8611 28.9628 69.3468 26.7008 68.4007 24.1861C68.3488 24.0356 68.2755 23.8933 68.1831 23.7637C68.1282 23.6815 68.0496 23.618 67.9578 23.5816C67.866 23.5451 67.7652 23.5375 67.6689 23.5597C67.5808 23.6033 67.5101 23.6756 67.4685 23.7647C67.427 23.8538 67.4169 23.9543 67.4402 24.0498C67.4826 24.4428 67.5617 24.831 67.6767 25.2092C68.0845 26.273 68.377 27.3775 68.5489 28.5037C68.7247 29.6057 68.6592 30.7326 68.357 31.8068C68.1489 32.4649 67.8377 33.086 67.435 33.6465L67.4359 33.6474ZM86.1707 33.5746C85.9857 33.2901 85.7929 33.0339 85.6395 32.7554C85.2365 31.9431 85.0243 31.0496 85.0191 30.1429C84.9753 28.695 85.208 27.252 85.7046 25.8912C85.9068 25.2914 86.0774 24.672 86.2402 24.0567C86.2748 23.9594 86.2695 23.8522 86.2253 23.7588C86.1812 23.6653 86.1018 23.5931 86.0045 23.558C85.9047 23.5118 85.7909 23.5058 85.6867 23.5412C85.5826 23.5766 85.496 23.6508 85.445 23.7483C85.3453 23.9151 85.261 24.0905 85.1931 24.2726C84.3492 26.4542 83.1058 28.4593 81.5267 30.1849C80.9979 30.8267 80.297 31.3045 79.5062 31.5619C79.0778 31.6852 79.0058 31.9243 79.2278 32.309C79.4633 32.6884 79.7778 33.0128 80.1497 33.2601C81.1885 33.9903 82.4491 34.336 83.715 34.2377C84.5715 34.1927 85.4085 33.9652 86.1699 33.5703L86.1707 33.5746ZM68.2062 21.0072C68.2082 20.8256 68.1737 20.6456 68.1048 20.4776C68.0359 20.3096 67.934 20.1573 67.8051 20.0294C67.6762 19.9016 67.523 19.8009 67.3545 19.7334C67.186 19.6659 67.0056 19.6328 66.8241 19.6362C66.4584 19.6369 66.1078 19.7825 65.8491 20.041C65.5904 20.2996 65.4446 20.65 65.4437 21.0157C65.4511 21.3806 65.6007 21.7282 65.8607 21.9843C66.1206 22.2404 66.4703 22.3848 66.8352 22.3868C67.1998 22.3852 67.5489 22.239 67.8059 21.9804C68.0629 21.7218 68.2069 21.3718 68.2062 21.0072ZM88.1886 21.0072C88.1869 20.6411 88.0398 20.2907 87.7798 20.0331C87.5197 19.7754 87.1679 19.6316 86.8018 19.6333C86.4357 19.635 86.0853 19.782 85.8276 20.0421C85.57 20.3021 85.4262 20.6539 85.4279 21.02C85.4296 21.3861 85.5766 21.7366 85.8367 21.9942C86.0968 22.2519 86.4486 22.3957 86.8147 22.394C87.1807 22.3923 87.5312 22.2452 87.7889 21.9851C88.0465 21.7251 88.1903 21.3733 88.1886 21.0072Z" fill="#FFC905"/>
<path d="M77.0795 16C77.4005 16.0779 77.7154 16.1787 78.022 16.3017C78.5409 16.5565 78.9598 16.9775 79.2119 17.4978C79.4641 18.0181 79.535 18.6077 79.4135 19.1729C79.2723 19.8045 78.9054 20.363 78.3817 20.7432C77.8579 21.1234 77.2134 21.2992 76.5691 21.2378C75.9248 21.1764 75.3251 20.8818 74.8826 20.4094C74.4402 19.9371 74.1854 19.3194 74.1662 18.6725C74.1588 18.041 74.3787 17.428 74.7858 16.9452C75.1929 16.4624 75.76 16.1422 76.3837 16.0429C76.4356 16.0318 76.4868 16.0178 76.5371 16.0009L77.0795 16Z" fill="#FFC905"/>
<path d="M56.0026 23.5537C56.0317 23.4209 56.0591 23.2873 56.0883 23.1545C56.212 22.6833 56.4927 22.2684 56.884 21.9782C57.2753 21.688 57.7538 21.5398 58.2406 21.5582C58.6521 21.5712 59.0512 21.7019 59.3908 21.9347C59.7303 22.1675 59.996 22.4928 60.1563 22.872C60.3167 23.2511 60.3651 23.6683 60.2958 24.0741C60.2264 24.4799 60.0422 24.8574 59.765 25.1618C59.4878 25.4661 59.1291 25.6846 58.7315 25.7914C58.334 25.8983 57.9141 25.889 57.5216 25.7647C57.1292 25.6403 56.7806 25.4061 56.5172 25.0897C56.2537 24.7733 56.0864 24.3881 56.0351 23.9796C56.0272 23.9478 56.0154 23.9169 56 23.8879L56.0026 23.5537Z" fill="#FFC905"/>
<path d="M97.6141 24.0543C97.5841 24.152 97.555 24.2487 97.5284 24.3473C97.3791 24.8443 97.0538 25.2698 96.6134 25.5443C96.173 25.8187 95.6476 25.9232 95.1357 25.8382C94.6238 25.7532 94.1603 25.4846 93.8322 25.0826C93.5041 24.6805 93.3337 24.1727 93.353 23.6541C93.3638 23.1292 93.5677 22.6266 93.9259 22.2427C94.2841 21.8588 94.7714 21.6205 95.2943 21.5735C95.8173 21.5265 96.3392 21.6741 96.7601 21.9879C97.181 22.3018 97.4714 22.7599 97.5756 23.2745C97.5866 23.3133 97.6006 23.3511 97.6175 23.3876L97.6141 24.0543Z" fill="#FFC905"/>
<path d="M88.4329 40.0233C87.78 39.654 87.1425 39.2727 86.4878 38.9257C84.2801 37.7247 81.8798 36.918 79.3949 36.542C76.4712 36.1293 73.4913 36.4183 70.7014 37.3851C68.7563 38.0565 66.9008 38.9638 65.1765 40.0867L64.9657 40.2187C64.9263 40.1373 64.8886 40.067 64.8577 39.9933C63.0869 35.7896 61.319 31.586 59.5539 27.3824C59.4181 27.1535 59.3657 26.8846 59.4056 26.6214C59.445 26.4689 59.4433 26.2787 59.6293 26.229C59.7286 26.192 59.8365 26.1848 59.9399 26.2082C60.0432 26.2316 60.1375 26.2847 60.2111 26.361C60.4507 26.6213 60.659 26.9089 60.8314 27.2178C61.7278 29.0341 62.8838 30.7103 64.2631 32.1935C64.7943 32.7522 65.365 33.2723 65.9356 33.7915C66.8429 34.5847 67.983 35.0621 69.1848 35.1522C70.7234 35.3567 72.2884 35.1189 73.6969 34.4667C74.3081 34.1951 74.8311 33.7578 75.2067 33.2043C75.5822 32.6509 75.7953 32.0033 75.8219 31.3349C75.875 30.7274 75.8724 30.1131 75.8741 29.5022C75.8793 27.2984 75.8741 25.0937 75.8741 22.8891C75.8742 22.7642 75.8842 22.6395 75.9041 22.5163C75.9286 22.288 76.0403 22.0779 76.2159 21.9299C76.3915 21.782 76.6175 21.7074 76.8466 21.722C77.0796 21.7239 77.3029 21.8158 77.4696 21.9786C77.6364 22.1413 77.7337 22.3623 77.7412 22.5952C77.7618 22.8933 77.7472 23.195 77.7463 23.4914C77.7463 24.7501 77.7395 26.0088 77.7403 27.2675C77.7403 28.4003 77.7318 29.5338 77.7609 30.6666C77.7754 31.1385 77.8357 31.6081 77.9408 32.0684C78.0567 32.6455 78.3219 33.1819 78.71 33.6244C79.098 34.0669 79.5954 34.3999 80.1523 34.5901C81.9097 35.2933 83.8479 35.4071 85.6755 34.9148C86.5018 34.6587 87.2595 34.2193 87.8922 33.6295C89.8775 31.8965 91.5057 29.7929 92.6854 27.4363C92.7959 27.2204 92.9099 27.0079 93.0393 26.7997C93.1266 26.6658 93.228 26.5417 93.3417 26.4295C93.4333 26.3338 93.5507 26.2666 93.6796 26.2362C93.8086 26.2058 93.9436 26.2135 94.0683 26.2582C94.1556 26.3487 94.2155 26.462 94.241 26.5852C94.2665 26.7083 94.2565 26.8362 94.2123 26.954C93.9923 27.5252 93.7613 28.0904 93.5191 28.6497C92.2133 31.6629 90.9031 34.6738 89.5887 37.6825C89.246 38.4536 88.8459 39.2051 88.4748 39.9642C88.4624 39.985 88.4483 40.0047 88.4329 40.0233Z" fill="#FFC905"/>
<path d="M67.4344 33.6467C67.8368 33.0867 68.1477 32.4663 68.3556 31.8088C68.6578 30.7346 68.7232 29.6076 68.5475 28.5057C68.3755 27.3794 68.0831 26.2748 67.6752 25.211C67.5603 24.8328 67.4811 24.4448 67.4387 24.0518C67.4147 23.9563 67.4243 23.8553 67.466 23.7661C67.5077 23.6768 67.5788 23.6046 67.6675 23.5617C67.7638 23.5396 67.8645 23.5472 67.9563 23.5836C68.0481 23.6201 68.1267 23.6835 68.1816 23.7655C68.274 23.8952 68.3473 24.0375 68.3992 24.188C69.3455 26.7028 70.8601 28.9648 72.8248 30.7977C73.1802 31.1001 73.5895 31.3327 74.0313 31.4832C74.6045 31.7111 74.6259 31.7899 74.3363 32.3349C74.002 32.8853 73.5142 33.326 72.9328 33.603C71.7751 34.2405 70.4228 34.4281 69.1353 34.13C68.5723 34.0177 68.0299 33.8189 67.4344 33.6467Z" fill="#FFC905"/>
<path d="M86.1693 33.5741C85.4081 33.9686 84.5714 34.1958 83.7153 34.2407C82.4493 34.3391 81.1886 33.9934 80.1499 33.2631C79.778 33.0158 79.4636 32.6914 79.228 32.312C79.006 31.9273 79.078 31.6874 79.5065 31.5649C80.2974 31.3078 80.9984 30.83 81.5269 30.1879C83.106 28.4623 84.3494 26.4572 85.1933 24.2756C85.2612 24.0936 85.3455 23.9181 85.4452 23.7513C85.4962 23.6538 85.5828 23.5797 85.6869 23.5443C85.7911 23.5089 85.9049 23.5148 86.0047 23.561C86.1018 23.5961 86.181 23.6682 86.2252 23.7615C86.2693 23.8547 86.2748 23.9616 86.2404 24.0589C86.0784 24.675 85.9071 25.2902 85.7048 25.8934C85.2082 27.2542 84.9756 28.6972 85.0194 30.1451C85.0245 31.0518 85.2367 31.9453 85.6397 32.7576C85.7922 33.036 85.9842 33.2931 86.1693 33.5741Z" fill="#FFC905"/>
<path d="M68.2058 21.0075C68.2067 21.1884 68.172 21.3677 68.1036 21.5352C68.0351 21.7026 67.9344 21.855 67.8071 21.9835C67.6797 22.112 67.5284 22.2142 67.3615 22.2842C67.1947 22.3542 67.0158 22.3906 66.8349 22.3914C66.47 22.3895 66.1202 22.245 65.8603 21.9889C65.6003 21.7328 65.4507 21.3852 65.4434 21.0204C65.4443 20.6546 65.59 20.3042 65.8487 20.0457C66.1074 19.7871 66.458 19.6415 66.8237 19.6409C67.0049 19.6374 67.1849 19.6704 67.3531 19.7376C67.5213 19.8049 67.6744 19.9052 67.8032 20.0326C67.932 20.16 68.034 20.3118 68.1032 20.4793C68.1723 20.6468 68.2072 20.8263 68.2058 21.0075Z" fill="#FFC905"/>
<path d="M88.1865 21.0072C88.1874 21.1884 88.1525 21.3682 88.0839 21.536C88.0153 21.7038 87.9144 21.8564 87.7868 21.9851C87.6592 22.1139 87.5075 22.2163 87.3404 22.2865C87.1732 22.3566 86.9939 22.3932 86.8126 22.394C86.6313 22.3948 86.4517 22.36 86.2839 22.2914C86.1161 22.2228 85.9634 22.1218 85.8346 21.9942C85.7059 21.8667 85.6035 21.715 85.5333 21.5478C85.4632 21.3807 85.4266 21.2013 85.4258 21.02C85.4241 20.6539 85.5679 20.3021 85.8256 20.0421C86.0832 19.782 86.4336 19.635 86.7997 19.6333C87.1658 19.6316 87.5176 19.7754 87.7777 20.0331C88.0378 20.2907 88.1848 20.6411 88.1865 21.0072Z" fill="#FFC905"/>
<path d="M116.641 71.2588L116.625 73.208L122.663 73.2564L122.679 71.3071L116.641 71.2588Z" fill="#FFC905"/>
<path d="M156.852 71.58L156.836 73.5293L162.874 73.5777L162.89 71.6284L156.852 71.58Z" fill="#FFC905"/>
<path d="M125.139 88.6519L125.123 90.6226L131.313 90.6715L131.339 90.5276C131.405 90.1599 131.439 89.7872 131.442 89.4136C131.442 89.2318 131.431 89.0502 131.411 88.8695L131.395 88.7152L125.139 88.6519Z" fill="#FFC905"/>
<path d="M95.4421 59.3203C95.4454 59.305 95.4503 59.2901 95.4567 59.2757L95.4764 59.2166L95.5021 56.3659C95.4969 56.3385 95.4892 56.3094 95.4815 56.2802C95.4752 56.2607 95.4709 56.2406 95.4687 56.2202C95.4697 55.8929 95.4387 55.5664 95.3761 55.2452C95.3598 55.1432 95.3436 55.0404 95.329 54.9376C95.1129 53.367 94.7102 51.8278 94.1294 50.3526C93.2389 48.0436 91.9052 45.9312 90.2034 44.1345C88.8028 42.6464 87.1539 41.4136 85.3305 40.4912C83.8742 39.7679 82.3258 39.2472 80.7284 38.9437C79.2609 38.66 77.767 38.5365 76.2728 38.5753C73.7186 38.6335 71.2042 39.2199 68.8877 40.2976C67.7829 40.8167 66.7345 41.4483 65.7594 42.1826C62.0881 44.9963 59.5453 49.0313 58.591 53.5572C58.3405 54.7197 58.1908 55.9016 58.1438 57.0899L58.1241 57.1757C58.1241 57.4679 58.124 57.76 58.1172 58.0539L58.1352 58.1301C58.1519 59.0654 58.2379 59.9983 58.3922 60.9209C58.7257 62.9053 59.4139 64.8134 60.4238 66.5538C61.5917 68.5317 63.0694 70.3094 64.8006 71.8191C66.281 73.1288 67.8711 74.309 69.5535 75.3467C71.7973 76.7331 74.1259 77.9774 76.5256 79.0722C78.9376 80.193 81.401 81.2186 83.7025 82.1568L84.388 82.4354C85.1597 82.7478 85.9309 83.062 86.7014 83.3779C86.7982 83.4182 86.9017 83.4394 87.0065 83.4404C87.1515 83.439 87.2927 83.3936 87.4115 83.3102C87.5302 83.2268 87.6208 83.1094 87.6714 82.9734C87.7134 82.8859 87.7392 82.7916 87.7477 82.695L87.7528 82.5536C87.7676 82.3536 87.7627 82.1528 87.7382 81.9538C87.66 81.4852 87.5262 81.0275 87.3398 80.5905C87.1964 80.2382 87.022 79.8993 86.8188 79.5777C86.3961 78.8316 85.7874 78.2077 85.052 77.7665L84.3914 77.3937C83.7411 77.0252 83.0693 76.644 82.3873 76.2995C80.9803 75.5909 79.5425 74.8857 78.1519 74.2036C77.4173 73.8426 76.6827 73.4813 75.9481 73.1197L75.8941 73.0932C74.5686 72.4377 73.1968 71.7591 71.9184 70.9733C70.0577 69.8785 68.351 68.541 66.8433 66.9959C65.6753 65.7625 64.7029 64.3576 63.96 62.83C63.1931 61.2609 62.7358 59.5587 62.613 57.8165C62.5255 56.5875 62.6243 55.3522 62.9061 54.1527C63.2927 52.5757 63.9751 51.0865 64.9171 49.764C65.4124 49.0565 65.9727 48.3967 66.5905 47.7932C67.1873 47.2338 67.8343 46.7307 68.5235 46.2903L68.6324 46.2166C69.2333 45.7843 69.868 45.4009 70.5303 45.0702C72.5413 44.1317 74.7314 43.6386 76.9506 43.6247C77.6891 43.6204 78.4269 43.6682 79.1587 43.7678C80.6776 43.9507 82.1549 44.3881 83.5286 45.0616C84.8288 45.6998 85.9928 46.5845 86.9559 47.6664C87.9907 48.8443 88.79 50.2096 89.3105 51.6884C90.1416 53.9935 90.4594 56.4521 90.2419 58.8927C90.1644 59.8397 89.955 60.7712 89.6199 61.6603C89.2169 62.7965 88.5014 63.796 87.5557 64.5437C87.4294 64.6469 87.3493 64.7961 87.3329 64.9584C87.2933 65.2946 87.3281 65.6353 87.4349 65.9565C87.7997 67.2066 88.3462 68.3963 89.0569 69.4876C89.1504 69.6284 89.2535 69.7627 89.3654 69.8894L89.4365 69.9752C89.4622 70.0082 89.4944 70.0356 89.5311 70.0558C89.5677 70.076 89.6082 70.0885 89.6499 70.0925C89.6948 70.0947 89.7397 70.0877 89.7818 70.0719C89.824 70.0562 89.8624 70.032 89.8949 70.0008C91.0571 69.026 92.0724 67.8884 92.9093 66.6232C93.9215 65.0685 94.6618 63.3529 95.0985 61.5498C95.3007 60.8229 95.4161 60.0744 95.4421 59.3203Z" fill="white"/>
<path d="M87.4034 88.369C87.4442 88.2221 87.4754 88.0727 87.4968 87.9218L87.5165 87.8087V87.7881C87.4932 87.0169 87.3069 86.2594 86.9698 85.5654C86.7222 85.03 86.2891 84.6023 85.7505 84.3616L85.7163 84.347C84.2579 83.7238 82.8013 83.0975 81.3464 82.468L78.1238 81.0773C76.1896 80.2456 74.2566 79.4124 72.3247 78.5779L70.8501 77.9421C70.7504 77.8803 70.6384 77.8413 70.5219 77.8279C70.4054 77.8146 70.2874 77.8272 70.1764 77.8649C70.0654 77.9025 69.9641 77.9644 69.8798 78.0459C69.7956 78.1274 69.7304 78.2266 69.689 78.3363C69.6805 78.3517 69.6719 78.3671 69.6556 78.4014C69.4454 78.8262 69.3305 79.2917 69.3189 79.7654C69.28 80.2824 69.3516 80.8018 69.5288 81.289C69.5984 81.49 69.7124 81.6728 69.8624 81.8237C70.0124 81.9745 70.1945 82.0896 70.3951 82.1604C70.5536 82.2169 70.7095 82.2811 70.8681 82.3488C71.3924 82.5659 71.9188 82.7832 72.4472 83.0009C73.8707 83.5858 75.2951 84.1723 76.7203 84.7601L85.5252 88.3879C85.8594 88.5259 86.1987 88.6647 86.5397 88.7949C86.6329 88.8324 86.7323 88.8525 86.8327 88.854C86.92 88.8551 87.0062 88.8357 87.0846 88.7974C87.1653 88.753 87.2356 88.6918 87.2906 88.6178C87.3455 88.5439 87.384 88.4591 87.4034 88.369Z" fill="white"/>
<path d="M81.5011 88.2064C80.157 87.6923 78.8147 87.1819 77.474 86.6752L73.6585 85.2264C73.5647 85.1743 73.4608 85.1431 73.3538 85.1349C73.2468 85.1268 73.1394 85.1419 73.0388 85.1793C72.9383 85.2167 72.847 85.2755 72.7713 85.3515C72.6956 85.4275 72.6372 85.5189 72.6003 85.6196C72.5843 85.6422 72.5724 85.6675 72.5651 85.6942L72.4983 85.8878C72.3207 86.3914 72.288 86.9346 72.4041 87.4558C72.4511 87.6957 72.5611 87.9189 72.7229 88.1023C72.8846 88.2857 73.0921 88.4227 73.3243 88.4995C75.1408 89.1375 76.9576 89.7796 78.7747 90.4257L82.0898 91.6063C82.1695 91.6355 82.2535 91.6508 82.3383 91.6517C82.4331 91.6526 82.5266 91.6293 82.6099 91.5841C82.6847 91.5406 82.7493 91.4817 82.7994 91.4112C82.8495 91.3407 82.8839 91.2603 82.9004 91.1754C82.9238 91.0713 82.9401 90.9656 82.9492 90.8592L82.9638 90.7196C82.945 90.1066 82.7637 89.5096 82.4385 88.9896C82.2269 88.6272 81.8954 88.3501 81.5011 88.2064Z" fill="white"/>
<path d="M102.177 68.0789H102.211C102.74 68.0625 103.266 68.1604 103.754 68.3657C104.242 68.5711 104.68 68.8791 105.038 69.269L105.21 69.4507L106.075 67.5896L105.984 67.504C104.976 66.6044 103.672 66.107 102.321 66.1065H102.271C101.483 66.1035 100.702 66.2557 99.973 66.5545C99.2439 66.8532 98.5808 67.2927 98.0215 67.8478C97.4623 68.4028 97.0178 69.0626 96.7135 69.7894C96.4092 70.5162 96.2511 71.2958 96.2481 72.0838C96.2451 72.8717 96.3973 73.6525 96.6961 74.3816C96.9949 75.1107 97.4344 75.7739 97.9894 76.3332C98.5444 76.8924 99.2042 77.3368 99.931 77.6411C100.658 77.9454 101.437 78.1036 102.225 78.1066H102.268C103.607 78.1125 104.902 77.6309 105.912 76.7519L106.004 76.6662L105.166 74.7888L104.988 74.9722C104.626 75.3615 104.184 75.6672 103.692 75.8676C103.2 76.068 102.67 76.1583 102.139 76.1323C101.071 76.1281 100.048 75.6998 99.2959 74.9416C98.5436 74.1834 98.1234 73.1574 98.1276 72.0893C98.1318 71.0213 98.5601 69.9986 99.3183 69.2463C100.077 68.4941 101.103 68.0739 102.171 68.0781L102.177 68.0789Z" fill="white"/>
<path d="M109.24 74.0976L110.757 74.1096L113.555 78.0623L115.878 78.0811L112.925 73.898C113.702 73.6404 114.375 73.1366 114.84 72.4629C115.306 71.7892 115.539 70.9822 115.506 70.1639C115.533 69.6516 115.449 69.1394 115.261 68.6622C115.072 68.185 114.784 67.7539 114.414 67.398C113.459 66.6281 112.252 66.2411 111.027 66.3124L107.331 66.2832L107.314 68.254L111.57 68.2882C112.079 68.2681 112.577 68.4345 112.972 68.756C113.169 68.9487 113.321 69.1821 113.418 69.4398C113.514 69.6975 113.554 69.9734 113.532 70.2479C113.546 70.5119 113.502 70.7757 113.403 71.0209C113.305 71.2661 113.153 71.4867 112.96 71.6672C112.767 71.8478 112.537 71.9839 112.285 72.0659C112.034 72.148 111.768 72.174 111.505 72.1423L107.283 72.1089L107.236 78.0108L109.207 78.0271L109.24 74.0976Z" fill="white"/>
<path d="M123.452 76.1683L116.597 76.1074L116.582 78.0858L123.437 78.1407L123.452 76.1683Z" fill="white"/>
<path d="M116.678 66.3577L116.662 68.3301L123.513 68.385L123.529 66.4126L116.678 66.3577Z" fill="white"/>
<path d="M129.445 70.3729L131.798 75.6674L132.929 78.2173L135.072 78.2344L129.477 65.9507L123.688 78.1427L125.83 78.1598L129.445 70.3729Z" fill="white"/>
<path d="M133.637 66.4928L133.621 68.437L141.556 68.5005L141.572 66.5563L133.637 66.4928Z" fill="white"/>
<path d="M136.597 69.0417L136.523 78.2456L138.497 78.2614L138.57 69.0575L136.597 69.0417Z" fill="white"/>
<path d="M142.692 66.5655L142.6 78.2944L144.573 78.31L144.665 66.5811L142.692 66.5655Z" fill="white"/>
<path d="M156.559 66.6744L154.417 66.6572L151.387 73.5042L152.402 75.8803L156.559 66.6744Z" fill="white"/>
<path d="M152.096 76.5668L147.871 66.6094L145.729 66.5923L151.046 78.8914L152.096 76.5668Z" fill="white"/>
<path d="M156.889 66.679L156.873 68.6514L163.724 68.7059L163.74 66.7335L156.889 66.679Z" fill="white"/>
<path d="M163.661 76.4897L156.806 76.4297L156.791 78.4082L163.646 78.463L163.661 76.4897Z" fill="white"/>
<path d="M97.6258 89.028L102.841 83.324L100.201 83.3077L96.0792 87.9964L96.1169 83.2751L94.1461 83.2598L94.0527 94.9882L96.0235 95.0036L96.0612 90.2619L100.381 95.0387L103.017 95.0602L97.6258 89.028Z" fill="white"/>
<path d="M104.118 83.3345L104.023 95.0635L105.997 95.0794L106.091 83.3505L104.118 83.3345Z" fill="white"/>
<path d="M110.202 88.4644L108.245 86.4653L108.176 95.0963L110.147 95.1125L110.202 88.4644Z" fill="white"/>
<path d="M116.13 83.43L116.07 90.9702L108.272 82.8447L108.25 85.5867L118.002 95.6974L118.099 83.4446L116.13 83.43Z" fill="white"/>
<path d="M131.229 91.0482L129.191 91.031L129.147 91.1406C128.877 91.8236 128.403 92.4067 127.79 92.8107C127.176 93.2147 126.453 93.4199 125.719 93.3984H125.684C124.616 93.3942 123.594 92.9659 122.841 92.2077C122.089 91.4495 121.669 90.4235 121.673 89.3554C121.677 88.2873 122.105 87.2647 122.864 86.5124C123.622 85.7601 124.648 85.3399 125.716 85.3441H125.749C126.414 85.3418 127.068 85.5243 127.636 85.8714C128.205 86.2184 128.666 86.7163 128.968 87.3097L129.033 87.4348L131.017 86.8787L130.924 86.6911C130.47 85.7032 129.743 84.8656 128.829 84.2773C127.915 83.689 126.852 83.3745 125.765 83.3708C124.174 83.3581 122.643 83.9778 121.51 85.0936C120.376 86.2094 119.732 87.7299 119.719 89.3207C119.706 90.9114 120.326 92.4421 121.442 93.5759C122.558 94.7097 124.078 95.3539 125.669 95.3666H125.718C126.95 95.3739 128.15 94.9766 129.134 94.2356C130.118 93.4946 130.832 92.4509 131.166 91.2649L131.229 91.0482Z" fill="white"/>
<path d="M141.421 89.4984C141.47 88.7072 141.35 87.9147 141.068 87.1736C140.787 86.4325 140.351 85.7598 139.789 85.2004C139.228 84.641 138.553 84.2077 137.811 83.9294C137.069 83.651 136.276 83.5341 135.485 83.5862L131.907 83.5571L131.892 85.5279L135.893 85.5596C136.379 85.5585 136.859 85.6605 137.302 85.8591C137.746 86.0576 138.141 86.3481 138.464 86.7112C139.123 87.4806 139.473 88.467 139.446 89.4796C139.473 89.9736 139.4 90.4681 139.231 90.9332C139.062 91.3982 138.801 91.8242 138.463 92.1854C138.125 92.5466 137.717 92.8355 137.264 93.0346C136.811 93.2337 136.322 93.339 135.827 93.344L131.826 93.3115L131.811 95.2821L135.388 95.3105H135.453C138.999 95.3148 141.393 92.9849 141.421 89.4984Z" fill="white"/>
<path d="M142.543 89.5059C142.537 91.0126 143.096 92.4669 144.109 93.5819C145.123 94.6969 146.517 95.3918 148.017 95.5296L148.204 95.5467L148.22 93.5716L148.065 93.5537C147.079 93.4379 146.171 92.9624 145.514 92.2183C144.858 91.4742 144.499 90.514 144.507 89.5217C144.515 88.5295 144.889 87.575 145.558 86.8416C146.226 86.1081 147.142 85.6473 148.129 85.5473L148.283 85.5328L148.299 83.562L148.112 83.5749C146.611 83.6891 145.207 84.3612 144.176 85.4588C143.145 86.5565 142.563 88.0003 142.543 89.5059Z" fill="white"/>
<path d="M154.544 89.6028C154.55 88.096 153.991 86.6419 152.977 85.5268C151.964 84.4117 150.569 83.7165 149.069 83.5784L148.882 83.563L148.867 85.5338L149.021 85.5518C150.006 85.6684 150.913 86.1443 151.568 86.8882C152.224 87.6321 152.582 88.5917 152.574 89.5833C152.566 90.5748 152.193 91.5286 151.525 92.2618C150.858 92.9951 149.943 93.4564 148.957 93.5573L148.803 93.5726L148.787 95.5434L148.974 95.5296C150.475 95.4159 151.879 94.7446 152.91 93.6477C153.941 92.5509 154.524 91.1079 154.544 89.6028Z" fill="white"/>
<path d="M155.473 95.475L157.485 95.4912L158.395 90.1025L156.907 87.2261L155.473 95.475Z" fill="white"/>
<path d="M157.622 83.1201L157.074 86.2655L162.044 96.0002L167.169 86.3598L166.67 83.1895L162.076 91.9233L157.622 83.1201Z" fill="white"/>
<path d="M166.605 95.5639L168.617 95.5802L167.306 87.2568L165.779 90.1478L166.605 95.5639Z" fill="white"/>
</svg>
