<svg width="248" height="79" viewBox="0 0 248 79" fill="none" xmlns="http://www.w3.org/2000/svg">
<path d="M0 0C1.58754 -6.07063e-08 4.59363 0.0733946 8.25 0.21875V78.7813C4.59363 78.9266 1.58754 79 0 79V0ZM16.1631 0.602539C24.8242 1.10088 34.0887 1.9059 37.127 3.00684C42.605 4.99189 47.5827 7.90151 51.7754 11.5693C55.968 15.2371 59.2934 19.5916 61.5625 24.3838C63.8316 29.1761 65 34.3128 65 39.5C65 44.6872 63.8316 49.8239 61.5625 54.6162C59.2934 59.4084 55.968 63.7629 51.7754 67.4307C47.5827 71.0985 42.605 74.0081 37.127 75.9932C34.0887 77.0941 24.8242 77.8991 16.1631 78.3975V43.8906H42.3105V65H50.25V17H42.3105V37.0322H16.1631V0.602539Z" fill="white"/>
<path d="M70 40.4517V22.9972H73.6903V30.1989H81.1818V22.9972H84.8636V40.4517H81.1818V33.2415H73.6903V40.4517H70Z" fill="white"/>
<path d="M90.0795 45.3608C89.6193 45.3608 89.1875 45.3239 88.7841 45.25C88.3864 45.1818 88.0568 45.0938 87.7955 44.9858L88.6136 42.2756C89.0398 42.4063 89.4233 42.4773 89.7642 42.4886C90.1108 42.5 90.4091 42.4205 90.6591 42.25C90.9148 42.0795 91.1222 41.7898 91.2812 41.3807L91.4943 40.8267L86.7983 27.3608H90.6165L93.3267 36.9744H93.4631L96.1989 27.3608H100.043L94.9545 41.8665C94.7102 42.571 94.3778 43.1847 93.9574 43.7074C93.5426 44.2358 93.017 44.642 92.3807 44.9261C91.7443 45.2159 90.9773 45.3608 90.0795 45.3608Z" fill="white"/>
<path d="M101.969 40.4517V22.9972H105.599V29.5597H105.71C105.869 29.2074 106.099 28.8494 106.401 28.4858C106.707 28.1165 107.105 27.8097 107.594 27.5653C108.088 27.3153 108.702 27.1903 109.435 27.1903C110.389 27.1903 111.27 27.4403 112.077 27.9403C112.884 28.4347 113.528 29.1818 114.011 30.1818C114.494 31.1761 114.736 32.4233 114.736 33.9233C114.736 35.3835 114.5 36.6165 114.028 37.6222C113.563 38.6222 112.926 39.3807 112.119 39.8977C111.318 40.4091 110.42 40.6648 109.426 40.6648C108.722 40.6648 108.122 40.5483 107.628 40.3153C107.139 40.0824 106.739 39.7898 106.426 39.4375C106.114 39.0795 105.875 38.7188 105.71 38.3551H105.548V40.4517H101.969ZM105.523 33.9063C105.523 34.6847 105.631 35.3636 105.847 35.9432C106.063 36.5227 106.375 36.9744 106.784 37.2983C107.193 37.6165 107.69 37.7756 108.276 37.7756C108.866 37.7756 109.366 37.6136 109.776 37.2898C110.185 36.9602 110.494 36.5057 110.705 35.9261C110.92 35.3409 111.028 34.6676 111.028 33.9063C111.028 33.1506 110.923 32.4858 110.713 31.9119C110.503 31.3381 110.193 30.8892 109.784 30.5653C109.375 30.2415 108.872 30.0795 108.276 30.0795C107.685 30.0795 107.185 30.2358 106.776 30.5483C106.372 30.8608 106.063 31.304 105.847 31.8778C105.631 32.4517 105.523 33.1278 105.523 33.9063Z" fill="white"/>
<path d="M117.158 40.4517V27.3608H120.678V29.6449H120.815C121.053 28.8324 121.454 28.2188 122.016 27.804C122.579 27.3835 123.227 27.1733 123.96 27.1733C124.141 27.1733 124.337 27.1847 124.548 27.2074C124.758 27.2301 124.942 27.2614 125.102 27.3011V30.5227C124.931 30.4716 124.695 30.4261 124.394 30.3864C124.093 30.3466 123.817 30.3267 123.567 30.3267C123.033 30.3267 122.556 30.4432 122.136 30.6761C121.721 30.9034 121.391 31.2216 121.147 31.6307C120.908 32.0398 120.789 32.5114 120.789 33.0455V40.4517H117.158Z" fill="white"/>
<path d="M126.979 40.4517V27.3608H130.609V40.4517H126.979ZM128.803 25.6733C128.263 25.6733 127.8 25.4943 127.413 25.1364C127.033 24.7727 126.842 24.3381 126.842 23.8324C126.842 23.3324 127.033 22.9034 127.413 22.5455C127.8 22.1818 128.263 22 128.803 22C129.342 22 129.803 22.1818 130.183 22.5455C130.57 22.9034 130.763 23.3324 130.763 23.8324C130.763 24.3381 130.57 24.7727 130.183 25.1364C129.803 25.4943 129.342 25.6733 128.803 25.6733Z" fill="white"/>
<path d="M138.342 40.6648C137.347 40.6648 136.447 40.4091 135.64 39.8977C134.839 39.3807 134.202 38.6222 133.731 37.6222C133.265 36.6165 133.032 35.3835 133.032 33.9233C133.032 32.4233 133.273 31.1761 133.756 30.1818C134.239 29.1818 134.881 28.4347 135.683 27.9403C136.489 27.4403 137.373 27.1903 138.333 27.1903C139.066 27.1903 139.677 27.3153 140.165 27.5653C140.66 27.8097 141.058 28.1165 141.359 28.4858C141.665 28.8494 141.898 29.2074 142.058 29.5597H142.168V22.9972H145.79V40.4517H142.211V38.3551H142.058C141.887 38.7188 141.646 39.0795 141.333 39.4375C141.026 39.7898 140.626 40.0824 140.131 40.3153C139.643 40.5483 139.046 40.6648 138.342 40.6648ZM139.492 37.7756C140.077 37.7756 140.572 37.6165 140.975 37.2983C141.384 36.9744 141.697 36.5227 141.913 35.9432C142.134 35.3636 142.245 34.6847 142.245 33.9063C142.245 33.1278 142.137 32.4517 141.921 31.8778C141.705 31.304 141.393 30.8608 140.984 30.5483C140.575 30.2358 140.077 30.0795 139.492 30.0795C138.896 30.0795 138.393 30.2415 137.984 30.5653C137.575 30.8892 137.265 31.3381 137.055 31.9119C136.844 32.4858 136.739 33.1506 136.739 33.9063C136.739 34.6676 136.844 35.3409 137.055 35.9261C137.271 36.5057 137.58 36.9602 137.984 37.2898C138.393 37.6136 138.896 37.7756 139.492 37.7756Z" fill="white"/>
<path d="M160.586 40.4517H154.398V22.9972H160.637C162.393 22.9972 163.904 23.3466 165.171 24.0455C166.438 24.7386 167.413 25.7358 168.094 27.0369C168.782 28.3381 169.126 29.8949 169.126 31.7074C169.126 33.5256 168.782 35.0881 168.094 36.3949C167.413 37.7017 166.433 38.7045 165.154 39.4034C163.881 40.1023 162.359 40.4517 160.586 40.4517ZM158.089 37.2898H160.433C161.523 37.2898 162.441 37.0966 163.185 36.7102C163.935 36.3182 164.498 35.7131 164.873 34.8949C165.254 34.071 165.444 33.0085 165.444 31.7074C165.444 30.4176 165.254 29.3636 164.873 28.5455C164.498 27.7273 163.938 27.125 163.194 26.7386C162.45 26.3523 161.532 26.1591 160.441 26.1591H158.089V37.2898Z" fill="white"/>
<path d="M177.757 40.7074C176.411 40.7074 175.251 40.4347 174.28 39.8892C173.314 39.3381 172.57 38.5597 172.047 37.554C171.524 36.5426 171.263 35.3466 171.263 33.9659C171.263 32.6193 171.524 31.4375 172.047 30.4205C172.57 29.4034 173.305 28.6108 174.254 28.0426C175.209 27.4744 176.328 27.1903 177.612 27.1903C178.476 27.1903 179.28 27.3295 180.024 27.608C180.774 27.8807 181.428 28.2926 181.984 28.8438C182.547 29.3949 182.984 30.0881 183.297 30.9233C183.609 31.7528 183.766 32.7244 183.766 33.8381V34.8352H172.712V32.5852H180.348C180.348 32.0625 180.234 31.5994 180.007 31.196C179.78 30.7926 179.464 30.4773 179.061 30.25C178.663 30.017 178.2 29.9006 177.672 29.9006C177.121 29.9006 176.632 30.0284 176.206 30.2841C175.786 30.5341 175.456 30.8722 175.217 31.2983C174.979 31.7188 174.857 32.1875 174.851 32.7045V34.8438C174.851 35.4915 174.97 36.0511 175.209 36.5227C175.453 36.9943 175.797 37.358 176.24 37.6136C176.683 37.8693 177.209 37.9972 177.817 37.9972C178.22 37.9972 178.589 37.9403 178.925 37.8267C179.26 37.7131 179.547 37.5426 179.786 37.3153C180.024 37.0881 180.206 36.8097 180.331 36.4801L183.689 36.7017C183.518 37.5085 183.169 38.2131 182.641 38.8153C182.118 39.4119 181.442 39.8778 180.612 40.2131C179.788 40.5426 178.837 40.7074 177.757 40.7074Z" fill="white"/>
<path d="M197.027 31.0938L193.703 31.2983C193.646 31.0142 193.524 30.7585 193.337 30.5313C193.149 30.2983 192.902 30.1136 192.595 29.9773C192.294 29.8352 191.933 29.7642 191.513 29.7642C190.95 29.7642 190.476 29.8835 190.089 30.1222C189.703 30.3551 189.51 30.6676 189.51 31.0597C189.51 31.3722 189.635 31.6364 189.885 31.8523C190.135 32.0682 190.564 32.2415 191.172 32.3722L193.541 32.8494C194.814 33.1108 195.763 33.5313 196.388 34.1108C197.013 34.6903 197.325 35.4517 197.325 36.3949C197.325 37.2528 197.072 38.0057 196.567 38.6534C196.067 39.3011 195.379 39.8068 194.504 40.1705C193.635 40.5284 192.632 40.7074 191.496 40.7074C189.763 40.7074 188.382 40.3466 187.354 39.625C186.331 38.8977 185.732 37.9091 185.555 36.6591L189.126 36.4716C189.234 37 189.496 37.4034 189.911 37.6818C190.325 37.9545 190.857 38.0909 191.504 38.0909C192.141 38.0909 192.652 37.9688 193.038 37.7244C193.43 37.4744 193.629 37.1534 193.635 36.7614C193.629 36.4318 193.49 36.1619 193.217 35.9517C192.945 35.7358 192.524 35.571 191.956 35.4574L189.689 35.0057C188.411 34.75 187.459 34.3068 186.834 33.6761C186.214 33.0455 185.905 32.2415 185.905 31.2642C185.905 30.4233 186.132 29.6989 186.587 29.0909C187.047 28.483 187.692 28.0142 188.521 27.6847C189.357 27.3551 190.334 27.1903 191.453 27.1903C193.107 27.1903 194.408 27.5398 195.357 28.2386C196.311 28.9375 196.868 29.8892 197.027 31.0938Z" fill="white"/>
<path d="M199.612 40.4517V27.3608H203.242V40.4517H199.612ZM201.435 25.6733C200.896 25.6733 200.433 25.4943 200.046 25.1364C199.665 24.7727 199.475 24.3381 199.475 23.8324C199.475 23.3324 199.665 22.9034 200.046 22.5455C200.433 22.1818 200.896 22 201.435 22C201.975 22 202.435 22.1818 202.816 22.5455C203.202 22.9034 203.396 23.3324 203.396 23.8324C203.396 24.3381 203.202 24.7727 202.816 25.1364C202.435 25.4943 201.975 25.6733 201.435 25.6733Z" fill="white"/>
<path d="M212.048 45.6335C210.872 45.6335 209.864 45.4716 209.023 45.1477C208.187 44.8295 207.523 44.3949 207.028 43.8438C206.534 43.2926 206.213 42.6733 206.065 41.9858L209.423 41.5341C209.526 41.7955 209.687 42.0398 209.909 42.267C210.131 42.4943 210.423 42.6761 210.787 42.8125C211.156 42.9545 211.605 43.0256 212.134 43.0256C212.923 43.0256 213.574 42.8324 214.085 42.446C214.602 42.0653 214.861 41.4261 214.861 40.5284V38.1335H214.707C214.548 38.4972 214.31 38.8409 213.991 39.1648C213.673 39.4886 213.264 39.7528 212.764 39.9574C212.264 40.1619 211.668 40.2642 210.974 40.2642C209.991 40.2642 209.097 40.0369 208.29 39.5824C207.489 39.1222 206.849 38.4205 206.372 37.4773C205.901 36.5284 205.665 35.3295 205.665 33.8807C205.665 32.3977 205.906 31.1591 206.389 30.1648C206.872 29.1705 207.514 28.4261 208.315 27.9318C209.122 27.4375 210.006 27.1903 210.966 27.1903C211.699 27.1903 212.313 27.3153 212.807 27.5653C213.301 27.8097 213.699 28.1165 214 28.4858C214.307 28.8494 214.543 29.2074 214.707 29.5597H214.844V27.3608H218.449V40.5795C218.449 41.6932 218.176 42.625 217.631 43.375C217.085 44.125 216.33 44.6875 215.364 45.0625C214.403 45.4432 213.298 45.6335 212.048 45.6335ZM212.125 37.5369C212.71 37.5369 213.205 37.392 213.608 37.1023C214.017 36.8068 214.33 36.3864 214.545 35.8409C214.767 35.2898 214.878 34.6307 214.878 33.8636C214.878 33.0966 214.77 32.4318 214.554 31.8693C214.338 31.3011 214.026 30.8608 213.616 30.5483C213.207 30.2358 212.71 30.0795 212.125 30.0795C211.528 30.0795 211.026 30.2415 210.616 30.5653C210.207 30.8835 209.898 31.3267 209.688 31.8949C209.477 32.4631 209.372 33.1193 209.372 33.8636C209.372 34.6193 209.477 35.2727 209.688 35.8239C209.903 36.3693 210.213 36.7926 210.616 37.0938C211.026 37.3892 211.528 37.5369 212.125 37.5369Z" fill="white"/>
<path d="M224.969 32.8835V40.4517H221.338V27.3608H224.798V29.6705H224.952C225.241 28.9091 225.727 28.3068 226.409 27.8636C227.091 27.4148 227.918 27.1903 228.889 27.1903C229.798 27.1903 230.591 27.3892 231.267 27.7869C231.943 28.1847 232.469 28.7528 232.844 29.4915C233.219 30.2244 233.406 31.0994 233.406 32.1165V40.4517H229.776V32.7642C229.781 31.9631 229.577 31.3381 229.162 30.8892C228.747 30.4347 228.176 30.2074 227.449 30.2074C226.96 30.2074 226.528 30.3125 226.153 30.5227C225.784 30.733 225.494 31.0398 225.284 31.4432C225.08 31.8409 224.974 32.321 224.969 32.8835Z" fill="white"/>
<path d="M247.16 31.0938L243.836 31.2983C243.779 31.0142 243.657 30.7585 243.469 30.5313C243.282 30.2983 243.035 30.1136 242.728 29.9773C242.427 29.8352 242.066 29.7642 241.646 29.7642C241.083 29.7642 240.609 29.8835 240.222 30.1222C239.836 30.3551 239.643 30.6676 239.643 31.0597C239.643 31.3722 239.768 31.6364 240.018 31.8523C240.268 32.0682 240.697 32.2415 241.305 32.3722L243.674 32.8494C244.947 33.1108 245.896 33.5313 246.521 34.1108C247.146 34.6903 247.458 35.4517 247.458 36.3949C247.458 37.2528 247.205 38.0057 246.7 38.6534C246.2 39.3011 245.512 39.8068 244.637 40.1705C243.768 40.5284 242.765 40.7074 241.629 40.7074C239.896 40.7074 238.515 40.3466 237.487 39.625C236.464 38.8977 235.864 37.9091 235.688 36.6591L239.259 36.4716C239.367 37 239.629 37.4034 240.043 37.6818C240.458 37.9545 240.989 38.0909 241.637 38.0909C242.273 38.0909 242.785 37.9688 243.171 37.7244C243.563 37.4744 243.762 37.1534 243.768 36.7614C243.762 36.4318 243.623 36.1619 243.35 35.9517C243.077 35.7358 242.657 35.571 242.089 35.4574L239.822 35.0057C238.543 34.75 237.592 34.3068 236.967 33.6761C236.347 33.0455 236.038 32.2415 236.038 31.2642C236.038 30.4233 236.265 29.6989 236.719 29.0909C237.18 28.483 237.825 28.0142 238.654 27.6847C239.489 27.3551 240.467 27.1903 241.586 27.1903C243.239 27.1903 244.54 27.5398 245.489 28.2386C246.444 28.9375 247.001 29.8892 247.16 31.0938Z" fill="white"/>
<path d="M70 56.5105V48.1133H73.3933C74.0457 48.1133 74.6014 48.2349 75.0606 48.4782C75.5198 48.7187 75.8697 49.0536 76.1105 49.4827C76.3541 49.9092 76.4759 50.4012 76.4759 50.9588C76.4759 51.5165 76.3527 52.0085 76.1063 52.4349C75.8599 52.8613 75.503 53.1935 75.0354 53.4313C74.5706 53.6691 74.0079 53.788 73.3471 53.788H71.1843V52.3652H73.0532C73.4031 52.3652 73.6915 52.3064 73.9183 52.1889C74.1479 52.0686 74.3187 51.9032 74.4306 51.6928C74.5454 51.4796 74.6028 51.2349 74.6028 50.9588C74.6028 50.68 74.5454 50.4367 74.4306 50.229C74.3187 50.0185 74.1479 49.8559 73.9183 49.7411C73.6887 49.6235 73.3975 49.5648 73.0448 49.5648H71.8185V56.5105H70Z" fill="#DAB000"/>
<path d="M77.6234 56.5105V50.2126H79.3579V51.3114H79.4251C79.5427 50.9206 79.7401 50.6253 80.0172 50.4258C80.2944 50.2235 80.6136 50.1224 80.9748 50.1224C81.0644 50.1224 81.161 50.1279 81.2645 50.1388C81.3681 50.1497 81.4591 50.1648 81.5375 50.1839V51.7338C81.4535 51.7092 81.3373 51.6873 81.1889 51.6682C81.0406 51.649 80.9048 51.6395 80.7816 51.6395C80.5184 51.6395 80.2832 51.6955 80.076 51.8076C79.8717 51.9169 79.7093 52.07 79.5889 52.2668C79.4713 52.4636 79.4125 52.6905 79.4125 52.9474V56.5105H77.6234Z" fill="#DAB000"/>
<path d="M84.1172 56.6294C83.7056 56.6294 83.3388 56.5597 83.0169 56.4203C82.6949 56.2782 82.4401 56.0691 82.2525 55.793C82.0677 55.5142 81.9753 55.167 81.9753 54.7515C81.9753 54.4017 82.0411 54.1078 82.1727 53.87C82.3043 53.6322 82.4835 53.4408 82.7103 53.296C82.9371 53.1511 83.1946 53.0417 83.483 52.9679C83.7742 52.8941 84.0794 52.8422 84.3985 52.8121C84.7737 52.7739 85.0761 52.7383 85.3057 52.7055C85.5352 52.67 85.7018 52.6181 85.8054 52.5497C85.909 52.4814 85.9608 52.3802 85.9608 52.2463V52.2217C85.9608 51.962 85.8768 51.7611 85.7088 51.619C85.5436 51.4768 85.3085 51.4058 85.0033 51.4058C84.6813 51.4058 84.4251 51.4755 84.2348 51.6149C84.0444 51.7515 83.9184 51.9237 83.8568 52.1315L82.2021 52.0003C82.2861 51.6176 82.4513 51.2868 82.6977 51.008C82.9441 50.7265 83.2618 50.5105 83.651 50.3602C84.043 50.2071 84.4965 50.1306 85.0117 50.1306C85.3701 50.1306 85.713 50.1716 86.0406 50.2536C86.371 50.3356 86.6636 50.4627 86.9183 50.6349C87.1759 50.8071 87.3789 51.0285 87.5273 51.2991C87.6757 51.567 87.7499 51.8882 87.7499 52.2627V56.5105H86.0532V55.6372H86.0028C85.8992 55.834 85.7606 56.0076 85.587 56.1579C85.4135 56.3055 85.2049 56.4217 84.9613 56.5064C84.7177 56.5884 84.4363 56.6294 84.1172 56.6294ZM84.6295 55.424C84.8927 55.424 85.1251 55.3734 85.3267 55.2723C85.5282 55.1684 85.6864 55.029 85.8012 54.854C85.916 54.6791 85.9734 54.4809 85.9734 54.2595V53.5912C85.9174 53.6267 85.8404 53.6595 85.7424 53.6896C85.6472 53.7169 85.5394 53.7429 85.4191 53.7675C85.2987 53.7894 85.1783 53.8099 85.0579 53.829C84.9375 53.8454 84.8283 53.8604 84.7303 53.8741C84.5203 53.9042 84.3369 53.952 84.1802 54.0176C84.0234 54.0832 83.9016 54.172 83.8148 54.2841C83.728 54.3935 83.6846 54.5301 83.6846 54.6941C83.6846 54.9319 83.7728 55.1137 83.9492 55.2395C84.1284 55.3625 84.3551 55.424 84.6295 55.424Z" fill="#DAB000"/>
<path d="M92.0524 56.6335C91.3917 56.6335 90.8233 56.4969 90.3474 56.2235C89.8742 55.9474 89.5102 55.5648 89.2555 55.0755C89.0035 54.5862 88.8775 54.0231 88.8775 53.3862C88.8775 52.7411 89.0049 52.1752 89.2596 51.6887C89.5172 51.1994 89.8826 50.8181 90.3558 50.5447C90.8289 50.2686 91.3917 50.1306 92.044 50.1306C92.6068 50.1306 93.0995 50.2304 93.5223 50.4299C93.9451 50.6294 94.2796 50.9096 94.526 51.2704C94.7724 51.6313 94.9082 52.055 94.9334 52.5415H93.2451C93.1975 52.2272 93.0715 51.9743 92.8672 51.783C92.6656 51.5889 92.401 51.4919 92.0734 51.4919C91.7962 51.4919 91.5541 51.5657 91.3469 51.7133C91.1425 51.8581 90.9829 52.07 90.8681 52.3488C90.7533 52.6276 90.6959 52.9652 90.6959 53.3616C90.6959 53.7634 90.7519 54.1051 90.8639 54.3866C90.9787 54.6682 91.1397 54.8827 91.3469 55.0304C91.5541 55.178 91.7962 55.2518 92.0734 55.2518C92.2778 55.2518 92.4612 55.2108 92.6236 55.1288C92.7888 55.0468 92.9246 54.9278 93.0309 54.772C93.1401 54.6135 93.2115 54.4235 93.2451 54.2021H94.9334C94.9054 54.6832 94.771 55.1069 94.5302 55.4732C94.2922 55.8367 93.9633 56.121 93.5433 56.326C93.1233 56.531 92.6264 56.6335 92.0524 56.6335Z" fill="#DAB000"/>
<path d="M99.51 50.2126V51.5247H95.6253V50.2126H99.51ZM96.5072 48.7037H98.2963V54.5752C98.2963 54.7365 98.3215 54.8622 98.3719 54.9525C98.4223 55.0399 98.4923 55.1014 98.5818 55.137C98.6742 55.1725 98.7806 55.1903 98.901 55.1903C98.985 55.1903 99.069 55.1834 99.153 55.1698C99.237 55.1534 99.3014 55.1411 99.3462 55.1329L99.6276 56.4326C99.538 56.46 99.412 56.4914 99.2496 56.5269C99.0872 56.5652 98.8898 56.5884 98.6574 56.5966C98.2263 56.613 97.8483 56.557 97.5235 56.4285C97.2016 56.3001 96.951 56.1005 96.7718 55.8299C96.5926 55.5593 96.5044 55.2176 96.5072 54.8048V48.7037Z" fill="#DAB000"/>
<path d="M100.675 56.5105V50.2126H102.464V56.5105H100.675ZM101.574 49.4007C101.308 49.4007 101.08 49.3146 100.89 49.1424C100.702 48.9675 100.608 48.7584 100.608 48.5151C100.608 48.2745 100.702 48.0682 100.89 47.896C101.08 47.721 101.308 47.6335 101.574 47.6335C101.84 47.6335 102.067 47.721 102.254 47.896C102.445 48.0682 102.54 48.2745 102.54 48.5151C102.54 48.7584 102.445 48.9675 102.254 49.1424C102.067 49.3146 101.84 49.4007 101.574 49.4007Z" fill="#DAB000"/>
<path d="M106.812 56.6335C106.151 56.6335 105.583 56.4969 105.107 56.2235C104.634 55.9474 104.27 55.5648 104.015 55.0755C103.763 54.5862 103.637 54.0231 103.637 53.3862C103.637 52.7411 103.765 52.1752 104.019 51.6887C104.277 51.1994 104.642 50.8181 105.115 50.5447C105.589 50.2686 106.151 50.1306 106.804 50.1306C107.366 50.1306 107.859 50.2304 108.282 50.4299C108.705 50.6294 109.039 50.9096 109.286 51.2704C109.532 51.6313 109.668 52.055 109.693 52.5415H108.005C107.957 52.2272 107.831 51.9743 107.627 51.783C107.425 51.5889 107.161 51.4919 106.833 51.4919C106.556 51.4919 106.314 51.5657 106.107 51.7133C105.902 51.8581 105.743 52.07 105.628 52.3488C105.513 52.6276 105.456 52.9652 105.456 53.3616C105.456 53.7634 105.512 54.1051 105.624 54.3866C105.738 54.6682 105.899 54.8827 106.107 55.0304C106.314 55.178 106.556 55.2518 106.833 55.2518C107.038 55.2518 107.221 55.2108 107.383 55.1288C107.548 55.0468 107.684 54.9278 107.791 54.772C107.9 54.6135 107.971 54.4235 108.005 54.2021H109.693C109.665 54.6832 109.531 55.1069 109.29 55.4732C109.052 55.8367 108.723 56.121 108.303 56.326C107.883 56.531 107.386 56.6335 106.812 56.6335Z" fill="#DAB000"/>
<path d="M112.678 56.6294C112.266 56.6294 111.9 56.5597 111.578 56.4203C111.256 56.2782 111.001 56.0691 110.813 55.793C110.629 55.5142 110.536 55.167 110.536 54.7515C110.536 54.4017 110.602 54.1078 110.734 53.87C110.865 53.6322 111.044 53.4408 111.271 53.296C111.498 53.1511 111.755 53.0417 112.044 52.9679C112.335 52.8941 112.64 52.8422 112.959 52.8121C113.335 52.7739 113.637 52.7383 113.867 52.7055C114.096 52.67 114.263 52.6181 114.366 52.5497C114.47 52.4814 114.522 52.3802 114.522 52.2463V52.2217C114.522 51.962 114.438 51.7611 114.27 51.619C114.105 51.4768 113.869 51.4058 113.564 51.4058C113.242 51.4058 112.986 51.4755 112.796 51.6149C112.605 51.7515 112.479 51.9237 112.418 52.1315L110.763 52.0003C110.847 51.6176 111.012 51.2868 111.259 51.008C111.505 50.7265 111.823 50.5105 112.212 50.3602C112.604 50.2071 113.057 50.1306 113.573 50.1306C113.931 50.1306 114.274 50.1716 114.601 50.2536C114.932 50.3356 115.224 50.4627 115.479 50.6349C115.737 50.8071 115.94 51.0285 116.088 51.2991C116.237 51.567 116.311 51.8882 116.311 52.2627V56.5105H114.614V55.6372H114.564C114.46 55.834 114.321 56.0076 114.148 56.1579C113.974 56.3055 113.766 56.4217 113.522 56.5064C113.279 56.5884 112.997 56.6294 112.678 56.6294ZM113.19 55.424C113.454 55.424 113.686 55.3734 113.888 55.2723C114.089 55.1684 114.247 55.029 114.362 54.854C114.477 54.6791 114.534 54.4809 114.534 54.2595V53.5912C114.478 53.6267 114.401 53.6595 114.303 53.6896C114.208 53.7169 114.1 53.7429 113.98 53.7675C113.86 53.7894 113.739 53.8099 113.619 53.829C113.498 53.8454 113.389 53.8604 113.291 53.8741C113.081 53.9042 112.898 53.952 112.741 54.0176C112.584 54.0832 112.462 54.172 112.376 54.2841C112.289 54.3935 112.245 54.5301 112.245 54.6941C112.245 54.9319 112.334 55.1137 112.51 55.2395C112.689 55.3625 112.916 55.424 113.19 55.424Z" fill="#DAB000"/>
<path d="M119.488 48.1133V56.5105H117.699V48.1133H119.488Z" fill="#DAB000"/>
<path d="M125.51 48.1133V56.5105H123.692V48.1133H125.51Z" fill="#DAB000"/>
<path d="M128.762 52.8695V56.5105H126.973V50.2126H128.678V51.3238H128.753C128.896 50.9575 129.135 50.6677 129.471 50.4545C129.807 50.2386 130.215 50.1306 130.694 50.1306C131.141 50.1306 131.532 50.2263 131.865 50.4176C132.198 50.6089 132.457 50.8823 132.642 51.2376C132.827 51.5903 132.919 52.0112 132.919 52.5005V56.5105H131.13V52.8121C131.133 52.4267 131.032 52.126 130.828 51.9101C130.624 51.6914 130.342 51.5821 129.984 51.5821C129.743 51.5821 129.53 51.6326 129.345 51.7338C129.163 51.8349 129.021 51.9825 128.917 52.1766C128.816 52.3679 128.764 52.5989 128.762 52.8695Z" fill="#DAB000"/>
<path d="M136.118 52.8695V56.5105H134.329V50.2126H136.034V51.3238H136.11C136.253 50.9575 136.492 50.6677 136.828 50.4545C137.164 50.2386 137.572 50.1306 138.05 50.1306C138.498 50.1306 138.889 50.2263 139.222 50.4176C139.555 50.6089 139.814 50.8823 139.999 51.2376C140.184 51.5903 140.276 52.0112 140.276 52.5005V56.5105H138.487V52.8121C138.49 52.4267 138.389 52.126 138.185 51.9101C137.98 51.6914 137.699 51.5821 137.341 51.5821C137.1 51.5821 136.887 51.6326 136.702 51.7338C136.52 51.8349 136.377 51.9825 136.274 52.1766C136.173 52.3679 136.121 52.5989 136.118 52.8695Z" fill="#DAB000"/>
<path d="M144.601 56.6335C143.948 56.6335 143.384 56.4982 142.908 56.2276C142.435 55.9543 142.07 55.5743 141.812 55.0878C141.555 54.5985 141.426 54.0313 141.426 53.3862C141.426 52.7356 141.555 52.167 141.812 51.6805C142.07 51.1912 142.435 50.8112 142.908 50.5406C143.384 50.2673 143.948 50.1306 144.601 50.1306C145.253 50.1306 145.816 50.2673 146.289 50.5406C146.765 50.8112 147.132 51.1912 147.389 51.6805C147.647 52.167 147.776 52.7356 147.776 53.3862C147.776 54.0313 147.647 54.5985 147.389 55.0878C147.132 55.5743 146.765 55.9543 146.289 56.2276C145.816 56.4982 145.253 56.6335 144.601 56.6335ZM144.609 55.2805C144.906 55.2805 145.154 55.1985 145.352 55.0345C145.551 54.8677 145.701 54.6408 145.802 54.3538C145.905 54.0668 145.957 53.7402 145.957 53.3739C145.957 53.0076 145.905 52.6809 145.802 52.3939C145.701 52.1069 145.551 51.88 145.352 51.7133C145.154 51.5465 144.906 51.4632 144.609 51.4632C144.31 51.4632 144.058 51.5465 143.853 51.7133C143.652 51.88 143.499 52.1069 143.395 52.3939C143.295 52.6809 143.244 53.0076 143.244 53.3739C143.244 53.7402 143.295 54.0668 143.395 54.3538C143.499 54.6408 143.652 54.8677 143.853 55.0345C144.058 55.1985 144.31 55.2805 144.609 55.2805Z" fill="#DAB000"/>
<path d="M154.745 50.2126L152.49 56.5105H150.474L148.219 50.2126H150.109L151.448 54.7187H151.515L152.851 50.2126H154.745Z" fill="#DAB000"/>
<path d="M157.327 56.6294C156.915 56.6294 156.548 56.5597 156.226 56.4203C155.904 56.2782 155.65 56.0691 155.462 55.793C155.277 55.5142 155.185 55.167 155.185 54.7515C155.185 54.4017 155.251 54.1078 155.382 53.87C155.514 53.6322 155.693 53.4408 155.92 53.296C156.147 53.1511 156.404 53.0417 156.693 52.9679C156.984 52.8941 157.289 52.8422 157.608 52.8121C157.983 52.7739 158.286 52.7383 158.515 52.7055C158.745 52.67 158.911 52.6181 159.015 52.5497C159.119 52.4814 159.17 52.3802 159.17 52.2463V52.2217C159.17 51.962 159.086 51.7611 158.918 51.619C158.753 51.4768 158.518 51.4058 158.213 51.4058C157.891 51.4058 157.635 51.4755 157.444 51.6149C157.254 51.7515 157.128 51.9237 157.066 52.1315L155.412 52.0003C155.496 51.6176 155.661 51.2868 155.907 51.008C156.154 50.7265 156.471 50.5105 156.861 50.3602C157.253 50.2071 157.706 50.1306 158.221 50.1306C158.58 50.1306 158.923 50.1716 159.25 50.2536C159.581 50.3356 159.873 50.4627 160.128 50.6349C160.385 50.8071 160.588 51.0285 160.737 51.2991C160.885 51.567 160.959 51.8882 160.959 52.2627V56.5105H159.263V55.6372H159.212C159.109 55.834 158.97 56.0076 158.797 56.1579C158.623 56.3055 158.414 56.4217 158.171 56.5064C157.927 56.5884 157.646 56.6294 157.327 56.6294ZM157.839 55.424C158.102 55.424 158.335 55.3734 158.536 55.2723C158.738 55.1684 158.896 55.029 159.011 54.854C159.126 54.6791 159.183 54.4809 159.183 54.2595V53.5912C159.127 53.6267 159.05 53.6595 158.952 53.6896C158.857 53.7169 158.749 53.7429 158.629 53.7675C158.508 53.7894 158.388 53.8099 158.267 53.829C158.147 53.8454 158.038 53.8604 157.94 53.8741C157.73 53.9042 157.547 53.952 157.39 54.0176C157.233 54.0832 157.111 54.172 157.024 54.2841C156.938 54.3935 156.894 54.5301 156.894 54.6941C156.894 54.9319 156.982 55.1137 157.159 55.2395C157.338 55.3625 157.565 55.424 157.839 55.424Z" fill="#DAB000"/>
<path d="M165.779 50.2126V51.5247H161.894V50.2126H165.779ZM162.776 48.7037H164.565V54.5752C164.565 54.7365 164.59 54.8622 164.64 54.9525C164.691 55.0399 164.761 55.1014 164.85 55.137C164.943 55.1725 165.049 55.1903 165.17 55.1903C165.254 55.1903 165.338 55.1834 165.422 55.1698C165.506 55.1534 165.57 55.1411 165.615 55.1329L165.896 56.4326C165.807 56.46 165.681 56.4914 165.518 56.5269C165.356 56.5652 165.158 56.5884 164.926 56.5966C164.495 56.613 164.117 56.557 163.792 56.4285C163.47 56.3001 163.22 56.1005 163.04 55.8299C162.861 55.5593 162.773 55.2176 162.776 54.8048V48.7037Z" fill="#DAB000"/>
<path d="M166.944 56.5105V50.2126H168.733V56.5105H166.944ZM167.843 49.4007C167.577 49.4007 167.349 49.3146 167.158 49.1424C166.971 48.9675 166.877 48.7584 166.877 48.5151C166.877 48.2745 166.971 48.0682 167.158 47.896C167.349 47.721 167.577 47.6335 167.843 47.6335C168.109 47.6335 168.335 47.721 168.523 47.896C168.713 48.0682 168.809 48.2745 168.809 48.5151C168.809 48.7584 168.713 48.9675 168.523 49.1424C168.335 49.3146 168.109 49.4007 167.843 49.4007Z" fill="#DAB000"/>
<path d="M173.081 56.6335C172.428 56.6335 171.864 56.4982 171.388 56.2276C170.915 55.9543 170.55 55.5743 170.292 55.0878C170.035 54.5985 169.906 54.0313 169.906 53.3862C169.906 52.7356 170.035 52.167 170.292 51.6805C170.55 51.1912 170.915 50.8112 171.388 50.5406C171.864 50.2673 172.428 50.1306 173.081 50.1306C173.733 50.1306 174.296 50.2673 174.769 50.5406C175.245 50.8112 175.612 51.1912 175.869 51.6805C176.127 52.167 176.256 52.7356 176.256 53.3862C176.256 54.0313 176.127 54.5985 175.869 55.0878C175.612 55.5743 175.245 55.9543 174.769 56.2276C174.296 56.4982 173.733 56.6335 173.081 56.6335ZM173.089 55.2805C173.386 55.2805 173.634 55.1985 173.832 55.0345C174.031 54.8677 174.181 54.6408 174.282 54.3538C174.385 54.0668 174.437 53.7402 174.437 53.3739C174.437 53.0076 174.385 52.6809 174.282 52.3939C174.181 52.1069 174.031 51.88 173.832 51.7133C173.634 51.5465 173.386 51.4632 173.089 51.4632C172.79 51.4632 172.538 51.5465 172.333 51.7133C172.132 51.88 171.979 52.1069 171.875 52.3939C171.775 52.6809 171.724 53.0076 171.724 53.3739C171.724 53.7402 171.775 54.0668 171.875 54.3538C171.979 54.6408 172.132 54.8677 172.333 55.0345C172.538 55.1985 172.79 55.2805 173.089 55.2805Z" fill="#DAB000"/>
<path d="M179.208 52.8695V56.5105H177.419V50.2126H179.124V51.3238H179.2C179.342 50.9575 179.582 50.6677 179.918 50.4545C180.254 50.2386 180.661 50.1306 181.14 50.1306C181.588 50.1306 181.978 50.2263 182.312 50.4176C182.645 50.6089 182.904 50.8823 183.088 51.2376C183.273 51.5903 183.366 52.0112 183.366 52.5005V56.5105H181.577V52.8121C181.579 52.4267 181.479 52.126 181.274 51.9101C181.07 51.6914 180.788 51.5821 180.43 51.5821C180.189 51.5821 179.977 51.6326 179.792 51.7338C179.61 51.8349 179.467 51.9825 179.363 52.1766C179.263 52.3679 179.211 52.5989 179.208 52.8695Z" fill="#DAB000"/>
<path d="M189.352 56.6294C188.941 56.6294 188.574 56.5597 188.252 56.4203C187.93 56.2782 187.675 56.0691 187.488 55.793C187.303 55.5142 187.21 55.167 187.21 54.7515C187.21 54.4017 187.276 54.1078 187.408 53.87C187.539 53.6322 187.719 53.4408 187.945 53.296C188.172 53.1511 188.43 53.0417 188.718 52.9679C189.009 52.8941 189.314 52.8422 189.634 52.8121C190.009 52.7739 190.311 52.7383 190.541 52.7055C190.77 52.67 190.937 52.6181 191.041 52.5497C191.144 52.4814 191.196 52.3802 191.196 52.2463V52.2217C191.196 51.962 191.112 51.7611 190.944 51.619C190.779 51.4768 190.544 51.4058 190.238 51.4058C189.916 51.4058 189.66 51.4755 189.47 51.6149C189.279 51.7515 189.154 51.9237 189.092 52.1315L187.437 52.0003C187.521 51.6176 187.686 51.2868 187.933 51.008C188.179 50.7265 188.497 50.5105 188.886 50.3602C189.278 50.2071 189.732 50.1306 190.247 50.1306C190.605 50.1306 190.948 50.1716 191.276 50.2536C191.606 50.3356 191.899 50.4627 192.153 50.6349C192.411 50.8071 192.614 51.0285 192.762 51.2991C192.911 51.567 192.985 51.8882 192.985 52.2627V56.5105H191.288V55.6372H191.238C191.134 55.834 190.996 56.0076 190.822 56.1579C190.649 56.3055 190.44 56.4217 190.196 56.5064C189.953 56.5884 189.671 56.6294 189.352 56.6294ZM189.865 55.424C190.128 55.424 190.36 55.3734 190.562 55.2723C190.763 55.1684 190.922 55.029 191.036 54.854C191.151 54.6791 191.209 54.4809 191.209 54.2595V53.5912C191.153 53.6267 191.076 53.6595 190.978 53.6896C190.882 53.7169 190.775 53.7429 190.654 53.7675C190.534 53.7894 190.413 53.8099 190.293 53.829C190.173 53.8454 190.063 53.8604 189.965 53.8741C189.755 53.9042 189.572 53.952 189.415 54.0176C189.259 54.0832 189.137 54.172 189.05 54.2841C188.963 54.3935 188.92 54.5301 188.92 54.6941C188.92 54.9319 189.008 55.1137 189.184 55.2395C189.363 55.3625 189.59 55.424 189.865 55.424Z" fill="#DAB000"/>
<path d="M197.804 50.2126V51.5247H193.919V50.2126H197.804ZM194.801 48.7037H196.59V54.5752C196.59 54.7365 196.616 54.8622 196.666 54.9525C196.716 55.0399 196.786 55.1014 196.876 55.137C196.968 55.1725 197.075 55.1903 197.195 55.1903C197.279 55.1903 197.363 55.1834 197.447 55.1698C197.531 55.1534 197.596 55.1411 197.64 55.1329L197.922 56.4326C197.832 56.46 197.706 56.4914 197.544 56.5269C197.381 56.5652 197.184 56.5884 196.952 56.5966C196.52 56.613 196.142 56.557 195.818 56.4285C195.496 56.3001 195.245 56.1005 195.066 55.8299C194.887 55.5593 194.799 55.2176 194.801 54.8048V48.7037Z" fill="#DAB000"/>
<path d="M201.707 56.5105V50.2126H203.496V56.5105H201.707ZM202.605 49.4007C202.339 49.4007 202.111 49.3146 201.921 49.1424C201.733 48.9675 201.639 48.7584 201.639 48.5151C201.639 48.2745 201.733 48.0682 201.921 47.896C202.111 47.721 202.339 47.6335 202.605 47.6335C202.871 47.6335 203.098 47.721 203.286 47.896C203.476 48.0682 203.571 48.2745 203.571 48.5151C203.571 48.7584 203.476 48.9675 203.286 49.1424C203.098 49.3146 202.871 49.4007 202.605 49.4007Z" fill="#DAB000"/>
<path d="M208.36 50.2126V51.5247H204.475V50.2126H208.36ZM205.357 48.7037H207.146V54.5752C207.146 54.7365 207.171 54.8622 207.222 54.9525C207.272 55.0399 207.342 55.1014 207.432 55.137C207.524 55.1725 207.631 55.1903 207.751 55.1903C207.835 55.1903 207.919 55.1834 208.003 55.1698C208.087 55.1534 208.151 55.1411 208.196 55.1329L208.478 56.4326C208.388 56.46 208.262 56.4914 208.1 56.5269C207.937 56.5652 207.74 56.5884 207.507 56.5966C207.076 56.613 206.698 56.557 206.374 56.4285C206.052 56.3001 205.801 56.1005 205.622 55.8299C205.443 55.5593 205.354 55.2176 205.357 54.8048V48.7037Z" fill="#DAB000"/>
<path d="M214.812 52.0085L213.174 52.1069C213.146 51.9702 213.086 51.8472 212.993 51.7379C212.901 51.6258 212.779 51.537 212.628 51.4714C212.479 51.403 212.302 51.3689 212.095 51.3689C211.817 51.3689 211.584 51.4263 211.393 51.5411C211.203 51.6531 211.108 51.8035 211.108 51.9921C211.108 52.1424 211.169 52.2695 211.292 52.3734C211.416 52.4773 211.627 52.5607 211.927 52.6235L213.094 52.8531C213.721 52.9789 214.189 53.1812 214.497 53.46C214.805 53.7388 214.959 54.1051 214.959 54.5588C214.959 54.9716 214.834 55.3338 214.585 55.6454C214.339 55.957 214 56.2003 213.569 56.3752C213.14 56.5474 212.646 56.6335 212.086 56.6335C211.232 56.6335 210.552 56.46 210.045 56.1128C209.541 55.7629 209.246 55.2873 209.159 54.6859L210.919 54.5957C210.972 54.8499 211.101 55.044 211.305 55.178C211.509 55.3092 211.771 55.3748 212.09 55.3748C212.404 55.3748 212.656 55.316 212.846 55.1985C213.039 55.0782 213.137 54.9237 213.14 54.7351C213.137 54.5766 213.069 54.4468 212.934 54.3456C212.8 54.2417 212.593 54.1625 212.313 54.1078L211.196 53.8905C210.566 53.7675 210.097 53.5543 209.789 53.2509C209.484 52.9474 209.331 52.5607 209.331 52.0905C209.331 51.6859 209.443 51.3374 209.667 51.0449C209.894 50.7525 210.212 50.5269 210.62 50.3684C211.032 50.2099 211.514 50.1306 212.065 50.1306C212.88 50.1306 213.521 50.2987 213.989 50.6349C214.459 50.9711 214.733 51.429 214.812 52.0085Z" fill="#DAB000"/>
<path d="M218.856 56.5105V48.1133H222.3C222.932 48.1133 223.46 48.2048 223.883 48.388C224.306 48.5711 224.623 48.8253 224.836 49.1506C225.049 49.4732 225.155 49.8449 225.155 50.2659C225.155 50.5939 225.088 50.8823 224.954 51.131C224.819 51.3771 224.635 51.5793 224.4 51.7379C224.167 51.8937 223.901 52.0044 223.602 52.07V52.152C223.929 52.1657 224.236 52.2559 224.521 52.4226C224.81 52.5894 225.043 52.8231 225.223 53.1237C225.402 53.4217 225.491 53.7771 225.491 54.1898C225.491 54.6354 225.378 55.0331 225.151 55.383C224.927 55.7301 224.596 56.0048 224.156 56.2071C223.716 56.4094 223.175 56.5105 222.531 56.5105H218.856ZM220.674 55.0591H222.157C222.664 55.0591 223.033 54.9648 223.266 54.7761C223.498 54.5848 223.614 54.3306 223.614 54.0135C223.614 53.7812 223.557 53.5761 223.442 53.3985C223.327 53.2208 223.163 53.0814 222.951 52.9802C222.741 52.8791 222.49 52.8285 222.199 52.8285H220.674V55.0591ZM220.674 51.6272H222.023C222.272 51.6272 222.493 51.5848 222.686 51.5001C222.882 51.4126 223.036 51.2896 223.148 51.131C223.263 50.9725 223.32 50.7825 223.32 50.5611C223.32 50.2577 223.21 50.013 222.988 49.8272C222.77 49.6413 222.459 49.5484 222.056 49.5484H220.674V51.6272Z" fill="#DAB000"/>
<path d="M229.581 56.6335C228.917 56.6335 228.346 56.5023 227.867 56.2399C227.391 55.9748 227.025 55.6003 226.767 55.1165C226.51 54.6299 226.381 54.0545 226.381 53.3903C226.381 52.7424 226.51 52.1739 226.767 51.6846C227.025 51.1953 227.387 50.814 227.855 50.5406C228.325 50.2673 228.877 50.1306 229.509 50.1306C229.935 50.1306 230.331 50.1976 230.698 50.3315C231.068 50.4627 231.39 50.6609 231.664 50.926C231.941 51.1912 232.157 51.5247 232.311 51.9265C232.465 52.3256 232.542 52.793 232.542 53.3288V53.8085H227.095V52.726H230.858C230.858 52.4745 230.802 52.2518 230.69 52.0577C230.578 51.8636 230.422 51.7119 230.223 51.6026C230.027 51.4905 229.799 51.4345 229.539 51.4345C229.267 51.4345 229.026 51.496 228.817 51.619C228.609 51.7392 228.447 51.9019 228.329 52.1069C228.212 52.3092 228.152 52.5347 228.149 52.7834V53.8126C228.149 54.1242 228.208 54.3935 228.325 54.6203C228.446 54.8472 228.615 55.0222 228.833 55.1452C229.052 55.2682 229.311 55.3297 229.61 55.3297C229.809 55.3297 229.991 55.3023 230.156 55.2477C230.321 55.193 230.463 55.111 230.58 55.0017C230.698 54.8923 230.788 54.7584 230.849 54.5998L232.504 54.7064C232.42 55.0946 232.248 55.4335 231.987 55.7233C231.73 56.0103 231.397 56.2345 230.988 56.3957C230.582 56.5543 230.113 56.6335 229.581 56.6335Z" fill="#DAB000"/>
<path d="M239.076 52.0085L237.438 52.1069C237.41 51.9702 237.35 51.8472 237.258 51.7379C237.165 51.6258 237.044 51.537 236.892 51.4714C236.744 51.403 236.566 51.3689 236.359 51.3689C236.082 51.3689 235.848 51.4263 235.658 51.5411C235.467 51.6531 235.372 51.8035 235.372 51.9921C235.372 52.1424 235.434 52.2695 235.557 52.3734C235.68 52.4773 235.892 52.5607 236.191 52.6235L237.359 52.8531C237.986 52.9789 238.453 53.1812 238.761 53.46C239.069 53.7388 239.223 54.1051 239.223 54.5588C239.223 54.9716 239.099 55.3338 238.85 55.6454C238.603 55.957 238.264 56.2003 237.833 56.3752C237.405 56.5474 236.911 56.6335 236.351 56.6335C235.497 56.6335 234.816 56.46 234.31 56.1128C233.806 55.7629 233.51 55.2873 233.424 54.6859L235.183 54.5957C235.236 54.8499 235.365 55.044 235.57 55.178C235.774 55.3092 236.036 55.3748 236.355 55.3748C236.668 55.3748 236.92 55.316 237.111 55.1985C237.304 55.0782 237.402 54.9237 237.405 54.7351C237.402 54.5766 237.333 54.4468 237.199 54.3456C237.065 54.2417 236.857 54.1625 236.577 54.1078L235.46 53.8905C234.83 53.7675 234.361 53.5543 234.053 53.2509C233.748 52.9474 233.596 52.5607 233.596 52.0905C233.596 51.6859 233.708 51.3374 233.932 51.0449C234.158 50.7525 234.476 50.5269 234.885 50.3684C235.297 50.2099 235.778 50.1306 236.33 50.1306C237.144 50.1306 237.786 50.2987 238.253 50.6349C238.724 50.9711 238.998 51.429 239.076 52.0085Z" fill="#DAB000"/>
<path d="M243.781 50.2126V51.5247H239.896V50.2126H243.781ZM240.778 48.7037H242.567V54.5752C242.567 54.7365 242.592 54.8622 242.643 54.9525C242.693 55.0399 242.763 55.1014 242.853 55.137C242.945 55.1725 243.052 55.1903 243.172 55.1903C243.256 55.1903 243.34 55.1834 243.424 55.1698C243.508 55.1534 243.572 55.1411 243.617 55.1329L243.899 56.4326C243.809 56.46 243.683 56.4914 243.521 56.5269C243.358 56.5652 243.161 56.5884 242.928 56.5966C242.497 56.613 242.119 56.557 241.795 56.4285C241.473 56.3001 241.222 56.1005 241.043 55.8299C240.864 55.5593 240.775 55.2176 240.778 54.8048V48.7037Z" fill="#DAB000"/>
<path d="M245.992 56.6171C245.715 56.6171 245.477 56.5215 245.278 56.3301C245.082 56.1361 244.984 55.9037 244.984 55.6331C244.984 55.3652 245.082 55.1356 245.278 54.9443C245.477 54.7529 245.715 54.6572 245.992 54.6572C246.261 54.6572 246.496 54.7529 246.698 54.9443C246.899 55.1356 247 55.3652 247 55.6331C247 55.8135 246.952 55.9789 246.857 56.1292C246.765 56.2768 246.643 56.3957 246.492 56.4859C246.341 56.5734 246.174 56.6171 245.992 56.6171Z" fill="#DAB000"/>
</svg>
