<svg width="224" height="111" viewBox="0 0 224 111" fill="none" xmlns="http://www.w3.org/2000/svg">
<path d="M0 10C0 4.47715 4.47715 0 10 0H214C219.523 0 224 4.47715 224 10V101C224 106.523 219.523 111 214 111H10C4.47715 111 0 106.523 0 101V10Z" fill="white" fill-opacity="0.1"/>
<path d="M64 33.3534C64 29.2047 67.35 26.0103 72.4321 26.0103C77.5143 26.0103 80.8643 28.9869 80.8643 33.1356C80.8643 37.502 77.5143 40.6965 72.4321 40.6965C67.35 40.6965 64 37.4917 64 33.3534ZM65.535 45.0526H79.35V84.4649H65.535V45.0526Z" fill="#3E67AF"/>
<path d="M118.461 75.027V84.4756H85.6657V77.0184L101.431 62.2699C104.801 59.1377 105.279 57.2189 105.279 55.4661C105.279 52.7591 103.474 51.1308 99.8645 51.1308C96.7945 51.1308 94.0253 52.5102 92.3451 55.2276L83.498 50.2907C86.6925 44.9907 92.6458 41.5059 100.954 41.5059C110.641 41.5059 117.32 46.505 117.32 54.3252C117.32 58.4116 116.179 62.1454 110.153 67.6839L102.209 75.027H118.461Z" fill="#3E67AF"/>
<path d="M129.829 59.8323L135.907 53.1841L144.464 61.5955L152.896 69.9032V86L136.249 69.7372L120.951 84.7346L120.962 69.4883L129.829 59.8323Z" fill="#F79D1F"/>
<path d="M127.278 60.8486L122.518 56.4821V40.5928L135.109 52.292L127.278 60.8486Z" fill="#F79D1F"/>
<path d="M160.227 26V44.4615L147.45 58.038L145.251 60.5272L137.016 52.4373L160.227 26Z" fill="#F79D1F"/>
</svg>
