<svg width="30" height="30" viewBox="0 0 30 30" fill="none" xmlns="http://www.w3.org/2000/svg">
<path d="M1.52345 1.28429C1.19188 1.62269 1 2.14956 1 2.83188V27.1696C1 27.852 1.19188 28.3788 1.52345 28.7172L1.60528 28.7915L15.593 15.159V14.8371L1.60528 1.2045L1.52345 1.28429Z" fill="white"/>
<path d="M21.9435 19.7062L17.2861 15.1597V14.8378L21.9492 10.2913L22.0536 10.3505L27.5759 13.414C29.1519 14.2834 29.1519 15.7141 27.5759 16.589L22.0536 19.647L21.9435 19.7062V19.7062Z" fill="white"/>
<path d="M21.2072 20.493L16.4397 15.8447L2.37012 29.5639C2.89356 30.1004 3.74716 30.1651 4.71787 29.6286L21.2072 20.493" fill="white"/>
<path d="M21.2072 9.50254L4.71787 0.366942C3.74716 -0.164053 2.89356 -0.0994001 2.37012 0.437098L16.4397 14.1508L21.2072 9.50254Z" fill="white"/>
</svg>
