<svg width="224" height="111" viewBox="0 0 224 111" fill="none" xmlns="http://www.w3.org/2000/svg">
<path d="M0 10C0 4.47715 4.47715 0 10 0H214C219.523 0 224 4.47715 224 10V101C224 106.523 219.523 111 214 111H10C4.47715 111 0 106.523 0 101V10Z" fill="white" fill-opacity="0.1"/>
<path d="M46.9557 57.7441L44.2469 52.2016L43.4894 57.7441H38L40.7043 37.9714H44.7018C46.1953 37.8878 47.6914 38.0844 49.1127 38.5511C50.1776 38.9717 51.0966 39.694 51.7568 40.6295C52.3792 41.5708 52.7013 42.6789 52.6806 43.8072C52.7071 45.2045 52.2309 46.5648 51.3388 47.6407C50.6444 48.4528 49.7519 49.0718 48.7478 49.4374L52.7868 57.751H46.9603L46.9557 57.7441ZM45.2422 44.9688C45.8079 44.981 46.3693 44.8682 46.8865 44.6386C47.0054 44.5587 47.0996 44.4472 47.1584 44.3166C47.2171 44.186 47.2381 44.0415 47.219 43.8995C47.2323 43.764 47.1971 43.6281 47.1197 43.5162C47.0252 43.4075 46.8949 43.3363 46.7525 43.3153C46.3343 43.2326 45.9087 43.1931 45.4824 43.1975L45.2422 44.9688Z" fill="white"/>
<path d="M41.6438 39.0455H44.6967C46.0442 38.9677 47.3946 39.1343 48.6827 39.5374C49.5583 39.8759 50.3148 40.4647 50.8581 41.2302C51.358 41.9916 51.6135 42.8876 51.5902 43.7982C51.6174 44.9423 51.2303 46.0577 50.5001 46.9389C49.6392 47.8953 48.4834 48.5366 47.2162 48.761L51.0498 56.6567H47.625L43.8677 48.9688H43.5975L42.5444 56.6567H39.2305L41.6438 39.0455ZM43.997 46.0891C45.1898 46.1952 46.3903 46.0039 47.4911 45.5325C47.7559 45.3537 47.9696 45.1092 48.1117 44.8231C48.2538 44.5369 48.3192 44.2188 48.3016 43.8998C48.3156 43.5263 48.2024 43.159 47.9806 42.8582C47.7394 42.564 47.4071 42.3584 47.0361 42.274C46.2145 42.1305 45.38 42.0749 44.5466 42.1078L43.997 46.0891Z" fill="white"/>
<path d="M53.2227 57.7422L55.9246 37.9648H67.5707L66.8779 43.2532H60.7281L60.5202 44.7312H66.6885L65.9957 49.9943H59.7789L59.4302 52.5022H65.6655L64.9865 57.7422H53.2227Z" fill="white"/>
<path d="M56.8654 39.0454H66.3337L65.9249 42.17H59.7936L59.2855 45.812H65.4654L65.0636 48.9111H58.8583L58.2071 53.5829H64.4539L64.0567 56.6589H54.459L56.8654 39.0454Z" fill="white"/>
<path d="M80.7062 57.7422L78.9419 48.4632L74.5656 57.7422H70.0116L68.2148 37.9648H73.4086L74.1661 46.3986L78.1451 37.9648H82.2142L83.7337 46.0153L86.5743 37.9648H92.0636L85.0616 57.7422H80.7062Z" fill="white"/>
<path d="M69.4023 39.0454H72.4253L73.4484 50.4583L78.8315 39.0454H81.321L83.4155 50.1581L87.3414 39.0454H90.5399L84.3046 56.6589H81.6027L79.3834 44.9967L73.8825 56.6589H71.0027L69.4023 39.0454Z" fill="white"/>
<path d="M116.766 57.7441L114.057 52.2016L113.3 57.7441H107.811L110.515 37.9714H114.508C116.001 37.8878 117.497 38.0844 118.919 38.5511C119.983 38.9718 120.902 39.6941 121.563 40.6295C122.185 41.5708 122.507 42.6789 122.487 43.8072C122.513 45.2046 122.037 46.5649 121.145 47.6407C120.45 48.4529 119.558 49.0719 118.554 49.4374L122.593 57.751H116.766V57.7441ZM115.053 44.9688C115.618 44.981 116.18 44.8682 116.697 44.6386C116.816 44.5587 116.91 44.4472 116.969 44.3166C117.028 44.186 117.049 44.0415 117.03 43.8995C117.042 43.7648 117.008 43.6298 116.935 43.5162C116.84 43.4069 116.71 43.3342 116.568 43.3106C116.149 43.2281 115.724 43.1885 115.297 43.1928L115.053 44.9688Z" fill="white"/>
<path d="M111.466 39.0455H114.519C115.866 38.9677 117.217 39.1343 118.505 39.5374C119.38 39.8759 120.137 40.4647 120.68 41.2302C121.18 41.9916 121.436 42.8876 121.412 43.7982C121.439 44.9426 121.051 46.058 120.32 46.9389C119.459 47.8953 118.303 48.5366 117.036 48.761L120.87 56.6567H117.445L113.685 48.9688H113.417L112.364 56.6567H109.041L111.466 39.0455ZM113.819 46.0891C115.012 46.1952 116.212 46.0039 117.313 45.5325C117.578 45.3537 117.792 45.1092 117.934 44.8231C118.076 44.5369 118.141 44.2188 118.124 43.8998C118.138 43.5263 118.025 43.159 117.803 42.8582C117.561 42.564 117.229 42.3584 116.858 42.274C116.037 42.1305 115.202 42.0749 114.369 42.1078L113.819 46.0891Z" fill="white"/>
<path d="M123.088 57.7442L125.792 37.9714H129.524C131.678 37.8548 133.832 38.2087 135.836 39.0084C137.327 39.7425 138.567 40.901 139.401 42.3384C140.318 43.8961 140.786 45.6767 140.755 47.4837C140.77 49.391 140.28 51.2685 139.334 52.9246C138.499 54.4766 137.232 55.753 135.685 56.5988C133.845 57.4538 131.824 57.85 129.797 57.7535H123.088V57.7442ZM129.323 52.5043C130.371 52.5553 131.42 52.4367 132.429 52.1532C133.261 51.8432 133.969 51.2699 134.445 50.5205C134.992 49.6248 135.264 48.588 135.226 47.5391C135.258 46.7067 135.074 45.88 134.692 45.1397C134.352 44.5442 133.843 44.0623 133.231 43.7541C132.4 43.3789 131.493 43.201 130.582 43.2344L129.323 52.5043Z" fill="white"/>
<path d="M126.737 39.0454H129.529C131.52 38.9352 133.512 39.2501 135.372 39.9692C136.675 40.6122 137.759 41.6262 138.487 42.8837C139.302 44.2716 139.716 45.8585 139.683 47.4677C139.699 49.1863 139.258 50.8782 138.406 52.3705C137.672 53.7441 136.557 54.8759 135.194 55.629C133.506 56.392 131.661 56.7426 129.811 56.652H124.328L126.737 39.0454ZM129.64 42.1492L128.085 53.5829H129.178C130.405 53.6419 131.634 53.4999 132.815 53.1626C133.86 52.7724 134.751 52.0547 135.355 51.1165C136.022 50.0447 136.356 48.7987 136.314 47.5369C136.347 46.5194 136.116 45.5107 135.644 44.6087C135.201 43.83 134.539 43.1982 133.741 42.7912C132.72 42.3209 131.601 42.1016 130.478 42.1516L129.64 42.1492Z" fill="white"/>
<path d="M140.119 57.7422L142.821 37.9648H148.248L145.477 57.7422H140.119Z" fill="white"/>
<path d="M143.764 39.0454H146.997L144.531 56.6589H141.355L143.764 39.0454Z" fill="white"/>
<path d="M158.401 57.7422L153.226 48.0151L151.901 57.7422H146.543L149.222 37.9648H153.7L158.78 47.5532L160.099 37.9648H165.5L162.815 57.7422H158.401Z" fill="white"/>
<path d="M150.163 39.0454H153.049L159.402 51.0218L161.04 39.0454H164.273L161.878 56.6589H159.056L152.62 44.5532L150.969 56.6589H147.779L150.163 39.0454Z" fill="white"/>
<path d="M174.833 58.1809C173.397 58.2418 171.967 57.9703 170.653 57.3875C169.339 56.8047 168.177 55.9262 167.259 54.8208C165.78 53.0334 164.991 50.7754 165.035 48.4562C165.022 47.0236 165.299 45.6032 165.85 44.2807C166.401 42.9581 167.214 41.7609 168.24 40.7614C169.227 39.7267 170.416 38.9058 171.734 38.3497C173.051 37.7935 174.468 37.514 175.898 37.5284C176.987 37.528 178.069 37.689 179.11 38.0063C180.122 38.3115 181.081 38.7678 181.955 39.3596C182.869 40.007 183.682 40.7851 184.369 41.669L185.115 42.5928L180.577 45.5349L179.96 44.8421C179.418 44.1734 178.751 43.6172 177.995 43.2048C177.349 42.9101 176.645 42.7648 175.935 42.7798C175.135 42.7608 174.343 42.9365 173.626 43.2917C172.909 43.647 172.289 44.1711 171.82 44.819C170.976 45.856 170.518 47.1538 170.524 48.4909C170.506 49.0794 170.608 49.6654 170.823 50.2133C171.039 50.7612 171.364 51.2596 171.778 51.6778C172.174 52.0924 172.652 52.4195 173.182 52.6383C173.712 52.857 174.281 52.9625 174.854 52.9479C175.747 52.9593 176.625 52.7261 177.395 52.2736C177.621 52.1392 177.834 51.9846 178.032 51.8117H173.501L174.194 46.5233H185.177L185.129 47.6525C185.124 50.4991 184.033 53.2366 182.078 55.3058C181.131 56.2545 179.999 56.999 178.753 57.4935C177.507 57.988 176.173 58.2219 174.833 58.1809Z" fill="white"/>
<path d="M183.53 42.3362L180.775 44.1236C180.138 43.3446 179.353 42.6995 178.465 42.2254C177.674 41.8599 176.81 41.6782 175.939 41.6942C174.974 41.6743 174.02 41.887 173.155 42.3143C172.29 42.7416 171.541 43.371 170.971 44.1491C169.98 45.3762 169.442 46.9065 169.445 48.4837C169.427 49.2116 169.556 49.9357 169.824 50.6126C170.092 51.2895 170.494 51.9053 171.006 52.4234C171.503 52.9408 172.101 53.3498 172.764 53.6245C173.426 53.8991 174.139 54.0335 174.856 54.0193C175.944 54.0304 177.015 53.7463 177.955 53.1971C178.929 52.6003 179.719 51.7449 180.236 50.7261H174.74L175.149 47.6016H184.056C184.065 50.1807 183.085 52.6651 181.317 54.5435C180.471 55.3942 179.459 56.0613 178.344 56.5031C177.228 56.945 176.034 57.1521 174.835 57.1115C173.558 57.1711 172.285 56.9343 171.116 56.4194C169.946 55.9045 168.912 55.1256 168.094 54.1439C166.774 52.5508 166.073 50.5356 166.119 48.4676C166.106 47.1771 166.356 45.8974 166.853 44.7064C167.35 43.5154 168.084 42.4379 169.011 41.5395C169.896 40.605 170.965 39.8631 172.151 39.3604C173.336 38.8578 174.612 38.6051 175.9 38.6182C176.88 38.6168 177.856 38.7624 178.793 39.05C179.701 39.3215 180.563 39.7303 181.347 40.2624C182.178 40.836 182.914 41.5357 183.53 42.3362Z" fill="white"/>
<path d="M105.357 26.6512L105.879 30.2007L106.936 37.3805L114.571 37.6529L118.811 37.8054L115.578 40.6021C112.691 43.0915 109.712 45.4748 106.777 47.9111L105.052 56.9938L104.662 59.0469L102.863 58.0423L96.7936 54.6522C91.4359 57.8314 86.0775 61.0113 80.7182 64.1921C83.8023 60.4659 87.4082 57.2045 91.4244 54.5089C92.9786 53.4674 96.6574 51.3498 96.6574 51.3498L97.4195 51.7562L102.454 54.4373L103.754 46.768L103.849 46.2114L104.311 45.8281C106.295 44.1346 108.279 42.4411 110.262 40.7475L105.523 40.482L104.193 40.4057L104.031 39.1147L103.398 34.1243L98.2647 40.6597L97.9807 41.0224L97.5557 41.1423C92.5282 42.5416 87.334 43.2516 82.1154 43.2531H81.9445L96.341 38.6344L103.244 29.4732L105.378 26.6396M105.532 26.03L105.184 26.4918L103.038 29.3324L96.1794 38.4289L89.4129 40.595L81.859 43.0153L80.3972 43.4772H81.9306H82.1015C87.3428 43.478 92.5597 42.7656 97.6088 41.3595L98.0337 41.2394L98.11 41.2163L98.1585 41.1563L98.4425 40.7914L103.221 34.7108L103.782 39.124L103.946 40.415L103.971 40.6159H104.172L105.502 40.6921L109.641 40.923C107.98 42.341 106.075 43.9667 104.151 45.6018L103.689 45.9852L103.62 46.0428L103.604 46.1306L103.509 46.6871L102.267 54.0217L97.528 51.4975L96.7659 51.0911L96.6482 51.0264L96.5303 51.0958C96.4934 51.1189 92.8354 53.2319 91.2858 54.2665C87.2496 56.9746 83.6258 60.2516 80.5265 63.9959L79.6328 65.0765L80.8383 64.3606L89.1058 59.4533L96.7936 54.8877L102.743 58.2109L104.542 59.2155L104.832 59.3794L104.897 59.0492L105.287 56.9962L106.996 47.9896C107.92 47.2252 108.86 46.4516 109.768 45.7057C111.733 44.0891 113.767 42.4241 115.728 40.736L118.961 37.9393L119.423 37.5328L118.806 37.5097L114.566 37.3573L107.137 37.0918L106.11 30.113L105.588 26.5634L105.5 26L105.532 26.03Z" fill="white"/>
<path d="M80.6169 64.1134C83.709 60.3801 87.3243 57.1132 91.3508 54.414C92.8888 53.3841 96.5537 51.2687 96.5907 51.2502L96.6484 51.2155L102.355 54.2547L103.727 46.1511L104.207 45.7424C106.116 44.1212 108.023 42.4963 109.927 40.8674L104.059 40.5418L103.286 34.4497L98.0202 41.1468L97.5583 41.2762C92.5203 42.6784 87.3151 43.3892 82.0856 43.3892H81.1457L96.2374 38.5557L105.436 26.353L107.052 37.2693L119.135 37.7012L115.671 40.7033C113.712 42.3938 111.678 44.0612 109.71 45.6732C108.771 46.443 107.834 47.2127 106.9 47.9825L104.759 59.2429L96.8032 54.7997L80.1758 64.6607L80.6169 64.1134Z" fill="url(#paint0_linear_1829_4892)"/>
<mask id="mask0_1829_4892" style="mask-type:luminance" maskUnits="userSpaceOnUse" x="83" y="65" width="15" height="17">
<path d="M93.043 65.9977C91.5615 65.9945 90.1009 66.3478 88.7846 67.0276C87.4285 67.7212 86.2339 68.6932 85.2789 69.8798C84.3266 71.0409 83.664 72.4119 83.346 73.8796C83.2298 74.4238 83.1717 74.9788 83.1728 75.5353C83.1527 76.6916 83.4455 77.8319 84.0203 78.8355C84.5817 79.8085 85.4009 80.6076 86.3875 81.1448C87.4429 81.7115 88.6259 81.9984 89.8237 81.9784C90.7687 81.9797 91.7066 81.8157 92.595 81.4935C93.5121 81.163 94.3781 80.7052 95.1676 80.1333C95.2677 80.0597 95.3525 79.967 95.417 79.8607C95.4936 79.7406 95.5352 79.6014 95.5371 79.4589C95.5372 79.3038 95.4833 79.1537 95.3847 79.0341V79.0063C95.2455 78.8752 95.0609 78.8033 94.8697 78.8054C94.6998 78.812 94.5355 78.8672 94.3963 78.9647C93.1102 79.9124 91.568 80.4501 89.9715 80.5074C89.0207 80.523 88.0818 80.2949 87.2442 79.8447C86.4671 79.4267 85.8218 78.8005 85.3806 78.0364C84.9315 77.2541 84.7002 76.3657 84.7108 75.4637C84.7112 75.0021 84.763 74.5421 84.8655 74.092C85.1394 72.9002 85.683 71.787 86.4544 70.8381C87.278 69.8256 88.2936 68.9858 89.4427 68.3671C90.4989 67.777 91.6855 67.4597 92.8952 67.4434C94.2926 67.4096 95.6475 67.9252 96.6687 68.8797C96.8162 69.019 97.0087 69.101 97.2114 69.1108C97.2983 69.1097 97.3841 69.0908 97.4635 69.0555C97.5429 69.0202 97.6143 68.9691 97.6733 68.9052C97.7471 68.8415 97.806 68.7624 97.8459 68.6734C97.8858 68.5844 97.9057 68.4877 97.9042 68.3902C97.8955 68.1853 97.8136 67.9903 97.6733 67.8406C97.0879 67.2481 96.3877 66.7812 95.6156 66.4687C94.819 66.1522 93.9695 65.99 93.1123 65.9908C93.0908 65.9888 93.0691 65.9888 93.0476 65.9908" fill="white"/>
</mask>
<g mask="url(#mask0_1829_4892)">
<path d="M97.9081 65.9932H83.1582V82.0016H97.9081V65.9932Z" fill="white"/>
</g>
<mask id="mask1_1829_4892" style="mask-type:luminance" maskUnits="userSpaceOnUse" x="97" y="68" width="12" height="14">
<path d="M100.381 68.2264C100.191 68.2211 100.006 68.2875 99.8621 68.4124C99.7184 68.5373 99.6268 68.7115 99.6055 68.9007L97.0328 80.9416C97.0103 81.0165 97.0001 81.0946 97.0028 81.1727C96.9984 81.2572 97.011 81.3417 97.0399 81.4213C97.0687 81.5009 97.1131 81.5739 97.1706 81.6361C97.228 81.6983 97.2973 81.7484 97.3744 81.7834C97.4515 81.8184 97.5348 81.8377 97.6194 81.8401H97.6772C97.8699 81.8399 98.056 81.7694 98.2005 81.6419C98.3451 81.5144 98.4382 81.3385 98.4623 81.1473L99.8895 74.4639C100.082 73.4911 100.511 72.5807 101.139 71.8129C101.663 71.1698 102.329 70.6575 103.086 70.3164C103.732 70.0216 104.433 69.8643 105.143 69.8545C105.584 69.8538 106.019 69.9448 106.422 70.1217C106.825 70.2987 107.187 70.5577 107.485 70.8822C107.624 71.0104 107.807 71.0799 107.995 71.0761C108.169 71.074 108.338 71.0139 108.473 70.9053L108.503 70.8798L108.533 70.8498C108.663 70.7196 108.735 70.5436 108.734 70.3602C108.737 70.1935 108.683 70.0309 108.582 69.8983C108.369 69.6177 108.102 69.3822 107.797 69.2056C107.42 68.9655 107.015 68.7732 106.591 68.6329C106.156 68.4791 105.697 68.4009 105.236 68.4018C103.805 68.4246 102.416 68.8866 101.257 69.7251C101.115 69.8264 100.978 69.9352 100.848 70.0508L101.053 69.0855C101.061 69.0264 101.061 68.9666 101.053 68.9076C101.057 68.824 101.044 68.7405 101.016 68.6619C100.987 68.5833 100.943 68.5111 100.886 68.4495C100.83 68.3879 100.761 68.3382 100.686 68.303C100.61 68.2679 100.527 68.2481 100.444 68.2448H100.409C100.409 68.2287 100.391 68.2287 100.379 68.2448" fill="white"/>
</mask>
<g mask="url(#mask1_1829_4892)">
<path d="M108.732 68.2148H96.9863V81.8424H108.732V68.2148Z" fill="white"/>
</g>
<mask id="mask2_1829_4892" style="mask-type:luminance" maskUnits="userSpaceOnUse" x="107" y="68" width="15" height="15">
<path d="M110.384 72.113C111.059 71.3406 111.873 70.7021 112.784 70.2308C113.621 69.7974 114.55 69.5687 115.493 69.5634C116.331 69.5451 117.158 69.7578 117.883 70.1778C118.515 70.545 119.041 71.0696 119.409 71.7005C119.778 72.3315 119.977 73.0473 119.987 73.778C119.994 73.8648 119.994 73.9522 119.987 74.0391H109.112C109.438 73.338 109.867 72.6896 110.384 72.1154M115.594 68.104C114.315 68.1112 113.059 68.4383 111.939 69.0554C110.767 69.6848 109.737 70.5496 108.916 71.5957C108.098 72.6055 107.526 73.7913 107.244 75.0597C107.141 75.5224 107.088 75.9947 107.084 76.4685C107.073 77.4747 107.326 78.4661 107.819 79.3437C108.301 80.2067 109.013 80.919 109.876 81.4013C110.783 81.9004 111.804 82.1565 112.839 82.1448C113.763 82.1486 114.68 81.982 115.544 81.653C116.384 81.3305 117.179 80.9004 117.908 80.3736C118.017 80.2985 118.104 80.1967 118.162 80.078C118.213 79.9705 118.239 79.8528 118.239 79.7338C118.243 79.5746 118.191 79.419 118.091 79.2952C117.973 79.1475 117.806 79.0483 117.62 79.0168C117.434 78.9852 117.243 79.0235 117.084 79.1242C116.689 79.4051 116.279 79.6635 115.855 79.8979C115.435 80.1184 114.991 80.2897 114.532 80.4083C114.026 80.5716 113.498 80.6587 112.966 80.6669C112.171 80.6839 111.386 80.486 110.694 80.0941C110.046 79.734 109.511 79.1997 109.151 78.5515C108.778 77.876 108.588 77.1153 108.597 76.3438C108.598 76.0601 108.619 75.7768 108.662 75.4962H120.525C120.708 75.5031 120.889 75.4443 121.033 75.3305C121.177 75.2166 121.276 75.0553 121.312 74.8751V74.8495C121.542 73.708 121.411 72.5231 120.936 71.4598C120.461 70.3965 119.667 69.5076 118.663 68.9169H118.68C117.779 68.3899 116.755 68.1124 115.712 68.1132C115.671 68.1132 115.629 68.1132 115.592 68.1132" fill="white"/>
</mask>
<g mask="url(#mask2_1829_4892)">
<path d="M121.783 68.1016H107.07V82.154H121.783V68.1016Z" fill="white"/>
</g>
<mask id="mask3_1829_4892" style="mask-type:luminance" maskUnits="userSpaceOnUse" x="122" y="68" width="16" height="15">
<path d="M126.072 80.0943C125.416 79.7224 124.873 79.1807 124.499 78.5262C124.118 77.8518 123.922 77.0885 123.931 76.3138C123.931 75.9498 123.969 75.5868 124.044 75.2307C124.278 74.1965 124.764 73.236 125.457 72.4341C126.171 71.5741 127.045 70.8611 128.03 70.3349C128.884 69.853 129.842 69.5875 130.822 69.5614C131.614 69.553 132.395 69.7511 133.088 70.1363C133.752 70.5087 134.302 71.0548 134.679 71.7159C135.069 72.398 135.27 73.1725 135.258 73.9583C135.261 74.3215 135.229 74.6842 135.164 75.0414C134.926 76.0669 134.441 77.0185 133.75 77.8127C133.022 78.6683 132.134 79.3741 131.136 79.891C130.262 80.3722 129.284 80.6344 128.286 80.6554H128.217C127.464 80.6585 126.723 80.4626 126.069 80.0874M130.949 68.1064C129.689 68.121 128.452 68.4479 127.349 69.0579C126.159 69.6874 125.108 70.5515 124.261 71.5981C123.421 72.5971 122.839 73.7864 122.564 75.0621C122.462 75.5171 122.408 75.9816 122.404 76.4478C122.396 77.4485 122.653 78.4334 123.148 79.3027C123.644 80.1719 124.361 80.8945 125.226 81.3968C126.108 81.8967 127.106 82.1554 128.12 82.1472C129.056 82.1477 129.985 81.9731 130.857 81.6323C131.788 81.2779 132.656 80.7773 133.429 80.1497C133.708 79.9262 133.974 79.6872 134.226 79.4338L133.905 80.9787L133.875 81.1427V81.1773C133.872 81.2617 133.886 81.3459 133.915 81.425C133.945 81.5041 133.99 81.5765 134.048 81.6381C134.105 81.6997 134.175 81.7493 134.252 81.784C134.329 81.8187 134.412 81.8377 134.496 81.8401H134.561C134.754 81.8368 134.939 81.7655 135.084 81.6387C135.229 81.5119 135.324 81.3378 135.353 81.1473L137.893 69.1386C137.916 69.0584 137.927 68.975 137.923 68.8915C137.93 68.7229 137.87 68.5584 137.756 68.4342C137.641 68.3099 137.482 68.236 137.314 68.2288H137.249C137.144 68.2272 137.04 68.2467 136.944 68.2864C136.847 68.3261 136.759 68.3851 136.686 68.4597C136.572 68.5921 136.492 68.7509 136.455 68.9216L136.023 70.9792C135.448 69.9683 134.573 69.1612 133.519 68.6698C132.735 68.3105 131.882 68.1247 131.018 68.1249H130.954" fill="white"/>
</mask>
<g mask="url(#mask3_1829_4892)">
<path d="M137.938 68.1133H122.4V82.1542H137.938V68.1133Z" fill="white"/>
</g>
<mask id="mask4_1829_4892" style="mask-type:luminance" maskUnits="userSpaceOnUse" x="138" y="65" width="7" height="17">
<path d="M141.834 65.6836C141.645 65.68 141.461 65.747 141.318 65.8716C141.175 65.9962 141.083 66.1697 141.061 66.358L140.433 69.3602H139.102C138.92 69.3491 138.739 69.4059 138.596 69.5197C138.453 69.6336 138.357 69.7963 138.326 69.9767C138.301 70.0751 138.299 70.1783 138.321 70.2776C138.343 70.3769 138.389 70.4694 138.454 70.5474C138.52 70.6254 138.603 70.6867 138.697 70.726C138.791 70.7653 138.892 70.7816 138.994 70.7735H140.135L138.35 79.2026C138.301 79.4139 138.277 79.6302 138.278 79.847C138.267 80.3069 138.406 80.7577 138.675 81.1309C138.822 81.3164 139.005 81.4708 139.212 81.5854C139.42 81.6999 139.648 81.7723 139.883 81.7983C140.182 81.8352 140.483 81.8514 140.784 81.8468C140.936 81.8689 141.092 81.8414 141.228 81.7682C141.364 81.695 141.473 81.58 141.539 81.4403C141.592 81.3249 141.622 81.2001 141.627 81.0731C141.621 80.8934 141.545 80.7231 141.416 80.5981C141.286 80.4732 141.114 80.4034 140.934 80.4035C140.907 80.3996 140.88 80.3996 140.853 80.4035H140.447C140.354 80.4117 140.261 80.4013 140.172 80.3727C140.084 80.3442 140.002 80.298 139.931 80.2372C139.812 80.0838 139.752 79.8931 139.761 79.6991C139.763 79.5777 139.778 79.4569 139.807 79.3389L141.603 70.7758H143.661C143.85 70.7803 144.033 70.7144 144.176 70.591C144.26 70.518 144.328 70.4294 144.377 70.3301L144.423 70.2838L144.451 70.1408C144.472 70.0437 144.47 69.9433 144.446 69.8469C144.423 69.7505 144.378 69.6606 144.315 69.5841C144.253 69.508 144.174 69.4475 144.085 69.4074C143.995 69.3673 143.898 69.3487 143.8 69.3533H141.913L142.523 66.5151V66.3556C142.526 66.2701 142.512 66.1848 142.482 66.1046C142.452 66.0244 142.407 65.9509 142.348 65.8882C142.29 65.8256 142.22 65.7752 142.142 65.7397C142.064 65.7042 141.98 65.6843 141.894 65.6813H141.86C141.856 65.6793 141.851 65.6782 141.846 65.6782C141.841 65.6782 141.836 65.6793 141.832 65.6813" fill="white"/>
</mask>
<g mask="url(#mask4_1829_4892)">
<path d="M144.497 65.6792H138.264V81.8793H144.497V65.6792Z" fill="white"/>
</g>
<mask id="mask5_1829_4892" style="mask-type:luminance" maskUnits="userSpaceOnUse" x="143" y="68" width="5" height="14">
<path d="M143.706 80.9764C143.702 81.0433 143.702 81.1104 143.706 81.1773C143.702 81.3504 143.767 81.5181 143.887 81.6435C144.006 81.769 144.17 81.8422 144.343 81.8471H144.397C144.589 81.8468 144.774 81.7761 144.918 81.6485C145.062 81.5209 145.154 81.3452 145.177 81.1543L147.775 68.9724L147.42 68.8316C147.242 68.7669 147.071 68.6953 146.904 68.6168L146.389 68.3857L143.706 80.9764Z" fill="white"/>
</mask>
<g mask="url(#mask5_1829_4892)">
<path d="M147.773 68.3833H143.697V81.8445H147.773V68.3833Z" fill="white"/>
</g>
<mask id="mask6_1829_4892" style="mask-type:luminance" maskUnits="userSpaceOnUse" x="149" y="69" width="12" height="13">
<path d="M152.03 81.2741C152.054 81.4462 152.144 81.6026 152.28 81.7106C152.392 81.8 152.531 81.8495 152.675 81.8515H152.721C152.843 81.8507 152.964 81.8181 153.07 81.7569C153.208 81.6817 153.324 81.5719 153.407 81.4382L160.908 69.6466L159.831 69.889C159.584 69.9467 159.316 69.9907 159.076 70.0415L158.887 70.0784L153.072 79.2558L151.072 69.9421L150.795 69.8821L150.197 69.7413L149.504 69.5703L152.03 81.2741Z" fill="white"/>
</mask>
<g mask="url(#mask6_1829_4892)">
<path d="M160.911 69.5703H149.508V81.8492H160.911V69.5703Z" fill="white"/>
</g>
<mask id="mask7_1829_4892" style="mask-type:luminance" maskUnits="userSpaceOnUse" x="159" y="68" width="6" height="14">
<path d="M163.272 68.827C163.057 68.9148 162.847 68.9979 162.646 69.0579L162.415 69.1411L159.9 80.935C159.893 81.0117 159.893 81.0892 159.9 81.166C159.895 81.3379 159.959 81.5048 160.076 81.6303C160.194 81.7558 160.357 81.8296 160.529 81.8356H160.586C160.778 81.8357 160.963 81.7651 161.107 81.6373C161.25 81.5095 161.341 81.3335 161.362 81.1429L164.06 68.4761L163.272 68.827Z" fill="white"/>
</mask>
<g mask="url(#mask7_1829_4892)">
<path d="M164.057 68.4897H159.887V81.8424H164.057V68.4897Z" fill="white"/>
</g>
<mask id="mask8_1829_4892" style="mask-type:luminance" maskUnits="userSpaceOnUse" x="165" y="65" width="7" height="17">
<path d="M168.506 65.6793C168.392 65.7049 168.286 65.7575 168.196 65.8327C168.106 65.9078 168.036 66.0033 167.991 66.1112L167.954 66.2012C167.942 66.2474 167.931 66.289 167.924 66.3329L167.277 69.3511H165.931C165.748 69.3373 165.566 69.3933 165.422 69.5076C165.278 69.6219 165.183 69.7862 165.155 69.9678C165.128 70.0659 165.126 70.1689 165.147 70.2683C165.169 70.3676 165.214 70.4603 165.279 70.5385C165.344 70.6166 165.427 70.678 165.521 70.7173C165.615 70.7567 165.716 70.7728 165.818 70.7644H166.972L165.185 79.1936C165.139 79.4054 165.116 79.6213 165.116 79.8379C165.106 80.2983 165.247 80.7493 165.518 81.122C165.665 81.3077 165.847 81.4623 166.054 81.5769C166.262 81.6914 166.49 81.7637 166.725 81.7894C167.025 81.8265 167.327 81.8427 167.628 81.8379C167.781 81.8587 167.936 81.8306 168.071 81.7576C168.206 81.6845 168.315 81.5702 168.381 81.4314C168.433 81.3157 168.461 81.1909 168.464 81.0642C168.458 80.8845 168.383 80.7142 168.253 80.5892C168.124 80.4642 167.951 80.3944 167.772 80.3945C167.745 80.3908 167.717 80.3908 167.691 80.3945H167.287C167.1 80.4091 166.915 80.3493 166.772 80.2282C166.654 80.0743 166.596 79.8834 166.608 79.6902C166.61 79.5691 166.624 79.4484 166.649 79.3299L168.476 70.7644H170.533C170.683 70.766 170.83 70.7247 170.957 70.6453C171.084 70.5659 171.185 70.4518 171.249 70.3165L171.296 70.2702V70.127C171.334 69.9648 171.307 69.794 171.221 69.6515C171.134 69.5089 170.995 69.406 170.834 69.3651C170.775 69.3523 170.716 69.3468 170.656 69.3488H168.755L169.36 66.5106V66.3514C169.363 66.2658 169.35 66.1805 169.32 66.1003C169.29 66.0201 169.244 65.9466 169.186 65.884C169.128 65.8213 169.058 65.7708 168.98 65.7353C168.902 65.6997 168.818 65.6799 168.732 65.6769H168.668C168.64 65.675 168.612 65.675 168.584 65.6769C168.555 65.6748 168.526 65.6748 168.497 65.6769" fill="white"/>
</mask>
<g mask="url(#mask8_1829_4892)">
<path d="M171.36 65.6768H165.09V81.8446H171.36V65.6768Z" fill="white"/>
</g>
<mask id="mask9_1829_4892" style="mask-type:luminance" maskUnits="userSpaceOnUse" x="171" y="68" width="13" height="18">
<path d="M172.312 68.247C172.165 68.2818 172.032 68.3628 171.934 68.478C171.817 68.624 171.755 68.806 171.758 68.9929C171.751 69.0535 171.751 69.1149 171.758 69.1755L174.218 81.0339L171.774 84.9206C171.715 85.0283 171.683 85.1487 171.68 85.2716C171.679 85.4634 171.753 85.6479 171.885 85.7866C171.952 85.8558 172.032 85.9103 172.12 85.9469C172.209 85.9835 172.304 86.0012 172.4 85.9991C172.514 86.0043 172.628 85.9813 172.73 85.9321C172.872 85.8531 172.989 85.7364 173.068 85.595L183.353 69.2585V69.2008C183.384 69.1153 183.402 69.0259 183.407 68.9353C183.408 68.8433 183.391 68.7519 183.357 68.6665C183.323 68.5811 183.272 68.5034 183.208 68.4379C183.143 68.3723 183.066 68.3202 182.982 68.2846C182.897 68.2491 182.806 68.2308 182.714 68.2308C182.588 68.2317 182.463 68.2625 182.351 68.3209C182.22 68.3926 182.112 68.4989 182.037 68.6281L175.354 79.2511L173.183 68.7828C173.146 68.6259 173.058 68.4859 172.933 68.385C172.807 68.2841 172.651 68.2283 172.49 68.2263C172.435 68.2248 172.38 68.231 172.326 68.2448" fill="white"/>
</mask>
<g mask="url(#mask9_1829_4892)">
<path d="M183.414 68.2217H171.68V85.9991H183.414V68.2217Z" fill="white"/>
</g>
<mask id="mask10_1829_4892" style="mask-type:luminance" maskUnits="userSpaceOnUse" x="140" y="59" width="30" height="9">
<path d="M141.035 59.9405C140.852 60.0909 140.738 60.3075 140.715 60.5426C140.692 60.7777 140.764 61.0121 140.914 61.1944C142.678 63.1955 144.84 64.8072 147.261 65.9266C149.682 67.046 152.31 67.6486 154.977 67.6959C157.644 67.7433 160.292 67.2344 162.751 66.2017C165.211 65.169 167.428 63.6351 169.262 61.6979C169.342 61.6113 169.405 61.5095 169.446 61.3985C169.487 61.2874 169.505 61.1694 169.5 61.0512C169.494 60.933 169.465 60.8171 169.414 60.7102C169.364 60.6034 169.292 60.5077 169.204 60.4289C169.116 60.35 169.012 60.2896 168.901 60.2511C168.789 60.2126 168.67 60.1968 168.552 60.2046C168.434 60.2125 168.319 60.2438 168.213 60.2968C168.107 60.3498 168.013 60.4233 167.936 60.5132C166.274 62.2594 164.267 63.6416 162.043 64.5722C159.819 65.5027 157.426 65.9615 155.015 65.9194C152.605 65.8773 150.229 65.3352 148.039 64.3275C145.848 63.3198 143.891 61.8685 142.291 60.0652C142.141 59.883 141.924 59.7675 141.69 59.7441C141.455 59.7208 141.218 59.7914 141.035 59.9405Z" fill="white"/>
</mask>
<g mask="url(#mask10_1829_4892)">
<path d="M169.589 59.7397H140.598V67.7763H169.589V59.7397Z" fill="url(#paint1_linear_1829_4892)"/>
</g>
<path d="M148.118 61.3887C148.294 61.3891 148.465 61.4416 148.611 61.5395C148.757 61.6374 148.87 61.7762 148.937 61.9385C149.004 62.1009 149.022 62.2795 148.987 62.4517C148.953 62.624 148.869 62.7822 148.744 62.9064C148.62 63.0306 148.462 63.1153 148.29 63.1497C148.117 63.1841 147.939 63.1667 147.776 63.0997C147.614 63.0327 147.475 62.919 147.377 62.7731C147.279 62.6272 147.227 62.4557 147.227 62.2801C147.226 62.1629 147.249 62.0468 147.294 61.9385C147.338 61.8302 147.404 61.7318 147.487 61.649C147.57 61.5662 147.668 61.5006 147.776 61.4559C147.885 61.4112 148.001 61.3884 148.118 61.3887Z" fill="#F15B2D"/>
<path d="M163.704 60.936C163.88 60.9365 164.051 60.989 164.197 61.087C164.343 61.185 164.457 61.324 164.524 61.4865C164.591 61.649 164.608 61.8276 164.573 61.9999C164.539 62.1723 164.454 62.3305 164.329 62.4547C164.205 62.5788 164.047 62.6633 163.874 62.6974C163.702 62.7315 163.523 62.7137 163.361 62.6463C163.198 62.579 163.06 62.4649 162.962 62.3188C162.865 62.1726 162.813 62.0009 162.813 61.8252C162.812 61.7082 162.836 61.5924 162.88 61.4843C162.925 61.3763 162.991 61.2783 163.074 61.1957C163.156 61.1131 163.255 61.0475 163.363 61.003C163.471 60.9584 163.587 60.9357 163.704 60.936Z" fill="#F15B2D"/>
<defs>
<linearGradient id="paint0_linear_1829_4892" x1="-3117.61" y1="2679.12" x2="-3078.65" y2="2679.12" gradientUnits="userSpaceOnUse">
<stop stop-color="#F1E902"/>
<stop offset="0.64" stop-color="#F68521"/>
<stop offset="1" stop-color="#F15B2D"/>
</linearGradient>
<linearGradient id="paint1_linear_1829_4892" x1="-262.937" y1="272.869" x2="-261.053" y2="272.869" gradientUnits="userSpaceOnUse">
<stop stop-color="#F1E902"/>
<stop offset="0.64" stop-color="#F68521"/>
<stop offset="1" stop-color="#F15B2D"/>
</linearGradient>
</defs>
</svg>
