<svg width="48" height="31" viewBox="0 0 48 31" fill="none" xmlns="http://www.w3.org/2000/svg">
<mask id="mask0_851_5323" style="mask-type:luminance" maskUnits="userSpaceOnUse" x="2" y="0" width="42" height="22">
<path d="M43.4604 0H2.17383V21.2688H43.4604V0Z" fill="white"/>
</mask>
<g mask="url(#mask0_851_5323)">
<mask id="mask1_851_5323" style="mask-type:luminance" maskUnits="userSpaceOnUse" x="2" y="0" width="42" height="22">
<path d="M43.4604 0.178589H2.17383V21.2688H43.4604V0.178589Z" fill="white"/>
</mask>
<g mask="url(#mask1_851_5323)">
<mask id="mask2_851_5323" style="mask-type:luminance" maskUnits="userSpaceOnUse" x="2" y="0" width="42" height="22">
<path d="M43.4604 0.178589H2.17383V21.2688H43.4604V0.178589Z" fill="white"/>
</mask>
<g mask="url(#mask2_851_5323)">
<path d="M22.8172 41.4654C34.2183 41.4654 43.4607 32.223 43.4607 20.822C43.4607 9.42096 34.2183 0.178589 22.8172 0.178589C11.4162 0.178589 2.17383 9.42096 2.17383 20.822C2.17383 32.223 11.4162 41.4654 22.8172 41.4654Z" fill="#FACE15"/>
</g>
<path d="M13.0108 21.0799H13.3566C13.208 21.0708 13.0585 21.0625 12.9082 21.0567C12.9394 21.0741 12.975 21.0822 13.0108 21.0799Z" fill="black"/>
<path d="M10.4485 20.796V16.0366C10.4485 15.8486 10.4869 15.7544 10.6897 15.786C10.7308 15.7889 10.7721 15.7889 10.8132 15.786C11.9539 15.79 12.4783 16.2912 12.5215 17.4327C12.545 18.0429 12.5559 18.6535 12.5642 19.2647C12.5597 19.8185 12.6463 20.3692 12.8206 20.8948C12.8292 20.9577 12.8592 21.0158 12.9057 21.0592C13.0573 21.065 13.2056 21.0733 13.3541 21.0827H16.3347C15.7585 20.0564 15.8136 18.92 15.6466 17.8262C15.6249 17.6875 15.5961 17.5499 15.5757 17.4087C15.5312 17.0538 15.3912 16.7177 15.1706 16.4362C14.95 16.1547 14.657 15.9384 14.323 15.8105C14.1351 15.7269 13.949 15.6435 13.731 15.5425C13.9674 15.4589 14.1743 15.3909 14.3756 15.3096C15.9937 14.6541 16.2486 13.2873 15.9336 12.1658C15.7148 11.3883 15.1506 10.9028 14.4531 10.5568C13.7407 10.2204 12.9604 10.0527 12.1727 10.0667C10.6111 10.0559 9.04985 10.0667 7.4883 10.0591C7.28622 10.0591 7.24707 10.1193 7.24707 10.3097C7.25212 13.8942 7.25212 17.4786 7.24707 21.063H9.7119C9.94833 21.063 10.1863 21.0589 10.4242 21.0546C10.4435 20.9698 10.4516 20.8829 10.4485 20.796ZM10.4485 12.9895C10.4485 12.4285 10.4528 11.8672 10.4485 11.307C10.4485 11.1554 10.4737 11.0814 10.6488 11.0915C10.9951 11.0827 11.3415 11.1028 11.6844 11.1516C11.9463 11.1979 12.1896 11.3176 12.386 11.4968C12.5825 11.676 12.724 11.9073 12.7941 12.1638C12.9569 12.696 12.9569 13.2648 12.7941 13.7971C12.5938 14.4626 12.0709 14.8367 11.3194 14.8683C11.0974 14.8784 10.8736 14.8633 10.6513 14.8784C10.4884 14.8893 10.4401 14.8357 10.4427 14.6723C10.4543 14.1103 10.4485 13.5508 10.4485 12.9895Z" fill="black"/>
<path d="M21.9386 16.3523C21.9386 14.8669 21.9373 13.3811 21.9346 11.895C21.9346 11.7088 21.9704 11.6444 22.175 11.6444C23.4542 11.6545 24.7343 11.6361 26.016 11.6535C27.11 11.6694 28.1295 11.9241 28.9176 12.7548C29.4951 13.3992 29.8522 14.2108 29.9371 15.0719C30.1241 16.1823 30.0672 17.3201 29.7701 18.4062C29.3134 19.9609 28.2361 20.7917 26.6563 21.0205C26.2051 21.0719 25.7508 21.0911 25.2969 21.0781C24.2655 21.0781 23.2334 21.0698 22.2016 21.0839C21.9742 21.0839 21.9343 21.0188 21.9351 20.8084C21.9429 19.3241 21.9386 17.8378 21.9386 16.3523ZM24.6757 16.3632C24.6757 17.5931 24.68 18.8222 24.6757 20.0511C24.6757 20.238 24.7242 20.3017 24.9104 20.2832C25.1233 20.2658 25.3398 20.2832 25.5533 20.2731C25.7943 20.2706 26.03 20.2017 26.2344 20.074C26.4389 19.9463 26.6042 19.7647 26.7122 19.5492C26.8262 19.3293 26.907 19.0938 26.9519 18.8502C27.1593 17.629 27.2137 16.3867 27.1138 15.152C27.1049 14.5493 27.0015 13.9517 26.8074 13.381C26.7288 13.1399 26.583 12.9263 26.3871 12.7652C26.1913 12.6042 25.9535 12.5023 25.7018 12.4717C25.4388 12.4315 25.1741 12.4641 24.9119 12.4434C24.7283 12.4282 24.674 12.4851 24.6755 12.6738C24.6788 13.9037 24.6788 15.1303 24.6788 16.3617L24.6757 16.3632Z" fill="black"/>
<path d="M31.3597 15.5683C31.3597 13.8147 31.3597 12.0678 31.3547 10.3178C31.3547 10.1099 31.4105 10.0589 31.6151 10.0596C33.8278 10.0674 36.0409 10.0674 38.2543 10.0596C38.4397 10.0596 38.5223 10.094 38.5049 10.2994C38.4865 10.5132 38.4865 10.7283 38.5049 10.9422C38.5198 11.1317 38.4544 11.1761 38.272 11.1744C37.1323 11.166 35.9923 11.1743 34.8534 11.1653C34.6346 11.1653 34.5586 11.2095 34.5629 11.4459C34.578 12.3868 34.5745 13.3287 34.5629 14.2699C34.5629 14.4611 34.6088 14.5205 34.8076 14.5205C35.7488 14.5096 36.6905 14.5205 37.6317 14.5104C37.8428 14.5104 37.903 14.5723 37.8863 14.7751C37.8708 14.9891 37.8708 15.204 37.8863 15.418C37.8972 15.5849 37.8305 15.6233 37.6733 15.6218C36.7155 15.616 35.7579 15.6218 34.8001 15.6142C34.619 15.6142 34.5621 15.6544 34.5636 15.8446C34.5721 17.1413 34.5721 18.4375 34.5636 19.7333C34.5636 19.9238 34.6078 19.9839 34.8066 19.9839C36.1853 19.9748 37.5622 19.9839 38.9434 19.9738C39.1422 19.9738 39.2023 20.0288 39.1872 20.2244C39.1717 20.4387 39.1717 20.6539 39.1872 20.8682C39.1988 21.042 39.1419 21.0913 38.9677 21.0895C37.8946 21.0819 36.8206 21.0895 35.7478 21.0895C34.3838 21.0895 33.0223 21.0812 31.6557 21.0961C31.3943 21.0961 31.3501 21.0203 31.3526 20.7796C31.3673 19.0359 31.3597 17.3016 31.3597 15.5683Z" fill="black"/>
<path d="M20.3185 16.3571C20.3185 17.851 20.3202 19.3451 20.3236 20.8394C20.3236 21.0372 20.2685 21.09 20.073 21.0832C19.3152 21.0723 18.5542 21.0741 17.7943 21.0832C17.6274 21.0832 17.5705 21.0456 17.5713 20.867C17.5763 17.8609 17.5763 14.855 17.5713 11.8493C17.5713 11.6823 17.6188 11.6422 17.7792 11.6439C18.5557 11.6515 19.3314 11.654 20.1081 11.6439C20.2943 11.6439 20.3193 11.7131 20.3185 11.8735C20.3168 13.3687 20.3168 14.8633 20.3185 16.3571Z" fill="black"/>
<path d="M26.1828 9.74819C26.107 9.61128 26.0357 9.48524 25.9683 9.35566C25.6968 8.89801 25.5719 8.36828 25.6101 7.83756C25.6245 7.66824 25.6748 7.50393 25.7577 7.35563C25.8407 7.20732 25.9543 7.07843 26.091 6.97757C26.2278 6.87671 26.3845 6.80621 26.5507 6.77077C26.7169 6.73534 26.8887 6.73579 27.0547 6.7721C27.5556 6.87314 27.7367 7.15959 27.6501 7.66983C27.6443 7.70166 27.645 7.735 27.641 7.79184C27.9666 7.76834 28.2838 7.74586 28.6009 7.72085C28.7178 7.71176 28.788 7.7158 28.7486 7.8762C28.7055 8.05598 28.7356 8.24551 28.8322 8.40311C28.9098 8.53168 28.8322 8.5577 28.7352 8.5817C28.6667 8.59893 28.5952 8.6008 28.5258 8.58718C28.4564 8.57356 28.3909 8.54479 28.334 8.50292C28.277 8.46106 28.23 8.40712 28.1964 8.34498C28.1627 8.28283 28.1431 8.21402 28.1391 8.14345C28.1138 7.94642 28.0348 7.93708 27.8635 7.95147C27.6461 7.96736 27.4395 8.05253 27.274 8.19447C27.0257 8.37556 26.7355 8.49047 26.4305 8.5284C26.2585 8.5577 26.2325 8.61782 26.2954 8.77393C26.4197 9.08134 26.5819 9.36753 26.7347 9.65978C26.7565 9.70377 26.7922 9.73936 26.8362 9.76108C26.8803 9.7828 26.9302 9.78946 26.9784 9.78002C27.2507 9.77093 27.5228 9.76991 27.7951 9.75905C27.9171 9.754 27.9719 9.77673 27.9497 9.92197C27.9125 10.1099 27.9372 10.3049 28.0199 10.4777C28.0833 10.5997 28.0083 10.6197 27.9188 10.6381C27.7699 10.6622 27.6174 10.6266 27.4945 10.5391C27.3716 10.4516 27.2881 10.3192 27.2621 10.1705C27.2303 9.97932 27.1494 9.95506 26.9873 9.96012C26.649 9.97022 26.3101 9.96769 25.9718 9.96012C25.839 9.96012 25.7756 9.98007 25.7463 10.1369C25.7045 10.3075 25.5986 10.4555 25.4505 10.5499C25.3024 10.6443 25.1236 10.678 24.9513 10.6439C24.8594 10.628 24.8286 10.5989 24.8912 10.5194C24.9572 10.4396 25.0039 10.3457 25.0277 10.2449C25.0516 10.1442 25.052 10.0393 25.0289 9.93839C25.0014 9.80401 25.0956 9.81387 25.1792 9.81488C25.5151 9.82805 25.8515 9.80569 26.1828 9.74819ZM26.1209 7.92621C26.135 8.05554 26.1484 8.17679 26.1625 8.30107C26.1701 8.36548 26.1893 8.40034 26.2727 8.39124C26.4952 8.35822 26.6997 8.2497 26.8517 8.08386C27.0037 7.91802 27.0941 7.70496 27.1078 7.48038C27.1078 7.25911 27.0484 7.05627 26.8079 6.99691C26.7015 6.97178 26.5897 6.98467 26.4918 7.03334C26.3939 7.08201 26.3161 7.1634 26.2719 7.2634C26.1687 7.46905 26.116 7.69637 26.1183 7.92647L26.1209 7.92621Z" fill="black"/>
<path d="M23.51 10.3784C23.3112 10.3748 23.114 10.3407 22.9255 10.2774C22.6417 10.1883 22.3424 10.1598 22.047 10.1938C21.88 10.219 21.8148 10.2774 21.8265 10.4625C21.8394 10.6252 21.7878 10.7865 21.6828 10.9115C21.5779 11.0365 21.4279 11.1152 21.2654 11.1306C21.1561 11.1491 21.1169 11.1231 21.1644 11.0205C21.2145 10.9207 21.2427 10.8113 21.2471 10.6997C21.2514 10.5881 21.2319 10.4768 21.1897 10.3734C21.1391 10.2498 21.2215 10.2347 21.3041 10.2122C21.5105 10.1564 21.7148 10.0927 21.9237 10.0452C22.0866 10.0084 22.1308 9.96163 22.0381 9.79467C21.7306 9.2691 21.6249 8.64955 21.7408 8.05176C21.7688 7.87965 21.8313 7.71497 21.9246 7.56766C22.0178 7.42034 22.14 7.29345 22.2836 7.1946C22.4273 7.09576 22.5894 7.02702 22.7603 6.99252C22.9313 6.95803 23.1074 6.95849 23.2781 6.99388C23.8735 7.08911 24.0922 7.72641 23.6957 8.23387C23.558 8.39382 23.3891 8.52384 23.1992 8.6159C23.0094 8.70797 22.8026 8.76012 22.5918 8.76913C22.2579 8.81258 22.2536 8.80929 22.3412 9.13311C22.402 9.3911 22.5217 9.63147 22.6911 9.83533C22.8036 9.96872 22.95 10.0693 23.1149 10.1263C23.2798 10.1833 23.4571 10.1948 23.628 10.1594C23.7072 10.152 23.7835 10.1255 23.8503 10.0822C23.9171 10.0389 23.9724 9.98011 24.0116 9.91079C24.0507 9.84148 24.0725 9.76372 24.075 9.68417C24.0776 9.60461 24.0609 9.52561 24.0263 9.45392C23.9521 9.22506 23.9854 9.17075 24.2302 9.14827C24.6543 9.10912 24.7144 9.15333 24.6293 9.57996C24.5373 10.0804 24.1114 10.3797 23.51 10.3784ZM22.2657 8.32936C22.3367 8.40514 22.1364 8.62489 22.392 8.62489C22.6214 8.62103 22.8414 8.53339 23.0106 8.37849C23.1798 8.22358 23.2864 8.01213 23.3105 7.784C23.3357 7.48998 23.242 7.29472 23.0457 7.22829C22.9328 7.19902 22.8131 7.21071 22.7079 7.2613C22.6028 7.31189 22.519 7.3981 22.4713 7.50463C22.334 7.75765 22.2633 8.04148 22.266 8.32936H22.2657Z" fill="black"/>
<path d="M20.9035 9.15181C20.8872 9.30068 20.9181 9.4509 20.9919 9.58123C21.0603 9.69313 21.0027 9.71991 20.9083 9.7482C20.8468 9.76671 20.7821 9.77234 20.7184 9.76474C20.6546 9.75714 20.5931 9.73646 20.5377 9.704C20.4823 9.67155 20.4342 9.62801 20.3964 9.57611C20.3586 9.52421 20.3319 9.46507 20.318 9.40239C20.2803 9.22355 20.2111 9.22355 20.0674 9.25715C19.711 9.34076 19.5622 9.50191 19.5546 9.93259C19.567 10.0328 19.5405 10.1339 19.4807 10.2152C19.421 10.2966 19.3324 10.352 19.2331 10.3701C18.8727 10.5335 18.4867 10.6332 18.0923 10.6649C17.9861 10.6743 17.8791 10.6578 17.7806 10.6167C17.6822 10.5756 17.5952 10.5112 17.5271 10.4291C17.4591 10.3469 17.4121 10.2494 17.3901 10.145C17.3681 10.0406 17.3718 9.93242 17.401 9.82978C17.4681 9.51345 17.6176 9.22048 17.8344 8.98056C18.0994 8.68616 18.3845 8.4105 18.6877 8.15557C18.8658 8.00783 19.0152 7.82863 19.1285 7.62689C19.1969 7.48923 19.248 7.34221 19.0557 7.24951C19.0191 7.23208 18.9681 7.21263 18.9865 7.1659C18.997 7.14856 19.011 7.13364 19.0277 7.12214C19.0444 7.11064 19.0633 7.10283 19.0833 7.09921C19.212 7.07148 19.3422 7.05083 19.4733 7.03733C19.7706 7.00904 19.8716 7.12574 19.7913 7.41976C19.6781 7.75829 19.4741 8.05927 19.2017 8.28996C18.8983 8.54444 18.6146 8.82166 18.3533 9.11923C18.1653 9.32862 18.0468 9.59118 18.0143 9.8707C18.0021 9.92975 18.0036 9.99081 18.0186 10.0492C18.0336 10.1076 18.0618 10.1618 18.1009 10.2076C18.1401 10.2535 18.1892 10.2898 18.2446 10.3137C18.2999 10.3377 18.36 10.3487 18.4202 10.3458C18.7708 10.3809 18.8895 10.2933 18.958 9.94673C18.9935 9.75491 19.081 9.5765 19.2109 9.43092C19.3407 9.28533 19.508 9.17814 19.6946 9.121C20.0088 9.02462 20.3319 8.95946 20.659 8.9265C20.9083 8.8929 20.9083 8.89719 20.9035 9.15181Z" fill="black"/>
<path d="M41.9181 19.1294C41.9163 19.3323 41.8443 19.5284 41.7142 19.6842C41.5841 19.84 41.4041 19.9459 41.2047 19.9838C41.0053 20.0218 40.7989 19.9894 40.6207 19.8923C40.4425 19.7952 40.3035 19.6393 40.2273 19.4512C40.1511 19.2631 40.1424 19.0544 40.2029 18.8606C40.2633 18.6668 40.389 18.5 40.5586 18.3885C40.7282 18.277 40.9311 18.2278 41.133 18.2491C41.3348 18.2705 41.523 18.3612 41.6655 18.5057C41.7466 18.5879 41.8106 18.6853 41.8539 18.7924C41.8973 18.8994 41.9191 19.0139 41.9181 19.1294ZM41.0254 19.8291C41.2112 19.8328 41.3909 19.7626 41.5249 19.6339C41.659 19.5051 41.7364 19.3284 41.7401 19.1426C41.7439 18.9568 41.6737 18.7771 41.5449 18.6431C41.4162 18.5091 41.2395 18.4317 41.0537 18.4279C40.9609 18.4236 40.8683 18.4381 40.7813 18.4706C40.6942 18.503 40.6147 18.5527 40.5474 18.6167C40.4801 18.6806 40.4264 18.7575 40.3895 18.8428C40.3527 18.928 40.3335 19.0198 40.3331 19.1127C40.3307 19.2054 40.3469 19.2976 40.3805 19.3839C40.4142 19.4703 40.4647 19.5491 40.5291 19.6158C40.5935 19.6825 40.6706 19.7356 40.7557 19.7723C40.8409 19.8089 40.9325 19.8282 41.0252 19.8291H41.0254Z" fill="black"/>
<path d="M40.6396 19.1321V19.0564C40.6396 18.6312 40.7616 18.5395 41.1757 18.6522C41.2229 18.6593 41.2672 18.6795 41.3036 18.7104C41.34 18.7413 41.367 18.7818 41.3817 18.8273C41.3963 18.8727 41.398 18.9214 41.3865 18.9678C41.375 19.0141 41.3508 19.0564 41.3166 19.0897C41.1772 19.2074 41.2633 19.261 41.31 19.3585C41.3459 19.4342 41.4869 19.5254 41.3727 19.6015C41.2585 19.6775 41.1865 19.558 41.1398 19.4519C41.1119 19.393 41.078 19.337 41.0387 19.285C41.0222 19.2607 40.9986 19.2422 40.971 19.232C40.9435 19.2218 40.9135 19.2205 40.8852 19.2281C40.8016 19.2466 40.8347 19.3191 40.8301 19.3708C40.8272 19.412 40.8272 19.4532 40.8301 19.4944C40.8301 19.5545 40.8301 19.6138 40.7425 19.6128C40.6548 19.6118 40.6414 19.5701 40.6414 19.5027C40.6404 19.3799 40.6404 19.2564 40.6396 19.1321ZM40.9953 19.0377C41.0789 19.0319 41.1789 19.0427 41.1749 18.925C41.1709 18.8073 41.0638 18.8273 40.9862 18.8257C40.9087 18.8242 40.8334 18.8058 40.8291 18.9243C40.8233 19.0602 40.9167 19.0326 40.9953 19.0377Z" fill="black"/>
</g>
</g>
<path fill-rule="evenodd" clip-rule="evenodd" d="M32.2557 23.6589C32.1805 23.6578 32.0658 23.6997 31.9792 23.869L28.6522 30.371C28.5654 30.5406 28.3575 30.6077 28.1879 30.5209C28.0183 30.4341 27.9512 30.2263 28.0379 30.0567L31.3649 23.5547C31.5534 23.1863 31.8908 22.9638 32.2653 22.969C32.6392 22.9742 32.9709 23.2053 33.152 23.577L36.3108 30.0627C36.3942 30.234 36.323 30.4405 36.1517 30.5239C35.9804 30.6074 35.7739 30.5361 35.6905 30.3648L32.5316 23.8791C32.4472 23.7057 32.3315 23.6599 32.2557 23.6589Z" fill="white"/>
<path fill-rule="evenodd" clip-rule="evenodd" d="M43.0477 26.3801L37.9065 23.5948L38.2352 22.9882L43.3832 25.7771C44.0731 26.1635 44.1075 27.1655 43.4523 27.6036L39.3249 30.3631C38.6023 30.8462 37.7033 30.2706 37.726 29.4411L37.8069 26.4836L38.4967 26.5025L38.4157 29.46C38.4068 29.7859 38.7306 29.9305 38.9414 29.7895L43.0687 27.03C43.2986 26.8763 43.283 26.5136 43.0477 26.3801Z" fill="white"/>
<path d="M5 29.2352H14.3333L9.99998 25.2352L8.49998 27.3356V28.2352L6.99999 26.7352L5 29.2352Z" fill="white"/>
<path d="M8.67975 25.5863C8.67975 25.9273 8.40332 26.2037 8.06234 26.2037C7.72135 26.2037 7.44493 25.9273 7.44493 25.5863C7.44493 25.2453 7.72135 24.9689 8.06234 24.9689C8.40332 24.9689 8.67975 25.2453 8.67975 25.5863Z" fill="white"/>
<path d="M15.172 26.2015C15.172 25.9254 15.3958 25.7015 15.672 25.7015H23.4999C23.7761 25.7015 23.9999 25.9254 23.9999 26.2015C23.9999 26.4777 23.7761 26.7015 23.4999 26.7015H15.672C15.3958 26.7015 15.172 26.4777 15.172 26.2015Z" fill="white"/>
<path d="M15.172 28.2015C15.172 27.9254 15.3958 27.7015 15.672 27.7015H21.0923C21.3684 27.7015 21.5923 27.9254 21.5923 28.2015C21.5923 28.4777 21.3684 28.7015 21.0923 28.7015H15.672C15.3958 28.7015 15.172 28.4777 15.172 28.2015Z" fill="white"/>
<path fill-rule="evenodd" clip-rule="evenodd" d="M25.5 23.4689H3.5C2.94772 23.4689 2.5 23.9166 2.5 24.4689V29.0589C2.5 29.6112 2.94772 30.0589 3.5 30.0589H25.5C26.0523 30.0589 26.5 29.6112 26.5 29.0589V24.4689C26.5 23.9166 26.0523 23.4689 25.5 23.4689ZM3.5 22.9689C2.67157 22.9689 2 23.6404 2 24.4689V29.0589C2 29.8873 2.67157 30.5589 3.5 30.5589H25.5C26.3284 30.5589 27 29.8873 27 29.0589V24.4689C27 23.6404 26.3284 22.9689 25.5 22.9689H3.5Z" fill="white"/>
</svg>
