<svg width="97" height="63" viewBox="0 0 97 63" fill="none" xmlns="http://www.w3.org/2000/svg">
<path d="M4 58.9783V56.1815C4.35113 56.1651 4.66552 56.1376 4.97888 56.1376C20.0994 56.1335 35.2202 56.1257 50.3413 56.1141C50.6465 56.1088 50.9497 56.1641 51.2334 56.2767C51.517 56.3894 51.7755 56.5572 51.9939 56.7705C52.679 57.311 53.2074 58.0246 53.5243 58.8377C53.8412 59.6508 53.9352 60.5338 53.7965 61.3954C53.7618 61.619 53.5832 61.9895 53.4434 62.0017C52.741 62.0664 52.0343 62.0694 51.3315 62.0109C51.2039 62.0007 51.0314 61.6189 51.0109 61.3985C50.9589 60.8406 50.95 60.2795 50.9844 59.7203C51.0212 59.1232 50.766 58.9619 50.2046 58.9783C49.1154 59.0099 48.0243 58.9783 46.9382 58.9783H4Z" fill="white"/>
<path d="M82.6931 53.3238C82.6931 55.2631 82.7952 57.1127 82.6615 58.949C82.6165 59.6827 82.3148 60.3771 81.8092 60.9107C81.3036 61.4442 80.6264 61.7829 79.8963 61.8673C79.0604 62.0122 78.2061 62.0159 77.369 61.8785C76.6363 61.8113 75.9514 61.4856 75.4368 60.9598C74.9222 60.4339 74.6113 59.7422 74.5599 59.0083C74.4037 57.1485 74.5231 55.2652 74.5231 53.335H77.321V57.2056C77.3082 57.6465 77.3235 58.0876 77.3669 58.5264C77.3689 58.6826 77.4017 58.8369 77.4634 58.9805C77.5251 59.124 77.6144 59.2539 77.7264 59.3629C77.8384 59.4718 77.9707 59.5576 78.1159 59.6153C78.2611 59.673 78.4162 59.7016 78.5724 59.6993C78.7357 59.7205 78.9017 59.7064 79.0591 59.6579C79.2165 59.6095 79.3617 59.5278 79.4848 59.4185C79.608 59.3092 79.7063 59.1747 79.773 59.0242C79.8398 58.8737 79.8734 58.7105 79.8718 58.5459C79.9483 57.4322 79.9259 56.3125 79.9402 55.1948C79.9473 54.5823 79.9402 53.9699 79.9402 53.3228L82.6931 53.3238Z" fill="white"/>
<path d="M61.101 59.9835V61.781H58.2715V53.2681C60.268 53.414 62.3014 52.9353 64.2673 53.6396C64.8498 53.8311 65.3544 54.2065 65.7053 54.7094C66.0561 55.2123 66.2342 55.8154 66.2128 56.4282C66.2834 57.0235 66.1533 57.6254 65.8433 58.1384C65.5332 58.6515 65.0609 59.0464 64.5011 59.2608C63.3869 59.5851 62.2505 59.8274 61.101 59.9855V59.9835ZM61.1122 57.5092C61.8869 57.4296 62.7046 57.8154 63.169 57.0121C63.3282 56.7365 63.2547 56.0005 63.0802 55.9178C62.4425 55.6814 61.7824 55.5104 61.1102 55.4075L61.1122 57.5092Z" fill="white"/>
<path d="M90.9931 53.7993L90.1684 55.7979C89.4442 55.5819 88.7053 55.4185 87.9575 55.309C87.5931 55.2794 87.198 55.5805 86.8173 55.7325C87.0942 55.986 87.4031 56.2022 87.736 56.3756C88.3117 56.5889 88.9374 56.6604 89.5233 56.8513C90.0194 56.9529 90.4674 57.2173 90.7961 57.6024C91.1249 57.9876 91.3157 58.4716 91.3382 58.9775C91.3904 59.5124 91.2683 60.0498 90.9902 60.5097C90.7121 60.9696 90.2928 61.3272 89.7948 61.5293C87.7962 62.4541 85.8558 62.0601 83.7949 61.1956L84.6585 59.2561C85.667 59.4746 86.5703 59.7155 87.489 59.8339C87.7952 59.8737 88.1402 59.5899 88.4678 59.4541C88.2218 59.2028 87.9397 58.9896 87.6308 58.8213C86.9745 58.5814 86.261 58.4804 85.5975 58.2497C85.1366 58.1268 84.7271 57.8597 84.4289 57.4874C84.1306 57.1152 83.9592 56.6573 83.9398 56.1807C83.8893 55.6913 83.9868 55.1981 84.2198 54.7648C84.4527 54.3315 84.8103 53.9781 85.2464 53.7503C87.1307 52.7082 89.019 53.0092 90.9931 53.7993Z" fill="white"/>
<path d="M70.0333 53.3501V59.5868H73.81V61.7752H67.1885V53.3501H70.0333Z" fill="white"/>
<path d="M53.9008 55.9285C54.7817 55.9285 55.5401 55.952 56.2954 55.9214C56.8752 55.8969 57.0548 56.1398 57.0773 56.7002C57.16 58.7417 56.6231 59.2092 54.5785 58.7417C54.3632 58.6927 54.1866 58.4355 54.01 58.2619C53.2077 57.4545 52.4299 56.6186 51.6021 55.8377C51.205 55.4631 50.8079 53.4553 51.2009 53.0817C51.467 52.9184 51.7793 52.8466 52.09 52.8776C54.1784 52.852 53.8406 52.6265 53.8998 54.623C53.912 55.0334 53.9008 55.4386 53.9008 55.9285Z" fill="white"/>
<g filter="url(#filter0_d_164_801)">
<path d="M48.0866 49.5837H90.001C91.1351 49.5837 91.1688 49.5837 91.1238 48.4609C91.0108 44.3965 90.3586 40.3651 89.1844 36.4724C86.6324 28.1502 81.6204 20.7957 74.808 15.377C67.9956 9.95822 59.7022 6.72912 51.0192 6.1147C45.1846 5.67736 39.3239 6.49387 33.831 8.50935C25.6087 11.4241 18.4661 16.7685 13.3496 23.8343C8.23323 30.9001 5.38455 39.3537 5.18108 48.0751C5.13719 49.5847 5.15249 49.5847 6.6101 49.5847L48.0866 49.5837Z" fill="white"/>
</g>
<path d="M29.6263 36.7799C29.8039 36.9604 30.0019 37.1197 30.2163 37.2546C32.3772 38.1375 33.1254 39.9156 33.353 42.0694C33.5286 43.7342 33.7613 45.3939 34.0246 47.0475C34.1581 47.601 34.3363 48.1427 34.5575 48.6674C34.4293 48.7351 34.2917 48.783 34.1492 48.8093C32.1148 48.8185 30.0795 48.8409 28.0472 48.7889C27.8814 48.7525 27.7275 48.6747 27.5999 48.5628C27.4723 48.4509 27.3751 48.3085 27.3174 48.1489C27.0816 46.2013 26.9377 44.2425 26.7407 42.2899C26.7079 41.2398 26.5635 40.1962 26.3099 39.1766C26.1972 38.8298 26.0164 38.5089 25.7782 38.2328C25.5399 37.9566 25.249 37.7308 24.9224 37.5684C24.5958 37.4061 24.2401 37.3105 23.8762 37.2873C23.5122 37.2641 23.1473 37.3137 22.8027 37.4332C22.5587 37.5057 22.3148 38.0456 22.3107 38.3733C22.2739 41.4978 22.2586 44.6243 22.3107 47.7477C22.324 48.6062 22.0718 48.8705 21.2164 48.8389C19.6568 48.7756 18.092 48.796 16.5303 48.8317C15.8668 48.847 15.6718 48.6041 15.6729 47.9559C15.6899 40.5849 15.6899 33.2142 15.6729 25.8438C15.6729 25.215 15.8505 24.9506 16.5272 24.9557C19.8579 24.9823 23.1916 24.9057 26.5222 24.9904C27.6735 24.9794 28.8156 25.1963 29.8827 25.6287C30.9497 26.061 31.9207 26.7003 32.7395 27.5096C34.7095 29.4643 34.7157 34.4894 31.2084 36.0297C30.7144 36.2522 30.2306 36.4951 29.6263 36.7799ZM22.2872 31.2476C22.2872 32.3377 22.2627 33.4299 22.3046 34.5139C22.3148 34.7813 22.5312 35.257 22.6761 35.2672C23.8081 35.3397 24.987 35.5489 26.0027 34.8058C27.7838 33.5044 28.1044 30.0533 26.6896 28.3456C25.6985 27.1493 24.4103 27.1697 23.0681 27.1901C22.5087 27.1993 22.2658 27.3943 22.2801 27.972C22.3066 29.0621 22.2893 30.1523 22.2882 31.2384L22.2872 31.2476Z" fill="white"/>
<path d="M46.3679 38.6797C46.3679 35.644 46.3863 32.6073 46.3547 29.5717C46.3475 28.8571 46.5446 28.5805 47.2969 28.5969C50.1243 28.6612 52.9548 28.6132 55.7792 28.7183C57.3538 28.8045 58.8552 29.4108 60.0482 30.4421C61.2411 31.4734 62.0582 32.8715 62.3711 34.4171C63.0284 37.1195 63.055 39.937 62.4486 42.6513C62.0759 44.432 61.0886 46.0248 59.6597 47.1509C58.2308 48.2769 56.4513 48.8644 54.6329 48.8105C52.1576 48.8503 49.6813 48.7992 47.205 48.8319C46.5384 48.8411 46.3486 48.6135 46.3547 47.9622C46.3802 44.8694 46.3679 41.7745 46.3679 38.6797ZM51.788 38.7225C51.788 41.1978 51.8126 43.6741 51.7738 46.1494C51.7625 46.9007 52.0453 47.0609 52.7507 47.112C55.2923 47.2947 56.2578 45.7176 56.514 43.9018C57.0236 40.4273 57.0185 36.8968 56.4988 33.4239C56.1568 31.2038 55.0279 30.2923 52.7741 30.2678C51.982 30.2586 51.7625 30.5383 51.7748 31.2946C51.8125 33.7689 51.7891 36.2452 51.7891 38.7205L51.788 38.7225Z" fill="white"/>
<path d="M65.6862 36.964V26.1749C65.6862 24.9775 65.6862 24.9755 66.8427 24.9755C71.0583 24.9755 75.2739 24.9684 79.4906 24.9867C79.8346 24.9867 80.4532 25.1276 80.4746 25.2705C80.548 25.902 80.5298 26.5407 80.4205 27.167C80.4072 27.2619 79.8979 27.3283 79.6182 27.3303C77.4961 27.3436 75.373 27.3558 73.2499 27.3303C72.5731 27.3211 72.3016 27.5345 72.3128 28.2418C72.3482 30.0417 72.3482 31.8399 72.3128 33.6364C72.2995 34.3254 72.5374 34.5796 73.2315 34.5663C74.9412 34.5316 76.6519 34.5969 78.3606 34.5367C79.2048 34.5071 79.4906 34.8174 79.3814 35.6095C79.3569 35.7853 79.3569 35.9635 79.3814 36.1393C79.4834 36.8834 79.1058 37.0273 78.4495 37.0151C76.7142 36.9804 74.9698 37.0283 73.2315 36.9906C72.5374 36.9753 72.3036 37.209 72.3128 37.9092C72.3441 40.4441 72.3441 42.9792 72.3128 45.5147C72.3036 46.2364 72.5925 46.413 73.258 46.4058C75.8527 46.3783 78.4474 46.4191 81.0411 46.3783C81.7985 46.367 82.1639 46.5691 82.0496 47.3673C82.0226 47.5723 82.0226 47.7799 82.0496 47.9849C82.1374 48.6821 81.8404 48.9035 81.1473 48.8974C76.3124 48.8743 71.4775 48.8743 66.6426 48.8974C65.921 48.8974 65.6668 48.6841 65.674 47.94C65.6985 44.2725 65.6862 40.6162 65.6862 36.964Z" fill="white"/>
<path d="M37.2658 38.6771C37.2658 35.6701 37.2933 32.663 37.2484 29.6569C37.2362 28.824 37.5189 28.5688 38.3192 28.6025C39.5553 28.6535 40.7965 28.6464 42.0326 28.6025C42.7696 28.578 43.0799 28.7852 43.0768 29.5926C43.0489 35.6946 43.0489 41.7965 43.0768 47.8984C43.0768 48.5752 42.8829 48.8559 42.1745 48.8345C40.8197 48.7943 39.4638 48.7943 38.1069 48.8345C37.4383 48.8538 37.2525 48.6068 37.2586 47.9587C37.2811 44.8638 37.2658 41.7679 37.2658 38.6771Z" fill="white"/>
<path d="M58.8308 21.0754H61.0101L61.2806 22.726C60.5875 23.1006 60.0618 22.9801 59.8781 22.2381C59.6351 21.252 58.9665 21.4949 58.449 21.7124C57.5201 22.1064 56.6577 22.6545 55.6237 23.2169C55.9524 23.8824 56.28 24.6602 56.7179 25.3727C56.8414 25.5769 57.2671 25.6728 57.559 25.6789C59.2942 25.7402 59.2942 25.7269 59.4443 27.4754C58.6369 27.7276 58.1438 27.5346 57.9039 26.7211C57.8901 26.6208 57.856 26.5244 57.8038 26.4377C57.7515 26.3509 57.6822 26.2757 57.6 26.2165C57.5179 26.1574 57.4246 26.1155 57.3257 26.0934C57.2269 26.0714 57.1247 26.0696 57.0251 26.0882C56.525 26.1076 56.0228 26.078 55.5226 26.0882C55.2761 26.0563 55.0261 26.1131 54.8176 26.2485C54.6091 26.3839 54.4556 26.589 54.3845 26.8273C54.1487 27.4948 53.6546 27.6438 52.7441 27.5142L53.0708 25.8565L55.4185 25.6259C55.1328 25.1319 54.9018 24.6082 54.7295 24.0641C54.446 23.0293 54.3187 21.958 54.3518 20.8856C54.4113 20.5269 54.5484 20.1855 54.7536 19.8853C54.9589 19.5852 55.2273 19.3335 55.54 19.148C55.8527 18.9625 56.2022 18.8475 56.564 18.8113C56.9258 18.775 57.2912 18.8183 57.6345 18.938C58.4368 19.1779 58.6338 19.5147 58.8308 21.0754ZM55.2848 22.5524C56.9118 22.1554 57.5834 21.5041 57.4701 20.5048C57.4263 20.119 57.0894 19.5321 56.7965 19.4718C56.5788 19.4674 56.3637 19.5194 56.172 19.6226C55.9803 19.7257 55.8184 19.8767 55.7022 20.0608C55.4881 20.8777 55.3483 21.7124 55.2848 22.5545V22.5524Z" fill="white"/>
<path d="M44.8394 28.7C44.8074 28.1813 44.8156 27.6608 44.864 27.1434C44.9076 27.0209 44.977 26.9092 45.0675 26.8159C45.158 26.7226 45.2675 26.6498 45.3886 26.6024C46.7023 26.092 46.6931 26.1063 46.2572 24.7549C45.7765 23.5357 45.7849 22.178 46.2807 20.9649C46.5335 20.3773 46.9799 19.8939 47.5456 19.5953C48.1112 19.2967 48.7621 19.2008 49.3899 19.3235C49.6905 19.3708 49.9719 19.5012 50.2024 19.6999C50.4329 19.8986 50.6032 20.1578 50.6943 20.4481C50.7854 20.7385 50.7935 21.0485 50.7178 21.3433C50.642 21.638 50.4854 21.9057 50.2657 22.1162C49.6629 22.7024 48.9073 23.1071 48.0854 23.284C47.2259 23.4748 47.1728 23.8025 47.429 24.4792C47.5313 24.9405 47.7517 25.3672 48.0686 25.7176C48.3855 26.068 48.7881 26.33 49.2368 26.4778C50.5433 26.8167 51.2435 26.2104 51.0608 24.8885C51.0414 24.7497 51.0343 24.6079 51.0057 24.2996C51.4824 24.3312 52.0999 24.2128 52.2459 24.42C52.3278 24.6165 52.3699 24.8273 52.3699 25.0401C52.3699 25.253 52.3278 25.4638 52.2459 25.6602C51.9818 26.2097 51.529 26.646 50.9701 26.8896C50.4112 27.1332 49.7834 27.1678 49.201 26.9872C48.5121 26.8514 47.821 26.7065 47.1228 26.632C46.5696 26.5728 46.1899 26.734 46.1746 27.4485C46.1593 28.1631 45.6846 28.5999 44.8394 28.7ZM47.2821 22.9839C48.7407 22.7705 49.5001 22.0877 49.4368 20.9955C49.4144 20.6209 49.1306 20.0115 48.8805 19.9584C48.6631 19.9422 48.4447 19.976 48.2423 20.0572C48.0399 20.1384 47.8588 20.2649 47.7128 20.4269C47.4543 20.7937 47.2813 21.2139 47.2066 21.6564C47.1319 22.0989 47.1573 22.5525 47.281 22.9839H47.2821Z" fill="white"/>
<path d="M40.0332 19.7266C40.0771 19.6909 40.123 19.6245 40.1669 19.6245C40.6415 19.6388 41.1152 19.6643 41.5898 19.6868C41.4877 20.1839 41.5408 20.7953 41.2642 21.1566C40.5915 22.0386 39.7137 22.7612 39.0186 23.6319C38.5128 24.2669 38.1047 24.9739 37.808 25.7295C37.7441 25.8585 37.7145 26.0017 37.7219 26.1454C37.7293 26.2891 37.7735 26.4285 37.8502 26.5502C37.927 26.6719 38.0337 26.7719 38.1602 26.8405C38.2867 26.9092 38.4286 26.9442 38.5725 26.9422C39.2258 27.0228 39.7351 26.9024 39.8362 26.097C39.8801 25.6512 40.0605 25.2299 40.3528 24.8904C40.6451 24.551 41.035 24.3101 41.4693 24.2005C42.2716 23.9575 43.1025 23.8258 43.962 23.636C44.081 24.1355 44.1703 24.6417 44.2294 25.1518C44.2386 25.2978 43.9344 25.607 43.8732 25.5836C43.5358 25.4481 43.2172 25.27 42.9249 25.0538C42.6932 24.8864 42.4227 24.4414 42.3176 24.4873C41.9441 24.674 41.6001 24.9147 41.2968 25.2018C41.2193 25.2661 41.2152 25.4202 41.1723 25.5274C40.9926 25.9888 40.9406 26.6849 40.6068 26.8687C40.1322 27.1963 39.5967 27.4255 39.032 27.5427C38.4673 27.66 37.8849 27.663 37.319 27.5515C36.9823 27.4308 36.7022 27.1898 36.5326 26.8749C36.363 26.56 36.3159 26.1935 36.4004 25.8459C36.6812 24.6932 37.3254 23.6615 38.2377 22.9031C38.7195 22.4275 39.2319 21.9845 39.6974 21.4925C40.367 20.7994 40.3965 20.5626 40.0332 19.7266Z" fill="white"/>
<path d="M86.0641 47.3C85.5595 47.2981 85.0755 47.0995 84.715 46.7466C84.3544 46.3936 84.1456 45.9141 84.1328 45.4096C84.1353 44.9123 84.3329 44.4357 84.6831 44.0825C85.0332 43.7292 85.508 43.5275 86.0053 43.5207C86.5027 43.5139 86.9828 43.7025 87.3425 44.046C87.7023 44.3895 87.9128 44.8604 87.9289 45.3576C87.9382 45.8619 87.7471 46.3493 87.3975 46.7128C87.0479 47.0764 86.5684 47.2865 86.0641 47.297V47.3ZM87.6258 45.429C87.6145 45.002 87.4434 44.5947 87.1462 44.2877C86.8491 43.9808 86.4477 43.7965 86.0212 43.7713C85.5958 43.8126 85.199 44.0042 84.9023 44.3118C84.6055 44.6194 84.4283 45.0228 84.4023 45.4495C84.428 45.8613 84.6054 46.2489 84.9002 46.5375C85.1951 46.8262 85.5864 46.9953 85.9987 47.0121C86.2107 47.0199 86.422 46.9846 86.6199 46.9084C86.8179 46.8322 86.9983 46.7167 87.1504 46.5688C87.3025 46.4209 87.4229 46.2438 87.5046 46.0481C87.5864 45.8524 87.6276 45.6411 87.6258 45.429Z" fill="white"/>
<path d="M22.2886 31.2457C22.2886 30.1546 22.306 29.0644 22.2825 27.9794C22.2692 27.4047 22.5111 27.2067 23.0705 27.1975C24.4128 27.176 25.7009 27.1567 26.6921 28.353C28.1078 30.0607 27.7863 33.5117 26.0051 34.8132C24.9844 35.5563 23.8105 35.346 22.6785 35.2746C22.5326 35.2654 22.3141 34.7887 22.307 34.5213C22.2631 33.4281 22.2886 32.3369 22.2886 31.2457Z" fill="black"/>
<path d="M51.7881 38.7239C51.7881 36.2487 51.8116 33.7724 51.7738 31.2971C51.7626 30.5397 51.978 30.2611 52.7731 30.2702C55.0269 30.2937 56.1579 31.2073 56.4978 33.4264C57.0174 36.8993 57.0226 40.4298 56.5131 43.9042C56.2559 45.7201 55.2882 47.2971 52.7497 47.1144C52.0443 47.0633 51.7616 46.9031 51.7728 46.1518C51.8126 43.6755 51.7891 41.1992 51.7881 38.7239Z" fill="black"/>
<path d="M55.2852 22.553C55.3493 21.7118 55.4894 20.8782 55.7037 20.0624C55.8199 19.8782 55.9817 19.7273 56.1734 19.6241C56.3651 19.5209 56.5802 19.469 56.7979 19.4734C57.0898 19.5336 57.4277 20.1205 57.4726 20.5064C57.5839 21.5047 56.9132 22.1559 55.2852 22.553Z" fill="black"/>
<path d="M47.2857 22.9857C47.1621 22.5554 47.1362 22.1029 47.21 21.6614C47.2839 21.2199 47.4555 20.8005 47.7124 20.4338C47.8583 20.272 48.0392 20.1456 48.2414 20.0644C48.4436 19.9832 48.6618 19.9493 48.8791 19.9653C49.1332 20.0174 49.413 20.6268 49.4354 21.0024C49.5008 22.0884 48.7454 22.7713 47.2857 22.9857Z" fill="black"/>
<path d="M91.1259 48.4631C91.0128 44.3988 90.3607 40.3674 89.1865 36.4746C86.6345 28.1524 81.6225 20.798 74.8101 15.3792C67.9977 9.96048 59.7042 6.73139 51.0212 6.11697C45.186 5.67898 39.3246 6.49514 33.831 8.51059C25.6087 11.4254 18.4661 16.7697 13.3497 23.8355C8.23323 30.9013 5.38455 39.355 5.18108 48.0763C5.13719 49.586 5.15249 49.586 6.6101 49.586H89.998C91.1361 49.5839 91.1698 49.5798 91.1259 48.4631ZM53.075 25.8631L55.4226 25.6314C55.137 25.1374 54.9059 24.6137 54.7337 24.0697C54.45 23.0349 54.3227 21.9635 54.356 20.8911C54.4154 20.5324 54.5526 20.191 54.7578 19.8908C54.9631 19.5907 55.2315 19.339 55.5442 19.1535C55.8569 18.968 56.2064 18.8531 56.5682 18.8168C56.93 18.7805 57.2953 18.8238 57.6387 18.9435C58.4297 19.1762 58.6267 19.5162 58.8248 21.0738H61.0051L61.2745 22.7243C60.5814 23.0989 60.0558 22.9785 59.872 22.2364C59.6291 21.2504 58.9605 21.4933 58.443 21.7107C57.5141 22.1047 56.6516 22.6529 55.6176 23.2153C55.9463 23.8808 56.2739 24.6586 56.7118 25.3711C56.8353 25.5752 57.261 25.6712 57.5529 25.6773C59.2882 25.7385 59.2882 25.7253 59.4382 27.4738C58.6308 27.7259 58.1378 27.533 57.8969 26.7195C57.883 26.6192 57.8489 26.5227 57.7967 26.436C57.7445 26.3493 57.6751 26.274 57.593 26.2149C57.5108 26.1557 57.4175 26.1138 57.3187 26.0918C57.2198 26.0697 57.1176 26.068 57.0181 26.0866C56.5179 26.106 56.0167 26.0764 55.5155 26.0866C55.269 26.0547 55.0191 26.1115 54.8106 26.2468C54.6021 26.3822 54.4485 26.5874 54.3774 26.8256C54.1416 27.4932 53.6476 27.6422 52.7371 27.5126L53.075 25.8631ZM34.1475 48.8092C32.1131 48.8184 30.0778 48.8408 28.0455 48.7888C27.8797 48.7524 27.7258 48.6747 27.5982 48.5628C27.4705 48.4509 27.3734 48.3084 27.3157 48.1488C27.0799 46.2012 26.936 44.2424 26.739 42.2897C26.7062 41.2393 26.5618 40.1954 26.3082 39.1755C26.1955 38.8286 26.0147 38.5078 25.7765 38.2316C25.5382 37.9555 25.2473 37.7297 24.9207 37.5673C24.5941 37.405 24.2384 37.3094 23.8745 37.2862C23.5105 37.263 23.1456 37.3126 22.801 37.4321C22.557 37.5046 22.3131 38.0445 22.309 38.3722C22.2723 41.4966 22.2569 44.6232 22.309 47.7476C22.3223 48.6061 22.0701 48.8704 21.2148 48.8388C19.6551 48.7755 18.0893 48.7959 16.5286 48.8326C15.8651 48.848 15.6701 48.605 15.6712 47.9569C15.6882 40.5858 15.6882 33.2151 15.6712 25.8447C15.6712 25.2159 15.8488 24.9516 16.5255 24.9567C19.8562 24.9832 23.1899 24.9066 26.5206 24.9914C27.6718 24.9803 28.8139 25.1972 29.881 25.6296C30.948 26.0619 31.919 26.7012 32.7378 27.5106C34.7079 29.4653 34.714 34.4903 31.2067 36.0306C30.7117 36.249 30.2279 36.492 29.6236 36.7768C29.8012 36.9573 29.9992 37.1166 30.2136 37.2514C32.3745 38.1354 33.1227 39.9125 33.3503 42.0662C33.5259 43.731 33.7586 45.3908 34.0219 47.0443C34.1554 47.5978 34.3336 48.1396 34.5547 48.6642C34.4267 48.7323 34.289 48.7805 34.1465 48.8071L34.1475 48.8092ZM43.0718 47.8956C43.0718 48.5724 42.8778 48.8531 42.1694 48.8317C40.8146 48.7915 39.4587 48.7915 38.1018 48.8317C37.4332 48.851 37.2475 48.604 37.2536 47.9559C37.2811 44.861 37.2658 41.7661 37.2658 38.6672C37.2658 35.6601 37.2924 32.653 37.2485 29.6469C37.2362 28.814 37.519 28.5588 38.3192 28.5925C39.5553 28.6436 40.7965 28.6364 42.0327 28.5925C42.7696 28.568 43.0799 28.7752 43.0769 29.5826C43.0476 35.6866 43.0476 41.7899 43.0769 47.8926L43.0718 47.8956ZM43.8741 25.5854C43.5367 25.45 43.218 25.272 42.9258 25.0557C42.6941 24.8883 42.4236 24.4432 42.3185 24.4892C41.9449 24.6759 41.601 24.9166 41.2977 25.2037C41.2202 25.268 41.2161 25.4221 41.1732 25.5293C40.9936 25.9907 40.9415 26.6868 40.6077 26.8705C40.133 27.1981 39.5976 27.4273 39.0329 27.5446C38.4682 27.6619 37.8858 27.6649 37.3199 27.5534C36.9834 27.4327 36.7035 27.1919 36.5339 26.8772C36.3643 26.5625 36.317 26.1962 36.4013 25.8488C36.6821 24.6961 37.3263 23.6644 38.2386 22.906C38.7204 22.4303 39.2328 21.9874 39.6972 21.4954C40.3617 20.7962 40.3903 20.5604 40.0279 19.7244C40.0718 19.6876 40.1178 19.6223 40.1606 19.6223C40.6353 19.6366 41.1089 19.6621 41.5835 19.6846C41.4815 20.1817 41.5345 20.7931 41.2579 21.1544C40.5853 22.0363 39.7074 22.759 39.0123 23.6297C38.5064 24.265 38.0984 24.9724 37.8017 25.7283C37.7379 25.8573 37.7083 26.0005 37.7157 26.1442C37.7231 26.2879 37.7672 26.4273 37.844 26.549C37.9207 26.6707 38.0274 26.7707 38.1539 26.8393C38.2804 26.908 38.4224 26.943 38.5662 26.941C39.2195 27.0216 39.7289 26.9012 39.8299 26.0958C39.8739 25.65 40.0543 25.2287 40.3466 24.8892C40.6389 24.5498 41.0288 24.3089 41.4631 24.1993C42.2654 23.9563 43.0963 23.8247 43.9557 23.6358C44.0747 24.1354 44.164 24.6415 44.2231 25.1516C44.2344 25.2996 43.9271 25.6079 43.8669 25.5834L43.8741 25.5854ZM44.8417 28.6987C44.8098 28.1803 44.818 27.6602 44.8662 27.1431C44.9098 27.0207 44.979 26.9091 45.0693 26.8158C45.1597 26.7225 45.269 26.6496 45.3899 26.6021C46.7025 26.0917 46.6944 26.105 46.2585 24.7546C45.7778 23.5354 45.7862 22.1777 46.282 20.9646C46.5348 20.377 46.9811 19.8937 47.5468 19.595C48.1125 19.2964 48.7634 19.2005 49.3911 19.3232C49.6917 19.3705 49.9732 19.5009 50.2036 19.6996C50.4341 19.8983 50.6045 20.1575 50.6956 20.4479C50.7866 20.7382 50.7947 21.0483 50.719 21.343C50.6433 21.6377 50.4867 21.9055 50.2669 22.116C49.6642 22.7021 48.9086 23.1068 48.0866 23.2837C47.2272 23.4745 47.1741 23.8022 47.4303 24.479C47.5325 24.9402 47.7529 25.3669 48.0699 25.7173C48.3868 26.0677 48.7893 26.3297 49.238 26.4775C50.5446 26.8164 51.2448 26.2101 51.0621 24.8883C51.0427 24.7495 51.0355 24.6076 51.007 24.2993C51.4836 24.3309 52.1012 24.2125 52.2472 24.4198C52.329 24.6162 52.3711 24.827 52.3711 25.0399C52.3711 25.2527 52.329 25.4634 52.2472 25.6599C51.983 26.2094 51.5302 26.6457 50.9713 26.8893C50.4124 27.1329 49.7846 27.1675 49.2023 26.9869C48.5133 26.8512 47.8223 26.7062 47.1251 26.6317C46.5708 26.5725 46.1921 26.7338 46.1768 27.4483C46.1615 28.1628 45.6869 28.6007 44.8407 28.7017L44.8417 28.6987ZM62.4494 42.6511C62.0767 44.4318 61.0894 46.0246 59.6605 47.1506C58.2316 48.2766 56.4521 48.8641 54.6336 48.8102C52.1583 48.85 49.6821 48.799 47.2057 48.8317C46.5392 48.8408 46.3493 48.6132 46.3555 47.962C46.384 44.8671 46.3687 41.7722 46.3687 38.6733C46.3687 35.6376 46.3871 32.601 46.3555 29.5653C46.3483 28.8508 46.5453 28.5741 47.2976 28.5905C50.125 28.6548 52.9555 28.6078 55.7799 28.7119C57.3545 28.7983 58.8559 29.4046 60.0488 30.4359C61.2417 31.4672 62.0587 32.8652 62.3718 34.4107C63.0286 37.1136 63.0544 39.9314 62.4473 42.646L62.4494 42.6511ZM82.0475 47.9712C82.1353 48.6683 81.8383 48.8898 81.1452 48.8837C76.3103 48.8606 71.4754 48.8606 66.6405 48.8837C65.9189 48.8837 65.6647 48.6704 65.6718 47.9262C65.7035 44.271 65.6861 40.6147 65.6861 36.9595V26.1693C65.6861 24.972 65.6861 24.9699 66.8426 24.9699C71.0583 24.9699 75.2739 24.9628 79.4906 24.9811C79.8345 24.9811 80.4531 25.122 80.4745 25.266C80.5479 25.8974 80.5297 26.5362 80.4204 27.1625C80.4062 27.2574 79.8978 27.3238 79.6181 27.3258C77.496 27.3391 75.3729 27.3503 73.2508 27.3258C72.5741 27.3166 72.3025 27.5299 72.3138 28.2373C72.3492 30.0372 72.3492 31.8354 72.3138 33.6319C72.3005 34.3209 72.5373 34.575 73.2324 34.5618C74.9421 34.5271 76.6529 34.5924 78.3616 34.5322C79.2068 34.5026 79.4916 34.8129 79.3824 35.605C79.358 35.7807 79.358 35.959 79.3824 36.1347C79.4844 36.8788 79.1068 37.0227 78.4504 37.0105C76.7152 36.9758 74.9707 37.0238 73.2324 36.986C72.5383 36.9707 72.3056 37.2044 72.3138 37.9047C72.3451 40.4395 72.3451 42.975 72.3138 45.5112C72.3046 46.2328 72.5934 46.4094 73.259 46.4023C75.8537 46.3747 78.4484 46.4145 81.0421 46.3758C81.7994 46.3635 82.1649 46.5666 82.0506 47.3648C82.024 47.5681 82.024 47.774 82.0506 47.9773L82.0475 47.9712Z" fill="black"/>
<path d="M85.9112 46.9445C85.4734 46.9445 85.0453 46.8147 84.6812 46.5714C84.3171 46.3281 84.0334 45.9824 83.8658 45.5778C83.6982 45.1733 83.6544 44.7282 83.7398 44.2987C83.8252 43.8692 84.0361 43.4747 84.3457 43.1651C84.6553 42.8554 85.0498 42.6446 85.4793 42.5591C85.9088 42.4737 86.3539 42.5176 86.7585 42.6852C87.163 42.8527 87.5088 43.1365 87.7521 43.5006C87.9954 43.8646 88.1252 44.2927 88.1252 44.7306C88.1252 45.3178 87.8919 45.8809 87.4767 46.2961C87.0615 46.7113 86.4984 46.9445 85.9112 46.9445ZM85.9112 42.8718C85.5434 42.8718 85.1838 42.9809 84.878 43.1853C84.5721 43.3896 84.3337 43.6801 84.193 44.0199C84.0522 44.3597 84.0154 44.7337 84.0872 45.0945C84.159 45.4552 84.336 45.7866 84.5961 46.0467C84.8562 46.3068 85.1876 46.4839 85.5484 46.5557C85.9092 46.6274 86.2831 46.5906 86.6229 46.4498C86.9627 46.309 87.2532 46.0707 87.4575 45.7649C87.6619 45.459 87.771 45.0994 87.771 44.7316C87.771 44.2384 87.5751 43.7654 87.2263 43.4166C86.8775 43.0678 86.4045 42.8718 85.9112 42.8718Z" fill="white"/>
<path d="M85.7816 44.4869H85.9082C86.0039 44.4938 86.0994 44.4721 86.1828 44.4246C86.2129 44.4023 86.2368 44.3727 86.2521 44.3386C86.2675 44.3044 86.2738 44.2669 86.2705 44.2296C86.2737 44.1931 86.2669 44.1563 86.2509 44.1232C86.2349 44.0902 86.2103 44.0621 86.1797 44.0418C86.0929 43.9991 85.9965 43.9801 85.9 43.9867H85.7816V44.4869ZM85.7816 44.8053V45.5198H85.3896V43.6703H85.9286C86.1245 43.655 86.3202 43.7029 86.4869 43.8071C86.5484 43.8567 86.597 43.9206 86.6284 43.9931C86.6599 44.0656 86.6733 44.1447 86.6676 44.2235C86.6695 44.3279 86.638 44.4302 86.5778 44.5154C86.5138 44.6059 86.4257 44.6766 86.3236 44.7196C86.6019 45.1354 86.7833 45.4028 86.8677 45.5219H86.4298L85.9888 44.8074L85.7816 44.8053Z" fill="white"/>
<defs>
<filter id="filter0_d_164_801" x="0.169922" y="0.5" width="95.9658" height="53.585" filterUnits="userSpaceOnUse" color-interpolation-filters="sRGB">
<feFlood flood-opacity="0" result="BackgroundImageFix"/>
<feColorMatrix in="SourceAlpha" type="matrix" values="0 0 0 0 0 0 0 0 0 0 0 0 0 0 0 0 0 0 127 0" result="hardAlpha"/>
<feOffset dy="-0.5"/>
<feGaussianBlur stdDeviation="2.5"/>
<feComposite in2="hardAlpha" operator="out"/>
<feColorMatrix type="matrix" values="0 0 0 0 1 0 0 0 0 1 0 0 0 0 1 0 0 0 0.3 0"/>
<feBlend mode="normal" in2="BackgroundImageFix" result="effect1_dropShadow_164_801"/>
<feBlend mode="normal" in="SourceGraphic" in2="effect1_dropShadow_164_801" result="shape"/>
</filter>
</defs>
</svg>
