<svg width="48" height="30" viewBox="0 0 48 30" fill="none" xmlns="http://www.w3.org/2000/svg">
<path d="M44.661 21.3305C44.661 15.6733 42.4137 10.2478 38.4135 6.24756C34.4132 2.24732 28.9877 4.39255e-07 23.3305 9.60142e-09C17.6733 -4.20052e-07 12.2478 2.24731 8.24756 6.24756C4.24732 10.2478 2 15.6733 2 21.3305L44.661 21.3305Z" fill="#FACE15"/>
<path d="M10.5503 20.9628L10.5503 16.0447C10.5503 15.8505 10.59 15.7532 10.7996 15.7858C10.8421 15.7888 10.8847 15.7888 10.9272 15.7858C12.1059 15.79 12.6478 16.3078 12.6924 17.4874C12.7167 18.118 12.7279 18.7488 12.7366 19.3805C12.7319 19.9527 12.8214 20.5217 13.0015 21.0648C13.0103 21.1299 13.0414 21.19 13.0895 21.2348C13.2461 21.2408 13.3993 21.2494 13.5528 21.259L16.6327 21.259C16.0374 20.1985 16.0943 19.0242 15.9217 17.894C15.8993 17.7507 15.8695 17.6085 15.8484 17.4626C15.8025 17.0959 15.6578 16.7485 15.4298 16.4577C15.2018 16.1668 14.8991 15.9433 14.554 15.8111C14.3598 15.7247 14.1674 15.6386 13.9422 15.5342C14.1865 15.4478 14.4003 15.3776 14.6083 15.2935C16.2804 14.6162 16.5437 13.2038 16.2182 12.0449C15.9922 11.2415 15.4091 10.7398 14.6884 10.3823C13.9523 10.0347 13.1459 9.86141 12.332 9.87589C10.7184 9.86466 9.10505 9.87589 7.49146 9.86806C7.28264 9.86806 7.24219 9.93018 7.24219 10.127C7.24741 13.831 7.24741 17.5349 7.24219 21.2387L9.78917 21.2387C10.0335 21.2387 10.2794 21.2345 10.5252 21.2301C10.5452 21.1424 10.5536 21.0526 10.5503 20.9628ZM10.5503 12.8961C10.5503 12.3164 10.5547 11.7364 10.5503 11.1575C10.5503 11.0009 10.5764 10.9244 10.7573 10.9348C11.1151 10.9258 11.4731 10.9465 11.8274 10.997C12.098 11.0448 12.3494 11.1684 12.5524 11.3536C12.7554 11.5388 12.9017 11.7778 12.9741 12.0428C13.1423 12.5928 13.1423 13.1806 12.9741 13.7306C12.7671 14.4183 12.2268 14.8049 11.4503 14.8375C11.2208 14.848 10.9896 14.8323 10.7599 14.848C10.5915 14.8592 10.5417 14.8039 10.5443 14.635C10.5563 14.0542 10.5503 13.4761 10.5503 12.8961Z" fill="black"/>
<path d="M22.4241 16.4039C22.4241 14.869 22.4227 13.3337 22.4199 11.7981C22.4199 11.6057 22.457 11.5391 22.6684 11.5391C23.9902 11.5496 25.313 11.5305 26.6374 11.5485C27.7679 11.565 28.8213 11.8281 29.6357 12.6865C30.2325 13.3523 30.6015 14.191 30.6891 15.0808C30.8825 16.2282 30.8236 17.4039 30.5166 18.5262C30.0447 20.1328 28.9315 20.9913 27.2991 21.2277C26.8328 21.2808 26.3634 21.3007 25.8943 21.2873C24.8286 21.2873 23.7621 21.2786 22.6958 21.2933C22.4609 21.2933 22.4197 21.2259 22.4204 21.0085C22.4285 19.4748 22.4241 17.939 22.4241 16.4039ZM25.2525 16.4152C25.2525 17.686 25.2569 18.9561 25.2525 20.226C25.2525 20.4191 25.3026 20.4849 25.4949 20.4659C25.715 20.4478 25.9387 20.4658 26.1592 20.4554C26.4083 20.4528 26.6518 20.3816 26.8631 20.2496C27.0744 20.1177 27.2452 19.93 27.3568 19.7073C27.4746 19.4802 27.5581 19.2368 27.6045 18.9851C27.8188 17.7232 27.875 16.4394 27.7718 15.1636C27.7626 14.5408 27.6557 13.9233 27.4552 13.3336C27.3739 13.0845 27.2233 12.8637 27.0209 12.6973C26.8185 12.5308 26.5728 12.4256 26.3127 12.3939C26.041 12.3524 25.7674 12.3861 25.4965 12.3647C25.3067 12.3491 25.2506 12.4078 25.2522 12.6028C25.2556 13.8736 25.2556 15.1411 25.2556 16.4136L25.2525 16.4152Z" fill="black"/>
<path d="M32.1588 15.5937C32.1588 13.7817 32.1588 11.9766 32.1536 10.1682C32.1536 9.95343 32.2112 9.9007 32.4227 9.90148C34.7092 9.90949 36.996 9.90949 39.2832 9.90148C39.4748 9.90148 39.5601 9.93698 39.5421 10.1492C39.5231 10.3702 39.5231 10.5925 39.5421 10.8135C39.5575 11.0092 39.4899 11.0552 39.3015 11.0533C38.1238 11.0447 36.9458 11.0533 35.7689 11.044C35.5428 11.044 35.4643 11.0896 35.4687 11.3339C35.4844 12.3062 35.4807 13.2795 35.4687 14.2521C35.4687 14.4497 35.5162 14.511 35.7216 14.511C36.6942 14.4998 37.6672 14.511 38.6398 14.5006C38.858 14.5006 38.9201 14.5645 38.9029 14.7741C38.8869 14.9953 38.8869 15.2173 38.9029 15.4384C38.9141 15.6109 38.8452 15.6506 38.6829 15.649C37.6931 15.643 36.7036 15.649 35.7138 15.6412C35.5267 15.6412 35.4679 15.6827 35.4695 15.8793C35.4782 17.2191 35.4782 18.5586 35.4695 19.8976C35.4695 20.0944 35.5152 20.1565 35.7206 20.1565C37.1452 20.1471 38.568 20.1565 39.9952 20.1461C40.2007 20.1461 40.2628 20.203 40.2471 20.405C40.2311 20.6265 40.2311 20.8488 40.2471 21.0703C40.2591 21.2499 40.2004 21.3008 40.0203 21.299C38.9115 21.2912 37.8017 21.299 36.6931 21.299C35.2837 21.299 33.8768 21.2904 32.4647 21.3058C32.1945 21.3058 32.1489 21.2275 32.1515 20.9787C32.1666 19.1769 32.1588 17.3848 32.1588 15.5937Z" fill="black"/>
<path d="M20.749 16.4089C20.749 17.9525 20.7507 19.4964 20.7542 21.0406C20.7542 21.2449 20.6973 21.2995 20.4953 21.2924C19.7122 21.2812 18.9258 21.2831 18.1406 21.2924C17.9681 21.2924 17.9094 21.2536 17.9102 21.069C17.9154 17.9628 17.9154 14.8567 17.9102 11.7508C17.9102 11.5782 17.9592 11.5367 18.125 11.5386C18.9273 11.5464 19.7289 11.549 20.5315 11.5386C20.7239 11.5386 20.7498 11.6101 20.749 11.7758C20.7472 13.3209 20.7472 14.8652 20.749 16.4089Z" fill="black"/>
<path d="M26.8089 9.57965C26.7306 9.43818 26.657 9.30794 26.5873 9.17404C26.3068 8.70114 26.1777 8.15375 26.2172 7.60533C26.232 7.43037 26.284 7.26059 26.3697 7.10734C26.4554 6.95409 26.5728 6.82091 26.7142 6.71669C26.8555 6.61247 27.0174 6.53961 27.1891 6.503C27.3609 6.46638 27.5384 6.46685 27.7099 6.50437C28.2275 6.60877 28.4147 6.90477 28.3252 7.43202C28.3192 7.46491 28.3199 7.49936 28.3158 7.55809C28.6522 7.53381 28.9801 7.51058 29.3076 7.48474C29.4285 7.47535 29.501 7.47952 29.4603 7.64526C29.4158 7.83103 29.4469 8.02688 29.5467 8.18974C29.6268 8.3226 29.5467 8.34948 29.4465 8.37428C29.3756 8.39208 29.3017 8.39402 29.2301 8.37994C29.1584 8.36587 29.0907 8.33614 29.0319 8.29288C28.973 8.24961 28.9245 8.19388 28.8896 8.12967C28.8548 8.06545 28.8346 7.99435 28.8305 7.92142C28.8044 7.71783 28.7227 7.70817 28.5457 7.72305C28.321 7.73947 28.1075 7.82747 27.9365 7.97415C27.68 8.16127 27.3801 8.28001 27.065 8.31921C26.8872 8.34948 26.8603 8.41161 26.9253 8.57292C27.0538 8.89057 27.2213 9.1863 27.3792 9.48829C27.4018 9.53375 27.4387 9.57052 27.4842 9.59297C27.5297 9.61542 27.5813 9.6223 27.6311 9.61254C27.9125 9.60314 28.1936 9.6021 28.475 9.59088C28.6011 9.58565 28.6577 9.60914 28.6347 9.75923C28.5964 9.95346 28.6218 10.1549 28.7073 10.3335C28.7728 10.4595 28.6953 10.4802 28.6029 10.4992C28.449 10.5241 28.2914 10.4874 28.1644 10.3969C28.0374 10.3065 27.9511 10.1697 27.9242 10.0161C27.8914 9.81848 27.8078 9.79342 27.6403 9.79864C27.2908 9.80908 26.9405 9.80647 26.591 9.79864C26.4537 9.79864 26.3882 9.81926 26.3579 9.98135C26.3148 10.1576 26.2053 10.3105 26.0523 10.4081C25.8993 10.5057 25.7145 10.5405 25.5365 10.5052C25.4415 10.4888 25.4096 10.4588 25.4744 10.3765C25.5425 10.2941 25.5907 10.197 25.6154 10.0929C25.6401 9.98884 25.6405 9.88047 25.6166 9.77619C25.5881 9.63733 25.6855 9.64752 25.7719 9.64856C26.119 9.66217 26.4666 9.63907 26.8089 9.57965ZM26.745 7.69694C26.7596 7.83058 26.7734 7.95587 26.788 8.08429C26.7959 8.15085 26.8157 8.18687 26.9018 8.17747C27.1318 8.14335 27.3431 8.03121 27.5002 7.85985C27.6573 7.68848 27.7507 7.46832 27.7648 7.23626C27.7648 7.00761 27.7034 6.79801 27.4549 6.73667C27.345 6.7107 27.2294 6.72402 27.1283 6.77431C27.0271 6.8246 26.9467 6.90871 26.9011 7.01204C26.7944 7.22455 26.74 7.45944 26.7424 7.69721L26.745 7.69694Z" fill="black"/>
<path d="M24.0478 10.2308C23.8424 10.2271 23.6387 10.1919 23.4438 10.1264C23.1506 10.0344 22.8414 10.0049 22.536 10.04C22.3635 10.0661 22.2962 10.1264 22.3082 10.3177C22.3215 10.4859 22.2682 10.6525 22.1598 10.7817C22.0513 10.9109 21.8964 10.9922 21.7285 11.0081C21.6154 11.0272 21.575 11.0003 21.6241 10.8943C21.6758 10.7912 21.705 10.6781 21.7095 10.5628C21.714 10.4474 21.6937 10.3325 21.6501 10.2256C21.5979 10.0979 21.683 10.0823 21.7684 10.0591C21.9816 10.0014 22.1928 9.9356 22.4087 9.88653C22.577 9.84842 22.6227 9.80013 22.5269 9.6276C22.2091 9.08451 22.0999 8.44432 22.2197 7.8266C22.2486 7.64875 22.3131 7.47858 22.4095 7.32636C22.5059 7.17414 22.6321 7.04302 22.7806 6.94088C22.929 6.83874 23.0966 6.76771 23.2732 6.73206C23.4498 6.69641 23.6318 6.69689 23.8082 6.73346C24.4234 6.83186 24.6495 7.4904 24.2397 8.01478C24.0975 8.18006 23.9229 8.31442 23.7267 8.40955C23.5305 8.50468 23.3169 8.55857 23.099 8.56788C22.754 8.61278 22.7495 8.60938 22.8401 8.944C22.9029 9.21058 23.0266 9.45897 23.2016 9.66962C23.3179 9.80746 23.4692 9.91134 23.6396 9.97029C23.81 10.0292 23.9932 10.0411 24.1697 10.0045C24.2516 9.99684 24.3305 9.96947 24.3995 9.92473C24.4685 9.88 24.5257 9.81922 24.5661 9.7476C24.6065 9.67597 24.6291 9.59563 24.6317 9.51342C24.6344 9.43121 24.6171 9.34958 24.5814 9.27549C24.5046 9.03901 24.5391 8.98289 24.792 8.95966C25.2302 8.9192 25.2924 8.96488 25.2044 9.40574C25.1094 9.92281 24.6693 10.2321 24.0478 10.2308ZM22.7621 8.11345C22.8354 8.19176 22.6284 8.41884 22.8926 8.41884C23.1296 8.41485 23.3569 8.32428 23.5318 8.16422C23.7066 8.00415 23.8168 7.78565 23.8416 7.54991C23.8677 7.24609 23.7709 7.04433 23.5681 6.97569C23.4514 6.94544 23.3277 6.95752 23.219 7.00979C23.1104 7.06207 23.0238 7.15116 22.9745 7.26124C22.8326 7.52269 22.7596 7.81598 22.7623 8.11345L22.7621 8.11345Z" fill="black"/>
<path d="M21.3541 8.96361C21.3372 9.11744 21.3692 9.27267 21.4454 9.40734C21.5162 9.52297 21.4566 9.55064 21.359 9.57987C21.2955 9.599 21.2287 9.60482 21.1628 9.59696C21.0969 9.58911 21.0334 9.56774 20.9761 9.5342C20.9189 9.50066 20.8691 9.45567 20.8301 9.40205C20.791 9.34842 20.7634 9.28731 20.749 9.22253C20.7101 9.03774 20.6386 9.03774 20.4901 9.07246C20.1218 9.15885 19.9681 9.32537 19.9602 9.77041C19.973 9.87393 19.9457 9.97841 19.8839 10.0625C19.8221 10.1465 19.7306 10.2037 19.628 10.2225C19.2556 10.3914 18.8568 10.4944 18.4492 10.5271C18.3394 10.5369 18.2289 10.5198 18.1271 10.4773C18.0254 10.4349 17.9355 10.3683 17.8652 10.2834C17.7949 10.1985 17.7463 10.0978 17.7236 9.98989C17.7009 9.88201 17.7047 9.77023 17.7348 9.66418C17.8042 9.3373 17.9587 9.03456 18.1827 8.78664C18.4566 8.48243 18.7512 8.19759 19.0644 7.93416C19.2484 7.78149 19.4028 7.59632 19.5199 7.38786C19.5906 7.24561 19.6434 7.09369 19.4447 6.9979C19.4069 6.97989 19.3542 6.95979 19.3732 6.9115C19.384 6.89358 19.3985 6.87816 19.4158 6.86628C19.433 6.8544 19.4526 6.84633 19.4732 6.84259C19.6063 6.81394 19.7408 6.79259 19.8762 6.77865C20.1834 6.74941 20.2878 6.87 20.2048 7.17383C20.0878 7.52363 19.8771 7.83465 19.5956 8.07303C19.282 8.33599 18.9889 8.62245 18.7188 8.92994C18.5246 9.14631 18.4022 9.41762 18.3686 9.70646C18.356 9.76748 18.3575 9.83057 18.373 9.89092C18.3885 9.95126 18.4176 10.0073 18.4581 10.0546C18.4986 10.102 18.5493 10.1395 18.6065 10.1642C18.6637 10.189 18.7258 10.2004 18.788 10.1974C19.1503 10.2337 19.273 10.1431 19.3437 9.78502C19.3805 9.58681 19.4708 9.40245 19.605 9.25202C19.7392 9.10158 19.9121 8.99082 20.1048 8.93177C20.4296 8.83217 20.7634 8.76485 21.1014 8.73078C21.359 8.69607 21.359 8.7005 21.3541 8.96361Z" fill="black"/>
<path d="M43.0694 19.2736C43.0675 19.4833 42.9931 19.6859 42.8587 19.8469C42.7243 20.0079 42.5382 20.1173 42.3322 20.1565C42.1262 20.1957 41.9129 20.1623 41.7287 20.062C41.5446 19.9616 41.4009 19.8005 41.3222 19.6061C41.2434 19.4118 41.2345 19.1961 41.297 18.9959C41.3594 18.7956 41.4893 18.6233 41.6645 18.508C41.8398 18.3928 42.0495 18.3419 42.2581 18.364C42.4666 18.3861 42.6611 18.4798 42.8083 18.6291C42.8921 18.7141 42.9583 18.8148 43.0031 18.9253C43.0479 19.0359 43.0704 19.1543 43.0694 19.2736ZM42.1469 19.9966C42.3389 20.0005 42.5246 19.9279 42.6631 19.7949C42.8016 19.6619 42.8816 19.4793 42.8855 19.2873C42.8894 19.0953 42.8168 18.9096 42.6838 18.7711C42.5508 18.6326 42.3682 18.5526 42.1762 18.5487C42.0803 18.5443 41.9846 18.5593 41.8946 18.5928C41.8047 18.6263 41.7225 18.6777 41.653 18.7438C41.5834 18.8099 41.5279 18.8894 41.4899 18.9774C41.4518 19.0655 41.4319 19.1604 41.4315 19.2564C41.4291 19.3521 41.4458 19.4474 41.4806 19.5366C41.5153 19.6259 41.5675 19.7073 41.6341 19.7762C41.7006 19.8451 41.7802 19.9001 41.8682 19.9379C41.9562 19.9757 42.0509 19.9957 42.1467 19.9966L42.1469 19.9966Z" fill="black"/>
<path d="M41.748 19.2765L41.748 19.1982C41.748 18.7589 41.8741 18.6641 42.3019 18.7805C42.3507 18.7879 42.3965 18.8087 42.4341 18.8407C42.4717 18.8727 42.4997 18.9145 42.5148 18.9615C42.53 19.0084 42.5317 19.0587 42.5198 19.1066C42.5079 19.1545 42.4829 19.1982 42.4476 19.2326C42.3035 19.3543 42.3925 19.4096 42.4408 19.5103C42.4778 19.5887 42.6235 19.6829 42.5055 19.7614C42.3875 19.84 42.3131 19.7166 42.2649 19.6069C42.236 19.546 42.201 19.4882 42.1604 19.4344C42.1434 19.4093 42.1189 19.3902 42.0905 19.3797C42.062 19.3691 42.031 19.3677 42.0017 19.3757C41.9154 19.3947 41.9496 19.4696 41.9449 19.5231C41.9418 19.5656 41.9418 19.6083 41.9449 19.6508C41.9449 19.7129 41.9448 19.7742 41.8543 19.7732C41.7637 19.7721 41.7499 19.7291 41.7499 19.6594C41.7488 19.5325 41.7488 19.4049 41.748 19.2765ZM42.1156 19.1789C42.2019 19.1729 42.3053 19.1841 42.3011 19.0624C42.297 18.9408 42.1863 18.9614 42.1062 18.9599C42.026 18.9583 41.9482 18.9392 41.9438 19.0617C41.9378 19.2021 42.0344 19.1736 42.1156 19.1789Z" fill="black"/>
<path d="M2 22.3214C2.10585 25.3819 5.46611 25.367 7.44499 26.9009C6.16441 26.3464 4.06545 26.4682 2.54609 25.4828C3.25483 27.786 5.78291 27.0277 7.63945 27.6538C6.53381 27.5458 5.07557 28.1701 3.69709 27.6763C4.91439 29.595 6.49344 28.3134 8.02327 28.3247C7.25167 28.5213 6.45497 29.3814 5.38959 29.3007C6.68783 30.5503 7.36762 29.3369 8.29759 28.8719C8.29645 28.8732 8.29514 28.8746 8.29399 28.8759C8.33115 28.8564 8.37075 28.842 8.41174 28.833C8.44284 28.826 8.47455 28.8223 8.5064 28.8217C8.7252 28.8183 8.92363 28.9692 8.97267 29.1912C8.99359 29.2856 8.98483 29.3841 8.94758 29.4732C8.94626 29.4633 8.94455 29.4534 8.94245 29.4435C8.89853 29.2445 8.70141 29.1186 8.50233 29.1626C8.30324 29.2065 8.1774 29.4036 8.22135 29.6027C8.22742 29.6297 8.23652 29.656 8.24848 29.681C8.24545 29.6789 8.24225 29.677 8.23927 29.6749C8.24841 29.6896 8.25824 29.7039 8.26842 29.7178C8.2881 29.7495 8.31243 29.7779 8.3406 29.8023C8.45732 29.9176 8.61569 29.9914 8.79253 29.9993C9.17134 30.0162 9.49217 29.7225 9.50904 29.3437C9.52275 29.0359 9.33197 28.7664 9.05662 28.6671C9.05645 28.6671 9.05626 28.6672 9.05613 28.6671C8.89923 28.5796 8.76222 28.4733 8.64669 28.3549C8.90939 28.4723 9.22845 28.4151 9.4333 28.1912C9.68923 27.9114 9.67011 27.4772 9.39031 27.2213C9.23086 27.0755 9.02149 27.0192 8.82324 27.0493C8.77087 27.0523 8.71859 27.0677 8.67126 27.098C8.52406 27.1919 8.48108 27.3874 8.57502 27.5345C8.66897 27.6817 8.86441 27.7247 9.01158 27.6308C9.08927 27.5812 9.13747 27.5035 9.15233 27.4194C9.1932 27.6064 9.11689 27.8073 8.94607 27.9163C8.72704 28.0561 8.43591 27.9921 8.29608 27.773C8.25303 27.7056 8.22801 27.6282 8.22342 27.5483C8.22339 27.5479 8.22293 27.5473 8.22293 27.5468C8.2172 27.5121 8.2131 27.4771 8.21064 27.4419C8.0481 25.0367 4.03998 24.7233 2.00002 22.3214L2 22.3214Z" fill="#FACE15"/>
<path d="M12.8568 23.6086L12.8205 25.6823L13.9078 25.6942L15.2245 25.6585L15.3332 25.7776L15.2124 26.9813L13.7749 26.9456L12.7964 26.9575L12.7843 27.5653L12.8568 29.9966H11.2139L11.2984 27.7083L11.2139 22.3214H15.8406L15.9372 22.4525L15.8164 23.6682L13.9682 23.5967L12.8568 23.6086Z" fill="#FFFDF4"/>
<path fill-rule="evenodd" clip-rule="evenodd" d="M21.5569 24.5553C21.0576 24.0389 20.3489 23.7807 19.4308 23.7807C18.4402 23.7807 17.6751 24.0588 17.1355 24.6149C16.596 25.1711 16.3262 25.9577 16.3262 26.9747C16.3262 27.9361 16.5758 28.6829 17.0751 29.2152C17.532 29.6951 18.1608 29.9554 18.9616 29.9961L18.9781 29.4267C18.9788 29.4043 18.9734 29.382 18.9626 29.3624C18.9517 29.3427 18.9358 29.3264 18.9165 29.3151C18.7041 29.1911 18.0402 28.7509 17.9193 28.0331C17.7751 27.1761 18.0244 24.9612 19.2445 24.9481C20.4647 24.9612 20.714 27.1761 20.5698 28.0331C20.4483 28.7515 19.7751 29.1914 19.56 29.3153C19.5405 29.3265 19.5244 29.3429 19.5134 29.3626C19.5024 29.3823 19.497 29.4047 19.4977 29.4273L19.5141 29.9912C20.3486 29.935 21.0054 29.6565 21.4844 29.1557C22.0321 28.5836 22.3059 27.7811 22.3059 26.7482C22.3059 25.8028 22.0562 25.0718 21.5569 24.5553Z" fill="#FFFDF4"/>
<path fill-rule="evenodd" clip-rule="evenodd" d="M28.3147 24.5554C27.8154 24.0389 27.1067 23.7807 26.1886 23.7807C25.198 23.7807 24.4329 24.0588 23.8934 24.615C23.3538 25.1711 23.084 25.9577 23.084 26.9747C23.084 27.9361 23.3336 28.6829 23.833 29.2153C24.2913 29.6966 24.9226 29.957 25.7269 29.9965L25.74 29.5592C25.7407 29.5362 25.7365 29.5134 25.7278 29.4921C25.7191 29.4708 25.706 29.4516 25.6894 29.4357C25.5159 29.2681 25.1122 28.8617 25.0812 28.6809C25.0812 28.6809 24.8971 28.4508 25.2244 25.0065C25.2251 25.0006 25.2276 24.9952 25.2317 24.9909C25.2358 24.9867 25.2412 24.9839 25.2471 24.983C25.2471 24.983 25.3987 24.9745 25.3987 24.9902L25.463 27.5007C25.4632 27.5255 25.4733 27.5491 25.491 27.5664C25.5087 27.5838 25.5326 27.5934 25.5573 27.5931C25.5821 27.5929 25.6058 27.5828 25.6231 27.5651C25.6405 27.5474 25.6501 27.5236 25.6498 27.4989L25.7135 24.9735C25.7138 24.9666 25.7167 24.9601 25.7217 24.9554C25.7267 24.9506 25.7334 24.948 25.7403 24.9481H25.8293C25.8362 24.948 25.8429 24.9507 25.8478 24.9555C25.8528 24.9603 25.8557 24.9668 25.8559 24.9737L25.8985 27.4924C25.8989 27.5116 25.9051 27.5303 25.9164 27.5458C25.9315 27.5636 25.9509 27.5772 25.9728 27.5851L25.9766 27.5861C25.9772 27.5863 25.9779 27.5865 25.9785 27.5867C25.98 27.5872 25.9815 27.5877 25.983 27.5877C25.9848 27.588 25.9866 27.5883 25.9884 27.5885L25.9935 27.5891H26.0044L26.0095 27.5885L26.0149 27.5877C26.0167 27.5873 26.0186 27.5868 26.0205 27.5863L26.0212 27.5861L26.0251 27.5851C26.047 27.5772 26.0665 27.5636 26.0815 27.5458C26.0929 27.5303 26.0991 27.5116 26.0994 27.4924L26.1425 24.9737C26.1427 24.9668 26.1456 24.9602 26.1506 24.9554C26.1556 24.9506 26.1623 24.948 26.1693 24.9481H26.2583C26.2652 24.948 26.2719 24.9506 26.2769 24.9553C26.2819 24.9601 26.2848 24.9666 26.2851 24.9735L26.3486 27.4981C26.3494 27.5222 26.3595 27.545 26.3767 27.5618C26.3939 27.5786 26.417 27.5881 26.4411 27.5884C26.4652 27.5886 26.4884 27.5795 26.506 27.5631C26.5236 27.5466 26.5341 27.524 26.5354 27.5L26.5996 24.9902C26.5999 24.9864 26.6009 24.9828 26.6026 24.9795C26.6043 24.9762 26.6067 24.9732 26.6096 24.9709C26.6125 24.9686 26.6159 24.9669 26.6195 24.9659C26.6231 24.9649 26.6269 24.9648 26.6306 24.9654L26.7513 24.9834C26.7571 24.9842 26.7625 24.987 26.7667 24.9913C26.7708 24.9955 26.7733 25.001 26.774 25.0069C27.1013 28.4512 26.9172 28.6812 26.9172 28.6812C26.8861 28.8625 26.4806 29.2703 26.3078 29.4368C26.2912 29.4527 26.2782 29.4719 26.2694 29.4931C26.2607 29.5144 26.2566 29.5372 26.2572 29.5602L26.2702 29.9913C27.1055 29.9354 27.7629 29.6568 28.2422 29.1557C28.7899 28.5836 29.0637 27.7811 29.0637 26.7483C29.0637 25.8028 28.814 25.0718 28.3147 24.5554Z" fill="#FFFDF4"/>
<path fill-rule="evenodd" clip-rule="evenodd" d="M34.686 24.559C34.1866 24.0664 33.4659 23.8201 32.5236 23.8201L29.8418 23.8677L29.9022 28.0986L29.8418 29.8863C30.4781 29.9193 31.0429 29.9409 31.5361 29.951L31.6643 24.6996C33.1716 25.1197 33.3438 29.1696 33.3438 29.1696L32.2755 29.1696L32.2586 29.9567C33.2682 29.9376 34.0451 29.6519 34.5893 29.0997C35.1611 28.5276 35.447 27.7093 35.447 26.6446C35.447 25.7388 35.1933 25.0436 34.686 24.559Z" fill="#FFFDF4"/>
<path d="M44.4346 22.3214C44.3287 25.3819 40.9685 25.367 38.9896 26.9009C40.2702 26.3464 42.3691 26.4683 43.8885 25.4828C43.1797 27.786 40.6517 27.0277 38.7951 27.6538C39.9008 27.5458 41.359 28.1701 42.7375 27.6763C41.5202 29.595 39.9411 28.3134 38.4113 28.3247C39.1829 28.5214 39.9796 29.3814 41.045 29.3008C39.7467 30.5503 39.067 29.3369 38.137 28.8719C38.1381 28.8732 38.1394 28.8746 38.1406 28.876C38.1034 28.8565 38.0638 28.842 38.0228 28.833C37.9917 28.8261 37.96 28.8223 37.9282 28.8217C37.7094 28.8183 37.5109 28.9692 37.4619 29.1912C37.441 29.2856 37.4497 29.3841 37.487 29.4732C37.4883 29.4633 37.49 29.4534 37.4921 29.4436C37.536 29.2445 37.7332 29.1186 37.9322 29.1626C38.1313 29.2065 38.2572 29.4037 38.2132 29.6027C38.2071 29.6298 38.198 29.656 38.1861 29.681C38.1891 29.6789 38.1923 29.677 38.1953 29.6749C38.1862 29.6896 38.1763 29.7039 38.1661 29.7179C38.1465 29.7495 38.1221 29.7779 38.094 29.8023C37.9772 29.9176 37.8189 29.9915 37.642 29.9993C37.2632 30.0162 36.9424 29.7225 36.9255 29.3437C36.9118 29.0359 37.1026 28.7664 37.378 28.6671C37.3781 28.6671 37.3783 28.6672 37.3784 28.6671C37.5353 28.5796 37.6724 28.4733 37.7879 28.3549C37.5252 28.4723 37.2061 28.4151 37.0013 28.1912C36.7453 27.9114 36.7645 27.4773 37.0443 27.2213C37.2037 27.0755 37.4131 27.0192 37.6113 27.0493C37.6637 27.0523 37.716 27.0678 37.7633 27.098C37.9105 27.1919 37.9535 27.3874 37.8595 27.5345C37.7656 27.6817 37.5702 27.7247 37.423 27.6308C37.3453 27.5812 37.2971 27.5036 37.2822 27.4194C37.2414 27.6064 37.3177 27.8073 37.4885 27.9164C37.7075 28.0562 37.9987 27.9921 38.1385 27.7731C38.1815 27.7056 38.2066 27.6282 38.2112 27.5484C38.2112 27.5479 38.2116 27.5473 38.2116 27.5468C38.2174 27.5121 38.2215 27.4771 38.2239 27.4419C38.3865 25.0368 42.3946 24.7233 44.4346 22.3215L44.4346 22.3214Z" fill="#FACE15"/>
</svg>
