<svg width="48" height="30" viewBox="0 0 48 30" fill="none" xmlns="http://www.w3.org/2000/svg">
<path d="M0 28.3323V26.8194C0.189947 26.8105 0.360016 26.7956 0.529534 26.7956C8.70905 26.7934 16.8888 26.7892 25.0686 26.7829C25.2337 26.7801 25.3977 26.81 25.5512 26.8709C25.7046 26.9318 25.8445 27.0226 25.9626 27.138C26.3332 27.4304 26.619 27.8164 26.7905 28.2563C26.9619 28.6961 27.0128 29.1738 26.9378 29.6399C26.919 29.7608 26.8223 29.9612 26.7467 29.9679C26.3668 30.0028 25.9845 30.0045 25.6043 29.9728C25.5352 29.9673 25.4419 29.7608 25.4309 29.6415C25.4027 29.3398 25.3979 29.0362 25.4165 28.7337C25.4364 28.4107 25.2983 28.3235 24.9947 28.3323C24.4055 28.3494 23.8152 28.3323 23.2277 28.3323H0Z" fill="white"/>
<path d="M42.5702 25.2745C42.5702 26.3237 42.6254 27.3242 42.5531 28.3175C42.5287 28.7144 42.3655 29.0901 42.092 29.3787C41.8185 29.6673 41.4522 29.8505 41.0572 29.8962C40.605 29.9746 40.1429 29.9766 39.69 29.9023C39.2937 29.8659 38.9232 29.6897 38.6448 29.4053C38.3664 29.1208 38.1983 28.7466 38.1705 28.3496C38.086 27.3435 38.1506 26.3248 38.1506 25.2806H39.6641V27.3745C39.6571 27.6129 39.6654 27.8515 39.6889 28.0889C39.69 28.1734 39.7077 28.2569 39.7411 28.3346C39.7745 28.4122 39.8228 28.4825 39.8834 28.5414C39.944 28.6004 40.0156 28.6468 40.0941 28.678C40.1726 28.7092 40.2565 28.7247 40.341 28.7234C40.4294 28.7349 40.5192 28.7272 40.6043 28.701C40.6895 28.6748 40.768 28.6307 40.8346 28.5715C40.9013 28.5124 40.9544 28.4397 40.9905 28.3582C41.0266 28.2768 41.0448 28.1885 41.0439 28.0995C41.0854 27.497 41.0732 26.8913 41.081 26.2867C41.0848 25.9554 41.081 25.6241 41.081 25.274L42.5702 25.2745Z" fill="white"/>
<path d="M30.889 28.8768V29.8491H29.3584V25.244C30.4384 25.323 31.5384 25.064 32.6019 25.445C32.917 25.5486 33.19 25.7517 33.3797 26.0237C33.5695 26.2958 33.6659 26.622 33.6543 26.9535C33.6925 27.2756 33.6221 27.6011 33.4544 27.8787C33.2867 28.1562 33.0312 28.3699 32.7283 28.4858C32.1256 28.6613 31.5109 28.7923 30.889 28.8779V28.8768ZM30.8951 27.5383C31.3142 27.4952 31.7565 27.7039 32.0077 27.2694C32.0939 27.1203 32.0541 26.7222 31.9597 26.6774C31.6147 26.5495 31.2577 26.457 30.894 26.4013L30.8951 27.5383Z" fill="white"/>
<path d="M47.0599 25.5311L46.6138 26.6123C46.222 26.4955 45.8223 26.4071 45.4178 26.3478C45.2207 26.3318 45.007 26.4947 44.801 26.5769C44.9508 26.7141 45.1179 26.831 45.298 26.9248C45.6094 27.0402 45.9479 27.0789 46.2648 27.1821C46.5332 27.2371 46.7755 27.3801 46.9534 27.5885C47.1312 27.7968 47.2344 28.0586 47.2466 28.3323C47.2748 28.6216 47.2088 28.9124 47.0584 29.1612C46.9079 29.4099 46.6811 29.6034 46.4117 29.7127C45.3305 30.213 44.2809 29.9999 43.166 29.5322L43.6332 28.483C44.1787 28.6012 44.6674 28.7315 45.1643 28.7956C45.33 28.8171 45.5166 28.6636 45.6939 28.5901C45.5607 28.4542 45.4081 28.3388 45.2411 28.2478C44.886 28.118 44.5001 28.0634 44.1411 27.9386C43.8918 27.8721 43.6703 27.7276 43.509 27.5262C43.3476 27.3249 43.2549 27.0772 43.2444 26.8193C43.217 26.5546 43.2698 26.2878 43.3958 26.0534C43.5218 25.819 43.7153 25.6278 43.9512 25.5046C44.9705 24.9409 45.992 25.1037 47.0599 25.5311Z" fill="white"/>
<path d="M35.7205 25.2878V28.6616H37.7636V29.8454H34.1816V25.2878H35.7205Z" fill="white"/>
<path d="M26.9934 26.6826C27.4699 26.6826 27.8802 26.6953 28.2888 26.6787C28.6024 26.6655 28.6996 26.7969 28.7117 27.1C28.7565 28.2044 28.466 28.4573 27.36 28.2044C27.2435 28.1779 27.148 28.0388 27.0524 27.9449C26.6184 27.5081 26.1977 27.0559 25.7499 26.6335C25.5351 26.4308 25.3203 25.3447 25.5329 25.1426C25.6768 25.0542 25.8457 25.0154 26.0138 25.0322C27.1436 25.0184 26.9608 24.8963 26.9928 25.9764C26.9995 26.1984 26.9934 26.4176 26.9934 26.6826Z" fill="white"/>
<path d="M13.8627 16.6509C13.9588 16.7486 14.0659 16.8347 14.1818 16.9077C15.3508 17.3853 15.7555 18.3472 15.8786 19.5123C15.9736 20.4129 16.0995 21.3107 16.242 22.2052C16.3142 22.5047 16.4106 22.7977 16.5302 23.0815C16.4609 23.1182 16.3864 23.1441 16.3093 23.1583C15.2089 23.1633 14.1078 23.1754 13.0084 23.1473C12.9188 23.1276 12.8355 23.0855 12.7665 23.0249C12.6975 22.9644 12.6449 22.8874 12.6136 22.801C12.4861 21.7475 12.4082 20.6879 12.3017 19.6316C12.2839 19.0635 12.2058 18.499 12.0687 17.9474C12.0077 17.7598 11.9099 17.5862 11.781 17.4369C11.6521 17.2875 11.4947 17.1653 11.3181 17.0775C11.1414 16.9897 10.949 16.938 10.7521 16.9254C10.5552 16.9128 10.3578 16.9397 10.1714 17.0043C10.0394 17.0435 9.90745 17.3356 9.90524 17.5129C9.88536 19.2031 9.87708 20.8944 9.90524 22.584C9.91242 23.0484 9.77602 23.1914 9.3133 23.1743C8.46958 23.1401 7.6231 23.1511 6.77828 23.1704C6.41937 23.1787 6.3139 23.0473 6.31446 22.6967C6.32366 18.7092 6.32366 14.722 6.31446 10.735C6.31446 10.3948 6.41053 10.2518 6.77662 10.2546C8.57836 10.2689 10.3818 10.2275 12.1835 10.2733C12.8063 10.2674 13.4241 10.3847 14.0013 10.6186C14.5786 10.8525 15.1038 11.1983 15.5468 11.6361C16.6125 12.6935 16.6158 15.4119 14.7185 16.2451C14.4513 16.3655 14.1895 16.4969 13.8627 16.6509ZM9.89253 13.6582C9.89253 14.2479 9.87928 14.8387 9.90192 15.4251C9.90744 15.5698 10.0245 15.8271 10.1029 15.8326C10.7153 15.8718 11.353 15.985 11.9024 15.583C12.866 14.879 13.0394 13.0121 12.274 12.0883C11.7379 11.4412 11.041 11.4522 10.3149 11.4633C10.0123 11.4682 9.88094 11.5737 9.88867 11.8862C9.90303 12.476 9.89364 13.0657 9.89309 13.6532L9.89253 13.6582Z" fill="white"/>
<path d="M22.9184 17.6787C22.9184 16.0365 22.9284 14.3938 22.9112 12.7516C22.9074 12.3651 23.014 12.2155 23.4209 12.2243C24.9504 12.2591 26.4816 12.2331 28.0095 12.29C28.8613 12.3366 29.6735 12.6646 30.3188 13.2225C30.9642 13.7804 31.4061 14.5367 31.5754 15.3728C31.931 16.8347 31.9454 18.3588 31.6174 19.8272C31.4157 20.7904 30.8817 21.6521 30.1087 22.2612C29.3357 22.8703 28.3731 23.1881 27.3894 23.159C26.0504 23.1805 24.7108 23.1529 23.3712 23.1706C23.0106 23.1755 22.9079 23.0524 22.9112 22.7001C22.925 21.027 22.9184 19.3529 22.9184 17.6787ZM25.8504 17.7019C25.8504 19.0409 25.8637 20.3804 25.8427 21.7195C25.8367 22.1259 25.9896 22.2125 26.3712 22.2402C27.7461 22.339 28.2684 21.4859 28.407 20.5036C28.6827 18.6241 28.6799 16.7142 28.3988 14.8355C28.2138 13.6345 27.603 13.1415 26.3838 13.1282C25.9554 13.1232 25.8366 13.2745 25.8433 13.6837C25.8637 15.0222 25.851 16.3617 25.851 17.7008L25.8504 17.7019Z" fill="white"/>
<path d="M33.369 16.7498V10.9133C33.369 10.2656 33.369 10.2645 33.9946 10.2645C36.2751 10.2645 38.5555 10.2606 40.8366 10.2706C41.0227 10.2706 41.3573 10.3467 41.3689 10.424C41.4086 10.7657 41.3987 11.1112 41.3396 11.45C41.3324 11.5013 41.0569 11.5372 40.9056 11.5383C39.7576 11.5455 38.6091 11.5521 37.4606 11.5383C37.0945 11.5334 36.9476 11.6488 36.9537 12.0314C36.9728 13.0051 36.9728 13.9778 36.9537 14.9497C36.9465 15.3224 37.0752 15.4599 37.4507 15.4527C38.3756 15.4339 39.301 15.4693 40.2253 15.4367C40.682 15.4207 40.8366 15.5885 40.7775 16.017C40.7642 16.1121 40.7642 16.2085 40.7775 16.3036C40.8327 16.7061 40.6284 16.784 40.2734 16.7774C39.3347 16.7586 38.391 16.7845 37.4507 16.7641C37.0752 16.7558 36.9487 16.8823 36.9537 17.2611C36.9706 18.6323 36.9706 20.0037 36.9537 21.3753C36.9487 21.7657 37.105 21.8612 37.465 21.8574C38.8686 21.8424 40.2723 21.8645 41.6753 21.8424C42.0851 21.8364 42.2827 21.9457 42.2209 22.3775C42.2063 22.4884 42.2063 22.6007 42.2209 22.7116C42.2684 23.0887 42.1077 23.2085 41.7328 23.2052C39.1173 23.1927 36.5018 23.1927 33.8864 23.2052C33.496 23.2052 33.3585 23.0898 33.3624 22.6873C33.3756 20.7033 33.369 18.7254 33.369 16.7498Z" fill="white"/>
<path d="M17.9949 17.6769C17.9949 16.0502 18.0099 14.4235 17.9856 12.7973C17.9789 12.3468 18.1319 12.2087 18.5648 12.2269C19.2335 12.2545 19.9049 12.2507 20.5736 12.2269C20.9723 12.2137 21.1401 12.3258 21.1385 12.7625C21.1234 16.0634 21.1234 19.3643 21.1385 22.6652C21.1385 23.0313 21.0336 23.1831 20.6504 23.1715C19.9174 23.1498 19.184 23.1498 18.4499 23.1715C18.0883 23.182 17.9878 23.0484 17.9911 22.6978C18.0032 21.0236 17.9949 19.3489 17.9949 17.6769Z" fill="white"/>
<path d="M29.6608 8.15583H30.8397L30.986 9.0487C30.6111 9.25134 30.3267 9.18619 30.2273 8.78476C30.0959 8.25136 29.7342 8.38277 29.4543 8.50038C28.9518 8.71352 28.4852 9.01004 27.9259 9.31429C28.1037 9.6743 28.2809 10.0951 28.5178 10.4805C28.5846 10.5909 28.8149 10.6428 28.9728 10.6461C29.9115 10.6792 29.9115 10.6721 29.9926 11.6179C29.5559 11.7543 29.2892 11.65 29.1594 11.2099C29.1519 11.1556 29.1335 11.1035 29.1052 11.0566C29.0769 11.0096 29.0394 10.9689 28.995 10.9369C28.9505 10.9049 28.9001 10.8823 28.8466 10.8703C28.7931 10.8584 28.7378 10.8575 28.684 10.8675C28.4134 10.878 28.1418 10.862 27.8712 10.8675C27.7378 10.8503 27.6026 10.881 27.4898 10.9542C27.377 11.0275 27.294 11.1384 27.2555 11.2673C27.128 11.6284 26.8607 11.7091 26.3682 11.6389L26.5449 10.7422L27.8149 10.6174C27.6603 10.3502 27.5353 10.0669 27.4421 9.77258C27.2888 9.2128 27.2199 8.63326 27.2378 8.05312C27.27 7.85907 27.3442 7.6744 27.4552 7.51204C27.5663 7.34968 27.7114 7.21354 27.8806 7.11318C28.0498 7.01281 28.2389 6.95064 28.4346 6.93102C28.6303 6.91139 28.8279 6.9348 29.0136 6.99958C29.4476 7.12934 29.5542 7.31156 29.6608 8.15583ZM27.7425 8.95482C28.6227 8.74002 28.986 8.38773 28.9247 7.84715C28.901 7.63843 28.7188 7.32094 28.5603 7.28836C28.4426 7.28597 28.3262 7.31406 28.2225 7.36988C28.1188 7.4257 28.0312 7.50736 27.9684 7.60696C27.8525 8.04887 27.7769 8.50038 27.7425 8.95593V8.95482Z" fill="white"/>
<path d="M22.0924 12.2799C22.0751 11.9993 22.0795 11.7178 22.1056 11.4379C22.1293 11.3716 22.1668 11.3112 22.2158 11.2607C22.2647 11.2102 22.3239 11.1709 22.3894 11.1452C23.1001 10.8691 23.0951 10.8769 22.8593 10.1458C22.5993 9.48628 22.6038 8.75182 22.872 8.09557C23.0088 7.77771 23.2503 7.51626 23.5563 7.35472C23.8623 7.19318 24.2144 7.14129 24.554 7.20768C24.7166 7.23327 24.8688 7.30379 24.9935 7.41129C25.1182 7.51878 25.2103 7.65897 25.2596 7.81605C25.3089 7.97313 25.3133 8.14084 25.2723 8.30028C25.2313 8.45972 25.1466 8.60455 25.0277 8.71842C24.7017 9.03551 24.2929 9.25442 23.8483 9.35011C23.3834 9.45337 23.3546 9.63061 23.4932 9.9967C23.5485 10.2462 23.6678 10.4771 23.8392 10.6666C24.0107 10.8562 24.2284 10.9979 24.4711 11.0779C25.1779 11.2612 25.5567 10.9332 25.4579 10.2181C25.4474 10.143 25.4435 10.0663 25.4281 9.89952C25.6859 9.91664 26.02 9.85259 26.099 9.96468C26.1433 10.071 26.1661 10.185 26.1661 10.3001C26.1661 10.4153 26.1433 10.5293 26.099 10.6356C25.9561 10.9328 25.7111 11.1688 25.4088 11.3006C25.1064 11.4324 24.7668 11.4511 24.4518 11.3534C24.0791 11.28 23.7053 11.2015 23.3276 11.1612C23.0283 11.1292 22.8229 11.2164 22.8146 11.603C22.8063 11.9895 22.5496 12.2258 22.0924 12.2799ZM23.4137 9.18777C24.2028 9.07237 24.6136 8.70296 24.5794 8.11214C24.5672 7.90949 24.4137 7.57985 24.2784 7.55113C24.1608 7.54238 24.0427 7.56065 23.9332 7.60459C23.8237 7.64852 23.7257 7.71693 23.6467 7.80457C23.5069 8.00301 23.4133 8.23027 23.3729 8.46965C23.3325 8.70902 23.3462 8.95442 23.4132 9.18777H23.4137Z" fill="white"/>
<path d="M19.4922 7.42512C19.516 7.4058 19.5408 7.3699 19.5646 7.3699C19.8213 7.37763 20.0776 7.39144 20.3343 7.40359C20.2791 7.6725 20.3078 8.00325 20.1582 8.19872C19.7943 8.6758 19.3194 9.06673 18.9434 9.53773C18.6698 9.88123 18.449 10.2637 18.2885 10.6724C18.254 10.7422 18.2379 10.8197 18.2419 10.8974C18.246 10.9752 18.2699 11.0506 18.3114 11.1164C18.3529 11.1822 18.4106 11.2363 18.479 11.2734C18.5475 11.3106 18.6242 11.3295 18.7021 11.3284C19.0555 11.3721 19.331 11.3069 19.3857 10.8712C19.4094 10.6301 19.5071 10.4022 19.6652 10.2185C19.8233 10.0349 20.0342 9.90459 20.2692 9.8453C20.7032 9.71388 21.1526 9.64264 21.6176 9.53994C21.682 9.81016 21.7303 10.084 21.7622 10.3599C21.7672 10.4389 21.6027 10.6062 21.5695 10.5935C21.387 10.5202 21.2146 10.4239 21.0566 10.3069C20.9312 10.2164 20.7849 9.97561 20.728 10.0005C20.526 10.1015 20.3399 10.2317 20.1758 10.387C20.1339 10.4218 20.1317 10.5051 20.1085 10.5631C20.0113 10.8127 19.9831 11.1893 19.8026 11.2887C19.5458 11.4659 19.2561 11.5899 18.9507 11.6533C18.6452 11.7168 18.3301 11.7184 18.024 11.6581C17.8419 11.5928 17.6903 11.4624 17.5986 11.2921C17.5068 11.1217 17.4814 10.9234 17.5271 10.7354C17.679 10.1119 18.0274 9.55373 18.521 9.14349C18.7816 8.88617 19.0588 8.64654 19.3106 8.38039C19.6728 8.00546 19.6888 7.87735 19.4922 7.42512Z" fill="white"/>
<path d="M44.3934 22.3407C44.1204 22.3396 43.8586 22.2322 43.6635 22.0413C43.4685 21.8504 43.3555 21.5909 43.3486 21.3181C43.35 21.049 43.4569 20.7912 43.6463 20.6001C43.8357 20.409 44.0925 20.2999 44.3616 20.2962C44.6306 20.2925 44.8904 20.3946 45.085 20.5804C45.2795 20.7662 45.3934 21.021 45.4022 21.2899C45.4072 21.5627 45.3038 21.8264 45.1147 22.0231C44.9256 22.2197 44.6662 22.3334 44.3934 22.339V22.3407ZM45.2382 21.3286C45.2321 21.0975 45.1395 20.8772 44.9788 20.7112C44.818 20.5451 44.6009 20.4454 44.3702 20.4318C44.14 20.4541 43.9254 20.5578 43.7649 20.7242C43.6044 20.8906 43.5085 21.1088 43.4944 21.3396C43.5083 21.5624 43.6043 21.7721 43.7638 21.9282C43.9233 22.0844 44.135 22.1758 44.358 22.185C44.4727 22.1891 44.587 22.1701 44.694 22.1289C44.8011 22.0876 44.8988 22.0251 44.981 21.9451C45.0633 21.8652 45.1284 21.7693 45.1726 21.6635C45.2168 21.5576 45.2391 21.4433 45.2382 21.3286Z" fill="white"/>
<path d="M9.89266 13.6568C9.89266 13.0665 9.90204 12.4768 9.88934 11.8898C9.88216 11.5789 10.013 11.4718 10.3156 11.4669C11.0417 11.4553 11.7386 11.4448 12.2747 12.0919C13.0406 13.0157 12.8667 14.8826 11.9031 15.5866C11.3509 15.9886 10.7159 15.8749 10.1036 15.8362C10.0246 15.8312 9.90647 15.5734 9.9026 15.4287C9.87886 14.8373 9.89266 14.2471 9.89266 13.6568Z" fill="black"/>
<path d="M25.8503 17.7025C25.8503 16.3635 25.863 15.0239 25.8425 13.6849C25.8365 13.2752 25.953 13.1245 26.3831 13.1295C27.6023 13.1422 28.2141 13.6364 28.398 14.8368C28.6791 16.7155 28.6819 18.6253 28.4063 20.5048C28.2671 21.4871 27.7437 22.3402 26.3704 22.2414C25.9889 22.2138 25.8359 22.1271 25.842 21.7207C25.8635 20.3811 25.8508 19.0416 25.8503 17.7025Z" fill="black"/>
<path d="M27.7422 8.95416C27.7769 8.49915 27.8527 8.04821 27.9686 7.60686C28.0315 7.50726 28.119 7.42559 28.2227 7.36976C28.3264 7.31394 28.4428 7.28587 28.5605 7.28826C28.7184 7.32083 28.9012 7.63833 28.9255 7.84705C28.9857 8.38708 28.6229 8.73937 27.7422 8.95416Z" fill="black"/>
<path d="M23.4147 9.1878C23.3479 8.95505 23.3339 8.71028 23.3738 8.47143C23.4137 8.23258 23.5066 8.0057 23.6455 7.80737C23.7244 7.7198 23.8223 7.65143 23.9317 7.6075C24.0411 7.56357 24.1591 7.54524 24.2767 7.55391C24.4142 7.58207 24.5655 7.91173 24.5776 8.11493C24.613 8.70244 24.2043 9.07184 23.4147 9.1878Z" fill="black"/>
<path d="M47.1313 22.9697C47.0701 20.771 46.7173 18.5902 46.0821 16.4844C44.7016 11.9824 41.9903 8.00401 38.3051 5.0727C34.6199 2.14139 30.1335 0.394591 25.4364 0.0622173C22.2798 -0.174716 19.109 0.266791 16.1372 1.35706C11.6893 2.93383 7.82545 5.8249 5.05769 9.64719C2.28993 13.4695 0.74892 18.0425 0.638849 22.7604C0.615105 23.577 0.623385 23.577 1.41189 23.577H46.5211C47.1368 23.5759 47.155 23.5737 47.1313 22.9697ZM26.5474 10.744L27.8174 10.6187C27.6628 10.3514 27.5378 10.0681 27.4446 9.77384C27.2912 9.21408 27.2223 8.6345 27.2403 8.05437C27.2725 7.86032 27.3467 7.67564 27.4577 7.51328C27.5688 7.35092 27.7139 7.21478 27.8831 7.11442C28.0523 7.01406 28.2413 6.9519 28.437 6.93228C28.6328 6.91265 28.8304 6.93605 29.0161 7.00083C29.4441 7.12672 29.5506 7.3106 29.6577 8.15321H30.8372L30.983 9.04606C30.608 9.24871 30.3237 9.18356 30.2243 8.78213C30.0929 8.24873 29.7312 8.38015 29.4512 8.49777C28.9487 8.7109 28.4822 9.00742 27.9228 9.31167C28.1006 9.67168 28.2779 10.0924 28.5147 10.4779C28.5816 10.5883 28.8118 10.6402 28.9697 10.6435C29.9084 10.6766 29.9084 10.6695 29.9896 11.6153C29.5528 11.7517 29.2861 11.6473 29.1558 11.2073C29.1483 11.153 29.1299 11.1008 29.1016 11.0539C29.0733 11.007 29.0359 10.9663 28.9914 10.9343C28.947 10.9023 28.8965 10.8796 28.843 10.8677C28.7896 10.8558 28.7342 10.8548 28.6804 10.8649C28.4098 10.8754 28.1387 10.8594 27.8676 10.8649C27.7342 10.8476 27.599 10.8784 27.4863 10.9516C27.3735 11.0248 27.2904 11.1358 27.2519 11.2647C27.1244 11.6258 26.8571 11.7064 26.3646 11.6363L26.5474 10.744ZM16.3084 23.1569C15.2079 23.1618 14.1069 23.174 13.0075 23.1458C12.9178 23.1262 12.8346 23.0841 12.7655 23.0236C12.6965 22.963 12.6439 22.886 12.6127 22.7996C12.4852 21.746 12.4073 20.6864 12.3007 19.6301C12.283 19.0619 12.2049 18.4972 12.0677 17.9454C12.0067 17.7578 11.9089 17.5842 11.7801 17.4349C11.6512 17.2855 11.4938 17.1633 11.3171 17.0755C11.1405 16.9877 10.9481 16.936 10.7512 16.9234C10.5543 16.9108 10.3568 16.9377 10.1705 17.0023C10.0385 17.0415 9.90652 17.3336 9.90431 17.5109C9.88443 19.2011 9.87615 20.8924 9.90431 22.5826C9.91149 23.047 9.7751 23.19 9.31238 23.1729C8.46866 23.1386 7.62163 23.1497 6.77736 23.1695C6.41844 23.1778 6.31297 23.0464 6.31353 22.6958C6.32273 18.7084 6.32273 14.7211 6.31353 10.7341C6.31353 10.3939 6.40961 10.2509 6.7757 10.2537C8.57744 10.268 10.3808 10.2266 12.1826 10.2724C12.8054 10.2665 13.4232 10.3838 14.0004 10.6177C14.5777 10.8516 15.1029 11.1974 15.5459 11.6352C16.6115 12.6926 16.6149 15.411 14.7176 16.2442C14.4498 16.3624 14.1881 16.4938 13.8612 16.6478C13.9573 16.7455 14.0644 16.8317 14.1803 16.9046C15.3493 17.3828 15.754 18.3441 15.8772 19.5092C15.9721 20.4098 16.098 21.3076 16.2405 22.2021C16.3127 22.5016 16.4091 22.7946 16.5287 23.0784C16.4594 23.1153 16.3855 23.1424 16.3084 23.1569ZM21.1361 22.6626C21.1361 23.0287 21.0311 23.1806 20.6479 23.169C19.915 23.1473 19.1816 23.1473 18.4475 23.169C18.0859 23.1795 17.9854 23.0459 17.9887 22.6952C18.0036 21.021 17.9953 19.3469 17.9953 17.6705C17.9953 16.0438 18.0097 14.4171 17.9859 12.7909C17.9793 12.3403 18.1322 12.2023 18.5651 12.2205C19.2338 12.2481 19.9053 12.2443 20.5739 12.2205C20.9726 12.2073 21.1405 12.3194 21.1388 12.7561C21.123 16.0581 21.123 19.3597 21.1388 22.661L21.1361 22.6626ZM21.5701 10.5938C21.3876 10.5206 21.2152 10.4243 21.0571 10.3072C20.9318 10.2167 20.7854 9.97592 20.7286 10.0008C20.5265 10.1018 20.3404 10.232 20.1764 10.3873C20.1344 10.4221 20.1322 10.5055 20.109 10.5634C20.0118 10.813 19.9837 11.1896 19.8031 11.289C19.5463 11.4662 19.2567 11.5902 18.9512 11.6536C18.6457 11.7171 18.3307 11.7187 18.0246 11.6584C17.8425 11.5931 17.6911 11.4628 17.5993 11.2926C17.5076 11.1224 17.482 10.9242 17.5276 10.7363C17.6796 10.1127 18.028 9.55463 18.5215 9.14435C18.7821 8.88704 19.0593 8.64741 19.3106 8.38126C19.67 8.00302 19.6855 7.87546 19.4895 7.42323C19.5132 7.40335 19.5381 7.36801 19.5613 7.36801C19.818 7.37574 20.0742 7.38955 20.331 7.40169C20.2758 7.6706 20.3045 8.00136 20.1548 8.19683C19.791 8.6739 19.3161 9.06485 18.9401 9.53585C18.6664 9.87952 18.4457 10.2622 18.2852 10.6711C18.2507 10.7409 18.2346 10.8183 18.2386 10.8961C18.2426 10.9738 18.2665 11.0492 18.3081 11.1151C18.3496 11.1809 18.4073 11.235 18.4757 11.2721C18.5441 11.3092 18.6209 11.3282 18.6988 11.3271C19.0522 11.3707 19.3277 11.3056 19.3824 10.8699C19.4061 10.6288 19.5037 10.4008 19.6619 10.2172C19.82 10.0336 20.0309 9.90325 20.2658 9.84396C20.6998 9.71254 21.1493 9.64131 21.6142 9.53916C21.6786 9.80938 21.7269 10.0832 21.7589 10.3591C21.765 10.4392 21.5988 10.606 21.5662 10.5927L21.5701 10.5938ZM22.0935 12.2779C22.0763 11.9975 22.0807 11.7162 22.1068 11.4364C22.1303 11.3702 22.1678 11.3099 22.2167 11.2594C22.2655 11.2089 22.3247 11.1695 22.39 11.1438C23.1001 10.8677 23.0957 10.8749 22.8599 10.1443C22.5999 9.48482 22.6044 8.75037 22.8726 8.09412C23.0094 7.77626 23.2509 7.51481 23.5569 7.35327C23.8629 7.19172 24.215 7.13983 24.5546 7.20622C24.7172 7.23182 24.8694 7.30234 24.9941 7.40983C25.1188 7.51733 25.2109 7.65753 25.2602 7.81461C25.3095 7.97169 25.3139 8.1394 25.2729 8.29884C25.2319 8.45828 25.1472 8.60311 25.0283 8.71698C24.7023 9.03407 24.2935 9.25297 23.8489 9.34866C23.384 9.45191 23.3552 9.62917 23.4938 9.99526C23.5491 10.2448 23.6684 10.4756 23.8398 10.6652C24.0112 10.8547 24.229 10.9964 24.4717 11.0764C25.1785 11.2597 25.5573 10.9317 25.4585 10.2167C25.448 10.1416 25.4441 10.0648 25.4287 9.89807C25.6865 9.91518 26.0206 9.85114 26.0995 9.96323C26.1438 10.0695 26.1666 10.1835 26.1666 10.2987C26.1666 10.4138 26.1438 10.5278 26.0995 10.6341C25.9567 10.9314 25.7117 11.1674 25.4094 11.2991C25.107 11.4309 24.7674 11.4496 24.4524 11.3519C24.0797 11.2785 23.7059 11.2001 23.3287 11.1598C23.0289 11.1278 22.824 11.215 22.8158 11.6015C22.8075 11.9881 22.5507 12.2249 22.093 12.2796L22.0935 12.2779ZM31.6185 19.8256C31.4169 20.7889 30.8828 21.6505 30.1098 22.2596C29.3369 22.8688 28.3742 23.1866 27.3905 23.1574C26.0515 23.1789 24.7119 23.1513 23.3724 23.169C23.0118 23.174 22.9091 23.0508 22.9124 22.6985C22.9279 21.0244 22.9196 19.3502 22.9196 17.6738C22.9196 16.0316 22.9295 14.3889 22.9124 12.7467C22.9085 12.3602 23.0151 12.2106 23.4221 12.2194C24.9516 12.2542 26.4827 12.2288 28.0106 12.2851C28.8624 12.3318 29.6746 12.6598 30.3199 13.2177C30.9652 13.7756 31.4072 14.5318 31.5765 15.3679C31.9318 16.8301 31.9458 18.3544 31.6174 19.8228L31.6185 19.8256ZM42.2202 22.7035C42.2677 23.0806 42.107 23.2005 41.7321 23.1972C39.1167 23.1846 36.5012 23.1846 33.8857 23.1972C33.4953 23.1972 33.3579 23.0817 33.3617 22.6792C33.3788 20.7019 33.3694 18.724 33.3694 16.7467V10.9096C33.3694 10.2619 33.3694 10.2608 33.9951 10.2608C36.2755 10.2608 38.556 10.257 40.837 10.2669C41.0231 10.2669 41.3577 10.3431 41.3693 10.421C41.409 10.7626 41.3992 11.1081 41.3401 11.4469C41.3323 11.4983 41.0574 11.5342 40.9061 11.5353C39.7581 11.5424 38.6096 11.5485 37.4616 11.5353C37.0955 11.5303 36.9486 11.6457 36.9547 12.0283C36.9738 13.002 36.9738 13.9748 36.9547 14.9466C36.9475 15.3193 37.0756 15.4568 37.4517 15.4496C38.3765 15.4308 39.302 15.4662 40.2263 15.4336C40.6835 15.4176 40.8376 15.5855 40.7785 16.0139C40.7653 16.109 40.7653 16.2054 40.7785 16.3005C40.8337 16.703 40.6294 16.7809 40.2744 16.7743C39.3357 16.7555 38.392 16.7815 37.4517 16.761C37.0762 16.7527 36.9503 16.8792 36.9547 17.258C36.9716 18.6292 36.9716 20.0008 36.9547 21.3728C36.9497 21.7632 37.106 21.8587 37.466 21.8548C38.8696 21.8399 40.2733 21.8615 41.6763 21.8405C42.086 21.8338 42.2837 21.9437 42.2219 22.3755C42.2075 22.4855 42.2075 22.5969 42.2219 22.7068L42.2202 22.7035Z" fill="black"/>
<path d="M44.31 22.1487C44.0731 22.1487 43.8415 22.0785 43.6446 21.9469C43.4476 21.8153 43.2941 21.6282 43.2035 21.4094C43.1128 21.1905 43.0891 20.9497 43.1353 20.7174C43.1815 20.4851 43.2956 20.2717 43.4631 20.1042C43.6306 19.9367 43.844 19.8226 44.0763 19.7764C44.3086 19.7302 44.5494 19.7539 44.7683 19.8446C44.9871 19.9352 45.1742 20.0887 45.3058 20.2857C45.4374 20.4826 45.5076 20.7142 45.5076 20.9511C45.5076 21.2687 45.3814 21.5733 45.1568 21.7979C44.9322 22.0225 44.6276 22.1487 44.31 22.1487ZM44.31 19.9455C44.111 19.9455 43.9165 20.0046 43.751 20.1151C43.5856 20.2256 43.4566 20.3828 43.3805 20.5666C43.3043 20.7504 43.2844 20.9527 43.3232 21.1479C43.3621 21.3431 43.4579 21.5223 43.5986 21.663C43.7393 21.8037 43.9185 21.8995 44.1137 21.9383C44.3088 21.9772 44.5111 21.9572 44.6949 21.8811C44.8788 21.8049 45.0359 21.676 45.1465 21.5106C45.257 21.3451 45.316 21.1506 45.316 20.9516C45.316 20.6848 45.21 20.4289 45.0214 20.2402C44.8327 20.0516 44.5768 19.9455 44.31 19.9455Z" fill="white"/>
<path d="M44.2394 20.8201H44.3078C44.3596 20.8239 44.4113 20.8122 44.4564 20.7865C44.4727 20.7744 44.4856 20.7584 44.4939 20.7399C44.5022 20.7215 44.5057 20.7012 44.5039 20.681C44.5056 20.6612 44.5019 20.6413 44.4933 20.6234C44.4846 20.6056 44.4713 20.5903 44.4547 20.5794C44.4078 20.5563 44.3556 20.546 44.3034 20.5496H44.2394V20.8201ZM44.2394 20.9924V21.3789H44.0273V20.3784H44.3189C44.4249 20.3701 44.5308 20.3961 44.6209 20.4524C44.6542 20.4793 44.6804 20.5138 44.6975 20.553C44.7145 20.5923 44.7218 20.635 44.7187 20.6777C44.7197 20.7341 44.7026 20.7895 44.6701 20.8356C44.6354 20.8845 44.5878 20.9228 44.5326 20.946C44.6831 21.171 44.7812 21.3156 44.8269 21.38H44.59L44.3515 20.9935L44.2394 20.9924Z" fill="white"/>
</svg>
