<svg width="99" height="51" viewBox="0 0 99 51" fill="none" xmlns="http://www.w3.org/2000/svg">
<path d="M49.5866 0.609375C62.6282 0.609375 75.1356 5.79014 84.3575 15.012C93.5793 24.2338 98.76 36.7412 98.76 49.7828H0.413086C0.413086 36.7412 5.59385 24.2338 14.8157 15.012C24.0375 5.79014 36.5449 0.609375 49.5866 0.609375Z" fill="#FACE15"/>
<mask id="mask0_164_712" style="mask-type:luminance" maskUnits="userSpaceOnUse" x="0" y="0" width="99" height="51">
<path d="M98.7234 0.0742188H0.413086V50.7189H98.7234V0.0742188Z" fill="white"/>
</mask>
<g mask="url(#mask0_164_712)">
<mask id="mask1_164_712" style="mask-type:luminance" maskUnits="userSpaceOnUse" x="0" y="0" width="99" height="51">
<path d="M98.7234 0.499512H0.413086V50.7189H98.7234V0.499512Z" fill="white"/>
</mask>
<g mask="url(#mask1_164_712)">
<mask id="mask2_164_712" style="mask-type:luminance" maskUnits="userSpaceOnUse" x="0" y="0" width="99" height="51">
<path d="M98.7234 0.499512H0.413086V50.7189H98.7234V0.499512Z" fill="white"/>
</mask>
<g mask="url(#mask2_164_712)">
<path d="M49.5685 98.8104C76.7163 98.8104 98.7239 76.8027 98.7239 49.6549C98.7239 22.5071 76.7163 0.499512 49.5685 0.499512C22.4207 0.499512 0.413086 22.5071 0.413086 49.6549C0.413086 76.8027 22.4207 98.8104 49.5685 98.8104Z" fill="#FACE15"/>
</g>
<path d="M26.2188 50.2692H27.0422C26.6886 50.2476 26.3325 50.2277 25.9746 50.2139C26.049 50.2554 26.1338 50.2746 26.2188 50.2692Z" fill="#040401"/>
<path d="M20.1172 49.5931V38.2601C20.1172 37.8126 20.2086 37.5883 20.6916 37.6635C20.7895 37.6704 20.8878 37.6704 20.9857 37.6635C23.702 37.6731 24.9507 38.8664 25.0535 41.5845C25.1094 43.0376 25.1353 44.4914 25.1552 45.947C25.1445 47.2655 25.3507 48.5767 25.7657 49.8283C25.786 49.9783 25.8576 50.1166 25.9684 50.2198C26.3292 50.2337 26.6823 50.2535 27.036 50.2758H34.1334C32.7614 47.832 32.8925 45.1259 32.4949 42.5216C32.4432 42.1914 32.3746 41.8636 32.3259 41.5273C32.2201 40.6823 31.8867 39.8819 31.3614 39.2117C30.8361 38.5414 30.1385 38.0264 29.3432 37.7218C28.8957 37.5227 28.4524 37.3242 27.9334 37.0836C28.4963 36.8846 28.9889 36.7228 29.4683 36.5291C33.3214 34.9683 33.9282 31.7137 33.1782 29.0431C32.6573 27.1918 31.3136 26.0358 29.653 25.2118C27.9566 24.4108 26.0985 24.0115 24.2229 24.0449C20.5046 24.019 16.7869 24.0449 13.0685 24.0269C12.5874 24.0269 12.4941 24.17 12.4941 24.6235C12.5062 33.1588 12.5062 41.694 12.4941 50.2289H18.3633C18.9263 50.2289 19.4929 50.2192 20.0595 50.209C20.1054 50.0071 20.1248 49.8 20.1172 49.5931ZM20.1172 31.0046C20.1172 29.6687 20.1274 28.3322 20.1172 26.9981C20.1172 26.6373 20.1774 26.461 20.5942 26.4851C21.4187 26.4642 22.2436 26.5121 23.0602 26.6282C23.6837 26.7384 24.2631 27.0234 24.7309 27.4501C25.1987 27.8768 25.5356 28.4276 25.7025 29.0383C26.0902 30.3057 26.0902 31.6601 25.7025 32.9275C25.2255 34.5123 23.9805 35.4031 22.1911 35.4783C21.6624 35.5024 21.1295 35.4663 20.6002 35.5024C20.2122 35.5282 20.0974 35.4007 20.1034 35.0116C20.131 33.6733 20.1172 32.341 20.1172 31.0046Z" fill="#040401"/>
<path d="M47.4774 39.012C47.4774 35.475 47.4742 31.9371 47.4678 28.3984C47.4678 27.9551 47.5532 27.8018 48.0404 27.8018C51.0862 27.8258 54.1345 27.7819 57.1864 27.8234C59.7914 27.8613 62.2189 28.4676 64.0955 30.4458C65.4707 31.9801 66.321 33.9127 66.5231 35.9632C66.9685 38.6071 66.8329 41.3164 66.1255 43.9026C65.038 47.6047 62.4727 49.5829 58.7111 50.1278C57.6367 50.2501 56.5549 50.2959 55.474 50.265C53.0182 50.265 50.5606 50.2451 48.1035 50.2788C47.5622 50.2788 47.4672 50.1236 47.469 49.6226C47.4876 46.0884 47.4774 42.5493 47.4774 39.012ZM53.995 39.0379C53.995 41.9665 54.0052 44.8932 53.995 47.8194C53.995 48.2645 54.1105 48.4161 54.5537 48.3722C55.0608 48.3307 55.5762 48.3722 56.0845 48.3481C56.6584 48.3421 57.2196 48.178 57.7064 47.8739C58.1933 47.5698 58.5869 47.1374 58.844 46.6243C59.1155 46.1008 59.3079 45.5399 59.4148 44.96C59.9087 42.052 60.0382 39.0938 59.8004 36.1538C59.7792 34.7187 59.533 33.2957 59.0708 31.9369C58.8836 31.3628 58.5364 30.8541 58.07 30.4706C57.6037 30.087 57.0376 29.8445 56.4382 29.7716C55.812 29.6759 55.1817 29.7535 54.5573 29.7042C54.1201 29.6681 53.9907 29.8035 53.9944 30.2528C54.0022 33.1813 54.0022 36.1021 54.0022 39.0343L53.995 39.0379Z" fill="#040401"/>
<path d="M69.9096 37.1453C69.9096 32.9699 69.9097 28.8101 69.8976 24.643C69.8976 24.148 70.0306 24.0265 70.5177 24.0283C75.7867 24.0468 81.0564 24.0468 86.3269 24.0283C86.7684 24.0283 86.965 24.1101 86.9235 24.5991C86.8797 25.1085 86.8797 25.6206 86.9235 26.1299C86.959 26.581 86.8032 26.6869 86.369 26.6827C83.6551 26.6628 80.9407 26.6827 78.2286 26.661C77.7077 26.661 77.5267 26.7663 77.5369 27.3292C77.573 29.5697 77.5646 31.8126 77.5369 34.0537C77.5369 34.509 77.6464 34.6504 78.1198 34.6504C80.3608 34.6245 82.6032 34.6504 84.8442 34.6263C85.3471 34.6263 85.4902 34.7737 85.4505 35.2566C85.4138 35.7662 85.4138 36.2778 85.4505 36.7874C85.4764 37.185 85.3176 37.2764 84.9435 37.2728C82.6627 37.259 80.3825 37.2728 78.1017 37.2548C77.6705 37.2548 77.5351 37.3504 77.5387 37.8033C77.5588 40.8909 77.5588 43.9774 77.5387 47.063C77.5387 47.5165 77.644 47.6596 78.1174 47.6596C81.4002 47.638 84.6788 47.6597 87.9677 47.6356C88.4411 47.6356 88.5842 47.7667 88.5481 48.2322C88.5113 48.7426 88.5113 49.255 88.5481 49.7654C88.5758 50.1792 88.4405 50.2965 88.0254 50.2923C85.4704 50.2743 82.9129 50.2923 80.3585 50.2923C77.1105 50.2923 73.8685 50.2724 70.6146 50.3079C69.992 50.3079 69.8868 50.1275 69.8928 49.5543C69.9277 45.4023 69.9096 41.2726 69.9096 37.1453Z" fill="#040401"/>
<path d="M43.6188 39.0233C43.6188 42.5804 43.6228 46.1381 43.6308 49.6965C43.6308 50.1674 43.4997 50.2931 43.0342 50.2769C41.2297 50.251 39.4175 50.2552 37.6083 50.2769C37.2107 50.2769 37.0754 50.1873 37.0772 49.762C37.0892 42.6041 37.0892 35.4466 37.0772 28.2894C37.0772 27.8918 37.1902 27.7962 37.5722 27.8004C39.4211 27.8185 41.2682 27.8245 43.1178 27.8004C43.5611 27.8004 43.6206 27.9652 43.6188 28.3472C43.6148 31.9075 43.6148 35.4662 43.6188 39.0233Z" fill="#040401"/>
<path d="M57.5822 23.2865C57.4018 22.9605 57.2322 22.6604 57.0716 22.3518C56.4252 21.2621 56.1276 20.0007 56.2187 18.737C56.2528 18.3338 56.3726 17.9425 56.5701 17.5894C56.7676 17.2363 57.0382 16.9294 57.3638 16.6892C57.6895 16.449 58.0626 16.2811 58.4583 16.1968C58.8541 16.1124 59.2632 16.1135 59.6585 16.1999C60.8512 16.4405 61.2825 17.1226 61.0762 18.3376C61.0623 18.4134 61.0641 18.4928 61.0545 18.6281C61.8298 18.5721 62.5853 18.5186 63.3401 18.4591C63.6186 18.4374 63.7858 18.447 63.692 18.829C63.5894 19.257 63.661 19.7084 63.8911 20.0836C64.0757 20.3898 63.8911 20.4517 63.6601 20.5089C63.4969 20.5499 63.3266 20.5544 63.1614 20.5219C62.9963 20.4895 62.8403 20.421 62.7047 20.3213C62.5691 20.2216 62.4572 20.0932 62.3769 19.9452C62.2967 19.7972 62.2502 19.6334 62.2406 19.4653C62.1805 18.9962 61.9922 18.9739 61.5844 19.0082C61.0666 19.0461 60.5746 19.2488 60.1806 19.5868C59.5895 20.018 58.8983 20.2917 58.1723 20.382C57.7627 20.4517 57.7007 20.5949 57.8505 20.9666C58.1464 21.6986 58.5325 22.3801 58.8964 23.076C58.9484 23.1807 59.0334 23.2655 59.1383 23.3172C59.2431 23.3689 59.3621 23.3848 59.4769 23.3623C60.1252 23.3406 60.773 23.3382 61.4214 23.3124C61.7119 23.3003 61.8425 23.3545 61.7895 23.7003C61.7012 24.1479 61.7598 24.612 61.9567 25.0236C62.1077 25.3141 61.9291 25.3616 61.7161 25.4055C61.3614 25.4629 60.9984 25.3782 60.7057 25.1698C60.413 24.9615 60.2141 24.6461 60.1523 24.2922C60.0765 23.8368 59.8841 23.7791 59.4979 23.7911C58.6925 23.8152 57.8853 23.8092 57.08 23.7911C56.7636 23.7911 56.6126 23.8387 56.5429 24.2122C56.4435 24.6184 56.1912 24.9706 55.8386 25.1955C55.486 25.4204 55.0603 25.5005 54.65 25.4193C54.4311 25.3814 54.3577 25.3123 54.5069 25.1228C54.6639 24.9328 54.7751 24.7092 54.8319 24.4693C54.8888 24.2294 54.8897 23.9797 54.8347 23.7394C54.7691 23.4194 54.9935 23.4429 55.1925 23.4453C55.9925 23.4767 56.7935 23.4234 57.5822 23.2865ZM57.4348 18.9481C57.4685 19.256 57.5004 19.5447 57.5341 19.8407C57.5521 19.994 57.5978 20.077 57.7963 20.0554C58.3263 19.9767 58.8131 19.7183 59.1751 19.3234C59.5371 18.9286 59.7524 18.4212 59.7848 17.8865C59.7848 17.3596 59.6435 16.8766 59.0709 16.7352C58.8175 16.6754 58.5512 16.7061 58.3181 16.822C58.085 16.9379 57.8998 17.1317 57.7945 17.3698C57.5487 17.8595 57.4234 18.4008 57.4288 18.9487L57.4348 18.9481Z" fill="#040401"/>
<path d="M51.2195 24.7873C50.746 24.7787 50.2766 24.6975 49.8277 24.5466C49.152 24.3346 48.4393 24.2667 47.7358 24.3476C47.3382 24.4077 47.183 24.5466 47.2107 24.9875C47.2415 25.375 47.1186 25.759 46.8687 26.0567C46.6188 26.3543 46.2618 26.5418 45.8748 26.5784C45.6144 26.6223 45.5212 26.5604 45.6342 26.3162C45.7536 26.0785 45.8207 25.818 45.8311 25.5522C45.8415 25.2864 45.7948 25.0215 45.6944 24.7752C45.5741 24.4811 45.7702 24.445 45.9668 24.3915C46.4582 24.2585 46.9448 24.107 47.4423 23.9939C47.8302 23.9061 47.9355 23.7948 47.7147 23.3972C46.9825 22.1458 46.7308 20.6705 47.0068 19.2471C47.0733 18.8373 47.2221 18.4451 47.4443 18.0944C47.6664 17.7436 47.9572 17.4414 48.2993 17.2061C48.6413 16.9707 49.0275 16.807 49.4344 16.7249C49.8414 16.6427 50.2608 16.6438 50.6674 16.7281C52.085 16.9549 52.6059 18.4724 51.6616 19.6807C51.3339 20.0616 50.9316 20.3712 50.4795 20.5904C50.0274 20.8096 49.5351 20.9338 49.0332 20.9553C48.238 21.0587 48.2278 21.0509 48.4365 21.822C48.5811 22.4363 48.8662 23.0086 49.2695 23.4941C49.5374 23.8117 49.8861 24.0511 50.2788 24.1869C50.6714 24.3227 51.0935 24.35 51.5004 24.2658C51.6891 24.2481 51.8708 24.185 52.0298 24.0819C52.1889 23.9789 52.3206 23.8388 52.4138 23.6738C52.507 23.5087 52.5589 23.3236 52.565 23.1341C52.5711 22.9447 52.5313 22.7566 52.4489 22.5859C52.2721 22.0409 52.3515 21.9116 52.9343 21.8581C53.9442 21.7648 54.0873 21.8701 53.8846 22.886C53.6657 24.0775 52.6516 24.7903 51.2195 24.7873ZM48.2567 19.9081C48.4257 20.0885 47.9487 20.6118 48.5574 20.6118C49.1035 20.6026 49.6274 20.3939 50.0303 20.0251C50.4332 19.6562 50.6872 19.1527 50.7444 18.6095C50.8045 17.9094 50.5814 17.4445 50.114 17.2863C49.845 17.2166 49.5601 17.2444 49.3097 17.3649C49.0593 17.4853 48.8597 17.6906 48.7462 17.9443C48.4192 18.5468 48.2509 19.2226 48.2573 19.9081H48.2567Z" fill="#040401"/>
<path d="M45.0119 21.8665C44.9731 22.221 45.0467 22.5787 45.2224 22.889C45.3854 23.1555 45.2483 23.2192 45.0233 23.2866C44.8769 23.3307 44.723 23.3441 44.5711 23.326C44.4193 23.3079 44.2729 23.2586 44.1409 23.1814C44.009 23.1041 43.8944 23.0004 43.8044 22.8768C43.7144 22.7533 43.6508 22.6124 43.6177 22.4632C43.528 22.0373 43.3632 22.0373 43.021 22.1173C42.1723 22.3164 41.818 22.7001 41.8 23.7257C41.8294 23.9642 41.7665 24.205 41.6241 24.3986C41.4818 24.5923 41.2708 24.7242 41.0343 24.7674C40.1763 25.1566 39.2572 25.3941 38.3181 25.4693C38.065 25.4919 37.8103 25.4525 37.5759 25.3547C37.3414 25.2569 37.1342 25.1035 36.9722 24.9078C36.8102 24.7122 36.6982 24.48 36.6459 24.2314C36.5936 23.9828 36.6025 23.7253 36.6718 23.4809C36.8316 22.7276 37.1877 22.03 37.704 21.4587C38.335 20.7577 39.0139 20.1013 39.7357 19.4943C40.1598 19.1425 40.5155 18.7158 40.7853 18.2354C40.9483 17.9076 41.0698 17.5575 40.6121 17.3368C40.5249 17.2953 40.4034 17.249 40.4473 17.1377C40.4722 17.0964 40.5057 17.0609 40.5454 17.0335C40.5851 17.0061 40.6302 16.9875 40.6777 16.9789C40.9843 16.9129 41.2943 16.8637 41.6063 16.8316C42.3143 16.7642 42.5549 17.0421 42.3636 17.7422C42.0939 18.5483 41.6084 19.265 40.9597 19.8143C40.2371 20.4202 39.5617 21.0804 38.9394 21.7889C38.4917 22.2875 38.2097 22.9127 38.1322 23.5783C38.1032 23.7189 38.1067 23.8643 38.1424 24.0034C38.1782 24.1424 38.2453 24.2715 38.3385 24.3806C38.4318 24.4898 38.5488 24.5762 38.6805 24.6332C38.8123 24.6902 38.9554 24.7164 39.0988 24.7097C39.9336 24.7933 40.2163 24.5846 40.3793 23.7593C40.464 23.3026 40.6722 22.8778 40.9815 22.5311C41.2907 22.1844 41.6891 21.9292 42.1332 21.7931C42.8816 21.5636 43.6508 21.4085 44.4297 21.33C45.0233 21.25 45.0233 21.2602 45.0119 21.8665Z" fill="#040401"/>
<path d="M95.052 45.6247C95.0478 46.1079 94.8763 46.5748 94.5665 46.9458C94.2568 47.3168 93.828 47.5689 93.3533 47.6593C92.8785 47.7496 92.3871 47.6727 91.9628 47.4414C91.5384 47.2102 91.2073 46.8389 91.0259 46.391C90.8444 45.9431 90.8239 45.4461 90.9677 44.9847C91.1116 44.5233 91.4109 44.1261 91.8147 43.8606C92.2186 43.5951 92.7019 43.4778 93.1825 43.5287C93.6631 43.5796 94.1112 43.7955 94.4505 44.1396C94.6436 44.3354 94.7961 44.5674 94.8993 44.8222C95.0025 45.077 95.0544 45.3497 95.052 45.6247ZM92.9264 47.2907C93.3688 47.2997 93.7967 47.1325 94.1159 46.826C94.435 46.5194 94.6193 46.0987 94.6283 45.6562C94.6372 45.2138 94.47 44.7859 94.1635 44.4668C93.857 44.1476 93.4362 43.9633 92.9938 43.9544C92.7729 43.9441 92.5522 43.9787 92.345 44.0559C92.1378 44.1332 91.9484 44.2515 91.7881 44.4038C91.6278 44.5561 91.5 44.7393 91.4123 44.9423C91.3246 45.1452 91.2788 45.3638 91.2778 45.585C91.2722 45.8056 91.3107 46.0252 91.3908 46.2309C91.471 46.4365 91.5912 46.6242 91.7446 46.7829C91.898 46.9417 92.0814 47.0683 92.2842 47.1555C92.487 47.2427 92.7051 47.2887 92.9258 47.2907H92.9264Z" fill="#040401"/>
<path d="M92.0088 45.6313V45.4509C92.0088 44.4386 92.2993 44.2202 93.2851 44.4885C93.3976 44.5054 93.5031 44.5535 93.5897 44.6271C93.6764 44.7008 93.7408 44.7971 93.7757 44.9054C93.8106 45.0136 93.8146 45.1295 93.7872 45.2399C93.7598 45.3503 93.7022 45.4509 93.6207 45.5303C93.2887 45.8106 93.4938 45.9381 93.6051 46.1702C93.6905 46.3507 94.0261 46.5678 93.7543 46.7489C93.4824 46.9299 93.311 46.6454 93.1997 46.3928C93.1332 46.2524 93.0526 46.1192 92.9591 45.9952C92.9198 45.9374 92.8634 45.8934 92.7979 45.8691C92.7323 45.8449 92.6609 45.8416 92.5934 45.8599C92.3943 45.9038 92.4731 46.0764 92.4623 46.1997C92.4553 46.2976 92.4553 46.3959 92.4623 46.4938C92.4623 46.637 92.4623 46.7783 92.2536 46.7759C92.0449 46.7735 92.013 46.6743 92.013 46.5137C92.0106 46.2213 92.0106 45.9272 92.0088 45.6313ZM92.8557 45.4063C93.0547 45.3925 93.2929 45.4184 93.2833 45.1381C93.2737 44.8578 93.0187 44.9053 92.834 44.9017C92.6493 44.8981 92.4701 44.8542 92.4599 45.1363C92.4461 45.4599 92.6686 45.3943 92.8557 45.4063Z" fill="#040401"/>
</g>
</g>
</svg>
