<svg width="48" height="30" viewBox="0 0 48 30" fill="none" xmlns="http://www.w3.org/2000/svg">
<path d="M44.8237 20.5595C44.8237 9.20488 35.2417 0 23.4218 0C11.6019 0 2.02051 9.20488 2.02051 20.5595H44.8237Z" fill="#F6CB18"/>
<path d="M15.2845 15.676C15.0338 15.3134 14.4836 14.9809 13.634 14.6783C15.2885 14.2732 16.116 13.4009 16.1164 12.0613C16.1164 11.1847 15.7308 10.4858 14.9596 9.96449C14.1884 9.44321 13.1583 9.18236 11.8692 9.18194H6.91309V20.25H10.2566V14.9298H10.828C11.8978 14.9298 12.4327 15.5681 12.4327 16.8447L12.4493 17.6745L12.4659 18.3313C12.4659 19.0972 12.5813 19.7379 12.8121 20.2532H16.4426C16.1162 19.8536 15.8996 19.0319 15.7928 17.7881C15.7042 16.7421 15.5348 16.0381 15.2845 15.676ZM10.9323 14.0164H10.2566V10.2013H10.9323C12.1988 10.2013 12.832 10.8366 12.832 12.1073C12.832 13.3779 12.1988 14.0132 10.9323 14.0132V14.0164Z" fill="black"/>
<path d="M20.6634 10.5326H17.7285V20.25H20.6634V10.5326Z" fill="black"/>
<path d="M26.2721 10.5319H22.0781V20.2499H26.1107C29.1986 20.2499 30.7426 18.634 30.7426 15.4021C30.7417 12.1553 29.2515 10.5319 26.2721 10.5319ZM27.2509 18.5661C26.9793 19.1521 26.4901 19.445 25.7831 19.445H25.0123V11.3387H25.7831C26.4945 11.3387 26.9849 11.6304 27.2542 12.2138C27.5235 12.7972 27.6582 13.8557 27.6582 15.3893C27.6582 16.9216 27.5224 17.9808 27.2509 18.5667V18.5661Z" fill="black"/>
<path d="M35.1004 19.1393V14.751H38.5701V13.6397H35.1004V10.2906H39.2292V9.17932H31.7568V20.2499H39.9296V19.1393H35.1004Z" fill="black"/>
<path d="M21.3771 8.36995L21.3525 8.39867L21.2595 8.40825H21.0927L21.005 8.39867C20.9607 8.39254 20.9177 8.37984 20.8774 8.36101C20.8176 8.33732 20.7615 8.30574 20.7107 8.26718L20.6615 8.20335L20.6077 8.10888C20.5685 8.01825 20.5213 7.97229 20.4655 7.97229L20.3871 7.98186C20.2958 7.9884 20.2071 8.01411 20.1273 8.05718C19.9838 8.13548 19.9153 8.2374 19.922 8.36293L19.9313 8.5142L19.9412 8.64186C19.9407 8.67188 19.9374 8.70178 19.9313 8.73122C19.915 8.79705 19.8753 8.85532 19.819 8.8959C19.7957 8.91186 19.7353 8.94442 19.6376 8.99484L19.3093 9.1225L18.9804 9.23101C18.8628 9.26867 18.7811 9.29484 18.7306 9.30633C18.6475 9.32702 18.562 9.33795 18.4761 9.33888H18.3366C18.1213 9.33888 17.9758 9.29229 17.9007 9.19782C17.808 9.06145 17.7477 8.90717 17.724 8.74591V8.66612C17.7212 8.58241 17.7361 8.49902 17.7678 8.42101C17.7912 8.3401 17.8258 8.2626 17.8708 8.19059L18.0037 8.00676C18.0196 7.98825 18.0655 7.94293 18.1366 7.8791L18.7346 7.35186L18.906 7.17761L19.0529 7.00336L19.1193 6.91399L19.1858 6.81953C19.2229 6.76152 19.2541 6.70016 19.2788 6.63633C19.3154 6.56423 19.3355 6.48546 19.3379 6.40527V6.35357C19.3346 6.34399 19.3279 6.32868 19.318 6.30634C19.3057 6.27983 19.2853 6.25756 19.2595 6.24251L19.2941 6.20931L19.8037 6.08676C19.9665 6.08676 20.0436 6.15442 20.0336 6.2891L20.0289 6.35293C20.0036 6.4705 19.9625 6.58443 19.9067 6.69187L19.8402 6.80485C19.8168 6.84662 19.789 6.88598 19.7572 6.92229C19.7165 6.98079 19.6707 7.03588 19.6203 7.08697C19.5871 7.12782 19.4994 7.21463 19.3545 7.3557L18.6688 8.05463L18.5 8.26144C18.4591 8.31618 18.4273 8.37669 18.4057 8.4408L18.3858 8.53974V8.65718C18.3691 8.89591 18.4409 9.05612 18.5997 9.13782L18.6927 9.1659L18.7944 9.17548H18.8289L18.9313 9.17101C18.9763 9.16394 19.0192 9.14762 19.057 9.12316C19.0949 9.09871 19.1268 9.06669 19.1505 9.02931C19.1778 8.98354 19.1911 8.93136 19.1891 8.87867V8.5825C19.1915 8.52973 19.2049 8.47796 19.2285 8.43027C19.2522 8.38257 19.2855 8.33992 19.3266 8.30484C19.3777 8.26271 19.4337 8.2263 19.4934 8.19633L19.7333 8.09293L19.8263 8.05974L19.9931 8.00803L20.498 7.86186L20.7525 7.79803L21.0223 7.74186C21.056 7.7335 21.0905 7.72879 21.1253 7.72782C21.1392 7.72618 21.1533 7.72816 21.1662 7.73355C21.179 7.73894 21.1902 7.74754 21.1984 7.75846C21.2149 7.79502 21.2217 7.83492 21.2183 7.87463V7.96016L21.2283 8.03612L21.2376 8.09293L21.2575 8.16888C21.2706 8.24766 21.3131 8.31916 21.3771 8.36995Z" fill="black"/>
<path d="M25.2782 8.32339C25.2782 8.5902 25.1983 8.7802 25.0383 8.89339C24.8324 9.04062 24.5513 9.11424 24.1952 9.11424H23.627L23.4942 9.09062C23.3693 9.06772 23.2465 9.03571 23.1267 8.99488L23.0536 8.97062L22.9872 8.94637L22.9427 8.92722L22.8696 8.88892L22.7912 8.84615C22.7299 8.85525 22.6714 8.87703 22.6197 8.90998C22.5815 8.96017 22.5562 9.01836 22.546 9.07977L22.536 9.277C22.5381 9.36306 22.5151 9.44797 22.4696 9.52211C22.4128 9.59001 22.3408 9.64477 22.2589 9.68232C22.1737 9.71728 22.0845 9.74255 21.9932 9.75764L21.9493 9.76211L21.8908 9.77168H21.7486L21.7188 9.70785C21.8129 9.61398 21.8672 9.48968 21.8709 9.35935V9.29552C21.8684 9.27554 21.8619 9.25624 21.8516 9.23871L21.8271 9.18254L21.7925 9.11169L21.8217 9.04786C21.9719 9.01041 22.0895 8.97743 22.1746 8.94892C22.2729 8.91764 22.3839 8.87807 22.5068 8.83147C22.5978 8.79381 22.6437 8.75296 22.6437 8.70892C22.6408 8.67999 22.6343 8.65149 22.6244 8.62403L22.5227 8.34254L22.4344 8.0502C22.3722 7.85811 22.3393 7.65838 22.3367 7.45722C22.3367 7.15935 22.3726 6.93658 22.4443 6.78892C22.5547 6.56062 22.7507 6.38076 22.9932 6.28531C23.2954 6.16331 23.6209 6.10393 23.9486 6.11105C24.1646 6.11105 24.3161 6.1551 24.4045 6.24254C24.4451 6.28271 24.4724 6.33359 24.4829 6.38871L24.5028 6.4685C24.5132 6.50704 24.5181 6.54677 24.5174 6.58658V6.6568C24.518 6.66664 24.5162 6.67647 24.5121 6.68552L24.4975 6.77488C24.4717 6.95037 24.4012 7.11702 24.2922 7.25999C24.2066 7.36553 24.1 7.45363 23.9785 7.51914C23.8969 7.56473 23.8116 7.604 23.7234 7.63658C23.502 7.71452 23.2681 7.75449 23.0324 7.75467C23.045 7.85807 23.0589 7.94616 23.0749 8.01828L23.1035 8.13573L23.1254 8.19126L23.146 8.25509C23.2106 8.43387 23.3 8.60347 23.4118 8.75935C23.4707 8.83807 23.5814 8.9019 23.744 8.95083L23.936 8.9885C24.0018 8.99936 24.0686 9.00406 24.1354 9.00254C24.3613 9.00254 24.507 8.9053 24.5726 8.71084L24.5971 8.59339L24.6071 8.45679C24.61 8.39802 24.6031 8.33919 24.5865 8.28254C24.5626 8.20722 24.5221 8.16956 24.4649 8.16956L24.4742 8.10573L24.74 8.06297C24.8308 8.04884 24.9225 8.04095 25.0144 8.03935C25.1898 8.03722 25.2778 8.1319 25.2782 8.32339ZM23.857 6.56297C23.857 6.3685 23.7867 6.27105 23.6463 6.27063C23.5361 6.27705 23.4304 6.31482 23.3427 6.37914C23.2815 6.42177 23.2269 6.47248 23.1805 6.52978C23.1274 6.59226 23.0846 6.66222 23.0536 6.73722L23.0144 6.8502L22.9799 6.96318L22.9653 7.06148L22.9599 7.16552V7.31105L22.9991 7.54658L23.0144 7.59382L23.0583 7.58935L23.1367 7.57467C23.1697 7.56878 23.2023 7.5611 23.2344 7.55169C23.2989 7.53429 23.3601 7.50714 23.4158 7.47126C23.5461 7.38228 23.6562 7.26869 23.7393 7.13743C23.8177 7.00212 23.857 6.81063 23.857 6.56297Z" fill="black"/>
<path d="M29.3404 7.3538L29.2965 7.41763L29.1397 7.44571H28.8945L28.8453 7.43677L28.7869 7.4272L28.7204 7.40422C28.6691 7.37765 28.6267 7.33758 28.5982 7.28869L28.5736 7.22486L28.539 7.11826C28.5032 6.96763 28.4281 6.89486 28.3138 6.90124L28.0394 6.92422C27.9951 6.99954 27.9231 7.10592 27.8234 7.24337C27.7178 7.3528 27.5817 7.43097 27.4314 7.46869C27.3922 7.47762 27.3284 7.49231 27.2407 7.51082L26.9364 7.55741L26.9902 7.73103C26.9937 7.74379 27.0183 7.80188 27.064 7.90528L27.1032 7.99401L27.157 8.09741L27.2699 8.28507L27.4028 8.46826C27.4746 8.54039 27.5975 8.57613 27.7703 8.57613H28.349C28.3947 8.57288 28.4405 8.58101 28.4819 8.59975C28.5065 8.61571 28.5191 8.65337 28.5191 8.71273C28.5114 8.8806 28.5578 9.04668 28.652 9.18826L28.6028 9.23996L28.4806 9.25464L28.3331 9.25911H28.2155L28.1616 9.24954L28.1078 9.23549C28.0278 9.21609 27.9563 9.17283 27.9036 9.11193C27.8508 9.05103 27.8195 8.97563 27.8141 8.89656C27.8141 8.80528 27.7477 8.73635 27.6081 8.68911L27.4852 8.66613L27.3583 8.65656L27.1523 8.66103C27.0347 8.66103 26.939 8.66805 26.8653 8.67316C26.8205 8.67416 26.776 8.67951 26.7324 8.68911L26.6832 8.69869L26.6048 8.7223C26.5131 8.74464 26.4673 8.79124 26.4673 8.86337C26.4673 8.99103 26.4008 9.10081 26.2567 9.19783L26.159 9.23996L26.0115 9.2923C25.9723 9.30443 25.8826 9.32486 25.7457 9.35613L25.7012 9.29996C25.7292 9.2557 25.7515 9.20834 25.7676 9.1589L25.7882 9.06954V8.7823C25.7882 8.74145 25.8121 8.71847 25.8613 8.71847H25.8852C26.2573 8.71847 26.5353 8.66507 26.7191 8.55826C26.7032 8.52379 26.6527 8.41741 26.5676 8.23911L26.4008 7.90018L26.3271 7.72145L26.2786 7.57082L26.2194 7.3072C26.2077 7.22447 26.2012 7.14112 26.2002 7.05763V6.9938L26.2048 6.95614V6.91401L26.2194 6.83869L26.2294 6.8106C26.2291 6.79883 26.2326 6.78725 26.2394 6.77741L26.2686 6.7206C26.3301 6.59206 26.4265 6.48181 26.5477 6.40146L26.7291 6.28848L26.9058 6.20359L27.0965 6.13976L27.1749 6.12061L27.3025 6.09699L27.3762 6.09252L27.4739 6.08805C27.5626 6.08447 27.6515 6.08746 27.7397 6.09699C27.8054 6.10495 27.8679 6.12849 27.9218 6.16549C27.9756 6.20249 28.019 6.25177 28.048 6.3089C28.0767 6.37464 28.0918 6.44509 28.0925 6.51635C28.0949 6.60632 28.0867 6.69626 28.0679 6.78443H29.0135C29.0799 6.78443 29.1191 6.79273 29.1337 6.80805C29.1531 6.84443 29.1608 6.88556 29.1556 6.92614C29.1543 7.18911 29.2161 7.33146 29.3404 7.3538ZM27.4686 6.65678L27.4733 6.58592L27.4786 6.52209C27.4843 6.46023 27.474 6.39796 27.4487 6.34082C27.4333 6.31709 27.4125 6.29705 27.3879 6.28223C27.3633 6.2674 27.3354 6.25819 27.3065 6.25529L27.2626 6.25082C27.2345 6.25017 27.2064 6.25406 27.1796 6.26231C27.1603 6.26812 27.1421 6.27696 27.1258 6.28848L27.0766 6.31146C26.9419 6.39182 26.8439 6.51815 26.8022 6.66507L26.7822 6.73592L26.7776 6.81124V6.8489L26.7822 6.88209C26.7901 6.97556 26.8049 7.06836 26.8268 7.15975L26.8739 7.34805L26.9065 7.42209C27.041 7.39366 27.1616 7.32235 27.2487 7.21975C27.3177 7.13698 27.3706 7.04292 27.4048 6.94209C27.4364 6.8494 27.4578 6.75376 27.4686 6.65678Z" fill="black"/>
<path d="M40.928 17.6713C40.8326 17.6699 40.7378 17.6867 40.649 17.7205C40.5603 17.7544 40.4794 17.8047 40.4109 17.8686C40.3424 17.9325 40.2877 18.0087 40.2499 18.0929C40.2121 18.1771 40.1919 18.2677 40.1905 18.3594C40.1884 18.4975 40.229 18.6331 40.3071 18.749C40.3852 18.8649 40.4974 18.956 40.6294 19.0107C40.7614 19.0654 40.9073 19.0813 41.0487 19.0563C41.1901 19.0313 41.3206 18.9667 41.4238 18.8705C41.5269 18.7742 41.598 18.6508 41.6281 18.5158C41.6582 18.3807 41.646 18.2401 41.5929 18.1118C41.5399 17.9834 41.4484 17.8731 41.33 17.7947C41.2117 17.7163 41.0718 17.6733 40.928 17.6713ZM40.9015 18.9517C40.7454 18.9416 40.5991 18.8748 40.4926 18.7647C40.386 18.6546 40.3272 18.5097 40.328 18.3594C40.3266 18.2846 40.3413 18.2104 40.3712 18.1414C40.4011 18.0724 40.4455 18.01 40.5016 17.9583C40.5578 17.9066 40.6245 17.8666 40.6975 17.8408C40.7706 17.815 40.8484 17.804 40.926 17.8085C41.0037 17.8084 41.0806 17.8233 41.1522 17.8524C41.2237 17.8814 41.2884 17.924 41.3425 17.9777C41.3965 18.0313 41.4387 18.0948 41.4666 18.1644C41.4945 18.2341 41.5075 18.3084 41.5048 18.383C41.4955 18.6919 41.2071 18.9626 40.8995 18.9517H40.9015Z" fill="black"/>
<path d="M40.9943 18.3861V18.383C41.0374 18.3709 41.0753 18.3457 41.1021 18.3111C41.129 18.2766 41.1434 18.2346 41.1432 18.1915C41.1439 18.1647 41.1388 18.1381 41.1281 18.1134C41.1175 18.0886 41.1016 18.0663 41.0814 18.0478C41.0166 17.9995 40.9351 17.9767 40.8535 17.984C40.7893 17.9837 40.7253 17.989 40.6621 18V18.7468H40.7638V18.4187H40.8594C40.9518 18.4225 40.9923 18.4615 41.0176 18.5661C41.0287 18.6279 41.0463 18.6884 41.0701 18.7468H41.1751C41.1482 18.6795 41.1278 18.6101 41.1139 18.5393C41.1097 18.506 41.0965 18.4742 41.0755 18.4473C41.0545 18.4205 41.0265 18.3993 40.9943 18.3861ZM40.8614 18.3447H40.7578V18.0689C40.7907 18.0621 40.8244 18.0591 40.8581 18.06C40.9658 18.06 41.0395 18.1034 41.0395 18.201C41.0422 18.2878 40.9731 18.3447 40.8614 18.3447Z" fill="black"/>
<path d="M6.62976 28.1668C6.38436 28.377 6.02998 28.4819 5.56664 28.4815C5.01869 28.4815 4.63265 28.2974 4.4085 27.9294C4.18436 27.5613 4.07229 26.9485 4.07229 26.0911V25.5223C4.08381 24.7309 4.20629 24.1547 4.43973 23.7938C4.67318 23.433 5.04106 23.2528 5.54339 23.2532C6.03774 23.2532 6.40562 23.3596 6.64704 23.5723C6.88846 23.7851 7.01669 24.1366 7.03175 24.6268H9.04371C8.95955 23.7255 8.60894 23.0181 7.99189 22.5045C7.37483 21.9909 6.55867 21.7341 5.54339 21.7341C4.83862 21.7341 4.21847 21.8951 3.68292 22.2172C3.14005 22.5464 2.71108 23.0229 2.45037 23.5864C2.16465 24.177 2.02202 24.8662 2.02246 25.6538V26.0515C2.02246 27.3072 2.33852 28.2789 2.97063 28.9666C3.60275 29.6543 4.46808 29.9987 5.56664 30C6.23109 30 6.824 29.8823 7.34537 29.647C7.83927 29.4321 8.25904 29.0862 8.55534 28.65C8.84782 28.2052 9.01052 27.6931 9.02644 27.1672H7.02046C7.0054 27.6243 6.87517 27.9574 6.62976 28.1668Z" fill="white"/>
<path d="M13.5328 21.8509H11.6358L8.56934 29.8897H10.7222L11.2052 28.3877H13.9693L14.4584 29.8897H16.6251L13.5328 21.8509ZM11.6876 26.8935L12.5846 24.1054L13.4863 26.8916L11.6876 26.8935Z" fill="white"/>
<path d="M22.8122 23.1563C22.5369 22.7344 22.1395 22.3989 21.6687 22.1905C21.1766 21.9641 20.6103 21.8509 19.9697 21.8509H16.6309V29.8897H18.6481V27.1622H19.9358C20.9547 27.1622 21.7564 26.9282 22.3411 26.4601C22.9259 25.992 23.218 25.3654 23.2176 24.5803C23.226 24.0783 23.0854 23.5843 22.8122 23.1563ZM20.8614 25.3846C20.6568 25.5722 20.3589 25.666 19.9677 25.666H18.6481V23.3471H19.993C20.3571 23.3509 20.645 23.465 20.8568 23.6892C21.0685 23.9135 21.1737 24.2135 21.1724 24.5892C21.1715 24.9314 21.0678 25.1965 20.8614 25.3846Z" fill="white"/>
<path d="M24.5824 23.7121C24.2177 23.7124 23.8598 23.6166 23.5479 23.4351V29.8895H25.5598V23.467C25.2615 23.6283 24.9248 23.7127 24.5824 23.7121Z" fill="white"/>
<path d="M26.5842 21.8502C26.5739 22.1442 26.4937 22.4319 26.3496 22.6914C26.2055 22.9509 26.0014 23.1752 25.7529 23.347H28.7988V29.8896H30.8154V23.347H33.3204L33.8905 21.8502H26.5842Z" fill="white"/>
<path d="M36.1966 21.8509H34.2996L31.2305 29.8897H33.3859L33.8683 28.3877H36.6331L37.1222 29.8897H39.2889L36.1966 21.8509ZM34.3501 26.8916L35.2464 24.1035L36.1507 26.8916H34.3501Z" fill="white"/>
<path d="M41.3119 28.3992V21.8509H39.2939V29.8897H44.8235V28.3992H41.3119Z" fill="white"/>
<path d="M25.9268 21.8509C25.9189 22.1892 25.7736 22.5111 25.5218 22.7476C25.27 22.9842 24.9318 23.1167 24.5796 23.1167C24.2274 23.1167 23.8892 22.9842 23.6374 22.7476C23.3856 22.5111 23.2402 22.1892 23.2324 21.8509H25.9268Z" fill="#F6CB18"/>
</svg>
