<svg width="48" height="30" viewBox="0 0 48 30" fill="none" xmlns="http://www.w3.org/2000/svg">
<path fill-rule="evenodd" clip-rule="evenodd" d="M8.25564 26.6579C7.97464 26.353 7.53996 26.1459 6.95161 26.0364C7.35555 25.8801 7.66729 25.6533 7.88683 25.3563C8.10636 25.0514 8.21613 24.6879 8.21613 24.2657C8.21613 23.6637 7.98781 23.2064 7.53118 22.8937C7.08333 22.5732 6.45107 22.4129 5.63441 22.4129L3 22.4246L3.09043 27.5887C3.34066 26.753 3.74858 25.9014 4.3134 25.0948C4.41197 24.954 4.5146 24.8189 4.61987 24.6879L3.63606 24.3169L6.49764 22.7766L6.45723 25.3809L5.51895 25.0271C4.59833 26.8912 4.33199 28.6238 4.54723 29.9978C4.71382 29.9993 4.88742 30 5.06801 30C7.48288 30 8.69032 29.2808 8.69032 27.8423C8.69032 27.3498 8.54543 26.955 8.25564 26.6579Z" fill="#FFFDF4"/>
<path d="M14.8178 27.1097L14.8065 27.9468C14.814 28.5878 14.6104 29.0856 14.1956 29.4401C13.7808 29.7945 13.1926 29.9718 12.4308 29.9718C11.6767 29.9718 11.1035 29.7983 10.7113 29.4514C10.3191 29.0969 10.1306 28.5954 10.1457 27.9468L10.157 27.0757L10.123 24.2249H11.2204L11.1638 27.7771C11.1563 28.6369 11.5937 29.0667 12.4761 29.0667C12.9135 29.0667 13.2453 28.9612 13.4716 28.75C13.6979 28.5313 13.8072 28.207 13.7997 27.7771L13.7544 24.2249H14.8517L14.8178 27.1097Z" fill="#FFFDF4"/>
<path d="M18.3673 24.157C18.8499 24.157 19.3326 24.2513 19.8153 24.4399L19.6456 25.4693L19.4759 25.5033C19.0385 25.1563 18.6237 24.9829 18.2315 24.9829C17.9525 24.9829 17.73 25.0545 17.5641 25.1978C17.4057 25.3411 17.3265 25.507 17.3265 25.6956C17.3265 25.8841 17.4094 26.0425 17.5754 26.1707C17.7488 26.2914 18.0166 26.4271 18.3786 26.578C18.7179 26.7213 18.9895 26.857 19.1931 26.9852C19.4043 27.1059 19.5853 27.268 19.7361 27.4717C19.8869 27.6753 19.9623 27.9279 19.9623 28.2296C19.9623 28.5388 19.8794 28.8254 19.7135 29.0894C19.5551 29.3533 19.3137 29.5683 18.9895 29.7342C18.6727 29.8926 18.2881 29.9718 17.8356 29.9718C17.5641 29.9718 17.2775 29.9416 16.9758 29.8813C16.6741 29.8209 16.3838 29.7304 16.1047 29.6098L16.2518 28.5124L16.3762 28.4446C16.5949 28.6633 16.8514 28.8367 17.1455 28.9649C17.4472 29.0856 17.7224 29.1459 17.9713 29.1459C18.2428 29.1459 18.4615 29.0781 18.6274 28.9423C18.8009 28.799 18.8876 28.6256 18.8876 28.4219C18.8876 28.2183 18.8009 28.0561 18.6274 27.9355C18.454 27.8073 18.1863 27.6677 17.8242 27.5169C17.4999 27.3736 17.2322 27.2416 17.021 27.121C16.8099 26.9928 16.6289 26.8268 16.478 26.6232C16.3347 26.412 16.2631 26.1556 16.2631 25.8539C16.2631 25.5372 16.3461 25.2506 16.512 24.9942C16.6854 24.7378 16.9305 24.5341 17.2473 24.3833C17.5716 24.2325 17.9449 24.157 18.3673 24.157Z" fill="#FFFDF4"/>
<path d="M29.3091 28.1617L29.343 29.8926H28.1665L25.4854 25.9105H25.4175L25.4062 27.9694L25.4402 29.8926H24.456L24.5012 28.2296L24.4673 24.2249H25.6212L28.3023 28.207H28.3928L28.3588 24.2589L29.3657 24.2023L29.3091 28.1617Z" fill="#FFFDF4"/>
<path d="M34.8818 28.9876L34.961 29.0667L34.8705 29.8926H31.2391L31.2844 28.1957L31.2391 24.2249H34.9045L34.9723 24.3154L34.8931 25.1412L33.4564 25.0847L32.3252 25.096L32.3025 26.5666L33.3886 26.578L34.3728 26.544L34.4293 26.6345L34.3614 27.4717L33.2981 27.4377L32.2912 27.449L32.2799 28.0939L32.3025 29.0215L33.3546 29.0328L34.8818 28.9876Z" fill="#FFFDF4"/>
<path d="M38.0871 24.157C38.5698 24.157 39.0525 24.2513 39.5351 24.4399L39.3654 25.4693L39.1958 25.5033C38.7583 25.1563 38.3435 24.9829 37.9514 24.9829C37.6723 24.9829 37.4498 25.0545 37.2839 25.1978C37.1255 25.3411 37.0464 25.507 37.0464 25.6956C37.0464 25.8841 37.1293 26.0425 37.2952 26.1707C37.4687 26.2914 37.7364 26.4271 38.0984 26.578C38.4378 26.7213 38.7093 26.857 38.9129 26.9852C39.1241 27.1059 39.3051 27.268 39.456 27.4717C39.6068 27.6753 39.6822 27.9279 39.6822 28.2296C39.6822 28.5388 39.5992 28.8254 39.4333 29.0894C39.2749 29.3533 39.0336 29.5683 38.7093 29.7342C38.3926 29.8926 38.0079 29.9718 37.5554 29.9718C37.2839 29.9718 36.9973 29.9416 36.6957 29.8813C36.394 29.8209 36.1036 29.7304 35.8246 29.6098L35.9716 28.5124L36.0961 28.4446C36.3148 28.6633 36.5712 28.8367 36.8653 28.9649C37.167 29.0856 37.4423 29.1459 37.6912 29.1459C37.9627 29.1459 38.1814 29.0781 38.3473 28.9423C38.5208 28.799 38.6075 28.6256 38.6075 28.4219C38.6075 28.2183 38.5208 28.0561 38.3473 27.9355C38.1738 27.8073 37.9061 27.6677 37.5441 27.5169C37.2198 27.3736 36.9521 27.2416 36.7409 27.121C36.5297 26.9928 36.3487 26.8268 36.1979 26.6232C36.0546 26.412 35.983 26.1556 35.983 25.8539C35.983 25.5372 36.0659 25.2506 36.2318 24.9942C36.4053 24.7378 36.6504 24.5341 36.9672 24.3833C37.2915 24.2325 37.6648 24.157 38.0871 24.157Z" fill="#FFFDF4"/>
<path d="M42.9812 24.157C43.4639 24.157 43.9465 24.2513 44.4292 24.4399L44.2595 25.4693L44.0898 25.5033C43.6524 25.1563 43.2376 24.9829 42.8454 24.9829C42.5664 24.9829 42.3439 25.0545 42.178 25.1978C42.0196 25.3411 41.9404 25.507 41.9404 25.6956C41.9404 25.8841 42.0234 26.0425 42.1893 26.1707C42.3628 26.2914 42.6305 26.4271 42.9925 26.578C43.3319 26.7213 43.6034 26.857 43.807 26.9852C44.0182 27.1059 44.1992 27.268 44.35 27.4717C44.5008 27.6753 44.5763 27.9279 44.5763 28.2296C44.5763 28.5388 44.4933 28.8254 44.3274 29.0894C44.169 29.3533 43.9277 29.5683 43.6034 29.7342C43.2866 29.8926 42.902 29.9718 42.4495 29.9718C42.178 29.9718 41.8914 29.9416 41.5897 29.8813C41.288 29.8209 40.9977 29.7304 40.7186 29.6098L40.8657 28.5124L40.9901 28.4446C41.2089 28.6633 41.4653 28.8367 41.7594 28.9649C42.0611 29.0856 42.3364 29.1459 42.5852 29.1459C42.8567 29.1459 43.0755 29.0781 43.2414 28.9423C43.4148 28.799 43.5016 28.6256 43.5016 28.4219C43.5016 28.2183 43.4148 28.0561 43.2414 27.9355C43.0679 27.8073 42.8002 27.6677 42.4382 27.5169C42.1139 27.3736 41.8461 27.2416 41.635 27.121C41.4238 26.9928 41.2428 26.8268 41.092 26.6232C40.9487 26.412 40.877 26.1556 40.877 25.8539C40.877 25.5372 40.96 25.2506 41.1259 24.9942C41.2994 24.7378 41.5445 24.5341 41.8612 24.3833C42.1855 24.2325 42.5588 24.157 42.9812 24.157Z" fill="#FFFDF4"/>
<path fill-rule="evenodd" clip-rule="evenodd" d="M22.9962 22.6648C22.9962 22.5257 22.8834 22.4129 22.7443 22.4129H21.5683C21.4292 22.4129 21.3164 22.5257 21.3164 22.6648C21.3164 22.8039 21.4292 22.9167 21.5683 22.9167H22.7443C22.8834 22.9167 22.9962 22.8039 22.9962 22.6648ZM22.9962 23.6725C22.9962 23.5334 22.8835 23.4206 22.7443 23.4206H21.5683C21.4292 23.4206 21.3164 23.5334 21.3164 23.6725C21.3164 23.8116 21.4292 23.9244 21.5683 23.9244H22.7443C22.8835 23.9244 22.9962 23.8116 22.9962 23.6725ZM21.5683 24.9321C21.4292 24.9321 21.3164 24.8193 21.3164 24.6802C21.3164 24.5411 21.4292 24.4283 21.5683 24.4283H22.7443C22.8834 24.4283 22.9962 24.5411 22.9962 24.6802C22.9962 24.8193 22.8834 24.9321 22.7443 24.9321H21.5683ZM21.5687 25.436C21.4293 25.436 21.3164 25.549 21.3164 25.6883C21.3164 25.8276 21.4293 25.9405 21.5687 25.9405H22.744C22.8833 25.9405 22.9962 25.8276 22.9962 25.6883C22.9962 25.549 22.8833 25.436 22.744 25.436H21.5687ZM21.5683 26.9482C21.4292 26.9482 21.3164 26.8355 21.3164 26.6964C21.3164 26.5573 21.4292 26.4445 21.5683 26.4445H22.7443C22.8834 26.4445 22.9962 26.5573 22.9962 26.6964C22.9962 26.8355 22.8834 26.9482 22.7443 26.9482H21.5683ZM21.5685 27.4522C21.4293 27.4522 21.3164 27.565 21.3164 27.7043C21.3164 27.8435 21.4293 27.9563 21.5685 27.9563H22.7441C22.8834 27.9563 22.9962 27.8435 22.9962 27.7043C22.9962 27.565 22.8834 27.4522 22.7441 27.4522H21.5685ZM21.5683 28.964C21.4292 28.964 21.3164 28.8512 21.3164 28.7121C21.3164 28.573 21.4292 28.4603 21.5683 28.4603H22.7444C22.8835 28.4603 22.9962 28.573 22.9962 28.7121C22.9962 28.8512 22.8835 28.964 22.7444 28.964H21.5683ZM21.5685 29.4679C21.4293 29.4679 21.3164 29.5808 21.3164 29.72C21.3164 29.8592 21.4293 29.972 21.5685 29.972H22.7442C22.8834 29.972 22.9962 29.8592 22.9962 29.72C22.9962 29.5808 22.8834 29.4679 22.7442 29.4679H21.5685Z" fill="#FACE15"/>
<g clip-path="url(#clip0_849_5385)">
<mask id="mask0_849_5385" style="mask-type:luminance" maskUnits="userSpaceOnUse" x="3" y="0" width="42" height="22">
<path d="M44.4604 0.0311279H3.17383V21.3H44.4604V0.0311279Z" fill="white"/>
</mask>
<g mask="url(#mask0_849_5385)">
<mask id="mask1_849_5385" style="mask-type:luminance" maskUnits="userSpaceOnUse" x="3" y="0" width="42" height="22">
<path d="M44.4604 0.209717H3.17383V21.3H44.4604V0.209717Z" fill="white"/>
</mask>
<g mask="url(#mask1_849_5385)">
<mask id="mask2_849_5385" style="mask-type:luminance" maskUnits="userSpaceOnUse" x="3" y="0" width="42" height="22">
<path d="M44.4604 0.209717H3.17383V21.3H44.4604V0.209717Z" fill="white"/>
</mask>
<g mask="url(#mask2_849_5385)">
<path d="M23.8172 41.4966C35.2183 41.4966 44.4607 32.2542 44.4607 20.8531C44.4607 9.45209 35.2183 0.209717 23.8172 0.209717C12.4162 0.209717 3.17383 9.45209 3.17383 20.8531C3.17383 32.2542 12.4162 41.4966 23.8172 41.4966Z" fill="#FACE15"/>
</g>
<path d="M14.0108 21.111H14.3566C14.208 21.1019 14.0585 21.0936 13.9082 21.0878C13.9394 21.1052 13.975 21.1133 14.0108 21.111Z" fill="black"/>
<path d="M11.4485 20.8271V16.0677C11.4485 15.8798 11.4869 15.7855 11.6897 15.8171C11.7308 15.82 11.7721 15.82 11.8132 15.8171C12.9539 15.8212 13.4783 16.3223 13.5215 17.4638C13.545 18.0741 13.5559 18.6846 13.5642 19.2959C13.5597 19.8496 13.6463 20.4003 13.8206 20.9259C13.8292 20.9889 13.8592 21.047 13.9057 21.0903C14.0573 21.0961 14.2056 21.1045 14.3541 21.1138H17.3347C16.7585 20.0875 16.8136 18.9511 16.6466 17.8573C16.6249 17.7187 16.5961 17.581 16.5757 17.4398C16.5312 17.0849 16.3912 16.7488 16.1706 16.4673C15.95 16.1858 15.657 15.9696 15.323 15.8416C15.1351 15.758 14.949 15.6747 14.731 15.5736C14.9674 15.49 15.1743 15.4221 15.3756 15.3407C16.9937 14.6852 17.2486 13.3184 16.9336 12.1969C16.7148 11.4194 16.1506 10.9339 15.4531 10.5879C14.7407 10.2515 13.9604 10.0838 13.1727 10.0978C11.6111 10.087 10.0498 10.0978 8.4883 10.0903C8.28622 10.0903 8.24707 10.1504 8.24707 10.3408C8.25212 13.9253 8.25212 17.5098 8.24707 21.0941H10.7119C10.9483 21.0941 11.1863 21.0901 11.4242 21.0858C11.4435 21.001 11.4516 20.914 11.4485 20.8271ZM11.4485 13.0206C11.4485 12.4596 11.4528 11.8983 11.4485 11.3381C11.4485 11.1865 11.4737 11.1125 11.6488 11.1226C11.9951 11.1138 12.3415 11.134 12.6844 11.1827C12.9463 11.229 13.1896 11.3487 13.386 11.5279C13.5825 11.7071 13.724 11.9384 13.7941 12.1949C13.9569 12.7271 13.9569 13.2959 13.7941 13.8282C13.5938 14.4938 13.0709 14.8679 12.3194 14.8994C12.0974 14.9095 11.8736 14.8944 11.6513 14.9095C11.4884 14.9204 11.4401 14.8668 11.4427 14.7034C11.4543 14.1414 11.4485 13.5819 11.4485 13.0206Z" fill="black"/>
<path d="M22.9386 16.3834C22.9386 14.898 22.9373 13.4122 22.9346 11.9261C22.9346 11.74 22.9704 11.6756 23.175 11.6756C24.4542 11.6857 25.7343 11.6672 27.016 11.6846C28.11 11.7006 29.1295 11.9552 29.9176 12.786C30.4951 13.4303 30.8522 14.2419 30.9371 15.103C31.1241 16.2134 31.0672 17.3512 30.7701 18.4373C30.3134 19.992 29.2361 20.8228 27.6563 21.0517C27.2051 21.103 26.7508 21.1222 26.2969 21.1093C25.2655 21.1093 24.2334 21.1009 23.2016 21.1151C22.9742 21.1151 22.9343 21.0499 22.9351 20.8395C22.9429 19.3552 22.9386 17.869 22.9386 16.3834ZM25.6757 16.3943C25.6757 17.6242 25.68 18.8533 25.6757 20.0822C25.6757 20.2691 25.7242 20.3328 25.9104 20.3143C26.1233 20.2969 26.3398 20.3143 26.5533 20.3042C26.7943 20.3017 27.03 20.2328 27.2344 20.1051C27.4389 19.9774 27.6042 19.7958 27.7122 19.5803C27.8262 19.3604 27.907 19.1249 27.9519 18.8814C28.1593 17.6601 28.2137 16.4178 28.1138 15.1831C28.1049 14.5804 28.0015 13.9828 27.8074 13.4122C27.7288 13.1711 27.583 12.9574 27.3871 12.7964C27.1913 12.6353 26.9535 12.5334 26.7018 12.5028C26.4388 12.4626 26.1741 12.4952 25.9119 12.4745C25.7283 12.4594 25.674 12.5162 25.6755 12.7049C25.6788 13.9348 25.6788 15.1614 25.6788 16.3928L25.6757 16.3943Z" fill="black"/>
<path d="M32.3597 15.5994C32.3597 13.8459 32.3597 12.0989 32.3547 10.3489C32.3547 10.141 32.4105 10.09 32.6151 10.0908C34.8278 10.0985 37.0409 10.0985 39.2543 10.0908C39.4397 10.0908 39.5223 10.1251 39.5049 10.3305C39.4865 10.5444 39.4865 10.7595 39.5049 10.9733C39.5198 11.1628 39.4544 11.2072 39.272 11.2055C38.1323 11.1971 36.9923 11.2055 35.8534 11.1964C35.6346 11.1964 35.5586 11.2406 35.5629 11.477C35.578 12.4179 35.5745 13.3599 35.5629 14.301C35.5629 14.4923 35.6088 14.5516 35.8076 14.5516C36.7488 14.5408 37.6905 14.5516 38.6317 14.5415C38.8428 14.5415 38.903 14.6034 38.8863 14.8062C38.8708 15.0202 38.8708 15.2351 38.8863 15.4491C38.8972 15.6161 38.8305 15.6545 38.6733 15.6529C37.7155 15.6471 36.7579 15.6529 35.8001 15.6454C35.619 15.6454 35.5621 15.6855 35.5636 15.8757C35.5721 17.1724 35.5721 18.4686 35.5636 19.7644C35.5636 19.9549 35.6078 20.015 35.8066 20.015C37.1853 20.0059 38.5622 20.015 39.9434 20.0049C40.1422 20.0049 40.2023 20.06 40.1872 20.2555C40.1717 20.4698 40.1717 20.685 40.1872 20.8994C40.1988 21.0731 40.1419 21.1224 39.9677 21.1206C38.8946 21.1131 37.8206 21.1206 36.7478 21.1206C35.3838 21.1206 34.0223 21.1123 32.6557 21.1272C32.3943 21.1272 32.3501 21.0514 32.3526 20.8107C32.3673 19.067 32.3597 17.3327 32.3597 15.5994Z" fill="black"/>
<path d="M21.3185 16.3882C21.3185 17.8821 21.3202 19.3762 21.3236 20.8706C21.3236 21.0683 21.2685 21.1211 21.073 21.1143C20.3152 21.1034 19.5542 21.1052 18.7943 21.1143C18.6274 21.1143 18.5705 21.0767 18.5713 20.8981C18.5763 17.892 18.5763 14.8861 18.5713 11.8804C18.5713 11.7134 18.6188 11.6733 18.7792 11.675C19.5557 11.6826 20.3314 11.6851 21.1081 11.675C21.2943 11.675 21.3193 11.7443 21.3185 11.9047C21.3168 13.3999 21.3168 14.8944 21.3185 16.3882Z" fill="black"/>
<path d="M27.1828 9.77931C27.107 9.6424 27.0357 9.51636 26.9683 9.38678C26.6968 8.92913 26.5719 8.3994 26.6101 7.86868C26.6245 7.69936 26.6748 7.53505 26.7577 7.38675C26.8407 7.23844 26.9543 7.10955 27.091 7.00869C27.2278 6.90783 27.3845 6.83733 27.5507 6.80189C27.7169 6.76646 27.8887 6.76691 28.0547 6.80322C28.5556 6.90426 28.7367 7.19071 28.6501 7.70095C28.6443 7.73278 28.645 7.76612 28.641 7.82296C28.9666 7.79946 29.2838 7.77698 29.6009 7.75197C29.7178 7.74288 29.788 7.74692 29.7486 7.90732C29.7055 8.0871 29.7356 8.27663 29.8322 8.43423C29.9098 8.56281 29.8322 8.58882 29.7352 8.61282C29.6667 8.63005 29.5952 8.63192 29.5258 8.6183C29.4564 8.60468 29.3909 8.57591 29.334 8.53404C29.277 8.49218 29.23 8.43824 29.1964 8.3761C29.1627 8.31395 29.1431 8.24514 29.1391 8.17457C29.1138 7.97754 29.0348 7.9682 28.8635 7.98259C28.6461 7.99848 28.4395 8.08365 28.274 8.22559C28.0257 8.40668 27.7355 8.52159 27.4305 8.55952C27.2585 8.58882 27.2325 8.64895 27.2954 8.80505C27.4197 9.11246 27.5819 9.39865 27.7347 9.6909C27.7565 9.73489 27.7922 9.77048 27.8362 9.7922C27.8803 9.81392 27.9302 9.82058 27.9784 9.81114C28.2507 9.80205 28.5228 9.80103 28.7951 9.79017C28.9171 9.78512 28.9719 9.80785 28.9497 9.95309C28.9125 10.1411 28.9372 10.336 29.0199 10.5088C29.0833 10.6308 29.0083 10.6508 28.9188 10.6692C28.7699 10.6933 28.6174 10.6578 28.4945 10.5702C28.3716 10.4827 28.2881 10.3503 28.2621 10.2017C28.2303 10.0104 28.1494 9.98618 27.9873 9.99124C27.649 10.0013 27.3101 9.99881 26.9718 9.99124C26.839 9.99124 26.7756 10.0112 26.7463 10.1681C26.7045 10.3387 26.5986 10.4866 26.4505 10.581C26.3024 10.6755 26.1236 10.7091 25.9513 10.675C25.8594 10.6591 25.8286 10.6301 25.8912 10.5505C25.9572 10.4707 26.0039 10.3768 26.0277 10.276C26.0516 10.1753 26.052 10.0704 26.0289 9.96951C26.0014 9.83513 26.0956 9.84499 26.1792 9.846C26.5151 9.85917 26.8515 9.83681 27.1828 9.77931ZM27.1209 7.95733C27.135 8.08666 27.1484 8.20791 27.1625 8.33219C27.1701 8.3966 27.1893 8.43146 27.2727 8.42236C27.4952 8.38934 27.6997 8.28082 27.8517 8.11498C28.0037 7.94914 28.0941 7.73608 28.1078 7.5115C28.1078 7.29023 28.0484 7.08739 27.8079 7.02803C27.7015 7.0029 27.5897 7.01579 27.4918 7.06446C27.3939 7.11313 27.3161 7.19452 27.2719 7.29452C27.1687 7.50017 27.116 7.72749 27.1183 7.95759L27.1209 7.95733Z" fill="black"/>
<path d="M24.51 10.4095C24.3112 10.4059 24.114 10.3719 23.9255 10.3085C23.6417 10.2194 23.3424 10.1909 23.047 10.2249C22.88 10.2501 22.8148 10.3085 22.8265 10.4936C22.8394 10.6564 22.7878 10.8176 22.6828 10.9427C22.5779 11.0677 22.4279 11.1464 22.2654 11.1618C22.1561 11.1802 22.1169 11.1542 22.1644 11.0516C22.2145 10.9518 22.2427 10.8424 22.2471 10.7308C22.2514 10.6192 22.2319 10.5079 22.1897 10.4045C22.1391 10.281 22.2215 10.2658 22.3041 10.2433C22.5105 10.1875 22.7148 10.1239 22.9237 10.0764C23.0866 10.0395 23.1308 9.99275 23.0381 9.82579C22.7306 9.30022 22.6249 8.68067 22.7408 8.08288C22.7688 7.91077 22.8313 7.74609 22.9246 7.59878C23.0178 7.45146 23.14 7.32457 23.2836 7.22572C23.4273 7.12688 23.5894 7.05814 23.7603 7.02364C23.9313 6.98915 24.1074 6.98961 24.2781 7.025C24.8735 7.12023 25.0922 7.75753 24.6957 8.26499C24.558 8.42494 24.3891 8.55496 24.1992 8.64702C24.0094 8.73909 23.8026 8.79124 23.5918 8.80025C23.2579 8.8437 23.2536 8.84041 23.3412 9.16423C23.402 9.42222 23.5217 9.66259 23.6911 9.86645C23.8036 9.99984 23.95 10.1004 24.1149 10.1574C24.2798 10.2145 24.4571 10.2259 24.628 10.1905C24.7072 10.1831 24.7835 10.1566 24.8503 10.1133C24.9171 10.07 24.9724 10.0112 25.0116 9.94191C25.0507 9.8726 25.0725 9.79484 25.075 9.71529C25.0776 9.63573 25.0609 9.55673 25.0263 9.48504C24.9521 9.25618 24.9854 9.20187 25.2302 9.17939C25.6543 9.14024 25.7144 9.18445 25.6293 9.61108C25.5373 10.1115 25.1114 10.4108 24.51 10.4095ZM23.2657 8.36048C23.3367 8.43626 23.1364 8.65601 23.392 8.65601C23.6214 8.65216 23.8414 8.56451 24.0106 8.40961C24.1798 8.2547 24.2864 8.04325 24.3105 7.81512C24.3357 7.5211 24.242 7.32584 24.0457 7.25941C23.9328 7.23014 23.8131 7.24183 23.7079 7.29242C23.6028 7.34301 23.519 7.42922 23.4713 7.53575C23.334 7.78877 23.2633 8.0726 23.266 8.36048H23.2657Z" fill="black"/>
<path d="M21.9035 9.18294C21.8872 9.33181 21.9181 9.48203 21.9919 9.61236C22.0603 9.72426 22.0027 9.75103 21.9083 9.77932C21.8468 9.79784 21.7821 9.80347 21.7184 9.79587C21.6546 9.78826 21.5931 9.76759 21.5377 9.73513C21.4823 9.70268 21.4342 9.65913 21.3964 9.60724C21.3586 9.55534 21.3319 9.4962 21.318 9.43352C21.2803 9.25468 21.2111 9.25468 21.0674 9.28828C20.711 9.37189 20.5622 9.53304 20.5546 9.96372C20.567 10.0639 20.5405 10.165 20.4807 10.2463C20.421 10.3277 20.3324 10.3831 20.2331 10.4012C19.8727 10.5646 19.4867 10.6644 19.0923 10.696C18.9861 10.7055 18.8791 10.6889 18.7806 10.6479C18.6822 10.6068 18.5952 10.5424 18.5271 10.4602C18.4591 10.378 18.4121 10.2805 18.3901 10.1761C18.3681 10.0717 18.3718 9.96355 18.401 9.86091C18.4681 9.54458 18.6176 9.25161 18.8344 9.01168C19.0994 8.71729 19.3845 8.44163 19.6877 8.1867C19.8658 8.03896 20.0152 7.85976 20.1285 7.65802C20.1969 7.52036 20.248 7.37334 20.0557 7.28064C20.0191 7.26321 19.9681 7.24376 19.9865 7.19703C19.997 7.17968 20.011 7.16477 20.0277 7.15327C20.0444 7.14177 20.0633 7.13395 20.0833 7.13034C20.212 7.10261 20.3422 7.08195 20.4733 7.06846C20.7706 7.04017 20.8716 7.15687 20.7913 7.45089C20.6781 7.78941 20.4741 8.0904 20.2017 8.32108C19.8983 8.57557 19.6146 8.85279 19.3533 9.15036C19.1653 9.35975 19.0468 9.6223 19.0143 9.90183C19.0021 9.96088 19.0036 10.0219 19.0186 10.0803C19.0336 10.1387 19.0618 10.1929 19.1009 10.2388C19.1401 10.2846 19.1892 10.3209 19.2446 10.3449C19.2999 10.3688 19.36 10.3798 19.4202 10.377C19.7708 10.4121 19.8895 10.3244 19.958 9.97786C19.9935 9.78604 20.081 9.60763 20.2109 9.46205C20.3407 9.31646 20.508 9.20927 20.6946 9.15213C21.0088 9.05574 21.3319 8.99059 21.659 8.95762C21.9083 8.92403 21.9083 8.92832 21.9035 9.18294Z" fill="black"/>
<path d="M42.9181 19.1605C42.9163 19.3634 42.8443 19.5595 42.7142 19.7153C42.5841 19.8711 42.4041 19.977 42.2047 20.0149C42.0053 20.0529 41.7989 20.0206 41.6207 19.9234C41.4425 19.8263 41.3035 19.6704 41.2273 19.4823C41.1511 19.2942 41.1424 19.0855 41.2029 18.8917C41.2633 18.698 41.389 18.5311 41.5586 18.4196C41.7282 18.3081 41.9311 18.2589 42.133 18.2803C42.3348 18.3016 42.523 18.3923 42.6655 18.5368C42.7466 18.619 42.8106 18.7165 42.8539 18.8235C42.8973 18.9305 42.9191 19.045 42.9181 19.1605ZM42.0254 19.8602C42.2112 19.8639 42.3909 19.7937 42.5249 19.665C42.659 19.5362 42.7364 19.3595 42.7401 19.1737C42.7439 18.9879 42.6737 18.8082 42.5449 18.6742C42.4162 18.5402 42.2395 18.4628 42.0537 18.459C41.9609 18.4547 41.8683 18.4692 41.7813 18.5017C41.6942 18.5341 41.6147 18.5838 41.5474 18.6478C41.4801 18.7117 41.4264 18.7887 41.3895 18.8739C41.3527 18.9591 41.3335 19.0509 41.3331 19.1438C41.3307 19.2365 41.3469 19.3287 41.3805 19.4151C41.4142 19.5014 41.4647 19.5802 41.5291 19.6469C41.5935 19.7136 41.6706 19.7668 41.7557 19.8034C41.8409 19.84 41.9325 19.8593 42.0252 19.8602H42.0254Z" fill="black"/>
<path d="M41.6396 19.1633V19.0875C41.6396 18.6624 41.7616 18.5707 42.1757 18.6833C42.2229 18.6904 42.2672 18.7106 42.3036 18.7415C42.34 18.7725 42.367 18.8129 42.3817 18.8584C42.3963 18.9039 42.398 18.9525 42.3865 18.9989C42.375 19.0452 42.3508 19.0875 42.3166 19.1208C42.1772 19.2385 42.2633 19.2921 42.31 19.3896C42.3459 19.4654 42.4869 19.5566 42.3727 19.6326C42.2585 19.7086 42.1865 19.5891 42.1398 19.483C42.1119 19.4241 42.078 19.3682 42.0387 19.3161C42.0222 19.2918 41.9986 19.2733 41.971 19.2631C41.9435 19.2529 41.9135 19.2516 41.8852 19.2592C41.8016 19.2777 41.8347 19.3502 41.8301 19.402C41.8272 19.4431 41.8272 19.4844 41.8301 19.5255C41.8301 19.5856 41.8301 19.645 41.7425 19.6439C41.6548 19.6429 41.6414 19.6013 41.6414 19.5338C41.6404 19.4111 41.6404 19.2875 41.6396 19.1633ZM41.9953 19.0688C42.0789 19.063 42.1789 19.0738 42.1749 18.9561C42.1709 18.8384 42.0638 18.8584 41.9862 18.8569C41.9087 18.8553 41.8334 18.8369 41.8291 18.9554C41.8233 19.0913 41.9167 19.0637 41.9953 19.0688Z" fill="black"/>
</g>
</g>
</g>
<defs>
<clipPath id="clip0_849_5385">
<rect width="41.5762" height="21.4181" fill="white" transform="translate(3)"/>
</clipPath>
</defs>
</svg>
