<svg width="39" height="30" viewBox="0 0 39 30" fill="none" xmlns="http://www.w3.org/2000/svg">
<g clip-path="url(#clip0_1409_5457)">
<path d="M19.0721 0.234375C24.0881 0.234375 28.8986 2.22698 32.4455 5.77383C35.9923 9.32068 37.9849 14.1312 37.9849 19.1473H0.15918C0.15918 14.1312 2.15178 9.32068 5.69863 5.77383C9.24549 2.22698 14.056 0.234375 19.0721 0.234375Z" fill="#FACE15"/>
<mask id="mask0_1409_5457" style="mask-type:luminance" maskUnits="userSpaceOnUse" x="0" y="0" width="38" height="20">
<path d="M37.9708 0.0285034H0.15918V19.5072H37.9708V0.0285034Z" fill="white"/>
</mask>
<g mask="url(#mask0_1409_5457)">
<mask id="mask1_1409_5457" style="mask-type:luminance" maskUnits="userSpaceOnUse" x="0" y="0" width="38" height="20">
<path d="M37.9708 0.192078H0.15918V19.5072H37.9708V0.192078Z" fill="white"/>
</mask>
<g mask="url(#mask1_1409_5457)">
<mask id="mask2_1409_5457" style="mask-type:luminance" maskUnits="userSpaceOnUse" x="0" y="0" width="38" height="20">
<path d="M37.9708 0.192078H0.15918V19.5072H37.9708V0.192078Z" fill="white"/>
</mask>
<g mask="url(#mask2_1409_5457)">
<path d="M19.0651 38.0039C29.5066 38.0039 37.9711 29.5395 37.9711 19.098C37.9711 8.65655 29.5066 0.192078 19.0651 0.192078C8.62366 0.192078 0.15918 8.65655 0.15918 19.098C0.15918 29.5395 8.62366 38.0039 19.0651 38.0039Z" fill="#FACE15"/>
</g>
<path d="M10.0842 19.3342H10.4009C10.2648 19.3259 10.1279 19.3182 9.99023 19.3129C10.0189 19.3289 10.0515 19.3363 10.0842 19.3342Z" fill="#040401"/>
<path d="M7.73762 19.0742V14.7154C7.73762 14.5432 7.77278 14.457 7.95854 14.4859C7.9962 14.4886 8.034 14.4886 8.07167 14.4859C9.11638 14.4896 9.59663 14.9486 9.63619 15.994C9.65771 16.5529 9.66765 17.112 9.67529 17.6718C9.67117 18.179 9.7505 18.6833 9.91009 19.1647C9.91793 19.2223 9.94548 19.2755 9.98805 19.3153C10.1269 19.3206 10.2626 19.3282 10.3987 19.3368H13.1284C12.6008 18.3969 12.6512 17.3561 12.4983 16.3544C12.4784 16.2274 12.452 16.1013 12.4333 15.972C12.3926 15.647 12.2644 15.3391 12.0623 15.0813C11.8602 14.8235 11.592 14.6255 11.2861 14.5083C11.114 14.4317 10.9435 14.3554 10.7438 14.2629C10.9604 14.1863 11.1498 14.1241 11.3342 14.0496C12.8161 13.4493 13.0496 12.1975 12.7611 11.1704C12.5607 10.4583 12.0439 10.0137 11.4052 9.69676C10.7528 9.38871 10.0381 9.23514 9.31672 9.24797C7.8866 9.23802 6.45671 9.24797 5.02659 9.24103C4.84152 9.24103 4.80566 9.29609 4.80566 9.47051C4.81029 12.7533 4.81029 16.0361 4.80566 19.3187H7.06304C7.27957 19.3187 7.49749 19.315 7.71541 19.3111C7.73306 19.2334 7.74052 19.1538 7.73762 19.0742ZM7.73762 11.9248C7.73762 11.411 7.74155 10.8969 7.73762 10.3838C7.73762 10.245 7.76075 10.1772 7.92107 10.1865C8.23821 10.1785 8.55546 10.1969 8.86954 10.2416C9.10935 10.2839 9.33219 10.3935 9.51211 10.5577C9.69203 10.7218 9.82162 10.9336 9.8858 11.1685C10.0349 11.656 10.0349 12.1769 9.8858 12.6643C9.70235 13.2739 9.22349 13.6165 8.53526 13.6454C8.33192 13.6547 8.12695 13.6408 7.92338 13.6547C7.77417 13.6646 7.72998 13.6156 7.73229 13.4659C7.74294 12.9512 7.73762 12.4388 7.73762 11.9248Z" fill="#040401"/>
<path d="M18.2605 15.0045C18.2605 13.6441 18.2593 12.2834 18.2568 10.9224C18.2568 10.7519 18.2897 10.6929 18.4771 10.6929C19.6486 10.7021 20.821 10.6852 21.9948 10.7012C22.9967 10.7158 23.9303 10.949 24.6521 11.7098C25.181 12.2999 25.5081 13.0432 25.5858 13.8319C25.7571 14.8488 25.7049 15.8908 25.4329 16.8855C25.0146 18.3094 24.028 19.0702 22.5812 19.2798C22.168 19.3268 21.7519 19.3445 21.3362 19.3326C20.3916 19.3326 19.4464 19.3249 18.5014 19.3379C18.2932 19.3379 18.2566 19.2782 18.2573 19.0855C18.2645 17.7262 18.2605 16.365 18.2605 15.0045ZM20.7673 15.0145C20.7673 16.1408 20.7712 17.2665 20.7673 18.392C20.7673 18.5632 20.8117 18.6215 20.9822 18.6046C21.1772 18.5886 21.3755 18.6046 21.571 18.5953C21.7917 18.593 22.0076 18.5299 22.1948 18.4129C22.382 18.296 22.5334 18.1297 22.6323 17.9323C22.7367 17.731 22.8107 17.5152 22.8519 17.2922C23.0418 16.1737 23.0916 15.036 23.0001 13.9052C22.992 13.3532 22.8973 12.8059 22.7195 12.2833C22.6475 12.0625 22.514 11.8669 22.3346 11.7193C22.1553 11.5718 21.9375 11.4785 21.707 11.4505C21.4662 11.4137 21.2237 11.4436 20.9836 11.4246C20.8154 11.4107 20.7657 11.4628 20.7671 11.6356C20.7701 12.7619 20.7701 13.8853 20.7701 15.0131L20.7673 15.0145Z" fill="#040401"/>
<path d="M26.8884 14.2864C26.8884 12.6805 26.8884 11.0806 26.8838 9.47789C26.8838 9.2875 26.9349 9.24077 27.1223 9.24146C29.1488 9.24856 31.1756 9.24856 33.2027 9.24146C33.3725 9.24146 33.4482 9.27293 33.4322 9.461C33.4154 9.65689 33.4154 9.85387 33.4322 10.0498C33.4459 10.2233 33.3859 10.264 33.2189 10.2624C32.1751 10.2547 31.1311 10.2624 30.088 10.254C29.8877 10.254 29.818 10.2945 29.822 10.511C29.8359 11.3728 29.8326 12.2354 29.822 13.0974C29.822 13.2725 29.8641 13.3269 30.0461 13.3269C30.9081 13.3169 31.7705 13.3269 32.6325 13.3176C32.8259 13.3176 32.8809 13.3743 32.8657 13.56C32.8515 13.756 32.8515 13.9528 32.8657 14.1488C32.8756 14.3017 32.8145 14.3369 32.6706 14.3355C31.7934 14.3302 30.9164 14.3355 30.0392 14.3285C29.8733 14.3285 29.8213 14.3653 29.8227 14.5395C29.8304 15.727 29.8304 16.9142 29.8227 18.1009C29.8227 18.2754 29.8631 18.3304 30.0452 18.3304C31.3078 18.3221 32.5689 18.3304 33.8338 18.3212C34.0159 18.3212 34.0709 18.3716 34.057 18.5507C34.0429 18.747 34.0429 18.944 34.057 19.1403C34.0677 19.2995 34.0156 19.3446 33.856 19.343C32.8733 19.336 31.8897 19.343 30.9072 19.343C29.658 19.343 28.4111 19.3354 27.1595 19.349C26.9201 19.349 26.8796 19.2796 26.8819 19.0591C26.8953 17.4622 26.8884 15.8739 26.8884 14.2864Z" fill="#040401"/>
<path d="M16.7768 15.0089C16.7768 16.3771 16.7783 17.7454 16.7814 19.114C16.7814 19.2951 16.731 19.3435 16.5519 19.3372C15.8579 19.3273 15.1609 19.3289 14.465 19.3372C14.3121 19.3372 14.2601 19.3028 14.2607 19.1392C14.2654 16.3862 14.2654 13.6333 14.2607 10.8805C14.2607 10.7276 14.3042 10.6908 14.4511 10.6924C15.1623 10.6994 15.8727 10.7017 16.5841 10.6924C16.7546 10.6924 16.7775 10.7558 16.7768 10.9027C16.7752 12.2721 16.7752 13.6408 16.7768 15.0089Z" fill="#040401"/>
<path d="M22.1475 8.95624C22.0781 8.83085 22.0128 8.71542 21.9511 8.59674C21.7024 8.17762 21.588 7.69247 21.623 7.20641C21.6362 7.05135 21.6822 6.90087 21.7582 6.76505C21.8342 6.62922 21.9382 6.51118 22.0635 6.41881C22.1887 6.32644 22.3322 6.26187 22.4844 6.22942C22.6366 6.19697 22.794 6.19738 22.946 6.23063C23.4048 6.32317 23.5706 6.58551 23.4913 7.05281C23.486 7.08195 23.4867 7.11249 23.483 7.16454C23.7811 7.14303 24.0717 7.12244 24.362 7.09953C24.4691 7.09121 24.5335 7.09491 24.4974 7.2418C24.4579 7.40645 24.4854 7.58003 24.5739 7.72437C24.645 7.84212 24.5739 7.86595 24.4851 7.88792C24.4223 7.9037 24.3568 7.90542 24.2933 7.89294C24.2298 7.88047 24.1698 7.85413 24.1176 7.81578C24.0655 7.77744 24.0224 7.72804 23.9916 7.67112C23.9607 7.61421 23.9428 7.55119 23.9392 7.48656C23.916 7.30612 23.8436 7.29756 23.6868 7.31074C23.4876 7.3253 23.2984 7.40329 23.1468 7.53329C22.9195 7.69913 22.6537 7.80438 22.3744 7.83911C22.2169 7.86595 22.193 7.92101 22.2506 8.06398C22.3644 8.34551 22.513 8.60761 22.6529 8.87527C22.6729 8.91555 22.7056 8.94815 22.7459 8.96804C22.7863 8.98794 22.832 8.99403 22.8762 8.98539C23.1255 8.97706 23.3747 8.97613 23.6241 8.96618C23.7358 8.96156 23.786 8.98238 23.7657 9.11539C23.7317 9.28754 23.7542 9.46606 23.83 9.62434C23.888 9.73607 23.8193 9.75435 23.7374 9.77124C23.601 9.79332 23.4614 9.76075 23.3488 9.6806C23.2362 9.60045 23.1597 9.47917 23.136 9.34303C23.1068 9.16791 23.0328 9.1457 22.8843 9.15033C22.5745 9.15958 22.264 9.15727 21.9543 9.15033C21.8326 9.15033 21.7745 9.1686 21.7477 9.31226C21.7095 9.4685 21.6125 9.60398 21.4768 9.69047C21.3412 9.77695 21.1775 9.80779 21.0197 9.77655C20.9355 9.76198 20.9073 9.73538 20.9646 9.66251C21.025 9.58941 21.0678 9.50341 21.0897 9.41116C21.1115 9.3189 21.1119 9.22285 21.0907 9.13043C21.0655 9.00736 21.1518 9.01639 21.2284 9.01731C21.536 9.02937 21.8441 9.0089 22.1475 8.95624ZM22.0908 7.28761C22.1037 7.40605 22.116 7.51709 22.1289 7.63091C22.1359 7.6899 22.1535 7.72183 22.2298 7.7135C22.4336 7.68326 22.6209 7.58387 22.7601 7.43199C22.8993 7.28011 22.9821 7.08498 22.9946 6.8793C22.9946 6.67665 22.9402 6.49089 22.72 6.43653C22.6226 6.41351 22.5201 6.42531 22.4305 6.46988C22.3408 6.51446 22.2696 6.589 22.2291 6.68058C22.1346 6.86893 22.0864 7.07711 22.0885 7.28784L22.0908 7.28761Z" fill="#040401"/>
<path d="M19.6996 9.53342C19.5175 9.53013 19.3369 9.49892 19.1643 9.44088C18.9044 9.35931 18.6303 9.33323 18.3597 9.36431C18.2068 9.38745 18.1471 9.44088 18.1577 9.61045C18.1696 9.75948 18.1223 9.90718 18.0262 10.0217C17.9301 10.1361 17.7928 10.2082 17.6439 10.2223C17.5438 10.2392 17.5079 10.2154 17.5514 10.1215C17.5973 10.0301 17.6231 9.92987 17.6271 9.82764C17.6311 9.72542 17.6132 9.62352 17.5745 9.52879C17.5283 9.41567 17.6037 9.40179 17.6793 9.3812C17.8683 9.33007 18.0555 9.27178 18.2468 9.22829C18.396 9.19452 18.4365 9.15172 18.3516 8.9988C18.07 8.51747 17.9732 7.95007 18.0793 7.40259C18.1049 7.24496 18.1621 7.09414 18.2476 6.95923C18.333 6.82432 18.4449 6.7081 18.5764 6.61758C18.708 6.52705 18.8565 6.4641 19.013 6.4325C19.1696 6.40091 19.3309 6.40133 19.4872 6.43375C20.0325 6.52096 20.2328 7.10462 19.8696 7.56937C19.7436 7.71586 19.5888 7.83494 19.415 7.91925C19.2411 8.00357 19.0518 8.05133 18.8587 8.05958C18.5529 8.09937 18.5489 8.09636 18.6292 8.39293C18.6848 8.6292 18.7945 8.84934 18.9496 9.03604C19.0526 9.15821 19.1867 9.25028 19.3378 9.30252C19.4888 9.35477 19.6511 9.36525 19.8076 9.33285C19.8802 9.32606 19.9501 9.3018 20.0112 9.26215C20.0724 9.2225 20.1231 9.16863 20.1589 9.10515C20.1948 9.04167 20.2147 8.97046 20.2171 8.8976C20.2194 8.82474 20.2041 8.75239 20.1724 8.68673C20.1044 8.47714 20.135 8.4274 20.3591 8.40681C20.7475 8.37095 20.8026 8.41144 20.7246 8.80217C20.6404 9.26044 20.2504 9.53458 19.6996 9.53342ZM18.56 7.65682C18.625 7.72623 18.4416 7.92748 18.6757 7.92748C18.8857 7.92395 19.0872 7.84368 19.2422 7.70182C19.3971 7.55995 19.4948 7.36629 19.5168 7.15736C19.54 6.88809 19.4541 6.70927 19.2744 6.64843C19.1709 6.62162 19.0613 6.63233 18.965 6.67866C18.8687 6.72499 18.792 6.80395 18.7483 6.90151C18.6225 7.13324 18.5578 7.39317 18.5603 7.65682H18.56Z" fill="#040401"/>
<path d="M17.3126 8.41007C17.2977 8.5464 17.326 8.68398 17.3936 8.80334C17.4563 8.90582 17.4036 8.93035 17.317 8.95626C17.2607 8.97321 17.2015 8.97837 17.1431 8.97141C17.0847 8.96444 17.0284 8.94551 16.9777 8.91578C16.9269 8.88606 16.8829 8.84618 16.8482 8.79865C16.8136 8.75112 16.7891 8.69696 16.7764 8.63955C16.7419 8.47577 16.6785 8.47577 16.5469 8.50654C16.2205 8.58311 16.0842 8.7307 16.0773 9.12513C16.0886 9.21688 16.0644 9.30948 16.0097 9.38397C15.9549 9.45846 15.8738 9.5092 15.7828 9.5258C15.4528 9.67547 15.0993 9.76682 14.7381 9.79577C14.6408 9.80444 14.5428 9.78931 14.4526 9.75169C14.3625 9.71406 14.2828 9.65508 14.2205 9.57981C14.1582 9.50455 14.1151 9.41527 14.095 9.31965C14.0748 9.22404 14.0783 9.12497 14.1049 9.03098C14.1664 8.74127 14.3033 8.47295 14.5019 8.25323C14.7446 7.98361 15.0057 7.73115 15.2834 7.49768C15.4464 7.36237 15.5833 7.19825 15.687 7.01349C15.7497 6.88742 15.7965 6.75277 15.6204 6.66787C15.5869 6.65191 15.5401 6.6341 15.557 6.5913C15.5666 6.57542 15.5795 6.56175 15.5948 6.55122C15.61 6.54069 15.6274 6.53354 15.6456 6.53023C15.7636 6.50483 15.8828 6.48591 16.0028 6.47355C16.2751 6.44764 16.3676 6.55452 16.2941 6.8238C16.1904 7.13383 16.0036 7.40948 15.7541 7.62075C15.4762 7.85382 15.2164 8.10771 14.9771 8.38022C14.8049 8.572 14.6964 8.81245 14.6666 9.06845C14.6554 9.12253 14.6568 9.17845 14.6705 9.23193C14.6843 9.28542 14.7101 9.33505 14.746 9.37704C14.7818 9.41902 14.8268 9.45225 14.8775 9.47419C14.9282 9.49612 14.9832 9.50618 15.0384 9.5036C15.3595 9.53575 15.4682 9.45547 15.5309 9.13808C15.5634 8.9624 15.6435 8.79901 15.7625 8.66568C15.8814 8.53235 16.0346 8.43418 16.2055 8.38185C16.4933 8.29358 16.7891 8.23391 17.0887 8.20372C17.317 8.17295 17.317 8.17688 17.3126 8.41007Z" fill="#040401"/>
<path d="M36.5585 17.5478C36.5569 17.7337 36.4909 17.9133 36.3717 18.056C36.2526 18.1987 36.0877 18.2956 35.9051 18.3304C35.7225 18.3651 35.5335 18.3355 35.3703 18.2466C35.2071 18.1577 35.0797 18.0149 35.0099 17.8426C34.9402 17.6703 34.9323 17.4792 34.9876 17.3017C35.0429 17.1243 35.158 16.9715 35.3134 16.8694C35.4687 16.7673 35.6546 16.7221 35.8394 16.7417C36.0243 16.7613 36.1966 16.8443 36.3271 16.9767C36.4014 17.052 36.46 17.1412 36.4997 17.2392C36.5394 17.3372 36.5594 17.4421 36.5585 17.5478ZM35.7409 18.1886C35.9111 18.1921 36.0757 18.1278 36.1984 18.0099C36.3212 17.892 36.3921 17.7302 36.3955 17.56C36.3989 17.3898 36.3346 17.2253 36.2167 17.1025C36.0988 16.9798 35.937 16.9089 35.7668 16.9054C35.6819 16.9015 35.597 16.9148 35.5173 16.9445C35.4376 16.9742 35.3648 17.0197 35.3031 17.0783C35.2415 17.1369 35.1923 17.2073 35.1586 17.2854C35.1248 17.3635 35.1072 17.4475 35.1068 17.5326C35.1047 17.6174 35.1195 17.7019 35.1503 17.781C35.1811 17.8601 35.2274 17.9323 35.2864 17.9933C35.3454 18.0544 35.4159 18.1031 35.4939 18.1366C35.5719 18.1702 35.6558 18.1878 35.7407 18.1886H35.7409Z" fill="#040401"/>
<path d="M35.3877 17.5504V17.481C35.3877 17.0916 35.4994 17.0077 35.8786 17.1108C35.9218 17.1174 35.9624 17.1358 35.9958 17.1641C36.0291 17.1925 36.0539 17.2295 36.0673 17.2712C36.0807 17.3128 36.0822 17.3574 36.0717 17.3998C36.0612 17.4423 36.039 17.481 36.0077 17.5115C35.88 17.6193 35.9589 17.6684 36.0017 17.7577C36.0345 17.8271 36.1636 17.9106 36.059 17.9802C35.9545 18.0498 35.8885 17.9404 35.8457 17.8432C35.8202 17.7893 35.7892 17.738 35.7532 17.6903C35.7381 17.6681 35.7164 17.6512 35.6912 17.6418C35.666 17.6325 35.6385 17.6313 35.6126 17.6383C35.536 17.6552 35.5663 17.7216 35.5621 17.769C35.5594 17.8066 35.5594 17.8445 35.5621 17.8821C35.5621 17.9372 35.5621 17.9915 35.4818 17.9906C35.4016 17.9897 35.3893 17.9515 35.3893 17.8897C35.3884 17.7773 35.3884 17.6642 35.3877 17.5504ZM35.7134 17.4639C35.79 17.4585 35.8816 17.4685 35.8779 17.3607C35.8742 17.2529 35.7761 17.2712 35.7051 17.2698C35.6341 17.2684 35.5651 17.2515 35.5612 17.36C35.5559 17.4844 35.6415 17.4592 35.7134 17.4639Z" fill="#040401"/>
</g>
</g>
</g>
<path d="M12.5 22.5961C12.5 22.7555 12.3709 22.8846 12.2115 22.8846H1.92308C1.17962 22.8846 0.576923 23.4873 0.576923 24.2308V28.0769C0.576923 28.8204 1.17962 29.4231 1.92308 29.4231H16.1538C16.8973 29.4231 17.5 28.8204 17.5 28.0769V25.6731C17.5 25.5137 17.6291 25.3846 17.7885 25.3846C17.9478 25.3846 18.0769 25.5137 18.0769 25.6731V28.0769L18.0743 28.1757C18.0245 29.1591 17.2361 29.9476 16.2526 29.9974L16.1538 30H1.92308L1.82429 29.9974C0.808117 29.9459 0 29.1059 0 28.0769V24.2308C0 23.1687 0.860991 22.3077 1.92308 22.3077H12.2115C12.3709 22.3077 12.5 22.4368 12.5 22.5961Z" fill="#FACE15"/>
<path d="M14.9407 21.6271C15.7991 20.9645 16.9141 20.7751 17.9185 20.9029L18.1175 20.9326L18.1652 20.945C18.272 20.9828 18.3484 21.081 18.3564 21.197C18.4 21.8283 18.2699 22.3204 17.9267 22.6784C17.7002 22.9147 17.401 23.0701 17.0557 23.1783C17.0642 23.1883 17.0729 23.1982 17.0813 23.2084C17.2114 23.3678 17.3545 23.6013 17.3209 23.8905C17.2983 24.0851 17.216 24.2326 17.0933 24.3611C16.9842 24.4753 16.8337 24.5826 16.6756 24.6969C15.903 25.2552 15.0057 25.6071 13.8841 25.6727C13.7275 25.6819 13.5924 25.564 13.5799 25.4075C13.4347 23.5757 14.0115 22.3444 14.9407 21.6271ZM17.787 21.469C16.9144 21.3703 15.9877 21.5476 15.293 22.0838C14.5936 22.6237 14.085 23.5616 14.1384 25.0714C15.0124 24.9741 15.7184 24.6767 16.3376 24.2293L16.5483 24.0738C16.603 24.0313 16.6438 23.9962 16.676 23.9626C16.7266 23.9096 16.7419 23.8742 16.7477 23.8236L16.7485 23.8022C16.7472 23.7493 16.7198 23.6777 16.6347 23.5735C16.5884 23.5168 16.5332 23.46 16.4717 23.3999C16.4148 23.3444 16.343 23.2773 16.2861 23.2178C16.213 23.1412 16.1875 23.0308 16.22 22.93C16.2525 22.8292 16.3378 22.7541 16.442 22.7347C16.9664 22.6373 17.3059 22.4922 17.5102 22.2791C17.6732 22.1091 17.7799 21.8627 17.787 21.469Z" fill="#FACE15"/>
<path d="M15.204 23.2366C15.3283 23.137 15.5097 23.1571 15.6093 23.2813C15.7089 23.4056 15.6889 23.5869 15.5646 23.6866C15.1808 23.9944 14.8184 24.3127 14.4573 24.8055C14.0948 25.3003 13.7257 25.9823 13.3478 27.0216C13.2934 27.1712 13.1279 27.2486 12.9782 27.1943C12.8286 27.1399 12.7511 26.9744 12.8054 26.8247C13.1967 25.7487 13.5891 25.0143 13.992 24.4645C14.3962 23.9128 14.8033 23.558 15.204 23.2366Z" fill="#FACE15"/>
<path d="M2.69238 25.2885C2.69238 25.1291 2.82153 25 2.98084 25H8.55777C8.71708 25 8.84623 25.1291 8.84623 25.2885C8.84623 25.4478 8.71708 25.5769 8.55777 25.5769H2.98084C2.82153 25.5769 2.69238 25.4478 2.69238 25.2885Z" fill="white"/>
<path d="M2.69238 27.2116C2.69238 27.0522 2.82153 26.9231 2.98084 26.9231H12.4039C12.5632 26.9231 12.6924 27.0522 12.6924 27.2116C12.6924 27.3709 12.5632 27.5 12.4039 27.5H2.98084C2.82153 27.5 2.69238 27.3709 2.69238 27.2116Z" fill="white"/>
<path d="M19.6152 28.1731V22.0192H22.2835C22.7523 22.0192 23.1459 22.0823 23.4644 22.2085C23.7849 22.3347 24.0263 22.513 24.1886 22.7434C24.3528 22.9738 24.4349 23.2452 24.4349 23.5577C24.4349 23.784 24.3849 23.9904 24.2847 24.1767C24.1865 24.363 24.0483 24.5192 23.87 24.6454C23.6918 24.7696 23.4834 24.8558 23.245 24.9038V24.9639C23.5095 24.974 23.7498 25.0411 23.9662 25.1653C24.1825 25.2875 24.3548 25.4567 24.483 25.6731C24.6112 25.8874 24.6753 26.1398 24.6753 26.4303C24.6753 26.7668 24.5872 27.0663 24.4109 27.3287C24.2366 27.5911 23.9882 27.7975 23.6657 27.9477C23.3432 28.098 22.9586 28.1731 22.5119 28.1731H19.6152ZM21.2859 26.8389H22.0672C22.3476 26.8389 22.5579 26.7869 22.6982 26.6827C22.8384 26.5765 22.9085 26.4203 22.9085 26.2139C22.9085 26.0697 22.8755 25.9475 22.8093 25.8474C22.7432 25.7472 22.6491 25.6711 22.5269 25.619C22.4067 25.5669 22.2615 25.5409 22.0912 25.5409H21.2859V26.8389ZM21.2859 24.5072H21.971C22.1172 24.5072 22.2464 24.4842 22.3586 24.4381C22.4708 24.392 22.5579 24.3259 22.62 24.2398C22.6841 24.1516 22.7162 24.0445 22.7162 23.9183C22.7162 23.728 22.6481 23.5827 22.5119 23.4826C22.3757 23.3804 22.2034 23.3293 21.995 23.3293H21.2859V24.5072Z" fill="white"/>
<path d="M26.95 22.0192V28.1731H25.2913V22.0192H26.95Z" fill="white"/>
<path d="M30.0186 28.2572C29.5178 28.2572 29.0891 28.158 28.7326 27.9597C28.376 27.7594 28.1026 27.481 27.9123 27.1244C27.722 26.7658 27.6268 26.3502 27.6268 25.8774C27.6268 25.4046 27.722 24.99 27.9123 24.6334C28.1026 24.2748 28.376 23.9964 28.7326 23.7981C29.0891 23.5978 29.5178 23.4976 30.0186 23.4976C30.5194 23.4976 30.9481 23.5978 31.3047 23.7981C31.6613 23.9964 31.9347 24.2748 32.125 24.6334C32.3153 24.99 32.4105 25.4046 32.4105 25.8774C32.4105 26.3502 32.3153 26.7658 32.125 27.1244C31.9347 27.481 31.6613 27.7594 31.3047 27.9597C30.9481 28.158 30.5194 28.2572 30.0186 28.2572ZM30.0306 27.0312C30.1709 27.0312 30.2921 26.9842 30.3942 26.89C30.4964 26.7959 30.5755 26.6617 30.6316 26.4874C30.6877 26.3131 30.7157 26.1058 30.7157 25.8654C30.7157 25.623 30.6877 25.4157 30.6316 25.2434C30.5755 25.0691 30.4964 24.9349 30.3942 24.8407C30.2921 24.7466 30.1709 24.6995 30.0306 24.6995C29.8824 24.6995 29.7552 24.7466 29.649 24.8407C29.5429 24.9349 29.4617 25.0691 29.4056 25.2434C29.3496 25.4157 29.3215 25.623 29.3215 25.8654C29.3215 26.1058 29.3496 26.3131 29.4056 26.4874C29.4617 26.6617 29.5429 26.7959 29.649 26.89C29.7552 26.9842 29.8824 27.0312 30.0306 27.0312Z" fill="white"/>
<path d="M35.3071 30C34.8444 30 34.4477 29.9339 34.1172 29.8017C33.7887 29.6715 33.5333 29.4912 33.351 29.2608C33.1707 29.0324 33.0695 28.77 33.0475 28.4736H34.646C34.6621 28.5717 34.7021 28.6508 34.7662 28.7109C34.8303 28.771 34.9125 28.8141 35.0126 28.8401C35.1148 28.8682 35.229 28.8822 35.3552 28.8822C35.5695 28.8822 35.7468 28.8301 35.887 28.726C36.0292 28.6218 36.1004 28.4335 36.1004 28.1611V27.3798H36.0523C35.9922 27.5361 35.9 27.6693 35.7758 27.7794C35.6516 27.8876 35.5024 27.9707 35.3281 28.0288C35.1538 28.0849 34.9625 28.113 34.7542 28.113C34.4257 28.113 34.1232 28.0369 33.8468 27.8846C33.5723 27.7324 33.352 27.491 33.1857 27.1605C33.0214 26.8299 32.9393 26.3982 32.9393 25.8654C32.9393 25.3085 33.0254 24.8558 33.1977 24.5072C33.372 24.1586 33.5964 23.9032 33.8708 23.741C34.1472 23.5787 34.4377 23.4976 34.7422 23.4976C34.9706 23.4976 35.1709 23.5377 35.3431 23.6178C35.5154 23.6959 35.6597 23.8011 35.7758 23.9333C35.892 24.0635 35.9802 24.2067 36.0403 24.363H36.0763V23.5577H37.735V28.1611C37.735 28.5517 37.6338 28.8832 37.4315 29.1556C37.2312 29.4301 36.9487 29.6394 36.5841 29.7836C36.2196 29.9279 35.7939 30 35.3071 30ZM35.3672 26.9351C35.5194 26.9351 35.6496 26.893 35.7578 26.8089C35.868 26.7228 35.9521 26.6006 36.0102 26.4423C36.0703 26.282 36.1004 26.0897 36.1004 25.8654C36.1004 25.637 36.0703 25.4417 36.0102 25.2794C35.9521 25.1152 35.868 24.99 35.7578 24.9038C35.6496 24.8157 35.5194 24.7716 35.3672 24.7716C35.2149 24.7716 35.0847 24.8157 34.9766 24.9038C34.8704 24.99 34.7883 25.1152 34.7302 25.2794C34.6741 25.4417 34.646 25.637 34.646 25.8654C34.646 26.0937 34.6741 26.2881 34.7302 26.4483C34.7883 26.6066 34.8704 26.7278 34.9766 26.8119C35.0847 26.894 35.2149 26.9351 35.3672 26.9351Z" fill="white"/>
<defs>
<clipPath id="clip0_1409_5457">
<rect width="38.0769" height="19.6154" fill="white"/>
</clipPath>
</defs>
</svg>
