<svg width="224" height="111" viewBox="0 0 224 111" fill="none" xmlns="http://www.w3.org/2000/svg">
<path d="M0 10C0 4.47715 4.47715 0 10 0H214C219.523 0 224 4.47715 224 10V101C224 106.523 219.523 111 214 111H10C4.47715 111 0 106.523 0 101V10Z" fill="white" fill-opacity="0.1"/>
<path d="M107.86 32.877C108.143 33.0147 108.456 33.0814 108.77 33.0714C110.297 32.8309 111.809 32.5037 113.298 32.0914C112.849 31.5269 112.47 30.9095 112.171 30.2529C112.171 30.2529 111.979 30.8704 111.711 30.8932C111.058 30.948 111.048 30.3387 110.956 30.0357C110.863 29.7327 108.701 28.2259 108.86 27.655C109.019 27.0841 110.739 27.3871 110.739 27.3871C110.739 27.3871 109.885 27.0212 109.247 25.0072C108.609 22.9932 109.339 21.6962 110.287 20.3634C111.235 19.0305 114.142 18.1394 116.167 18.4539C116.907 18.5994 117.589 18.9594 118.126 19.489C118.663 20.0185 119.033 20.6944 119.189 21.4324C119.355 22.3412 119.448 23.2619 119.467 24.1856C120.029 22.9074 121.273 23.248 121.359 23.6441C121.445 24.0402 120.801 25.8084 120.961 26.5116C121.121 27.2148 121.331 27.5423 120.989 27.6868C120.62 27.7562 120.241 27.742 119.878 27.6452C119.99 28.1121 120.058 28.5884 120.081 29.0679C119.913 29.6883 119.708 30.2979 119.466 30.8932C120.391 30.8698 121.3 30.6517 122.135 30.2529C122.425 30.0529 122.672 29.7976 122.862 29.5017C123.053 29.2059 123.183 28.8752 123.246 28.5289C123.246 28.5289 121.7 18.6148 121.568 17.776C121.436 16.9372 120.598 16.2079 118.559 16.0152C116.519 15.8224 110.188 17.5253 107.696 17.7474C105.204 17.9696 105.523 19.6406 105.523 19.6406L107.518 32.2343C107.56 32.659 107.548 32.6671 107.86 32.877Z" fill="white"/>
<path d="M103.094 50.1333C102.861 48.6626 102.85 47.1652 103.06 45.6912C103.178 44.7021 105.31 38.3408 106.225 37.1034C107.14 35.8661 114.642 33.6855 114.642 33.6855C114.642 33.6855 114.416 33.2379 114.134 32.7871C109.982 33.5548 105.682 34.3805 103.114 34.9334C99.1786 35.7804 99.1116 38.8953 99.1116 38.8953V52.2559C99.1116 52.3041 99.1116 52.3523 99.1116 52.4005C99.1206 52.6055 99.0986 53.2556 99.0781 53.8518L99.0283 53.8722C98.5244 54.0584 95.22 54.5035 94.6761 54.7191C92.954 55.1481 91.3788 56.0315 90.1147 57.2771C89.4258 57.9603 88.978 58.8492 88.839 59.8095C88.7001 60.7697 88.8775 61.7491 89.3446 62.5996C89.4944 62.8941 89.6955 63.1596 89.9383 63.3836C92.2251 65.5259 95.9575 65.325 95.9575 65.325C102.913 65.3307 102.715 58.4981 102.715 58.4981C102.644 57.1178 102.729 55.7341 102.968 54.3728C103.046 53.3511 103.05 52.3251 102.98 51.3028C103.022 50.923 103.06 50.5294 103.094 50.1333Z" fill="white"/>
<path d="M131.662 33.9649C131.553 30.0447 127.075 30.6417 125.404 30.8271C124.807 30.89 122.545 31.2747 119.612 31.7958C119.593 31.9594 119.608 32.1254 119.655 32.2831C119.703 32.4408 119.784 32.5869 119.891 32.7121C120.299 33.0045 122.089 33.1768 122.423 33.5574C122.757 33.938 125.211 34.5677 125.94 34.9164C126.669 35.2652 127.54 37.0023 127.713 37.5242C127.886 38.0461 128.412 38.3229 128.755 38.9837C129.099 39.6444 129.276 42.217 129.347 42.8075C129.417 43.398 129.715 44.1755 129.437 44.6623C129.282 44.837 129.183 45.0545 129.154 45.2863C129.125 45.518 129.166 45.7532 129.273 45.9608C129.518 46.6215 129.447 46.6959 129.334 48.09C129.17 50.1212 125.378 52.1736 125.378 52.1736L122.453 52.3369C122.048 52.485 121.635 52.6099 121.216 52.711C119.457 53.219 117.838 54.1259 116.487 55.3612C114.1 57.3581 115.008 60.2247 115.489 61.1762C115.651 61.4926 115.867 61.7779 116.128 62.019C118.587 64.3214 122.595 64.1049 122.595 64.1049C131.93 63.8746 131.66 56.7676 131.66 56.7676C131.66 56.7676 131.769 37.8852 131.662 33.9649Z" fill="white"/>
<path d="M113.327 42.2339C113.369 42.0515 113.448 41.8796 113.559 41.7288C113.67 41.578 113.811 41.4516 113.973 41.3572C114.099 41.285 114.358 41.1677 114.411 41.0482C114.596 40.6527 114.239 40.1263 113.846 40.2592C113.339 40.3937 112.867 40.6347 112.46 40.966C112.321 41.3098 112.233 41.6724 112.199 42.0419" fill="white"/>
<path d="M113.417 42.2501L113.24 42.2182C113.284 42.0221 113.368 41.8374 113.487 41.6755C113.607 41.5137 113.758 41.3783 113.932 41.278L114.014 41.2327C114.134 41.1802 114.243 41.1041 114.333 41.0088C114.37 40.9166 114.38 40.8158 114.362 40.7181C114.345 40.6204 114.3 40.5297 114.233 40.4564C114.191 40.4042 114.135 40.3655 114.071 40.3451C114.008 40.3246 113.94 40.3234 113.876 40.3416C113.383 40.4643 112.924 40.6944 112.53 41.0156C112.398 41.3459 112.317 41.6947 112.291 42.0496L112.109 42.0307C112.139 41.6462 112.231 41.269 112.381 40.9137C112.801 40.568 113.289 40.315 113.814 40.1713C113.911 40.1403 114.015 40.1392 114.113 40.1683C114.21 40.1974 114.297 40.2553 114.361 40.3344C114.453 40.4337 114.514 40.5573 114.537 40.6904C114.56 40.8235 114.544 40.9604 114.492 41.0847C114.39 41.2204 114.252 41.3253 114.095 41.388L114.018 41.4301C113.868 41.5192 113.737 41.6378 113.634 41.7788C113.531 41.9197 113.457 42.08 113.417 42.2501Z" fill="white"/>
<path d="M117.414 30.2757C117.414 30.2757 117.286 29.3634 116.265 29.846C116.265 29.846 112.616 38.1937 112.348 38.6636C112.08 39.1334 109.923 44.9137 109.571 45.8167C109.22 46.7197 106.594 52.4554 106.532 52.5391C106.47 52.6228 106.943 53.0405 107.225 53.0421C107.467 53.0157 107.702 52.9447 107.918 52.8325C107.918 52.8325 110.155 46.8152 110.401 46.1331C110.647 45.4511 113.553 39.1302 113.877 38.5567C114.202 37.9833 116.072 33.5605 116.424 32.7184C116.777 31.8763 117.414 30.2757 117.414 30.2757Z" fill="white"/>
<path d="M107.349 53.1912C107.571 53.149 107.786 53.0747 107.986 52.9705L108.041 52.9422L108.062 52.8847C108.084 52.8248 110.304 46.8484 110.547 46.1851C110.789 45.5217 113.67 39.2389 114.013 38.6324C114.343 38.0474 116.212 33.6306 116.571 32.7735C116.917 31.943 117.555 30.3482 117.559 30.332L117.574 30.2935L117.568 30.2515C117.549 30.125 117.503 30.0042 117.432 29.8974C117.362 29.7906 117.269 29.7002 117.161 29.6325C117.006 29.566 116.837 29.5378 116.669 29.5503C116.502 29.5629 116.339 29.6158 116.196 29.7046L116.143 29.7294L116.12 29.783C116.085 29.8703 112.473 38.1305 112.212 38.5887C112.017 38.931 110.978 41.6643 109.929 44.4352C109.687 45.0646 109.509 45.5524 109.423 45.7673C109.074 46.6691 106.496 52.2817 106.404 52.4482C106.381 52.4804 106.368 52.5184 106.367 52.5577C106.366 52.597 106.376 52.6358 106.397 52.6693C106.491 52.8095 106.613 52.9288 106.755 53.0201C106.897 53.1113 107.056 53.1725 107.223 53.1999C107.266 53.1992 107.309 53.1959 107.352 53.19L107.349 53.1912ZM106.692 52.5594C107.034 51.8697 109.398 46.7004 109.717 45.882C109.8 45.6673 109.985 45.1762 110.224 44.548C110.945 42.6413 112.287 39.0944 112.483 38.7451C112.749 38.2871 116.039 30.751 116.382 29.9647C116.475 29.9097 116.579 29.8764 116.687 29.8671C116.794 29.8579 116.903 29.8729 117.004 29.9111C117.065 29.9495 117.119 29.9999 117.161 30.0593C117.203 30.1187 117.233 30.1858 117.248 30.2569C117.143 30.5191 116.592 31.8989 116.28 32.6528C115.848 33.6867 114.053 37.9332 113.742 38.4774C113.398 39.0892 110.498 45.4093 110.255 46.0777C110.023 46.7139 108.024 52.0917 107.792 52.7183C107.614 52.8071 107.421 52.8622 107.223 52.8806C107.017 52.8306 106.832 52.7185 106.692 52.5594ZM106.653 52.6383C106.66 52.6283 106.665 52.6176 106.67 52.6078C106.667 52.6172 106.662 52.6259 106.656 52.6337L106.653 52.6383Z" fill="white"/>
<path d="M110.333 39.7634C110.246 39.6395 110.211 39.486 110.237 39.3367C110.263 39.1874 110.347 39.0545 110.471 38.9671C110.502 38.9454 110.534 38.9268 110.569 38.9113C110.899 38.7754 111.258 38.7257 111.612 38.7671C111.967 38.8084 112.305 38.9395 112.595 39.1478C112.844 39.5103 112.905 39.9537 112.364 40.0932C111.824 40.2326 111.4 39.7058 110.333 39.7634Z" fill="white"/>
<path d="M112.39 40.182C112.487 40.1659 112.579 40.126 112.657 40.0658C112.735 40.0056 112.796 39.9271 112.836 39.8372C112.87 39.7099 112.872 39.5765 112.843 39.4481C112.814 39.3198 112.755 39.2002 112.671 39.0992C112.369 38.87 112.012 38.7245 111.636 38.6776C111.26 38.6307 110.878 38.6839 110.529 38.8319C110.441 38.8702 110.363 38.9272 110.299 38.999C110.235 39.0708 110.187 39.1556 110.16 39.2476C110.12 39.4412 110.155 39.6428 110.26 39.8109L110.287 39.8556L110.339 39.8484C110.763 39.828 111.186 39.9012 111.579 40.0625C111.803 40.1658 112.05 40.2119 112.296 40.1968C112.328 40.1938 112.359 40.1889 112.39 40.182ZM110.332 39.2911C110.355 39.225 110.391 39.1645 110.439 39.1135C110.487 39.0626 110.546 39.0223 110.61 38.9954C110.921 38.8708 111.258 38.8246 111.591 38.861C111.924 38.8973 112.243 39.015 112.52 39.2037C112.585 39.281 112.632 39.3722 112.657 39.4704C112.681 39.5686 112.683 39.6711 112.662 39.7701C112.631 39.8334 112.585 39.8883 112.529 39.9297C112.472 39.9712 112.406 39.9982 112.336 40.0081C112.096 40.0434 111.851 40.0048 111.633 39.8974C111.237 39.7365 110.812 39.6593 110.385 39.6704C110.324 39.5538 110.305 39.4199 110.332 39.2911Z" fill="white"/>
<path d="M111.87 37.7899C111.807 37.6984 111.783 37.5859 111.803 37.4767C111.822 37.3676 111.884 37.2706 111.975 37.2068C111.997 37.1897 112.02 37.175 112.045 37.1631C112.289 37.0631 112.554 37.0266 112.815 37.0571C113.076 37.0876 113.326 37.184 113.54 37.3374C113.723 37.6036 113.769 37.932 113.369 38.0336C112.968 38.1353 112.658 37.7475 111.87 37.7899Z" fill="white"/>
<path d="M113.383 38.0984C113.456 38.0864 113.524 38.0566 113.582 38.0116C113.64 37.9666 113.685 37.9078 113.715 37.8406C113.739 37.7471 113.741 37.649 113.719 37.5547C113.698 37.4604 113.654 37.3727 113.592 37.2988C113.369 37.13 113.106 37.0229 112.829 36.9884C112.552 36.9539 112.271 36.9933 112.013 37.1024C111.948 37.1306 111.89 37.1725 111.843 37.2252C111.796 37.278 111.761 37.3404 111.74 37.4081C111.71 37.5514 111.736 37.7006 111.813 37.825L111.832 37.8579L111.873 37.8521C112.186 37.8379 112.498 37.8923 112.788 38.0113C112.953 38.087 113.134 38.121 113.315 38.1105C113.338 38.1084 113.361 38.1043 113.383 38.0984ZM111.908 37.7225C111.864 37.6373 111.85 37.5393 111.869 37.4451C111.886 37.3956 111.912 37.3501 111.948 37.3117C111.983 37.2733 112.026 37.2429 112.074 37.2226C112.303 37.1306 112.552 37.0964 112.797 37.123C113.043 37.1496 113.278 37.2362 113.482 37.3752C113.531 37.4325 113.566 37.5002 113.584 37.5731C113.602 37.646 113.604 37.7222 113.588 37.7958C113.565 37.8425 113.531 37.883 113.489 37.9136C113.447 37.9443 113.398 37.9642 113.346 37.9716C113.169 37.9991 112.988 37.9707 112.828 37.8903C112.536 37.7707 112.223 37.7135 111.908 37.7225Z" fill="white"/>
<path d="M110.864 38.7177C110.777 38.5937 110.743 38.4404 110.769 38.2914C110.796 38.1424 110.88 38.0099 111.003 37.9228C111.034 37.9014 111.066 37.8833 111.1 37.8689C111.521 37.7483 111.963 37.7158 112.398 37.7733C112.832 37.8309 113.25 37.9772 113.626 38.2033C113.875 38.5659 113.936 39.0093 113.393 39.149C112.851 39.2887 111.931 38.6593 110.864 38.7177Z" fill="white"/>
<path d="M113.415 39.2317C113.513 39.2158 113.606 39.1756 113.684 39.1147C113.763 39.0538 113.825 38.9742 113.865 38.8831C113.898 38.7563 113.9 38.6235 113.871 38.4958C113.842 38.3681 113.783 38.2491 113.699 38.1485C113.408 37.7227 111.657 37.4838 111.06 37.7871C110.971 37.8254 110.893 37.8825 110.829 37.9542C110.765 38.026 110.717 38.1109 110.689 38.2029C110.648 38.3964 110.684 38.5981 110.787 38.7664L110.817 38.811L110.868 38.8037C111.382 38.8008 111.891 38.8894 112.373 39.0656C112.68 39.1886 113.008 39.2487 113.338 39.2425C113.364 39.2403 113.39 39.2366 113.415 39.2317ZM110.915 38.6264C110.854 38.5098 110.836 38.3759 110.862 38.2471C110.884 38.1801 110.921 38.1187 110.969 38.0668C111.017 38.015 111.075 37.974 111.14 37.9465C111.954 37.7259 112.821 37.8339 113.555 38.2472C113.621 38.3247 113.668 38.4164 113.693 38.5151C113.718 38.6139 113.72 38.7171 113.698 38.8167C113.668 38.8806 113.622 38.936 113.565 38.978C113.508 39.02 113.442 39.0472 113.372 39.0572C113.048 39.0797 112.724 39.0252 112.426 38.8981C111.941 38.7239 111.431 38.6321 110.915 38.6264Z" fill="white"/>
<path d="M111.91 40.6628C111.974 40.6128 112.022 40.5452 112.048 40.4682C112.074 40.3913 112.077 40.3085 112.057 40.2299C111.855 40.0543 111.615 39.9281 111.356 39.8611C111.097 39.7942 110.826 39.7884 110.564 39.8442C110.009 40.0508 110.361 40.7511 110.361 40.7511C110.473 40.9075 110.621 41.0351 110.791 41.1235C110.962 41.2118 111.152 41.2584 111.344 41.2595C111.408 41.2588 111.03 40.78 111.093 40.7818C111.371 40.8017 111.65 40.7625 111.911 40.6669L111.91 40.6628Z" fill="white"/>
<path d="M111.391 41.2741C111.41 41.2335 111.386 41.1923 111.259 40.9991C111.223 40.944 111.172 40.8687 111.147 40.8227C111.415 40.8405 111.684 40.7985 111.934 40.6997C112.006 40.6462 112.061 40.5724 112.091 40.4876C112.121 40.4029 112.125 40.3111 112.102 40.2241C112.095 40.1724 112.024 40.1089 111.894 40.0356C111.492 39.7879 111.009 39.7059 110.547 39.8067C110.48 39.8289 110.419 39.8653 110.368 39.9134C110.316 39.9615 110.275 40.0202 110.248 40.0855C110.189 40.3165 110.217 40.5615 110.328 40.7729C110.443 40.9369 110.596 41.0709 110.773 41.1635C110.951 41.2561 111.148 41.3046 111.349 41.3049L111.38 41.3004L111.391 41.2741ZM111.775 40.0656C111.945 40.153 112.014 40.2184 112.017 40.237C112.035 40.3071 112.033 40.3812 112.011 40.4502C111.988 40.5192 111.946 40.5803 111.89 40.6259C111.636 40.7198 111.365 40.7579 111.095 40.7377L111.062 40.7423L111.048 40.7698C111.028 40.8089 111.06 40.8571 111.184 41.0542C111.219 41.1045 111.266 41.1779 111.29 41.2232C111.114 41.2131 110.943 41.1639 110.788 41.0792C110.633 40.9945 110.5 40.8764 110.396 40.7335C110.301 40.5428 110.275 40.3242 110.325 40.1167C110.348 40.0611 110.382 40.0111 110.426 39.9702C110.469 39.9292 110.521 39.8984 110.578 39.8799C110.63 39.8607 110.683 39.8476 110.738 39.841C111.097 39.8156 111.457 39.8923 111.774 40.0624L111.775 40.0656Z" fill="white"/>
<path d="M122.72 49.8485C122.72 49.8485 121.247 46.4094 119.138 45.7004L118.408 45.7865C118.408 45.7865 116.63 44.7424 115.917 44.1786C115.205 43.6149 113.137 41.9277 112.556 41.6333C111.597 41.3148 110.562 41.3017 109.596 41.5958C109.498 41.6273 109.418 41.6961 109.371 41.7871C109.325 41.878 109.316 41.9837 109.347 42.081C109.363 42.1302 109.388 42.1757 109.422 42.2146C109.456 42.2536 109.497 42.2851 109.544 42.3074C109.777 42.4218 110.04 42.4601 110.297 42.4168C110.297 42.4168 111.273 42.4544 111.61 42.4639L112.282 43.1381C111.719 43.1077 111.157 43.2118 110.641 43.442C110.126 43.6721 109.674 44.0217 109.32 44.4616C109.32 44.4616 108.407 44.8662 108.574 45.3912C108.741 45.9162 109.499 45.7346 109.499 45.7346C109.995 45.5648 110.467 45.3347 110.907 45.0494C111.306 44.9349 111.723 44.8919 112.137 44.9227C112.515 44.9758 112.878 45.1052 113.204 45.303C112.784 45.2879 112.363 45.3332 111.956 45.4373C111.371 45.6214 110.819 45.8937 110.317 46.2449C109.846 46.5437 110.132 47.1459 110.44 47.1249C110.799 47.0192 111.149 46.8873 111.487 46.7303C111.778 46.5696 112.098 46.4709 112.429 46.4405C112.759 46.4101 113.093 46.4486 113.407 46.5536C113.667 46.6392 114.46 47.9495 115.381 48.4114C116.084 48.6941 116.866 48.7076 117.577 48.4492C118.059 48.4385 118.539 48.5201 118.99 48.6895C120.071 49.0002 122.72 49.8485 122.72 49.8485Z" fill="white"/>
<path d="M122.795 49.8193C122.734 49.676 121.28 46.3406 119.167 45.6282L118.429 45.7071C118.22 45.584 116.623 44.6413 115.966 44.1167L115.628 43.8435C114.658 43.028 113.644 42.266 112.59 41.5611C111.613 41.2353 110.558 41.221 109.573 41.5201C109.484 41.547 109.406 41.6003 109.349 41.6729C109.291 41.7456 109.257 41.834 109.252 41.9264C109.243 42.0185 109.263 42.111 109.309 42.1914C109.355 42.2718 109.424 42.3363 109.507 42.3762C109.75 42.4966 110.025 42.5376 110.292 42.4935L111.576 42.539L112.086 43.0447C111.548 43.055 111.019 43.1803 110.533 43.4121C110.048 43.6439 109.618 43.9769 109.271 44.3888C109.14 44.4492 108.323 44.8577 108.498 45.4105C108.647 45.8844 109.231 45.8774 109.513 45.8104C110.011 45.6432 110.485 45.4136 110.925 45.1271C111.315 45.0153 111.721 44.9732 112.125 45.0029C112.389 45.0381 112.645 45.1133 112.886 45.2259C112.565 45.2358 112.247 45.2806 111.936 45.3595C111.343 45.5479 110.784 45.826 110.276 46.1841C110.161 46.2496 110.073 46.3532 110.027 46.4769C109.98 46.6006 109.979 46.7366 110.022 46.8614C110.046 46.9579 110.1 47.044 110.177 47.1065C110.254 47.169 110.35 47.2044 110.449 47.2071C110.641 47.1799 110.826 47.1167 110.994 47.0209C111.16 46.9362 111.334 46.8652 111.512 46.8087C111.596 46.7804 111.682 46.7453 111.772 46.7086C112.02 46.5862 112.291 46.5162 112.568 46.5027C112.844 46.4892 113.12 46.5327 113.379 46.6304C113.55 46.7661 113.702 46.9246 113.83 47.1015C114.241 47.6533 114.752 48.1226 115.337 48.4847C116.055 48.78 116.858 48.7961 117.587 48.5298C118.057 48.5251 118.525 48.6061 118.966 48.7689C120.033 49.0709 122.667 49.9147 122.694 49.9225L122.858 49.9753L122.795 49.8193ZM117.554 48.3802C116.861 48.6291 116.102 48.617 115.418 48.3463C114.853 47.9929 114.358 47.5376 113.958 47.0035C113.692 46.6879 113.548 46.5209 113.435 46.4839C113.158 46.3803 112.863 46.3341 112.567 46.3481C112.271 46.3622 111.981 46.4362 111.715 46.5657C111.635 46.6012 111.552 46.6323 111.468 46.659C111.283 46.7184 111.103 46.7923 110.929 46.88C110.777 46.9652 110.612 47.0233 110.44 47.0518C110.376 47.0453 110.315 47.0187 110.267 46.9759C110.219 46.933 110.186 46.876 110.172 46.8131C110.139 46.722 110.14 46.6222 110.174 46.5316C110.208 46.441 110.274 46.3655 110.358 46.3185C110.854 45.9693 111.4 45.6979 111.977 45.5136C112.375 45.4125 112.785 45.3676 113.195 45.3804L113.494 45.3994L113.25 45.2399C112.914 45.0349 112.54 44.9012 112.15 44.8469C111.718 44.8131 111.284 44.8598 110.87 44.9847C110.438 45.2655 109.973 45.4939 109.487 45.6648C109.481 45.6658 108.801 45.8305 108.655 45.3694C108.51 44.9082 109.349 44.5296 109.357 44.5285L109.384 44.5082C109.732 44.0823 110.175 43.7441 110.677 43.521C111.18 43.298 111.728 43.1962 112.277 43.2241L112.51 43.2549L111.646 42.3866L111.611 42.3824C111.28 42.3745 110.301 42.334 110.285 42.3362C110.045 42.3768 109.798 42.3408 109.579 42.2334C109.524 42.2071 109.478 42.1647 109.448 42.1118C109.417 42.0589 109.404 41.998 109.409 41.9372C109.413 41.8768 109.435 41.8189 109.473 41.7713C109.51 41.7238 109.561 41.6888 109.619 41.671C110.567 41.3813 111.581 41.3932 112.522 41.7051C113.565 42.4033 114.569 43.1569 115.531 43.9627L115.869 44.2359C116.577 44.7962 118.355 45.8421 118.373 45.8527L118.396 45.8659L119.136 45.7826C120.918 46.3957 122.259 49.0401 122.576 49.7214C121.972 49.53 119.923 48.8761 119.012 48.6197C118.55 48.4522 118.06 48.3701 117.568 48.3774L117.554 48.3802Z" fill="white"/>
<path d="M114.148 44.3493C113.299 43.9051 112.328 43.7518 111.384 43.913C110.118 44.2865 109.355 44.5347 109.347 44.5374L109.297 44.382C109.305 44.3792 110.069 44.1301 111.338 43.7546C112.323 43.5788 113.338 43.7384 114.221 44.2079L114.148 44.3493Z" fill="white"/>
<path d="M114.218 43.7492C113.76 43.5155 113.268 43.3561 112.76 43.2769C112.346 43.2151 111.925 43.2203 111.512 43.2924L111.475 43.1326C111.906 43.0556 112.347 43.0494 112.78 43.1142C113.308 43.1937 113.82 43.3588 114.296 43.603L114.218 43.7492Z" fill="white"/>
<path d="M89.4273 68.2031H88.168V72.1201H89.4273V68.2031Z" fill="white"/>
<path d="M115.799 68.3761L114.908 69.2666L118.206 72.5647L119.097 71.6742L115.799 68.3761Z" fill="white"/>
<path d="M82.4998 87.1045H142.068C142.201 87.1045 142.328 87.1572 142.422 87.2509C142.516 87.3446 142.568 87.4718 142.568 87.6043V95.5003C142.568 95.5659 142.555 95.631 142.53 95.6916C142.505 95.7522 142.468 95.8073 142.422 95.8538C142.375 95.9002 142.32 95.937 142.26 95.9621C142.199 95.9872 142.134 96.0001 142.068 96.0001H82.4998C82.4342 96.0001 82.3692 95.9872 82.3086 95.9621C82.2479 95.937 82.1928 95.9002 82.1464 95.8538C82.1 95.8073 82.0632 95.7522 82.038 95.6916C82.0129 95.631 82 95.5659 82 95.5003V87.6043C82.0002 87.4718 82.053 87.3448 82.1466 87.2511C82.2403 87.1575 82.3673 87.1047 82.4998 87.1045Z" fill="white"/>
<path d="M104.833 70.4707H104.051V86.0838H104.833V70.4707Z" fill="white"/>
<path d="M102.896 70.4707H102.113V86.0838H102.896V70.4707Z" fill="white"/>
<path d="M93.8308 86.0835H92.5714V72.8404H87.4261C86.7906 72.8411 86.1813 73.0938 85.7319 73.5432C85.2825 73.9926 85.0297 74.602 85.0291 75.2375V86.0835H83.7656V75.2367C83.7669 74.2669 84.1527 73.3372 84.8385 72.6515C85.5242 71.9657 86.4539 71.5799 87.4237 71.5786H93.8341L93.8308 86.0835Z" fill="white"/>
<path d="M123.075 86.0834H121.816V72.8404H116.405C115.839 72.8411 115.296 73.0663 114.895 73.4667C114.495 73.8671 114.27 74.4099 114.269 74.9761V86.0834H113.01V74.9761C113.011 74.076 113.369 73.2129 114.005 72.5764C114.642 71.9399 115.505 71.5819 116.405 71.5811H123.075V86.0834Z" fill="white"/>
<path d="M103.453 81.9134C104.871 81.9134 106.258 81.4928 107.437 80.7048C108.616 79.9168 109.536 78.7968 110.078 77.4863C110.621 76.1759 110.763 74.7339 110.487 73.3428C110.21 71.9516 109.527 70.6738 108.524 69.6708C107.521 68.6679 106.243 67.9848 104.852 67.7081C103.461 67.4314 102.019 67.5734 100.708 68.1162C99.3979 68.659 98.2779 69.5782 97.4899 70.7576C96.7018 71.9369 96.2813 73.3235 96.2813 74.7419C96.2811 75.6837 96.4666 76.6163 96.8269 77.4864C97.1873 78.3566 97.7155 79.1472 98.3815 79.8132C99.0475 80.4791 99.8381 81.0074 100.708 81.3678C101.578 81.7281 102.511 81.9135 103.453 81.9134ZM103.453 68.833C104.622 68.833 105.765 69.1796 106.737 69.8291C107.709 70.4785 108.466 71.4016 108.913 72.4816C109.361 73.5617 109.478 74.7501 109.25 75.8966C109.022 77.0431 108.459 78.0963 107.632 78.9229C106.806 79.7495 105.752 80.3124 104.606 80.5405C103.459 80.7686 102.271 80.6515 101.191 80.2042C100.111 79.7568 99.1878 78.9992 98.5384 78.0272C97.8889 77.0553 97.5423 75.9125 97.5423 74.7435C97.5423 73.1759 98.165 71.6726 99.2734 70.5641C100.382 69.4557 101.885 68.833 103.453 68.833Z" fill="white"/>
<path d="M131.818 72.7222H131.035V85.1297H131.818V72.7222Z" fill="white"/>
<path d="M133.704 72.7456H132.922V85.1531H133.704V72.7456Z" fill="white"/>
<path d="M142.009 75.4395H139.51V76.6988H142.009V75.4395Z" fill="white"/>
<path d="M132.344 86.108C134.057 86.1072 135.701 85.4258 136.912 84.2136C138.123 83.0014 138.804 81.3576 138.803 79.6439C138.803 77.9301 138.122 76.2867 136.91 75.075C135.698 73.8633 134.054 73.1826 132.341 73.1826C130.627 73.1826 128.983 73.8633 127.771 75.075C126.56 76.2867 125.878 77.9301 125.878 79.6439C125.878 81.3576 126.558 83.0014 127.769 84.2136C128.981 85.4258 130.624 86.1072 132.338 86.108H132.344ZM132.339 71.7134C133.639 71.7134 134.908 72.0986 135.988 72.8203C137.069 73.542 137.91 74.5678 138.408 75.7679C138.905 76.9681 139.035 78.2887 138.781 79.5627C138.528 80.8368 137.902 82.0071 136.984 82.9257C136.065 83.8442 134.895 84.4698 133.621 84.7232C132.347 84.9766 131.026 84.8465 129.826 84.3494C128.626 83.8523 127.6 83.0105 126.878 81.9304C126.157 80.8503 125.771 79.5804 125.771 78.2814C125.772 76.5395 126.464 74.869 127.695 73.6373C128.927 72.4056 130.598 71.7136 132.339 71.7134Z" fill="white"/>
<path d="M94.7404 93.3827C94.4664 93.5804 94.1348 93.682 93.7971 93.6718C93.5656 93.6774 93.3355 93.6342 93.1219 93.5448C92.9083 93.4554 92.7159 93.322 92.5574 93.1532C92.1987 92.7377 92.0021 92.2067 92.0036 91.6578H96.4237C96.4237 91.5386 96.4294 91.4504 96.4294 91.39C96.4814 90.5625 96.2116 89.747 95.6764 89.1138C95.4297 88.8476 95.1287 88.6376 94.7937 88.498C94.4588 88.3583 94.0977 88.2923 93.735 88.3044C93.3624 88.291 92.9912 88.3579 92.6465 88.5003C92.3019 88.6428 91.9919 88.8575 91.7374 89.1301C91.1909 89.7759 90.915 90.6077 90.9672 91.452C90.9164 92.2718 91.1897 93.0787 91.7284 93.6988C92.2333 94.1572 92.876 94.4353 93.5558 94.4894C94.2356 94.5434 94.9142 94.3705 95.4853 93.9977C95.9404 93.6443 96.2613 93.1461 96.3951 92.5856L95.357 92.4582C95.2474 92.8206 95.0328 93.1423 94.7404 93.3827ZM92.0616 90.8305C92.0721 90.3672 92.2573 89.9249 92.5802 89.5924C92.7329 89.4403 92.9148 89.3209 93.115 89.2412C93.3152 89.1614 93.5294 89.1231 93.7448 89.1285C93.983 89.1225 94.2193 89.1718 94.4352 89.2724C94.6512 89.373 94.8409 89.5222 94.9895 89.7083C95.2266 90.0352 95.3593 90.4261 95.3701 90.8297H92.0616V90.8305Z" fill="black"/>
<path d="M118.176 92.5937L119.169 92.4369C119.202 92.7905 119.368 93.1182 119.635 93.3525C119.943 93.5815 120.322 93.6941 120.704 93.6702C121.069 93.6984 121.432 93.5988 121.731 93.3884C121.834 93.3112 121.917 93.2115 121.975 93.0969C122.033 92.9824 122.064 92.8561 122.066 92.7277C122.068 92.6202 122.041 92.5141 121.989 92.42C121.937 92.326 121.861 92.2473 121.769 92.1919C121.443 92.036 121.098 91.9216 120.743 91.8513C120.219 91.735 119.707 91.5735 119.211 91.3687C118.949 91.2524 118.727 91.0615 118.573 90.8199C118.418 90.5782 118.338 90.2964 118.343 90.0096C118.341 89.7534 118.403 89.5006 118.524 89.2746C118.643 89.0519 118.812 88.8598 119.018 88.7135C119.213 88.5797 119.429 88.4805 119.657 88.4203C119.939 88.3387 120.231 88.298 120.524 88.2995C120.941 88.2915 121.356 88.3596 121.749 88.5004C122.056 88.6021 122.326 88.7911 122.527 89.0443C122.712 89.3191 122.831 89.6335 122.873 89.9623L121.893 90.0946C121.862 89.8152 121.723 89.5591 121.506 89.3808C121.241 89.1955 120.921 89.1062 120.598 89.1276C120.253 89.0982 119.908 89.1786 119.611 89.3571C119.522 89.4165 119.449 89.496 119.398 89.5892C119.346 89.6823 119.318 89.7864 119.314 89.8929C119.313 90.0207 119.357 90.1449 119.438 90.2441C119.54 90.3661 119.672 90.4586 119.822 90.5119C119.923 90.5495 120.219 90.6344 120.711 90.7667C121.216 90.8913 121.712 91.0471 122.198 91.2331C122.464 91.3425 122.694 91.5255 122.86 91.7607C123.027 92.0153 123.111 92.3155 123.1 92.6199C123.098 92.9572 122.997 93.2864 122.807 93.5656C122.599 93.8722 122.305 94.1108 121.962 94.2517C121.567 94.4196 121.141 94.503 120.712 94.4967C120.087 94.5398 119.467 94.3709 118.951 94.0173C118.524 93.6566 118.248 93.1494 118.177 92.5954L118.176 92.5937Z" fill="black"/>
<path d="M82.8672 92.5937L83.8603 92.4369C83.893 92.7905 84.0598 93.1182 84.3266 93.3525C84.6342 93.5815 85.013 93.6941 85.3957 93.6702C85.7603 93.6984 86.1233 93.5988 86.4223 93.3884C86.5247 93.311 86.6081 93.2112 86.6661 93.0968C86.7242 92.9823 86.7553 92.856 86.7572 92.7277C86.7592 92.6202 86.7328 92.5141 86.6808 92.42C86.6288 92.326 86.5529 92.2473 86.4607 92.1919C86.1338 92.0366 85.789 91.9222 85.4341 91.8513C84.9107 91.735 84.3983 91.5735 83.9028 91.3687C83.6406 91.2524 83.4185 91.0615 83.2641 90.8199C83.1097 90.5782 83.0299 90.2964 83.0346 90.0097C83.0322 89.7534 83.0943 89.5006 83.2151 89.2746C83.3342 89.0519 83.5033 88.8598 83.7092 88.7135C83.9039 88.5797 84.1202 88.4805 84.3487 88.4203C84.6303 88.3387 84.9221 88.298 85.2152 88.2995C85.6324 88.2915 86.0475 88.3596 86.4403 88.5004C86.7471 88.6021 87.0176 88.7911 87.2186 89.0443C87.4039 89.3191 87.5221 89.6335 87.5641 89.9623L86.584 90.0946C86.5531 89.8152 86.4142 89.5591 86.1969 89.3808C85.9321 89.1955 85.612 89.1062 85.2896 89.1276C84.9445 89.0983 84.5989 89.1786 84.3021 89.3571C84.2137 89.4165 84.1407 89.496 84.0892 89.5892C84.0376 89.6823 84.009 89.7864 84.0057 89.8929C84.0048 90.0207 84.0484 90.1449 84.129 90.2441C84.231 90.3661 84.3638 90.4586 84.5137 90.5119C84.6144 90.5495 84.9106 90.6344 85.4023 90.7667C85.9072 90.8913 86.4039 91.0471 86.8895 91.2331C87.1557 91.3421 87.3852 91.5249 87.551 91.7599C87.7181 92.0145 87.802 92.3147 87.7911 92.6191C87.7897 92.9563 87.688 93.2856 87.4988 93.5648C87.2903 93.8714 86.9964 94.1099 86.6535 94.2508C86.2583 94.4187 85.8324 94.5022 85.4031 94.4959C84.7789 94.539 84.1584 94.3701 83.6422 94.0165C83.2146 93.6573 82.9382 93.1502 82.868 92.5962L82.8672 92.5937Z" fill="black"/>
<path d="M129.836 93.3827C129.562 93.5802 129.231 93.6818 128.893 93.6718C128.662 93.6772 128.432 93.6338 128.219 93.5445C128.006 93.4551 127.813 93.3218 127.655 93.1532C127.296 92.7377 127.1 92.2067 127.101 91.6578H131.522C131.522 91.5386 131.527 91.4504 131.527 91.39C131.579 90.5625 131.309 89.747 130.774 89.1138C130.527 88.8476 130.226 88.6376 129.891 88.498C129.556 88.3583 129.195 88.2923 128.833 88.3044C128.46 88.291 128.089 88.3579 127.744 88.5003C127.4 88.6428 127.09 88.8575 126.835 89.1301C126.289 89.7759 126.013 90.6077 126.065 91.452C126.014 92.2718 126.287 93.0787 126.826 93.6988C127.331 94.1572 127.974 94.4353 128.653 94.4894C129.333 94.5434 130.012 94.3705 130.583 93.9977C131.038 93.6443 131.359 93.1461 131.493 92.5856L130.454 92.4582C130.343 92.8204 130.129 93.1419 129.836 93.3827ZM127.158 90.8305C127.168 90.3672 127.353 89.9249 127.676 89.5924C127.829 89.4405 128.01 89.3211 128.21 89.2414C128.41 89.1617 128.624 89.1233 128.839 89.1285C129.077 89.1225 129.314 89.1718 129.53 89.2724C129.746 89.373 129.935 89.5222 130.084 89.7083C130.321 90.0356 130.454 90.4271 130.465 90.8313H127.155L127.158 90.8305Z" fill="black"/>
<path d="M101.422 88.189H101.456C101.448 88.1897 101.44 88.1897 101.433 88.189C101.418 88.189 101.418 88.189 101.422 88.189Z" fill="#6A101A"/>
<path d="M111.953 91.3987V90.3271L112.884 90.8645L113.817 91.4019L112.884 91.9393L111.953 92.4767V91.3987Z" fill="black"/>
<path d="M115.572 91.2812C115.572 90.6852 115.396 90.1025 115.064 89.6069C114.733 89.1113 114.263 88.7251 113.712 88.497C113.161 88.2689 112.555 88.2092 111.971 88.3255C111.386 88.4418 110.849 88.7288 110.428 89.1502C110.006 89.5717 109.719 90.1087 109.603 90.6933C109.487 91.2779 109.546 91.8838 109.774 92.4345C110.002 92.9852 110.389 93.4559 110.884 93.787C111.38 94.1182 111.963 94.2949 112.559 94.2949C113.358 94.2949 114.124 93.9774 114.69 93.4122C115.255 92.847 115.572 92.0805 115.572 91.2812ZM112.559 89.0516C113 89.0516 113.431 89.1825 113.798 89.4277C114.165 89.6728 114.451 90.0213 114.62 90.429C114.789 90.8367 114.833 91.2854 114.747 91.7182C114.661 92.151 114.448 92.5486 114.136 92.8606C113.824 93.1727 113.427 93.3852 112.994 93.4713C112.561 93.5574 112.112 93.5132 111.705 93.3443C111.297 93.1754 110.949 92.8894 110.703 92.5225C110.458 92.1556 110.327 91.7242 110.327 91.2829C110.327 90.9899 110.385 90.6997 110.497 90.429C110.609 90.1583 110.774 89.9123 110.981 89.7051C111.188 89.4979 111.434 89.3336 111.705 89.2215C111.975 89.1093 112.266 89.0516 112.559 89.0516Z" fill="black"/>
<path d="M115.763 88.251H114.926V94.3118H115.763V88.251Z" fill="black"/>
<path d="M106.198 88.4357L105.182 91.8659L104.842 93.0093L104.549 91.8724L103.66 88.4341H102.762L104.313 94.3618H105.321L107.174 88.4341L106.198 88.4357Z" fill="black"/>
<path d="M104.074 94.3612H103.398L101.842 88.4277L102.516 88.4335L104.074 94.3612Z" fill="black"/>
<path d="M102.138 90.2308L101.683 91.9059C101.493 92.6578 101.39 93.0662 101.375 93.131L101.024 91.8577L100.081 88.4365H99.043L100.857 94.3634H101.906L102.565 91.8594L102.138 90.2308Z" fill="black"/>
<path d="M140.954 88.436L139.938 91.8662L139.597 93.0096L139.301 91.8777L138.412 88.4393H137.514L139.07 94.3662H140.078L141.931 88.4385L140.954 88.436Z" fill="black"/>
<path d="M138.829 94.3612H138.156L136.6 88.4277L137.273 88.4335L138.829 94.3612Z" fill="black"/>
<path d="M136.897 90.2308L136.441 91.9059C136.251 92.6578 136.148 93.0662 136.134 93.131L135.783 91.8577L134.84 88.4365H133.801L135.615 94.3634H136.664L137.323 91.8594L136.897 90.2308Z" fill="black"/>
</svg>
