<svg width="224" height="111" viewBox="0 0 224 111" fill="none" xmlns="http://www.w3.org/2000/svg">
<path d="M0 10C0 4.47715 4.47715 0 10 0H214C219.523 0 224 4.47715 224 10V101C224 106.523 219.523 111 214 111H10C4.47715 111 0 106.523 0 101V10Z" fill="white" fill-opacity="0.1"/>
<path d="M161.894 41.3488H155.105C154.39 34.9814 151.373 29.0945 146.623 24.7948C141.872 20.4951 135.715 18.0788 129.308 18H126.987C114.628 18 104.021 25.1253 99.9128 35.0939H86.9503V23.315H71.9453V18H67.1177C66.4452 17.9985 65.7791 18.1298 65.1575 18.3865C64.5359 18.6431 63.9711 19.02 63.4955 19.4955C63.02 19.9711 62.6431 20.5359 62.3865 21.1575C62.1298 21.7791 61.9985 22.4452 62 23.1177V28.2006H77.005V35.0358L62 35.0939V45.0392H77.005V60.4387C77.005 63.0764 78.0528 65.606 79.9179 67.4711C81.783 69.3362 84.3126 70.384 86.9503 70.384V45.0392H98.1257C98.5899 59.139 111.378 70.4768 126.987 70.4768H129.308C136.214 70.3944 142.81 67.5944 147.667 62.6833C152.524 57.7722 155.25 51.1455 155.256 44.2384C155.256 43.9831 155.256 43.7394 155.256 43.4957H161.906C162.171 43.4681 162.417 43.3431 162.595 43.1448C162.774 42.9466 162.873 42.6892 162.873 42.4223C162.873 42.1554 162.774 41.898 162.595 41.6997C162.417 41.5015 162.171 41.3765 161.906 41.3488H161.894ZM152.877 44.2384C152.865 50.5116 150.387 56.5286 145.978 60.9905C141.568 65.4523 135.58 68.001 129.308 68.0862V67.9006C129.308 67.285 129.063 66.6947 128.628 66.2594C128.193 65.8241 127.602 65.5796 126.987 65.5796C113.862 65.5796 103.185 56.0057 103.185 44.2268C103.185 32.448 113.908 22.874 126.987 22.874C127.288 22.8833 127.589 22.832 127.87 22.7231C128.151 22.6141 128.407 22.4497 128.624 22.2398C128.84 22.0298 129.012 21.7784 129.13 21.5006C129.247 21.2228 129.308 20.9243 129.308 20.6227V20.3906C135.08 20.4678 140.629 22.6333 144.928 26.4864C149.227 30.3395 151.985 35.6193 152.691 41.3488H146.193C145.927 41.3765 145.681 41.5015 145.503 41.6997C145.324 41.898 145.225 42.1554 145.225 42.4223C145.225 42.6892 145.324 42.9466 145.503 43.1448C145.681 43.3431 145.927 43.4681 146.193 43.4957H152.854C152.865 43.7394 152.877 43.9831 152.877 44.2384Z" fill="white"/>
<mask id="mask0_1850_4944" style="mask-type:luminance" maskUnits="userSpaceOnUse" x="62" y="18" width="101" height="53">
<path d="M161.894 41.3488H155.105C154.39 34.9814 151.373 29.0945 146.623 24.7948C141.872 20.4951 135.715 18.0788 129.308 18H126.987C114.628 18 104.021 25.1253 99.9128 35.0939H86.9503V23.315H71.9453V18H67.1177C66.4452 17.9985 65.7791 18.1298 65.1575 18.3865C64.5359 18.6431 63.9711 19.02 63.4955 19.4955C63.02 19.9711 62.6431 20.5359 62.3865 21.1575C62.1298 21.7791 61.9985 22.4452 62 23.1177V28.2006H77.005V35.0358L62 35.0939V45.0392H77.005V60.4387C77.005 63.0764 78.0528 65.606 79.9179 67.4711C81.783 69.3362 84.3126 70.384 86.9503 70.384V45.0392H98.1257C98.5899 59.139 111.378 70.4768 126.987 70.4768H129.308C136.214 70.3944 142.81 67.5944 147.667 62.6833C152.524 57.7722 155.25 51.1455 155.256 44.2384C155.256 43.9831 155.256 43.7394 155.256 43.4957H161.906C162.171 43.4681 162.417 43.3431 162.595 43.1448C162.774 42.9466 162.873 42.6892 162.873 42.4223C162.873 42.1554 162.774 41.898 162.595 41.6997C162.417 41.5015 162.171 41.3765 161.906 41.3488H161.894ZM152.877 44.2384C152.865 50.5116 150.387 56.5286 145.978 60.9905C141.568 65.4523 135.58 68.001 129.308 68.0862V67.9006C129.308 67.285 129.063 66.6947 128.628 66.2594C128.193 65.8241 127.602 65.5796 126.987 65.5796C113.862 65.5796 103.185 56.0057 103.185 44.2268C103.185 32.448 113.908 22.874 126.987 22.874C127.288 22.8833 127.589 22.832 127.87 22.7231C128.151 22.6141 128.407 22.4497 128.624 22.2398C128.84 22.0298 129.012 21.7784 129.13 21.5006C129.247 21.2228 129.308 20.9243 129.308 20.6227V20.3906C135.08 20.4678 140.629 22.6333 144.928 26.4864C149.227 30.3395 151.985 35.6193 152.691 41.3488H146.193C145.927 41.3765 145.681 41.5015 145.503 41.6997C145.324 41.898 145.225 42.1554 145.225 42.4223C145.225 42.6892 145.324 42.9466 145.503 43.1448C145.681 43.3431 145.927 43.4681 146.193 43.4957H152.854C152.865 43.7394 152.877 43.9831 152.877 44.2384Z" fill="white"/>
</mask>
<g mask="url(#mask0_1850_4944)">
<path d="M103.23 67.9585L103.381 68.0861H103.23V67.9585Z" fill="white"/>
<path d="M103.23 67.0649L104.472 68.0862H103.381L103.23 67.9585V67.0649Z" fill="white"/>
<path d="M103.23 66.1714L105.563 68.0862H104.472L103.23 67.065V66.1714Z" fill="white"/>
<path d="M103.23 65.2783L106.654 68.0867H105.563L103.23 66.1719V65.2783Z" fill="white"/>
<path d="M103.23 64.3848L107.733 68.0867H106.654L103.23 65.2783V64.3848Z" fill="white"/>
<path d="M103.23 63.4912L108.824 68.0867H107.733L103.23 64.3848V63.4912Z" fill="white"/>
<path d="M103.23 62.5972L109.915 68.0862H108.824L103.23 63.4907V62.5972Z" fill="white"/>
<path d="M103.23 61.7036L111.006 68.0862H109.915L103.23 62.5972V61.7036Z" fill="white"/>
<path d="M103.23 60.8101L112.097 68.0863H111.006L103.23 61.7036V60.8101Z" fill="white"/>
<path d="M103.23 59.9165L113.187 68.0863H112.097L103.23 60.8101V59.9165Z" fill="white"/>
<path d="M103.23 59.0229L114.278 68.0863H113.187L103.23 59.9165V59.0229Z" fill="white"/>
<path d="M103.23 58.1294L115.369 68.0863H114.278L103.23 59.023V58.1294Z" fill="white"/>
<path d="M103.23 57.2358L116.46 68.0863H115.369L103.23 58.1294V57.2358Z" fill="white"/>
<path d="M103.23 56.3423L117.551 68.0863H116.46L103.23 57.2359V56.3423Z" fill="white"/>
<path d="M103.23 55.4487L118.63 68.0863H117.551L103.23 56.3423V55.4487Z" fill="white"/>
<path d="M103.23 54.5552L119.721 68.0864H118.63L103.23 55.4487V54.5552Z" fill="white"/>
<path d="M103.23 53.6616L120.812 68.0864H119.721L103.23 54.5552V53.6616Z" fill="white"/>
<path d="M103.23 52.7681L121.903 68.0864H120.812L103.23 53.6616V52.7681Z" fill="white"/>
<path d="M103.23 51.8745L122.993 68.0864H121.903L103.23 52.7681V51.8745Z" fill="white"/>
<path d="M103.23 50.9805L124.084 68.0859H122.993L103.23 51.874V50.9805Z" fill="white"/>
<path d="M103.23 50.0869L125.175 68.0859H124.084L103.23 50.9805V50.0869Z" fill="white"/>
<path d="M103.23 49.1934L126.266 68.0859H125.175L103.23 50.0869V49.1934Z" fill="white"/>
<path d="M103.23 48.2998L127.357 68.086H126.266L103.23 49.1934V48.2998Z" fill="white"/>
<path d="M103.23 47.4062L128.448 68.086H127.357L103.23 48.2998V47.4062Z" fill="white"/>
<path d="M103.23 46.5127L129.527 68.086H128.448L103.23 47.4063V46.5127Z" fill="white"/>
<path d="M103.23 45.6191L130.618 68.086H129.527L103.23 46.5127V45.6191Z" fill="white"/>
<path d="M103.23 44.7256L131.709 68.086H130.618L103.23 45.6192V44.7256Z" fill="white"/>
<path d="M103.23 43.832L132.799 68.086H131.709L103.23 44.7256V43.832Z" fill="white"/>
<path d="M103.23 42.939L133.89 68.0865H132.799L103.23 43.8325V42.939Z" fill="white"/>
<path d="M103.23 42.0454L134.981 68.0865H133.89L103.23 42.939V42.0454Z" fill="white"/>
<path d="M103.23 41.1519L136.072 68.0865H134.981L103.23 42.0454V41.1519Z" fill="white"/>
<path d="M103.23 40.2583L137.163 68.0866H136.072L103.23 41.1519V40.2583Z" fill="white"/>
<path d="M103.23 39.3647L138.254 68.0866H137.163L103.23 40.2583V39.3647Z" fill="white"/>
<path d="M103.23 38.4712L139.333 68.0866H138.254L103.23 39.3648V38.4712Z" fill="white"/>
<path d="M103.23 37.5776L140.424 68.0866H139.333L103.23 38.4712V37.5776Z" fill="white"/>
<path d="M103.23 36.6719L141.515 68.086H140.424L103.23 37.577V36.6719Z" fill="white"/>
<path d="M103.23 35.7783L142.605 68.086H141.515L103.23 36.6719V35.7783Z" fill="white"/>
<path d="M103.23 34.8848L143.696 68.086H142.605L103.23 35.7783V34.8848Z" fill="white"/>
<path d="M103.23 34.0029L144.694 68.0049L144.625 68.0862H143.696L103.23 34.8849V34.0029Z" fill="white"/>
<path d="M103.23 33.1094L145.135 67.4711L144.694 68.005L103.23 34.0029V33.1094Z" fill="white"/>
<path d="M103.23 32.2046L145.576 66.9377L145.135 67.4715L103.23 33.1098V32.2046Z" fill="white"/>
<path d="M103.23 31.7168L103.428 31.4731L146.006 66.4035L145.576 66.9374L103.23 32.2042V31.7168Z" fill="white"/>
<path d="M103.865 30.9314L103.424 31.4697L146.008 66.3986L146.449 65.8603L103.865 30.9314Z" fill="white"/>
<path d="M104.305 30.4118L103.863 30.9502L146.447 65.8791L146.889 65.3407L104.305 30.4118Z" fill="white"/>
<path d="M104.74 29.8718L104.299 30.4102L146.883 65.339L147.324 64.8007L104.74 29.8718Z" fill="white"/>
<path d="M105.178 29.3318L104.736 29.8701L147.32 64.799L147.762 64.2606L105.178 29.3318Z" fill="white"/>
<path d="M105.623 28.803L105.182 29.3413L147.765 64.2702L148.207 63.7318L105.623 28.803Z" fill="white"/>
<path d="M106.053 28.2712L105.611 28.8096L148.195 63.7385L148.637 63.2001L106.053 28.2712Z" fill="white"/>
<path d="M106.498 27.7317L106.057 28.27L148.64 63.1989L149.082 62.6606L106.498 27.7317Z" fill="white"/>
<path d="M106.934 27.2029L106.492 27.7412L149.076 62.6701L149.517 62.1317L106.934 27.2029Z" fill="white"/>
<path d="M107.383 26.6623L106.941 27.2007L149.525 62.1296L149.967 61.5912L107.383 26.6623Z" fill="white"/>
<path d="M107.819 26.1223L107.377 26.6606L149.961 61.5895L150.402 61.0512L107.819 26.1223Z" fill="white"/>
<path d="M108.246 25.6028L107.805 26.1411L150.388 61.07L150.83 60.5316L108.246 25.6028Z" fill="white"/>
<path d="M108.694 25.0617L108.252 25.6001L150.836 60.529L151.277 59.9906L108.694 25.0617Z" fill="white"/>
<path d="M109.129 24.5222L108.688 25.0605L151.271 59.9894L151.713 59.4511L109.129 24.5222Z" fill="white"/>
<path d="M109.574 23.9934L109.133 24.5317L151.717 59.4606L152.158 58.9223L109.574 23.9934Z" fill="white"/>
<path d="M110.002 23.4616L109.561 24L152.144 58.9289L152.586 58.3905L110.002 23.4616Z" fill="white"/>
<path d="M109.996 23.4659L110.437 22.9321L152.876 57.7349V58.0366L152.586 58.3963L109.996 23.4659Z" fill="white"/>
<path d="M110.439 22.9323L110.88 22.3984L152.878 56.8414V57.735L110.439 22.9323Z" fill="white"/>
<path d="M110.879 22.3981L111.32 21.8643L152.877 55.9475V56.8411L110.879 22.3981Z" fill="white"/>
<path d="M111.32 21.8644L111.75 21.3306L152.877 55.0541V55.9476L111.32 21.8644Z" fill="white"/>
<path d="M111.748 21.3307L112.189 20.7969L152.875 54.1606V55.0542L111.748 21.3307Z" fill="white"/>
<path d="M112.191 20.7968L112.516 20.3906H112.795L152.878 53.267V54.1605L112.191 20.7968Z" fill="white"/>
<path d="M113.884 20.3906L152.876 52.3734V53.267L112.793 20.3906H113.884Z" fill="white"/>
<path d="M114.978 20.3906L152.879 51.4798V52.3734L113.887 20.3906H114.978Z" fill="white"/>
<path d="M116.067 20.3906L152.878 50.5863V51.4798L114.977 20.3906H116.067Z" fill="white"/>
<path d="M117.146 20.3906L152.877 49.6927V50.5863L116.066 20.3906H117.146Z" fill="white"/>
<path d="M118.235 20.3906L152.876 48.7991V49.6927L117.145 20.3906H118.235Z" fill="white"/>
<path d="M119.329 20.3906L152.879 47.9056V48.7991L118.238 20.3906H119.329Z" fill="white"/>
<path d="M120.419 20.3906L152.878 47.012V47.9056L119.328 20.3906H120.419Z" fill="white"/>
<path d="M121.509 20.3906L152.877 46.1184V47.012L120.418 20.3906H121.509Z" fill="white"/>
<path d="M122.599 20.3906L152.876 45.2249V46.1184L121.508 20.3906H122.599Z" fill="white"/>
<path d="M123.692 20.3906L152.878 44.3313V45.2249L122.602 20.3906H123.692Z" fill="white"/>
<path d="M124.782 20.3906L152.877 43.4377V44.3313L123.691 20.3906H124.782Z" fill="white"/>
<path d="M125.872 20.3906L152.876 42.5442V43.4377L124.781 20.3906H125.872Z" fill="white"/>
<path d="M126.962 20.3906L152.875 41.6506V42.5442L125.871 20.3906H126.962Z" fill="white"/>
<path d="M128.044 20.3906L152.878 40.757V41.6506L126.965 20.3906H128.044Z" fill="white"/>
<path d="M129.134 20.3906L152.877 39.8634V40.757L128.043 20.3906H129.134Z" fill="white"/>
<path d="M130.224 20.3906L152.876 38.9699V39.8634L129.133 20.3906H130.224Z" fill="white"/>
<path d="M131.314 20.3906L152.875 38.0763V38.9699L130.223 20.3906H131.314Z" fill="white"/>
<path d="M132.407 20.3906L152.878 37.1711V38.0763L131.316 20.3906H132.407Z" fill="white"/>
<path d="M133.497 20.3906L152.877 36.2892V37.1711L132.406 20.3906H133.497Z" fill="white"/>
<path d="M134.587 20.3906L152.876 35.384V36.2892L133.496 20.3906H134.587Z" fill="white"/>
<path d="M135.679 20.3906L152.877 34.4904V35.384L134.588 20.3906H135.679Z" fill="white"/>
<path d="M136.771 20.3906L152.878 33.6085V34.4904L135.68 20.3906H136.771Z" fill="white"/>
<path d="M137.849 20.3906L152.877 32.7033V33.6085L136.77 20.3906H137.849Z" fill="white"/>
<path d="M138.939 20.3906L152.876 31.8097V32.7033L137.848 20.3906H138.939Z" fill="white"/>
<path d="M152.879 31.8097L138.941 20.3906H152.879V31.8097Z" fill="white"/>
<path d="M62 67.8662L65.1913 70.4773H62V67.8662Z" fill="white"/>
<path d="M62 67.5176L65.6091 70.4768H65.1913L62 67.8657V67.5176Z" fill="white"/>
<path d="M62 67.1694L66.0385 70.4768H65.6091L62 67.5176V67.1694Z" fill="white"/>
<path d="M62 66.8096L66.4678 70.4767H66.0385L62 67.1693V66.8096Z" fill="white"/>
<path d="M62 66.4731L66.8856 70.4768H66.4678L62 66.8097V66.4731Z" fill="white"/>
<path d="M62 66.1133L67.315 70.4767H66.8856L62 66.473V66.1133Z" fill="white"/>
<path d="M62 65.7656L67.7328 70.4772H67.315L62 66.1138V65.7656Z" fill="white"/>
<path d="M62 65.417L68.1621 70.4767H67.7328L62 65.7651V65.417Z" fill="white"/>
<path d="M62 65.0688L68.5915 70.4767H68.1621L62 65.417V65.0688Z" fill="white"/>
<path d="M62 64.7207L69.0093 70.4767H68.5915L62 65.0689V64.7207Z" fill="white"/>
<path d="M62 64.3726L69.4387 70.4767H69.0093L62 64.7207V64.3726Z" fill="white"/>
<path d="M62 64.0249L69.868 70.4772H69.4387L62 64.373V64.0249Z" fill="white"/>
<path d="M62 63.6763L70.2858 70.4767H69.868L62 64.0244V63.6763Z" fill="white"/>
<path d="M62 63.3281L70.7152 70.4767H70.2858L62 63.6763V63.3281Z" fill="white"/>
<path d="M62 62.98L71.1446 70.4767H70.7152L62 63.3281V62.98Z" fill="white"/>
<path d="M62 62.6318L71.5623 70.4767H71.1446L62 62.98V62.6318Z" fill="white"/>
<path d="M62 62.2842L71.9917 70.4772H71.5623L62 62.6323V62.2842Z" fill="white"/>
<path d="M62 61.9355L72.4095 70.4767H71.9917L62 62.2837V61.9355Z" fill="white"/>
<path d="M62 61.5874L72.8389 70.4767H72.4095L62 61.9355V61.5874Z" fill="white"/>
<path d="M62 61.2393L73.2682 70.4767H72.8389L62 61.5874V61.2393Z" fill="white"/>
<path d="M62 60.8911L73.686 70.4767H73.2682L62 61.2393V60.8911Z" fill="white"/>
<path d="M62 60.5435L74.1154 70.4772H73.686L62 60.8916V60.5435Z" fill="white"/>
<path d="M62 60.1836L74.5448 70.477H74.1154L62 60.5433V60.1836Z" fill="white"/>
<path d="M62 59.835L74.9625 70.4765H74.5448L62 60.1831V59.835Z" fill="white"/>
<path d="M62 59.4873L75.3919 70.477H74.9625L62 59.8354V59.4873Z" fill="white"/>
<path d="M62 59.1392L75.8097 70.477H75.3919L62 59.4873V59.1392Z" fill="white"/>
<path d="M62 58.7905L76.2391 70.4765H75.8097L62 59.1387V58.7905Z" fill="white"/>
<path d="M62 58.4429L76.6684 70.477H76.2391L62 58.791V58.4429Z" fill="white"/>
<path d="M62 58.0942L77.0862 70.4765H76.6684L62 58.4424V58.0942Z" fill="white"/>
<path d="M62 57.7466L77.5156 70.477H77.0862L62 58.0947V57.7466Z" fill="white"/>
<path d="M62 57.3984L77.945 70.477H77.5156L62 57.7466V57.3984Z" fill="white"/>
<path d="M62 57.0498L78.3627 70.4765H77.945L62 57.3979V57.0498Z" fill="white"/>
<path d="M62 56.7021L78.7921 70.477H78.3627L62 57.0503V56.7021Z" fill="white"/>
<path d="M62 56.3535L79.2215 70.4765H78.7921L62 56.7017V56.3535Z" fill="white"/>
<path d="M62 56.0059L79.6393 70.477H79.2215L62 56.354V56.0059Z" fill="white"/>
<path d="M62 55.6577L80.0686 70.477H79.6393L62 56.0059V55.6577Z" fill="white"/>
<path d="M62 55.3091L80.498 70.4765H80.0686L62 55.6572V55.3091Z" fill="white"/>
<path d="M62 54.9614L80.9158 70.477H80.498L62 55.3096V54.9614Z" fill="white"/>
<path d="M62 54.6128L81.3452 70.4765H80.9158L62 54.9609V54.6128Z" fill="white"/>
<path d="M62 54.2651L81.7745 70.477H81.3452L62 54.6133V54.2651Z" fill="white"/>
<path d="M62 53.917L82.1923 70.477H81.7745L62 54.2651V53.917Z" fill="white"/>
<path d="M62 53.5571L82.6217 70.4769H82.1923L62 53.9169V53.5571Z" fill="white"/>
<path d="M62 53.2085L83.0395 70.4764H82.6217L62 53.5566V53.2085Z" fill="white"/>
<path d="M62 52.8608L83.4688 70.4769H83.0395L62 53.209V52.8608Z" fill="white"/>
<path d="M62 52.5127L83.8982 70.4769H83.4688L62 52.8608V52.5127Z" fill="white"/>
<path d="M62 52.1646L84.316 70.4769H83.8982L62 52.5127V52.1646Z" fill="white"/>
<path d="M62 51.8164L84.7454 70.4769H84.316L62 52.1646V51.8164Z" fill="white"/>
<path d="M62 51.4678L85.1747 70.4764H84.7454L62 51.8159V51.4678Z" fill="white"/>
<path d="M62 51.1201L85.5925 70.4769H85.1747L62 51.4683V51.1201Z" fill="white"/>
<path d="M62 50.772L86.0219 70.4769H85.5925L62 51.1201V50.772Z" fill="white"/>
<path d="M62 50.4238L86.4513 70.4769H86.0219L62 50.772V50.4238Z" fill="white"/>
<path d="M62 50.0757L86.869 70.4769H86.4513L62 50.4238V50.0757Z" fill="white"/>
<path d="M62 49.7271L87.2984 70.4764H86.869L62 50.0752V49.7271Z" fill="white"/>
<path d="M62 49.3794L87.7162 70.4769H87.2984L62 49.7275V49.3794Z" fill="white"/>
<path d="M62 49.0312L88.1456 70.4769H87.7162L62 49.3794V49.0312Z" fill="white"/>
<path d="M62 48.6831L88.5749 70.4769H88.1456L62 49.0312V48.6831Z" fill="white"/>
<path d="M62 48.335L88.9927 70.4769H88.5749L62 48.6831V48.335Z" fill="white"/>
<path d="M62 47.9863L89.4221 70.4764H88.9927L62 48.3345V47.9863Z" fill="white"/>
<path d="M62 47.6387L89.8515 70.4769H89.4221L62 47.9868V47.6387Z" fill="white"/>
<path d="M62 47.2905L90.2692 70.4769H89.8515L62 47.6387V47.2905Z" fill="white"/>
<path d="M62 46.9312L90.6986 70.4773H90.2692L62 47.2909V46.9312Z" fill="white"/>
<path d="M62 46.5942L91.1164 70.4769H90.6986L62 46.9308V46.5942Z" fill="white"/>
<path d="M62 46.2344L91.5458 70.4768H91.1164L62 46.5941V46.2344Z" fill="white"/>
<path d="M62 45.8862L91.9751 70.4768H91.5458L62 46.2344V45.8862Z" fill="white"/>
<path d="M62 45.5381L92.3929 70.4768H91.9751L62 45.8862V45.5381Z" fill="white"/>
<path d="M62 45.1904L92.8223 70.4772H92.3929L62 45.5386V45.1904Z" fill="white"/>
<path d="M62 44.8418L93.2517 70.4768H92.8223L62 45.1899V44.8418Z" fill="white"/>
<path d="M62 44.4937L93.6694 70.4768H93.2517L62 44.8418V44.4937Z" fill="white"/>
<path d="M62 44.1455L94.0988 70.4768H93.6694L62 44.4937V44.1455Z" fill="white"/>
<path d="M62 43.7974L94.5282 70.4768H94.0988L62 44.1455V43.7974Z" fill="white"/>
<path d="M62 43.4497L94.946 70.4772H94.5282L62 43.7978V43.4497Z" fill="white"/>
<path d="M62 43.1011L95.3754 70.4768H94.946L62 43.4492V43.1011Z" fill="white"/>
<path d="M62 42.7529L95.8047 70.4768H95.3754L62 43.1011V42.7529Z" fill="white"/>
<path d="M62 42.4048L96.2225 70.4768H95.8047L62 42.7529V42.4048Z" fill="white"/>
<path d="M62 42.0566L96.6519 70.4768H96.2225L62 42.4048V42.0566Z" fill="white"/>
<path d="M62 41.709L97.0696 70.4772H96.6519L62 42.0571V41.709Z" fill="white"/>
<path d="M62 41.3604L97.499 70.4767H97.0696L62 41.7085V41.3604Z" fill="white"/>
<path d="M62 41.0122L97.9284 70.4767H97.499L62 41.3603V41.0122Z" fill="white"/>
<path d="M62 40.6641L98.3462 70.4767H97.9284L62 41.0122V40.6641Z" fill="white"/>
<path d="M62 40.3159L98.7756 70.4767H98.3462L62 40.6641V40.3159Z" fill="white"/>
<path d="M62 39.9683L99.2049 70.4772H98.7756L62 40.3164V39.9683Z" fill="white"/>
<path d="M62 39.6084L99.6227 70.4771H99.2049L62 39.9681V39.6084Z" fill="white"/>
<path d="M62 39.2598L100.052 70.4766H99.6227L62 39.6079V39.2598Z" fill="white"/>
<path d="M62 38.9116L100.481 70.4766H100.052L62 39.2598V38.9116Z" fill="white"/>
<path d="M62 38.564L100.899 70.4771H100.481L62 38.9121V38.564Z" fill="white"/>
<path d="M62 38.2153L101.329 70.4766H100.899L62 38.5635V38.2153Z" fill="white"/>
<path d="M62 37.8677L101.746 70.4771H101.329L62 38.2158V37.8677Z" fill="white"/>
<path d="M62 37.519L102.176 70.4766H101.746L62 37.8672V37.519Z" fill="white"/>
<path d="M62 37.1709L102.605 70.4766H102.176L62 37.519V37.1709Z" fill="white"/>
<path d="M62 36.8232L103.023 70.4771H102.605L62 37.1714V36.8232Z" fill="white"/>
<path d="M62 35.9297L104.114 70.4771H103.023L62 36.8233V35.9297Z" fill="white"/>
<path d="M62 35.0361L105.205 70.4771H104.114L62 35.9297V35.0361Z" fill="white"/>
<path d="M62 34.1426L106.295 70.4771H105.205L62 35.0361V34.1426Z" fill="white"/>
<path d="M62 33.249L107.386 70.4772H106.295L62 34.1426V33.249Z" fill="white"/>
<path d="M62 32.3555L108.477 70.4772H107.386L62 33.249V32.3555Z" fill="white"/>
<path d="M62 31.4614L109.568 70.4767H108.477L62 32.355V31.4614Z" fill="white"/>
<path d="M62 30.5679L110.659 70.4767H109.568L62 31.4614V30.5679Z" fill="white"/>
<path d="M62 29.6743L111.75 70.4767H110.659L62 30.5679V29.6743Z" fill="white"/>
<path d="M62 28.7808L112.829 70.4767H111.75L62 29.6743V28.7808Z" fill="white"/>
<path d="M62 27.8872L113.92 70.4768H112.829L62 28.7808V27.8872Z" fill="white"/>
<path d="M62 26.9937L115.011 70.4768H113.92L62 27.8872V26.9937Z" fill="white"/>
<path d="M62 26.1001L116.101 70.4768H115.011L62 26.9937V26.1001Z" fill="white"/>
<path d="M62 25.2065L117.192 70.4768H116.101L62 26.1001V25.2065Z" fill="white"/>
<path d="M62 24.313L118.283 70.4768H117.192L62 25.2066V24.313Z" fill="white"/>
<path d="M62 23.4194L119.374 70.4768H118.283L62 24.313V23.4194Z" fill="white"/>
<path d="M62 22.5259L120.465 70.4768H119.374L62 23.4194V22.5259Z" fill="white"/>
<path d="M62 21.6323L121.556 70.4768H120.465L62 22.5259V21.6323Z" fill="white"/>
<path d="M62 20.7388L122.647 70.4769H121.556L62 21.6323V20.7388Z" fill="white"/>
<path d="M62 19.8452L123.726 70.4769H122.647L62 20.7388V19.8452Z" fill="white"/>
<path d="M62 19.5433L62.2901 19.1836L124.817 70.4767H123.726L62 19.8451V19.5433Z" fill="white"/>
<path d="M62.291 19.1837L62.732 18.6499L125.908 70.4769H124.818L62.291 19.1837Z" fill="white"/>
<path d="M62.7324 18.65L63.1734 18.1162L127 70.477H125.909L62.7324 18.65Z" fill="white"/>
<path d="M63.1719 18.116L63.2647 18H64.1119L128.089 70.4768H126.998L63.1719 18.116Z" fill="white"/>
<path d="M65.2041 18L129.181 70.4768H128.09L64.1133 18H65.2041Z" fill="white"/>
<path d="M66.294 18L130.271 70.4768H129.18L65.2031 18H66.294Z" fill="white"/>
<path d="M67.3838 18L131.361 70.4768H130.27L66.293 18H67.3838Z" fill="white"/>
<path d="M68.4756 18L132.453 70.4768H131.362L67.3848 18H68.4756Z" fill="white"/>
<path d="M69.5655 18L133.543 70.4768H132.452L68.4746 18H69.5655Z" fill="white"/>
<path d="M70.6573 18L134.623 70.4768H133.544L69.5664 18H70.6573Z" fill="white"/>
<path d="M71.7374 18L135.715 70.4768H134.624L70.6582 18H71.7374Z" fill="white"/>
<path d="M72.8272 18L136.804 70.4768H135.713L71.7363 18H72.8272Z" fill="white"/>
<path d="M73.919 18L137.896 70.4768H136.805L72.8281 18H73.919Z" fill="white"/>
<path d="M75.0088 18L138.986 70.4768H137.895L73.918 18H75.0088Z" fill="white"/>
<path d="M76.1006 18L140.078 70.4768H138.987L75.0098 18H76.1006Z" fill="white"/>
<path d="M77.1905 18L141.168 70.4768H140.077L76.0996 18H77.1905Z" fill="white"/>
<path d="M78.2823 18L142.259 70.4768H141.169L77.1914 18H78.2823Z" fill="white"/>
<path d="M79.3721 18L143.338 70.4768H142.258L78.2812 18H79.3721Z" fill="white"/>
<path d="M80.4639 18L144.429 70.4768H143.339L79.373 18H80.4639Z" fill="white"/>
<path d="M81.5421 18L145.519 70.4768H144.428L80.4629 18H81.5421Z" fill="white"/>
<path d="M82.6338 18L146.332 70.2447L146.135 70.4768H145.52L81.543 18H82.6338Z" fill="white"/>
<path d="M83.7237 18L146.772 69.7109L146.331 70.2447L82.6328 18H83.7237Z" fill="white"/>
<path d="M84.8155 18L147.203 69.1771L146.773 69.7109L83.7246 18H84.8155Z" fill="white"/>
<path d="M85.9053 18L147.643 68.6433L147.202 69.1771L84.8145 18H85.9053Z" fill="white"/>
<path d="M86.9971 18L148.085 68.1094L147.644 68.6433L85.9062 18H86.9971Z" fill="white"/>
<path d="M88.0869 18L148.525 67.5756L148.084 68.1094L86.9961 18H88.0869Z" fill="white"/>
<path d="M89.1787 18L148.955 67.0418L148.526 67.5756L88.0879 18H89.1787Z" fill="white"/>
<path d="M90.2686 18L149.395 66.508L148.954 67.0418L89.1777 18H90.2686Z" fill="white"/>
<path d="M91.3584 18L149.835 65.9742L149.394 66.508L90.2676 18H91.3584Z" fill="white"/>
<path d="M92.4406 18L150.279 65.4403L149.838 65.9742L91.3613 18H92.4406Z" fill="white"/>
<path d="M93.5303 18L150.707 64.8949L150.278 65.4403L92.4395 18H93.5303Z" fill="white"/>
<path d="M94.6201 18L151.147 64.3611L150.706 64.8949L93.5293 18H94.6201Z" fill="white"/>
<path d="M95.7119 18L151.589 63.8273L151.148 64.3611L94.6211 18H95.7119Z" fill="white"/>
<path d="M96.8037 18L152.031 63.2935L151.59 63.8273L95.7129 18H96.8037Z" fill="white"/>
<path d="M97.8936 18L152.459 62.7596L152.03 63.2935L96.8027 18H97.8936Z" fill="white"/>
<path d="M98.9834 18L152.899 62.2258L152.458 62.7596L97.8926 18H98.9834Z" fill="white"/>
<path d="M100.075 18L153.341 61.692L152.9 62.2258L98.9844 18H100.075Z" fill="white"/>
<path d="M101.167 18L153.783 61.1582L153.342 61.692L100.076 18H101.167Z" fill="white"/>
<path d="M102.257 18L154.223 60.6244L153.782 61.1582L101.166 18H102.257Z" fill="white"/>
<path d="M103.335 18L154.651 60.0905L154.222 60.6244L102.256 18H103.335Z" fill="white"/>
<path d="M104.427 18L155.093 59.5567L154.652 60.0905L103.336 18H104.427Z" fill="white"/>
<path d="M105.519 18L155.535 59.0229L155.094 59.5567L104.428 18H105.519Z" fill="white"/>
<path d="M106.608 18L155.975 58.4891L155.534 59.0229L105.518 18H106.608Z" fill="white"/>
<path d="M107.698 18L156.404 57.9553L155.974 58.4891L106.607 18H107.698Z" fill="white"/>
<path d="M108.792 18L156.847 57.4214L156.406 57.9553L107.701 18H108.792Z" fill="white"/>
<path d="M109.882 18L157.287 56.8876L156.846 57.4214L108.791 18H109.882Z" fill="white"/>
<path d="M110.972 18L157.727 56.3538L157.286 56.8876L109.881 18H110.972Z" fill="white"/>
<path d="M112.05 18L158.156 55.82L157.726 56.3538L110.971 18H112.05Z" fill="white"/>
<path d="M113.144 18L158.6 55.2862L158.159 55.82L112.053 18H113.144Z" fill="white"/>
<path d="M114.233 18L159.039 54.7523L158.599 55.2862L113.143 18H114.233Z" fill="white"/>
<path d="M115.323 18L159.479 54.2185L159.038 54.7523L114.232 18H115.323Z" fill="white"/>
<path d="M116.413 18L159.919 53.6847L159.478 54.2185L115.322 18H116.413Z" fill="white"/>
<path d="M117.507 18L160.352 53.1509L159.922 53.6847L116.416 18H117.507Z" fill="white"/>
<path d="M118.597 18L160.792 52.6055L160.351 53.1509L117.506 18H118.597Z" fill="white"/>
<path d="M119.687 18L161.232 52.0716L160.791 52.6055L118.596 18H119.687Z" fill="white"/>
<path d="M120.778 18L161.674 51.5378L161.233 52.0716L119.688 18H120.778Z" fill="white"/>
<path d="M121.87 18L162.104 51.004L161.675 51.5378L120.779 18H121.87Z" fill="white"/>
<path d="M122.948 18L162.544 50.4702L162.103 51.004L121.869 18H122.948Z" fill="white"/>
<path d="M124.038 18L162.961 49.9248V49.9712L162.543 50.4702L122.947 18H124.038Z" fill="white"/>
<path d="M125.132 18L162.963 49.0312V49.9248L124.041 18H125.132Z" fill="white"/>
<path d="M126.222 18L162.962 48.1376V49.0312L125.131 18H126.222Z" fill="white"/>
<path d="M127.312 18L162.961 47.244V48.1376L126.221 18H127.312Z" fill="white"/>
<path d="M128.401 18L162.96 46.3505V47.244L127.311 18H128.401Z" fill="white"/>
<path d="M129.495 18L162.963 45.4569V46.3505L128.404 18H129.495Z" fill="white"/>
<path d="M130.585 18L162.962 44.5633V45.4569L129.494 18H130.585Z" fill="white"/>
<path d="M131.675 18L162.961 43.6698V44.5633L130.584 18H131.675Z" fill="white"/>
<path d="M132.765 18L162.96 42.7762V43.6698L131.674 18H132.765Z" fill="white"/>
<path d="M133.845 18L162.961 41.8826V42.7762L132.766 18H133.845Z" fill="white"/>
<path d="M134.937 18L162.962 40.9891V41.8826L133.846 18H134.937Z" fill="white"/>
<path d="M136.026 18L162.961 40.0955V40.9891L134.936 18H136.026Z" fill="white"/>
<path d="M162.96 40.0955L136.025 18H162.96V40.0955Z" fill="white"/>
</g>
<path d="M161.987 42.5907H146.355C146.294 42.5907 146.235 42.5662 146.191 42.5227C146.147 42.4792 146.123 42.4201 146.123 42.3586C146.123 42.297 146.147 42.238 146.191 42.1944C146.235 42.1509 146.294 42.1265 146.355 42.1265H161.987C162.017 42.1265 162.047 42.1325 162.076 42.1441C162.104 42.1558 162.129 42.1729 162.151 42.1944C162.172 42.216 162.19 42.2416 162.201 42.2697C162.213 42.2979 162.219 42.3281 162.219 42.3586C162.219 42.389 162.213 42.4192 162.201 42.4474C162.19 42.4755 162.172 42.5011 162.151 42.5227C162.129 42.5442 162.104 42.5613 162.076 42.573C162.047 42.5847 162.017 42.5907 161.987 42.5907Z" fill="url(#paint0_linear_1850_4944)"/>
<path d="M125.953 68.5504C122.499 68.5524 119.079 67.8682 115.891 66.5374C112.704 65.2066 109.813 63.2559 107.385 60.7984C104.978 58.4221 103.101 55.5624 101.879 52.408C100.657 49.2535 100.117 45.8759 100.295 42.4976C100.558 39.3423 101.445 36.2705 102.903 33.4599C104.361 30.6493 106.362 28.1557 108.79 26.1233C113.93 21.7047 120.592 19.4686 127.357 19.8915C127.498 19.9034 127.628 19.9692 127.721 20.0753C127.814 20.1813 127.863 20.3192 127.856 20.4602C127.844 20.6007 127.779 20.7312 127.673 20.8243C127.567 20.9173 127.429 20.9657 127.288 20.9592C114.058 20.1584 102.175 30.0689 101.339 42.6137C101.181 45.8431 101.707 49.0696 102.883 52.0815C104.059 55.0934 105.858 57.8227 108.163 60.0905C110.652 62.5984 113.645 64.5499 116.943 65.8162C120.242 67.0824 123.772 67.6346 127.299 67.4363C127.442 67.4299 127.582 67.4799 127.688 67.5754C127.794 67.6709 127.859 67.8043 127.868 67.9469C127.871 68.017 127.86 68.0871 127.836 68.153C127.812 68.219 127.776 68.2796 127.728 68.3313C127.681 68.3831 127.624 68.4249 127.56 68.4546C127.496 68.4842 127.427 68.501 127.357 68.504C126.893 68.5388 126.429 68.5504 125.953 68.5504Z" fill="url(#paint1_linear_1850_4944)"/>
<path d="M129.018 69.3976C128.984 69.4053 128.949 69.4053 128.915 69.3976C128.881 69.3898 128.849 69.3745 128.822 69.3527C128.794 69.331 128.772 69.3034 128.757 69.272C128.742 69.2406 128.734 69.2062 128.734 69.1713C128.734 69.1364 128.742 69.102 128.757 69.0706C128.772 69.0392 128.794 69.0116 128.822 68.9899C128.849 68.9681 128.881 68.9528 128.915 68.945C128.949 68.9373 128.984 68.9373 129.018 68.945C132.316 69.0164 135.595 68.4285 138.663 67.2157C141.731 66.003 144.525 64.1898 146.883 61.8826C149.241 59.5754 151.114 56.8206 152.393 53.7798C153.672 50.7389 154.33 47.4734 154.33 44.1746C154.33 40.8758 153.672 37.6102 152.393 34.5694C151.114 31.5286 149.241 28.7738 146.883 26.4666C144.525 24.1594 141.731 22.3462 138.663 21.1335C135.595 19.9207 132.316 19.3328 129.018 19.4042C128.956 19.4042 128.897 19.3797 128.854 19.3362C128.81 19.2927 128.786 19.2337 128.786 19.1721C128.786 19.1421 128.792 19.1125 128.804 19.0849C128.816 19.0574 128.833 19.0326 128.855 19.0119C128.876 18.9913 128.902 18.9753 128.93 18.9649C128.958 18.9546 128.988 18.95 129.018 18.9516C132.376 18.8796 135.714 19.4787 138.838 20.7139C141.961 21.9492 144.806 23.7956 147.206 26.1449C149.606 28.4942 151.513 31.2991 152.815 34.3951C154.117 37.4911 154.788 40.816 154.788 44.1746C154.788 47.5332 154.117 50.858 152.815 53.9541C151.513 57.0501 149.606 59.855 147.206 62.2043C144.806 64.5536 141.961 66.4 138.838 67.6352C135.714 68.8705 132.376 69.4696 129.018 69.3976Z" fill="url(#paint2_linear_1850_4944)"/>
<path d="M68.6904 82.145V83.3062H66.8916V88.6909H65.5449V83.3062H63.7109V82.145H68.6904Z" fill="white" stroke="white" stroke-width="0.5"/>
<path d="M83.5918 82.145V88.6909H82.3145V82.145H83.5918Z" fill="white" stroke="white" stroke-width="0.5"/>
<path d="M99.6465 82.0996C100.243 82.0429 100.839 82.181 101.346 82.4912L101.56 82.6357L101.57 82.6445L101.581 82.6543C101.764 82.8271 101.908 83.0367 102.004 83.2695C102.098 83.4988 102.141 83.7456 102.134 83.9932H102.136C102.141 84.3978 102.012 84.7927 101.769 85.1162C101.628 85.3037 101.452 85.4601 101.254 85.5801C101.358 85.6692 101.453 85.7706 101.534 85.8828C101.71 86.1264 101.82 86.4114 101.853 86.71L101.941 87.1221C102.039 87.532 102.16 87.9362 102.306 88.332L102.429 88.668H101.099L101.037 88.5078C100.85 88.0257 100.71 87.5266 100.619 87.0176C100.536 86.617 100.424 86.3842 100.29 86.25C100.166 86.1256 99.991 86.0566 99.7031 86.0566H99.2109V88.6914H97.9346L97.9336 88.4424L97.9102 82.4775L97.9092 82.2676L98.1162 82.2305C98.6212 82.1398 99.1334 82.0965 99.6465 82.0996ZM99.5273 83.1553C99.4136 83.1588 99.3001 83.1686 99.1875 83.1846V84.9766H99.7383C100.113 84.9766 100.393 84.8749 100.575 84.7207C100.752 84.5703 100.857 84.3523 100.857 84.0664C100.857 83.7854 100.748 83.5661 100.562 83.4131C100.371 83.2564 100.083 83.1553 99.7148 83.1553H99.5273Z" fill="white" stroke="white" stroke-width="0.5"/>
<path d="M117.477 82.145V88.6909H116.199V82.145H117.477Z" fill="white" stroke="white" stroke-width="0.5"/>
<path d="M136.079 82.145V83.3062H134.199V88.6909H132.908L132.91 88.4399L132.943 83.3062H131.111V82.145H136.079Z" fill="white" stroke="white" stroke-width="0.5"/>
<path d="M152.116 82.145L152.174 82.314L154.239 88.3599L154.353 88.6909H152.988L152.931 88.522L152.339 86.7876H150.563L149.993 88.519L149.937 88.6909H148.595L148.707 88.3608L150.761 82.3149L150.818 82.145H152.116ZM151.386 84.1548L151.385 84.1577L150.898 85.5972L152.014 85.6538L151.539 84.23C151.505 84.1348 151.474 84.0418 151.445 83.9497C151.425 84.0178 151.408 84.0872 151.386 84.1548Z" fill="white" stroke="white" stroke-width="0.5"/>
<defs>
<linearGradient id="paint0_linear_1850_4944" x1="146.123" y1="42.3586" x2="162.219" y2="42.3586" gradientUnits="userSpaceOnUse">
<stop stop-color="#24A4DD"/>
<stop offset="0.38" stop-color="#2E99CD"/>
<stop offset="1" stop-color="#357DA3"/>
</linearGradient>
<linearGradient id="paint1_linear_1850_4944" x1="100.237" y1="44.1687" x2="127.868" y2="44.1687" gradientUnits="userSpaceOnUse">
<stop stop-color="#24A4DD"/>
<stop offset="0.38" stop-color="#2E99CD"/>
<stop offset="1" stop-color="#357DA3"/>
</linearGradient>
<linearGradient id="paint2_linear_1850_4944" x1="128.786" y1="44.1688" x2="154.247" y2="44.1688" gradientUnits="userSpaceOnUse">
<stop stop-color="#24A4DD"/>
<stop offset="0.38" stop-color="#2E99CD"/>
<stop offset="1" stop-color="#357DA3"/>
</linearGradient>
</defs>
</svg>
